solid bowden_Default_sldprt
   facet normal 2.829130e-002 0.000000e+000 9.995998e-001
      outer loop
         vertex -1.778143e-002 8.000000e-002 4.981988e-003
         vertex -1.820546e-002 8.000000e-002 5.000000e-003
         vertex -1.820546e-002 0.000000e+000 5.000000e-003
      endloop
   endfacet
   facet normal -2.829130e-002 0.000000e+000 9.995998e-001
      outer loop
         vertex -1.820546e-002 0.000000e+000 5.000000e-003
         vertex -1.820546e-002 8.000000e-002 5.000000e-003
         vertex -1.862949e-002 0.000000e+000 4.981988e-003
      endloop
   endfacet
   facet normal -5.658260e-002 0.000000e+000 9.983979e-001
      outer loop
         vertex -1.820546e-002 8.000000e-002 5.000000e-003
         vertex -1.862949e-002 8.000000e-002 4.981988e-003
         vertex -1.862949e-002 0.000000e+000 4.981988e-003
      endloop
   endfacet
   facet normal -1.409813e-001 0.000000e+000 9.900123e-001
      outer loop
         vertex -1.862949e-002 0.000000e+000 4.981988e-003
         vertex -1.862949e-002 8.000000e-002 4.981988e-003
         vertex -1.946535e-002 8.000000e-002 4.838665e-003
      endloop
   endfacet
   facet normal -1.968844e-001 0.000000e+000 9.804267e-001
      outer loop
         vertex -1.862949e-002 0.000000e+000 4.981988e-003
         vertex -1.946535e-002 8.000000e-002 4.838665e-003
         vertex -1.946535e-002 0.000000e+000 4.838665e-003
      endloop
   endfacet
   facet normal -3.062663e-001 0.000000e+000 9.519458e-001
      outer loop
         vertex -1.946535e-002 0.000000e+000 4.838665e-003
         vertex -1.946535e-002 8.000000e-002 4.838665e-003
         vertex -2.026496e-002 8.000000e-002 4.556142e-003
      endloop
   endfacet
   facet normal -3.597453e-001 0.000000e+000 9.330506e-001
      outer loop
         vertex -1.946535e-002 0.000000e+000 4.838665e-003
         vertex -2.026496e-002 8.000000e-002 4.556142e-003
         vertex -2.026496e-002 0.000000e+000 4.556142e-003
      endloop
   endfacet
   facet normal -4.627406e-001 0.000000e+000 8.864937e-001
      outer loop
         vertex -2.026496e-002 0.000000e+000 4.556142e-003
         vertex -2.026496e-002 8.000000e-002 4.556142e-003
         vertex -2.100533e-002 8.000000e-002 4.142548e-003
      endloop
   endfacet
   facet normal -5.122570e-001 0.000000e+000 8.588322e-001
      outer loop
         vertex -2.026496e-002 0.000000e+000 4.556142e-003
         vertex -2.100533e-002 8.000000e-002 4.142548e-003
         vertex -2.100533e-002 0.000000e+000 4.142548e-003
      endloop
   endfacet
   facet normal -6.059027e-001 0.000000e+000 7.955388e-001
      outer loop
         vertex -2.100533e-002 0.000000e+000 4.142548e-003
         vertex -2.100533e-002 8.000000e-002 4.142548e-003
         vertex -2.166515e-002 8.000000e-002 3.609780e-003
      endloop
   endfacet
   facet normal -6.500320e-001 0.000000e+000 7.599069e-001
      outer loop
         vertex -2.100533e-002 0.000000e+000 4.142548e-003
         vertex -2.166515e-002 8.000000e-002 3.609780e-003
         vertex -2.166515e-002 0.000000e+000 3.609780e-003
      endloop
   endfacet
   facet normal -7.316340e-001 0.000000e+000 6.816977e-001
      outer loop
         vertex -2.166515e-002 0.000000e+000 3.609780e-003
         vertex -2.166515e-002 8.000000e-002 3.609780e-003
         vertex -2.222544e-002 8.000000e-002 2.973166e-003
      endloop
   endfacet
   facet normal -7.691067e-001 0.000000e+000 6.391203e-001
      outer loop
         vertex -2.166515e-002 0.000000e+000 3.609780e-003
         vertex -2.222544e-002 8.000000e-002 2.973166e-003
         vertex -2.222544e-002 0.000000e+000 2.973166e-003
      endloop
   endfacet
   facet normal -8.363176e-001 0.000000e+000 5.482453e-001
      outer loop
         vertex -2.222544e-002 0.000000e+000 2.973166e-003
         vertex -2.222544e-002 8.000000e-002 2.973166e-003
         vertex -2.267009e-002 8.000000e-002 2.251019e-003
      endloop
   endfacet
   facet normal -8.660557e-001 0.000000e+000 4.999475e-001
      outer loop
         vertex -2.222544e-002 0.000000e+000 2.973166e-003
         vertex -2.267009e-002 8.000000e-002 2.251019e-003
         vertex -2.267009e-002 0.000000e+000 2.251019e-003
      endloop
   endfacet
   facet normal -9.169418e-001 0.000000e+000 3.990209e-001
      outer loop
         vertex -2.267009e-002 0.000000e+000 2.251019e-003
         vertex -2.267009e-002 8.000000e-002 2.251019e-003
         vertex -2.298629e-002 8.000000e-002 1.464114e-003
      endloop
   endfacet
   facet normal -9.380898e-001 0.000000e+000 3.463921e-001
      outer loop
         vertex -2.267009e-002 0.000000e+000 2.251019e-003
         vertex -2.298629e-002 8.000000e-002 1.464114e-003
         vertex -2.298629e-002 0.000000e+000 1.464114e-003
      endloop
   endfacet
   facet normal -9.711873e-001 0.000000e+000 2.383175e-001
      outer loop
         vertex -2.298629e-002 0.000000e+000 1.464114e-003
         vertex -2.298629e-002 8.000000e-002 1.464114e-003
         vertex -2.316496e-002 8.000000e-002 6.350891e-004
      endloop
   endfacet
   facet normal -9.831368e-001 0.000000e+000 1.828716e-001
      outer loop
         vertex -2.298629e-002 0.000000e+000 1.464114e-003
         vertex -2.316496e-002 8.000000e-002 6.350891e-004
         vertex -2.316496e-002 0.000000e+000 6.350891e-004
      endloop
   endfacet
   facet normal -9.974935e-001 0.000000e+000 7.075802e-002
      outer loop
         vertex -2.316496e-002 0.000000e+000 6.350891e-004
         vertex -2.316496e-002 8.000000e-002 6.350891e-004
         vertex -2.320095e-002 8.000000e-002 -2.122060e-004
      endloop
   endfacet
   facet normal -9.999007e-001 0.000000e+000 1.409025e-002
      outer loop
         vertex -2.316496e-002 0.000000e+000 6.350891e-004
         vertex -2.320095e-002 8.000000e-002 -2.122060e-004
         vertex -2.320095e-002 0.000000e+000 -2.122060e-004
      endloop
   endfacet
   facet normal -9.951036e-001 0.000000e+000 -9.883699e-002
      outer loop
         vertex -2.320095e-002 0.000000e+000 -2.122060e-004
         vertex -2.320095e-002 8.000000e-002 -2.122060e-004
         vertex -2.309323e-002 8.000000e-002 -1.053396e-003
      endloop
   endfacet
   facet normal -9.878993e-001 0.000000e+000 -1.550965e-001
      outer loop
         vertex -2.320095e-002 0.000000e+000 -2.122060e-004
         vertex -2.309323e-002 8.000000e-002 -1.053396e-003
         vertex -2.309323e-002 0.000000e+000 -1.053396e-003
      endloop
   endfacet
   facet normal -9.640865e-001 0.000000e+000 -2.655886e-001
      outer loop
         vertex -2.309323e-002 0.000000e+000 -1.053396e-003
         vertex -2.309323e-002 8.000000e-002 -1.053396e-003
         vertex -2.284490e-002 8.000000e-002 -1.864282e-003
      endloop
   endfacet
   facet normal -9.474779e-001 0.000000e+000 -3.198213e-001
      outer loop
         vertex -2.309323e-002 0.000000e+000 -1.053396e-003
         vertex -2.284490e-002 8.000000e-002 -1.864282e-003
         vertex -2.284490e-002 0.000000e+000 -1.864282e-003
      endloop
   endfacet
   facet normal -9.053342e-001 0.000000e+000 -4.246998e-001
      outer loop
         vertex -2.284490e-002 0.000000e+000 -1.864282e-003
         vertex -2.284490e-002 8.000000e-002 -1.864282e-003
         vertex -2.246310e-002 8.000000e-002 -2.621536e-003
      endloop
   endfacet
   facet normal -8.797992e-001 0.000000e+000 -4.753455e-001
      outer loop
         vertex -2.284490e-002 0.000000e+000 -1.864282e-003
         vertex -2.246310e-002 8.000000e-002 -2.621536e-003
         vertex -2.246310e-002 0.000000e+000 -2.621536e-003
      endloop
   endfacet
   facet normal -8.205372e-001 0.000000e+000 -5.715931e-001
      outer loop
         vertex -2.246310e-002 0.000000e+000 -2.621536e-003
         vertex -2.246310e-002 8.000000e-002 -2.621536e-003
         vertex -2.195882e-002 8.000000e-002 -3.303374e-003
      endloop
   endfacet
   facet normal -7.868103e-001 0.000000e+000 -6.171949e-001
      outer loop
         vertex -2.246310e-002 0.000000e+000 -2.621536e-003
         vertex -2.195882e-002 8.000000e-002 -3.303374e-003
         vertex -2.195882e-002 0.000000e+000 -3.303374e-003
      endloop
   endfacet
   facet normal -7.121348e-001 0.000000e+000 -7.020428e-001
      outer loop
         vertex -2.195882e-002 0.000000e+000 -3.303374e-003
         vertex -2.195882e-002 8.000000e-002 -3.303374e-003
         vertex -2.134656e-002 8.000000e-002 -3.890179e-003
      endloop
   endfacet
   facet normal -6.711863e-001 0.000000e+000 -7.412888e-001
      outer loop
         vertex -2.195882e-002 0.000000e+000 -3.303374e-003
         vertex -2.134656e-002 8.000000e-002 -3.890179e-003
         vertex -2.134656e-002 0.000000e+000 -3.890179e-003
      endloop
   endfacet
   facet normal -5.832456e-001 0.000000e+000 -8.122959e-001
      outer loop
         vertex -2.134656e-002 0.000000e+000 -3.890179e-003
         vertex -2.134656e-002 8.000000e-002 -3.890179e-003
         vertex -2.064393e-002 8.000000e-002 -4.365071e-003
      endloop
   endfacet
   facet normal -5.362535e-001 0.000000e+000 -8.440570e-001
      outer loop
         vertex -2.134656e-002 0.000000e+000 -3.890179e-003
         vertex -2.064393e-002 8.000000e-002 -4.365071e-003
         vertex -2.064393e-002 0.000000e+000 -4.365071e-003
      endloop
   endfacet
   facet normal -4.375775e-001 0.000000e+000 -8.991807e-001
      outer loop
         vertex -2.064393e-002 0.000000e+000 -4.365071e-003
         vertex -2.064393e-002 8.000000e-002 -4.365071e-003
         vertex -1.987116e-002 8.000000e-002 -4.714387e-003
      endloop
   endfacet
   facet normal -3.858936e-001 0.000000e+000 -9.225433e-001
      outer loop
         vertex -2.064393e-002 0.000000e+000 -4.365071e-003
         vertex -1.987116e-002 8.000000e-002 -4.714387e-003
         vertex -1.987116e-002 0.000000e+000 -4.714387e-003
      endloop
   endfacet
   facet normal -2.793211e-001 0.000000e+000 -9.601977e-001
      outer loop
         vertex -1.987116e-002 0.000000e+000 -4.714387e-003
         vertex -1.987116e-002 8.000000e-002 -4.714387e-003
         vertex -1.905046e-002 8.000000e-002 -4.928079e-003
      endloop
   endfacet
   facet normal -2.244324e-001 0.000000e+000 -9.744897e-001
      outer loop
         vertex -1.987116e-002 0.000000e+000 -4.714387e-003
         vertex -1.905046e-002 8.000000e-002 -4.928079e-003
         vertex -1.905046e-002 0.000000e+000 -4.928079e-003
      endloop
   endfacet
   facet normal -1.130291e-001 0.000000e+000 -9.935917e-001
      outer loop
         vertex -1.905046e-002 0.000000e+000 -4.928079e-003
         vertex -1.905046e-002 8.000000e-002 -4.928079e-003
         vertex -1.820546e-002 8.000000e-002 -5.000000e-003
      endloop
   endfacet
   facet normal -5.651454e-002 0.000000e+000 -9.984018e-001
      outer loop
         vertex -1.905046e-002 0.000000e+000 -4.928079e-003
         vertex -1.820546e-002 8.000000e-002 -5.000000e-003
         vertex -1.820546e-002 0.000000e+000 -5.000000e-003
      endloop
   endfacet
   facet normal 5.651454e-002 0.000000e+000 -9.984018e-001
      outer loop
         vertex -1.820546e-002 0.000000e+000 -5.000000e-003
         vertex -1.820546e-002 8.000000e-002 -5.000000e-003
         vertex -1.736045e-002 8.000000e-002 -4.928079e-003
      endloop
   endfacet
   facet normal 1.130291e-001 0.000000e+000 -9.935917e-001
      outer loop
         vertex -1.820546e-002 0.000000e+000 -5.000000e-003
         vertex -1.736045e-002 8.000000e-002 -4.928079e-003
         vertex -1.736045e-002 0.000000e+000 -4.928079e-003
      endloop
   endfacet
   facet normal 2.244324e-001 0.000000e+000 -9.744897e-001
      outer loop
         vertex -1.736045e-002 0.000000e+000 -4.928079e-003
         vertex -1.736045e-002 8.000000e-002 -4.928079e-003
         vertex -1.653976e-002 8.000000e-002 -4.714387e-003
      endloop
   endfacet
   facet normal 2.793211e-001 0.000000e+000 -9.601977e-001
      outer loop
         vertex -1.736045e-002 0.000000e+000 -4.928079e-003
         vertex -1.653976e-002 8.000000e-002 -4.714387e-003
         vertex -1.653976e-002 0.000000e+000 -4.714387e-003
      endloop
   endfacet
   facet normal 3.858936e-001 0.000000e+000 -9.225433e-001
      outer loop
         vertex -1.653976e-002 0.000000e+000 -4.714387e-003
         vertex -1.653976e-002 8.000000e-002 -4.714387e-003
         vertex -1.576698e-002 8.000000e-002 -4.365071e-003
      endloop
   endfacet
   facet normal 4.375775e-001 0.000000e+000 -8.991807e-001
      outer loop
         vertex -1.653976e-002 0.000000e+000 -4.714387e-003
         vertex -1.576698e-002 8.000000e-002 -4.365071e-003
         vertex -1.576698e-002 0.000000e+000 -4.365071e-003
      endloop
   endfacet
   facet normal 5.362535e-001 0.000000e+000 -8.440570e-001
      outer loop
         vertex -1.576698e-002 0.000000e+000 -4.365071e-003
         vertex -1.576698e-002 8.000000e-002 -4.365071e-003
         vertex -1.506436e-002 8.000000e-002 -3.890179e-003
      endloop
   endfacet
   facet normal 5.832456e-001 0.000000e+000 -8.122959e-001
      outer loop
         vertex -1.576698e-002 0.000000e+000 -4.365071e-003
         vertex -1.506436e-002 8.000000e-002 -3.890179e-003
         vertex -1.506436e-002 0.000000e+000 -3.890179e-003
      endloop
   endfacet
   facet normal 6.711863e-001 0.000000e+000 -7.412888e-001
      outer loop
         vertex -1.506436e-002 0.000000e+000 -3.890179e-003
         vertex -1.506436e-002 8.000000e-002 -3.890179e-003
         vertex -1.445210e-002 8.000000e-002 -3.303374e-003
      endloop
   endfacet
   facet normal 7.121348e-001 0.000000e+000 -7.020428e-001
      outer loop
         vertex -1.506436e-002 0.000000e+000 -3.890179e-003
         vertex -1.445210e-002 8.000000e-002 -3.303374e-003
         vertex -1.445210e-002 0.000000e+000 -3.303374e-003
      endloop
   endfacet
   facet normal 7.868103e-001 0.000000e+000 -6.171949e-001
      outer loop
         vertex -1.445210e-002 0.000000e+000 -3.303374e-003
         vertex -1.445210e-002 8.000000e-002 -3.303374e-003
         vertex -1.394781e-002 8.000000e-002 -2.621536e-003
      endloop
   endfacet
   facet normal 8.205372e-001 0.000000e+000 -5.715931e-001
      outer loop
         vertex -1.445210e-002 0.000000e+000 -3.303374e-003
         vertex -1.394781e-002 8.000000e-002 -2.621536e-003
         vertex -1.394781e-002 0.000000e+000 -2.621536e-003
      endloop
   endfacet
   facet normal 8.797992e-001 0.000000e+000 -4.753455e-001
      outer loop
         vertex -1.394781e-002 0.000000e+000 -2.621536e-003
         vertex -1.394781e-002 8.000000e-002 -2.621536e-003
         vertex -1.356601e-002 8.000000e-002 -1.864282e-003
      endloop
   endfacet
   facet normal 9.053342e-001 0.000000e+000 -4.246998e-001
      outer loop
         vertex -1.394781e-002 0.000000e+000 -2.621536e-003
         vertex -1.356601e-002 8.000000e-002 -1.864282e-003
         vertex -1.356601e-002 0.000000e+000 -1.864282e-003
      endloop
   endfacet
   facet normal 9.474779e-001 0.000000e+000 -3.198213e-001
      outer loop
         vertex -1.356601e-002 0.000000e+000 -1.864282e-003
         vertex -1.356601e-002 8.000000e-002 -1.864282e-003
         vertex -1.331768e-002 8.000000e-002 -1.053396e-003
      endloop
   endfacet
   facet normal 9.640865e-001 0.000000e+000 -2.655886e-001
      outer loop
         vertex -1.356601e-002 0.000000e+000 -1.864282e-003
         vertex -1.331768e-002 8.000000e-002 -1.053396e-003
         vertex -1.331768e-002 0.000000e+000 -1.053396e-003
      endloop
   endfacet
   facet normal 9.878993e-001 0.000000e+000 -1.550965e-001
      outer loop
         vertex -1.331768e-002 0.000000e+000 -1.053396e-003
         vertex -1.331768e-002 8.000000e-002 -1.053396e-003
         vertex -1.320996e-002 8.000000e-002 -2.122060e-004
      endloop
   endfacet
   facet normal 9.951036e-001 0.000000e+000 -9.883699e-002
      outer loop
         vertex -1.331768e-002 0.000000e+000 -1.053396e-003
         vertex -1.320996e-002 8.000000e-002 -2.122060e-004
         vertex -1.320996e-002 0.000000e+000 -2.122060e-004
      endloop
   endfacet
   facet normal 9.999007e-001 0.000000e+000 1.409025e-002
      outer loop
         vertex -1.320996e-002 0.000000e+000 -2.122060e-004
         vertex -1.320996e-002 8.000000e-002 -2.122060e-004
         vertex -1.324596e-002 8.000000e-002 6.350891e-004
      endloop
   endfacet
   facet normal 9.974935e-001 0.000000e+000 7.075802e-002
      outer loop
         vertex -1.320996e-002 0.000000e+000 -2.122060e-004
         vertex -1.324596e-002 8.000000e-002 6.350891e-004
         vertex -1.324596e-002 0.000000e+000 6.350891e-004
      endloop
   endfacet
   facet normal 9.831368e-001 0.000000e+000 1.828716e-001
      outer loop
         vertex -1.324596e-002 0.000000e+000 6.350891e-004
         vertex -1.324596e-002 8.000000e-002 6.350891e-004
         vertex -1.342462e-002 8.000000e-002 1.464114e-003
      endloop
   endfacet
   facet normal 9.711873e-001 0.000000e+000 2.383175e-001
      outer loop
         vertex -1.324596e-002 0.000000e+000 6.350891e-004
         vertex -1.342462e-002 8.000000e-002 1.464114e-003
         vertex -1.342462e-002 0.000000e+000 1.464114e-003
      endloop
   endfacet
   facet normal 9.380898e-001 0.000000e+000 3.463921e-001
      outer loop
         vertex -1.342462e-002 0.000000e+000 1.464114e-003
         vertex -1.342462e-002 8.000000e-002 1.464114e-003
         vertex -1.374083e-002 8.000000e-002 2.251019e-003
      endloop
   endfacet
   facet normal 9.169418e-001 0.000000e+000 3.990209e-001
      outer loop
         vertex -1.342462e-002 0.000000e+000 1.464114e-003
         vertex -1.374083e-002 8.000000e-002 2.251019e-003
         vertex -1.374083e-002 0.000000e+000 2.251019e-003
      endloop
   endfacet
   facet normal 8.660557e-001 0.000000e+000 4.999475e-001
      outer loop
         vertex -1.374083e-002 0.000000e+000 2.251019e-003
         vertex -1.374083e-002 8.000000e-002 2.251019e-003
         vertex -1.418547e-002 8.000000e-002 2.973166e-003
      endloop
   endfacet
   facet normal 8.363176e-001 0.000000e+000 5.482453e-001
      outer loop
         vertex -1.374083e-002 0.000000e+000 2.251019e-003
         vertex -1.418547e-002 8.000000e-002 2.973166e-003
         vertex -1.418547e-002 0.000000e+000 2.973166e-003
      endloop
   endfacet
   facet normal 7.691067e-001 0.000000e+000 6.391203e-001
      outer loop
         vertex -1.418547e-002 0.000000e+000 2.973166e-003
         vertex -1.418547e-002 8.000000e-002 2.973166e-003
         vertex -1.474576e-002 8.000000e-002 3.609780e-003
      endloop
   endfacet
   facet normal 7.316340e-001 0.000000e+000 6.816977e-001
      outer loop
         vertex -1.418547e-002 0.000000e+000 2.973166e-003
         vertex -1.474576e-002 8.000000e-002 3.609780e-003
         vertex -1.474576e-002 0.000000e+000 3.609780e-003
      endloop
   endfacet
   facet normal 6.500320e-001 0.000000e+000 7.599069e-001
      outer loop
         vertex -1.474576e-002 0.000000e+000 3.609780e-003
         vertex -1.474576e-002 8.000000e-002 3.609780e-003
         vertex -1.540558e-002 8.000000e-002 4.142548e-003
      endloop
   endfacet
   facet normal 6.059027e-001 0.000000e+000 7.955388e-001
      outer loop
         vertex -1.474576e-002 0.000000e+000 3.609780e-003
         vertex -1.540558e-002 8.000000e-002 4.142548e-003
         vertex -1.540558e-002 0.000000e+000 4.142548e-003
      endloop
   endfacet
   facet normal 5.122570e-001 0.000000e+000 8.588322e-001
      outer loop
         vertex -1.540558e-002 0.000000e+000 4.142548e-003
         vertex -1.540558e-002 8.000000e-002 4.142548e-003
         vertex -1.614595e-002 8.000000e-002 4.556142e-003
      endloop
   endfacet
   facet normal 4.627406e-001 0.000000e+000 8.864937e-001
      outer loop
         vertex -1.540558e-002 0.000000e+000 4.142548e-003
         vertex -1.614595e-002 8.000000e-002 4.556142e-003
         vertex -1.614595e-002 0.000000e+000 4.556142e-003
      endloop
   endfacet
   facet normal 3.597453e-001 0.000000e+000 9.330506e-001
      outer loop
         vertex -1.614595e-002 0.000000e+000 4.556142e-003
         vertex -1.614595e-002 8.000000e-002 4.556142e-003
         vertex -1.694557e-002 8.000000e-002 4.838665e-003
      endloop
   endfacet
   facet normal 3.062663e-001 0.000000e+000 9.519458e-001
      outer loop
         vertex -1.614595e-002 0.000000e+000 4.556142e-003
         vertex -1.694557e-002 8.000000e-002 4.838665e-003
         vertex -1.694557e-002 0.000000e+000 4.838665e-003
      endloop
   endfacet
   facet normal 1.968844e-001 0.000000e+000 9.804267e-001
      outer loop
         vertex -1.694557e-002 0.000000e+000 4.838665e-003
         vertex -1.694557e-002 8.000000e-002 4.838665e-003
         vertex -1.778143e-002 8.000000e-002 4.981988e-003
      endloop
   endfacet
   facet normal 1.409813e-001 0.000000e+000 9.900123e-001
      outer loop
         vertex -1.694557e-002 0.000000e+000 4.838665e-003
         vertex -1.778143e-002 8.000000e-002 4.981988e-003
         vertex -1.778143e-002 0.000000e+000 4.981988e-003
      endloop
   endfacet
   facet normal 5.658260e-002 0.000000e+000 9.983979e-001
      outer loop
         vertex -1.778143e-002 0.000000e+000 4.981988e-003
         vertex -1.778143e-002 8.000000e-002 4.981988e-003
         vertex -1.820546e-002 0.000000e+000 5.000000e-003
      endloop
   endfacet
   facet normal 0.000000e+000 1.000000e+000 0.000000e+000
      outer loop
         vertex -1.820546e-002 8.000000e-002 5.000000e-003
         vertex -1.778143e-002 8.000000e-002 4.981988e-003
         vertex -1.820546e-002 8.000000e-002 0.000000e+000
      endloop
   endfacet
   facet normal 0.000000e+000 1.000000e+000 0.000000e+000
      outer loop
         vertex -1.820546e-002 8.000000e-002 5.000000e-003
         vertex -1.820546e-002 8.000000e-002 0.000000e+000
         vertex -1.862949e-002 8.000000e-002 4.981988e-003
      endloop
   endfacet
   facet normal 0.000000e+000 1.000000e+000 0.000000e+000
      outer loop
         vertex -2.100533e-002 8.000000e-002 4.142548e-003
         vertex -2.026496e-002 8.000000e-002 4.556142e-003
         vertex -1.820546e-002 8.000000e-002 0.000000e+000
      endloop
   endfacet
   facet normal 0.000000e+000 1.000000e+000 0.000000e+000
      outer loop
         vertex -1.820546e-002 8.000000e-002 0.000000e+000
         vertex -2.026496e-002 8.000000e-002 4.556142e-003
         vertex -1.946535e-002 8.000000e-002 4.838665e-003
      endloop
   endfacet
   facet normal 0.000000e+000 1.000000e+000 0.000000e+000
      outer loop
         vertex -1.820546e-002 8.000000e-002 0.000000e+000
         vertex -1.946535e-002 8.000000e-002 4.838665e-003
         vertex -1.862949e-002 8.000000e-002 4.981988e-003
      endloop
   endfacet
   facet normal 0.000000e+000 1.000000e+000 0.000000e+000
      outer loop
         vertex -2.267009e-002 8.000000e-002 2.251019e-003
         vertex -2.222544e-002 8.000000e-002 2.973166e-003
         vertex -1.820546e-002 8.000000e-002 0.000000e+000
      endloop
   endfacet
   facet normal 0.000000e+000 1.000000e+000 0.000000e+000
      outer loop
         vertex -1.820546e-002 8.000000e-002 0.000000e+000
         vertex -2.222544e-002 8.000000e-002 2.973166e-003
         vertex -2.166515e-002 8.000000e-002 3.609780e-003
      endloop
   endfacet
   facet normal 0.000000e+000 1.000000e+000 0.000000e+000
      outer loop
         vertex -1.820546e-002 8.000000e-002 0.000000e+000
         vertex -2.166515e-002 8.000000e-002 3.609780e-003
         vertex -2.100533e-002 8.000000e-002 4.142548e-003
      endloop
   endfacet
   facet normal 0.000000e+000 1.000000e+000 0.000000e+000
      outer loop
         vertex -2.320095e-002 8.000000e-002 -2.122060e-004
         vertex -2.316496e-002 8.000000e-002 6.350891e-004
         vertex -1.820546e-002 8.000000e-002 0.000000e+000
      endloop
   endfacet
   facet normal 0.000000e+000 1.000000e+000 0.000000e+000
      outer loop
         vertex -1.820546e-002 8.000000e-002 0.000000e+000
         vertex -2.316496e-002 8.000000e-002 6.350891e-004
         vertex -2.298629e-002 8.000000e-002 1.464114e-003
      endloop
   endfacet
   facet normal 0.000000e+000 1.000000e+000 0.000000e+000
      outer loop
         vertex -1.820546e-002 8.000000e-002 0.000000e+000
         vertex -2.298629e-002 8.000000e-002 1.464114e-003
         vertex -2.267009e-002 8.000000e-002 2.251019e-003
      endloop
   endfacet
   facet normal 0.000000e+000 1.000000e+000 0.000000e+000
      outer loop
         vertex -2.246310e-002 8.000000e-002 -2.621536e-003
         vertex -2.284490e-002 8.000000e-002 -1.864282e-003
         vertex -1.820546e-002 8.000000e-002 0.000000e+000
      endloop
   endfacet
   facet normal 0.000000e+000 1.000000e+000 0.000000e+000
      outer loop
         vertex -1.820546e-002 8.000000e-002 0.000000e+000
         vertex -2.284490e-002 8.000000e-002 -1.864282e-003
         vertex -2.309323e-002 8.000000e-002 -1.053396e-003
      endloop
   endfacet
   facet normal 0.000000e+000 1.000000e+000 0.000000e+000
      outer loop
         vertex -1.820546e-002 8.000000e-002 0.000000e+000
         vertex -2.309323e-002 8.000000e-002 -1.053396e-003
         vertex -2.320095e-002 8.000000e-002 -2.122060e-004
      endloop
   endfacet
   facet normal 0.000000e+000 1.000000e+000 0.000000e+000
      outer loop
         vertex -2.064393e-002 8.000000e-002 -4.365071e-003
         vertex -2.134656e-002 8.000000e-002 -3.890179e-003
         vertex -1.820546e-002 8.000000e-002 0.000000e+000
      endloop
   endfacet
   facet normal 0.000000e+000 1.000000e+000 0.000000e+000
      outer loop
         vertex -1.820546e-002 8.000000e-002 0.000000e+000
         vertex -2.134656e-002 8.000000e-002 -3.890179e-003
         vertex -2.195882e-002 8.000000e-002 -3.303374e-003
      endloop
   endfacet
   facet normal 0.000000e+000 1.000000e+000 0.000000e+000
      outer loop
         vertex -1.820546e-002 8.000000e-002 0.000000e+000
         vertex -2.195882e-002 8.000000e-002 -3.303374e-003
         vertex -2.246310e-002 8.000000e-002 -2.621536e-003
      endloop
   endfacet
   facet normal 0.000000e+000 1.000000e+000 0.000000e+000
      outer loop
         vertex -1.820546e-002 8.000000e-002 -5.000000e-003
         vertex -1.905046e-002 8.000000e-002 -4.928079e-003
         vertex -1.820546e-002 8.000000e-002 0.000000e+000
      endloop
   endfacet
   facet normal 0.000000e+000 1.000000e+000 0.000000e+000
      outer loop
         vertex -1.820546e-002 8.000000e-002 0.000000e+000
         vertex -1.905046e-002 8.000000e-002 -4.928079e-003
         vertex -1.987116e-002 8.000000e-002 -4.714387e-003
      endloop
   endfacet
   facet normal 0.000000e+000 1.000000e+000 0.000000e+000
      outer loop
         vertex -1.820546e-002 8.000000e-002 0.000000e+000
         vertex -1.987116e-002 8.000000e-002 -4.714387e-003
         vertex -2.064393e-002 8.000000e-002 -4.365071e-003
      endloop
   endfacet
   facet normal 0.000000e+000 1.000000e+000 0.000000e+000
      outer loop
         vertex -1.576698e-002 8.000000e-002 -4.365071e-003
         vertex -1.653976e-002 8.000000e-002 -4.714387e-003
         vertex -1.820546e-002 8.000000e-002 0.000000e+000
      endloop
   endfacet
   facet normal 0.000000e+000 1.000000e+000 0.000000e+000
      outer loop
         vertex -1.820546e-002 8.000000e-002 0.000000e+000
         vertex -1.653976e-002 8.000000e-002 -4.714387e-003
         vertex -1.736045e-002 8.000000e-002 -4.928079e-003
      endloop
   endfacet
   facet normal 0.000000e+000 1.000000e+000 0.000000e+000
      outer loop
         vertex -1.820546e-002 8.000000e-002 0.000000e+000
         vertex -1.736045e-002 8.000000e-002 -4.928079e-003
         vertex -1.820546e-002 8.000000e-002 -5.000000e-003
      endloop
   endfacet
   facet normal 0.000000e+000 1.000000e+000 0.000000e+000
      outer loop
         vertex -1.394781e-002 8.000000e-002 -2.621536e-003
         vertex -1.445210e-002 8.000000e-002 -3.303374e-003
         vertex -1.820546e-002 8.000000e-002 0.000000e+000
      endloop
   endfacet
   facet normal 0.000000e+000 1.000000e+000 0.000000e+000
      outer loop
         vertex -1.820546e-002 8.000000e-002 0.000000e+000
         vertex -1.445210e-002 8.000000e-002 -3.303374e-003
         vertex -1.506436e-002 8.000000e-002 -3.890179e-003
      endloop
   endfacet
   facet normal 0.000000e+000 1.000000e+000 0.000000e+000
      outer loop
         vertex -1.820546e-002 8.000000e-002 0.000000e+000
         vertex -1.506436e-002 8.000000e-002 -3.890179e-003
         vertex -1.576698e-002 8.000000e-002 -4.365071e-003
      endloop
   endfacet
   facet normal 0.000000e+000 1.000000e+000 0.000000e+000
      outer loop
         vertex -1.320996e-002 8.000000e-002 -2.122060e-004
         vertex -1.331768e-002 8.000000e-002 -1.053396e-003
         vertex -1.820546e-002 8.000000e-002 0.000000e+000
      endloop
   endfacet
   facet normal 0.000000e+000 1.000000e+000 0.000000e+000
      outer loop
         vertex -1.820546e-002 8.000000e-002 0.000000e+000
         vertex -1.331768e-002 8.000000e-002 -1.053396e-003
         vertex -1.356601e-002 8.000000e-002 -1.864282e-003
      endloop
   endfacet
   facet normal 0.000000e+000 1.000000e+000 0.000000e+000
      outer loop
         vertex -1.820546e-002 8.000000e-002 0.000000e+000
         vertex -1.356601e-002 8.000000e-002 -1.864282e-003
         vertex -1.394781e-002 8.000000e-002 -2.621536e-003
      endloop
   endfacet
   facet normal 0.000000e+000 1.000000e+000 0.000000e+000
      outer loop
         vertex -1.374083e-002 8.000000e-002 2.251019e-003
         vertex -1.342462e-002 8.000000e-002 1.464114e-003
         vertex -1.820546e-002 8.000000e-002 0.000000e+000
      endloop
   endfacet
   facet normal 0.000000e+000 1.000000e+000 0.000000e+000
      outer loop
         vertex -1.820546e-002 8.000000e-002 0.000000e+000
         vertex -1.342462e-002 8.000000e-002 1.464114e-003
         vertex -1.324596e-002 8.000000e-002 6.350891e-004
      endloop
   endfacet
   facet normal 0.000000e+000 1.000000e+000 0.000000e+000
      outer loop
         vertex -1.820546e-002 8.000000e-002 0.000000e+000
         vertex -1.324596e-002 8.000000e-002 6.350891e-004
         vertex -1.320996e-002 8.000000e-002 -2.122060e-004
      endloop
   endfacet
   facet normal 0.000000e+000 1.000000e+000 0.000000e+000
      outer loop
         vertex -1.540558e-002 8.000000e-002 4.142548e-003
         vertex -1.474576e-002 8.000000e-002 3.609780e-003
         vertex -1.820546e-002 8.000000e-002 0.000000e+000
      endloop
   endfacet
   facet normal 0.000000e+000 1.000000e+000 0.000000e+000
      outer loop
         vertex -1.820546e-002 8.000000e-002 0.000000e+000
         vertex -1.474576e-002 8.000000e-002 3.609780e-003
         vertex -1.418547e-002 8.000000e-002 2.973166e-003
      endloop
   endfacet
   facet normal 0.000000e+000 1.000000e+000 0.000000e+000
      outer loop
         vertex -1.820546e-002 8.000000e-002 0.000000e+000
         vertex -1.418547e-002 8.000000e-002 2.973166e-003
         vertex -1.374083e-002 8.000000e-002 2.251019e-003
      endloop
   endfacet
   facet normal 0.000000e+000 1.000000e+000 0.000000e+000
      outer loop
         vertex -1.778143e-002 8.000000e-002 4.981988e-003
         vertex -1.694557e-002 8.000000e-002 4.838665e-003
         vertex -1.820546e-002 8.000000e-002 0.000000e+000
      endloop
   endfacet
   facet normal 0.000000e+000 1.000000e+000 0.000000e+000
      outer loop
         vertex -1.820546e-002 8.000000e-002 0.000000e+000
         vertex -1.694557e-002 8.000000e-002 4.838665e-003
         vertex -1.614595e-002 8.000000e-002 4.556142e-003
      endloop
   endfacet
   facet normal 0.000000e+000 1.000000e+000 0.000000e+000
      outer loop
         vertex -1.820546e-002 8.000000e-002 0.000000e+000
         vertex -1.614595e-002 8.000000e-002 4.556142e-003
         vertex -1.540558e-002 8.000000e-002 4.142548e-003
      endloop
   endfacet
   facet normal 0.000000e+000 -1.000000e+000 0.000000e+000
      outer loop
         vertex -1.820546e-002 0.000000e+000 5.000000e-003
         vertex -1.862949e-002 0.000000e+000 4.981988e-003
         vertex -1.820546e-002 0.000000e+000 0.000000e+000
      endloop
   endfacet
   facet normal 0.000000e+000 -1.000000e+000 0.000000e+000
      outer loop
         vertex -1.820546e-002 0.000000e+000 5.000000e-003
         vertex -1.820546e-002 0.000000e+000 0.000000e+000
         vertex -1.778143e-002 0.000000e+000 4.981988e-003
      endloop
   endfacet
   facet normal 0.000000e+000 -1.000000e+000 0.000000e+000
      outer loop
         vertex -1.540558e-002 0.000000e+000 4.142548e-003
         vertex -1.614595e-002 0.000000e+000 4.556142e-003
         vertex -1.820546e-002 0.000000e+000 0.000000e+000
      endloop
   endfacet
   facet normal 0.000000e+000 -1.000000e+000 0.000000e+000
      outer loop
         vertex -1.820546e-002 0.000000e+000 0.000000e+000
         vertex -1.614595e-002 0.000000e+000 4.556142e-003
         vertex -1.694557e-002 0.000000e+000 4.838665e-003
      endloop
   endfacet
   facet normal 0.000000e+000 -1.000000e+000 0.000000e+000
      outer loop
         vertex -1.820546e-002 0.000000e+000 0.000000e+000
         vertex -1.694557e-002 0.000000e+000 4.838665e-003
         vertex -1.778143e-002 0.000000e+000 4.981988e-003
      endloop
   endfacet
   facet normal 0.000000e+000 -1.000000e+000 0.000000e+000
      outer loop
         vertex -1.374083e-002 0.000000e+000 2.251019e-003
         vertex -1.418547e-002 0.000000e+000 2.973166e-003
         vertex -1.820546e-002 0.000000e+000 0.000000e+000
      endloop
   endfacet
   facet normal 0.000000e+000 -1.000000e+000 0.000000e+000
      outer loop
         vertex -1.820546e-002 0.000000e+000 0.000000e+000
         vertex -1.418547e-002 0.000000e+000 2.973166e-003
         vertex -1.474576e-002 0.000000e+000 3.609780e-003
      endloop
   endfacet
   facet normal 0.000000e+000 -1.000000e+000 0.000000e+000
      outer loop
         vertex -1.820546e-002 0.000000e+000 0.000000e+000
         vertex -1.474576e-002 0.000000e+000 3.609780e-003
         vertex -1.540558e-002 0.000000e+000 4.142548e-003
      endloop
   endfacet
   facet normal 0.000000e+000 -1.000000e+000 0.000000e+000
      outer loop
         vertex -1.320996e-002 0.000000e+000 -2.122060e-004
         vertex -1.324596e-002 0.000000e+000 6.350891e-004
         vertex -1.820546e-002 0.000000e+000 0.000000e+000
      endloop
   endfacet
   facet normal 0.000000e+000 -1.000000e+000 0.000000e+000
      outer loop
         vertex -1.820546e-002 0.000000e+000 0.000000e+000
         vertex -1.324596e-002 0.000000e+000 6.350891e-004
         vertex -1.342462e-002 0.000000e+000 1.464114e-003
      endloop
   endfacet
   facet normal 0.000000e+000 -1.000000e+000 0.000000e+000
      outer loop
         vertex -1.820546e-002 0.000000e+000 0.000000e+000
         vertex -1.342462e-002 0.000000e+000 1.464114e-003
         vertex -1.374083e-002 0.000000e+000 2.251019e-003
      endloop
   endfacet
   facet normal 0.000000e+000 -1.000000e+000 0.000000e+000
      outer loop
         vertex -1.394781e-002 0.000000e+000 -2.621536e-003
         vertex -1.356601e-002 0.000000e+000 -1.864282e-003
         vertex -1.820546e-002 0.000000e+000 0.000000e+000
      endloop
   endfacet
   facet normal 0.000000e+000 -1.000000e+000 0.000000e+000
      outer loop
         vertex -1.820546e-002 0.000000e+000 0.000000e+000
         vertex -1.356601e-002 0.000000e+000 -1.864282e-003
         vertex -1.331768e-002 0.000000e+000 -1.053396e-003
      endloop
   endfacet
   facet normal 0.000000e+000 -1.000000e+000 0.000000e+000
      outer loop
         vertex -1.820546e-002 0.000000e+000 0.000000e+000
         vertex -1.331768e-002 0.000000e+000 -1.053396e-003
         vertex -1.320996e-002 0.000000e+000 -2.122060e-004
      endloop
   endfacet
   facet normal 0.000000e+000 -1.000000e+000 0.000000e+000
      outer loop
         vertex -1.576698e-002 0.000000e+000 -4.365071e-003
         vertex -1.506436e-002 0.000000e+000 -3.890179e-003
         vertex -1.820546e-002 0.000000e+000 0.000000e+000
      endloop
   endfacet
   facet normal 0.000000e+000 -1.000000e+000 0.000000e+000
      outer loop
         vertex -1.820546e-002 0.000000e+000 0.000000e+000
         vertex -1.506436e-002 0.000000e+000 -3.890179e-003
         vertex -1.445210e-002 0.000000e+000 -3.303374e-003
      endloop
   endfacet
   facet normal 0.000000e+000 -1.000000e+000 0.000000e+000
      outer loop
         vertex -1.820546e-002 0.000000e+000 0.000000e+000
         vertex -1.445210e-002 0.000000e+000 -3.303374e-003
         vertex -1.394781e-002 0.000000e+000 -2.621536e-003
      endloop
   endfacet
   facet normal 0.000000e+000 -1.000000e+000 0.000000e+000
      outer loop
         vertex -1.820546e-002 0.000000e+000 -5.000000e-003
         vertex -1.736045e-002 0.000000e+000 -4.928079e-003
         vertex -1.820546e-002 0.000000e+000 0.000000e+000
      endloop
   endfacet
   facet normal 0.000000e+000 -1.000000e+000 0.000000e+000
      outer loop
         vertex -1.820546e-002 0.000000e+000 0.000000e+000
         vertex -1.736045e-002 0.000000e+000 -4.928079e-003
         vertex -1.653976e-002 0.000000e+000 -4.714387e-003
      endloop
   endfacet
   facet normal 0.000000e+000 -1.000000e+000 0.000000e+000
      outer loop
         vertex -1.820546e-002 0.000000e+000 0.000000e+000
         vertex -1.653976e-002 0.000000e+000 -4.714387e-003
         vertex -1.576698e-002 0.000000e+000 -4.365071e-003
      endloop
   endfacet
   facet normal 0.000000e+000 -1.000000e+000 0.000000e+000
      outer loop
         vertex -2.064393e-002 0.000000e+000 -4.365071e-003
         vertex -1.987116e-002 0.000000e+000 -4.714387e-003
         vertex -1.820546e-002 0.000000e+000 0.000000e+000
      endloop
   endfacet
   facet normal 0.000000e+000 -1.000000e+000 0.000000e+000
      outer loop
         vertex -1.820546e-002 0.000000e+000 0.000000e+000
         vertex -1.987116e-002 0.000000e+000 -4.714387e-003
         vertex -1.905046e-002 0.000000e+000 -4.928079e-003
      endloop
   endfacet
   facet normal 0.000000e+000 -1.000000e+000 0.000000e+000
      outer loop
         vertex -1.820546e-002 0.000000e+000 0.000000e+000
         vertex -1.905046e-002 0.000000e+000 -4.928079e-003
         vertex -1.820546e-002 0.000000e+000 -5.000000e-003
      endloop
   endfacet
   facet normal 0.000000e+000 -1.000000e+000 0.000000e+000
      outer loop
         vertex -2.246310e-002 0.000000e+000 -2.621536e-003
         vertex -2.195882e-002 0.000000e+000 -3.303374e-003
         vertex -1.820546e-002 0.000000e+000 0.000000e+000
      endloop
   endfacet
   facet normal 0.000000e+000 -1.000000e+000 0.000000e+000
      outer loop
         vertex -1.820546e-002 0.000000e+000 0.000000e+000
         vertex -2.195882e-002 0.000000e+000 -3.303374e-003
         vertex -2.134656e-002 0.000000e+000 -3.890179e-003
      endloop
   endfacet
   facet normal 0.000000e+000 -1.000000e+000 0.000000e+000
      outer loop
         vertex -1.820546e-002 0.000000e+000 0.000000e+000
         vertex -2.134656e-002 0.000000e+000 -3.890179e-003
         vertex -2.064393e-002 0.000000e+000 -4.365071e-003
      endloop
   endfacet
   facet normal 0.000000e+000 -1.000000e+000 0.000000e+000
      outer loop
         vertex -2.320095e-002 0.000000e+000 -2.122060e-004
         vertex -2.309323e-002 0.000000e+000 -1.053396e-003
         vertex -1.820546e-002 0.000000e+000 0.000000e+000
      endloop
   endfacet
   facet normal 0.000000e+000 -1.000000e+000 0.000000e+000
      outer loop
         vertex -1.820546e-002 0.000000e+000 0.000000e+000
         vertex -2.309323e-002 0.000000e+000 -1.053396e-003
         vertex -2.284490e-002 0.000000e+000 -1.864282e-003
      endloop
   endfacet
   facet normal 0.000000e+000 -1.000000e+000 0.000000e+000
      outer loop
         vertex -1.820546e-002 0.000000e+000 0.000000e+000
         vertex -2.284490e-002 0.000000e+000 -1.864282e-003
         vertex -2.246310e-002 0.000000e+000 -2.621536e-003
      endloop
   endfacet
   facet normal 0.000000e+000 -1.000000e+000 0.000000e+000
      outer loop
         vertex -2.267009e-002 0.000000e+000 2.251019e-003
         vertex -2.298629e-002 0.000000e+000 1.464114e-003
         vertex -1.820546e-002 0.000000e+000 0.000000e+000
      endloop
   endfacet
   facet normal 0.000000e+000 -1.000000e+000 0.000000e+000
      outer loop
         vertex -1.820546e-002 0.000000e+000 0.000000e+000
         vertex -2.298629e-002 0.000000e+000 1.464114e-003
         vertex -2.316496e-002 0.000000e+000 6.350891e-004
      endloop
   endfacet
   facet normal 0.000000e+000 -1.000000e+000 0.000000e+000
      outer loop
         vertex -1.820546e-002 0.000000e+000 0.000000e+000
         vertex -2.316496e-002 0.000000e+000 6.350891e-004
         vertex -2.320095e-002 0.000000e+000 -2.122060e-004
      endloop
   endfacet
   facet normal 0.000000e+000 -1.000000e+000 0.000000e+000
      outer loop
         vertex -2.100533e-002 0.000000e+000 4.142548e-003
         vertex -2.166515e-002 0.000000e+000 3.609780e-003
         vertex -1.820546e-002 0.000000e+000 0.000000e+000
      endloop
   endfacet
   facet normal 0.000000e+000 -1.000000e+000 0.000000e+000
      outer loop
         vertex -1.820546e-002 0.000000e+000 0.000000e+000
         vertex -2.166515e-002 0.000000e+000 3.609780e-003
         vertex -2.222544e-002 0.000000e+000 2.973166e-003
      endloop
   endfacet
   facet normal 0.000000e+000 -1.000000e+000 0.000000e+000
      outer loop
         vertex -1.820546e-002 0.000000e+000 0.000000e+000
         vertex -2.222544e-002 0.000000e+000 2.973166e-003
         vertex -2.267009e-002 0.000000e+000 2.251019e-003
      endloop
   endfacet
   facet normal 0.000000e+000 -1.000000e+000 0.000000e+000
      outer loop
         vertex -1.862949e-002 0.000000e+000 4.981988e-003
         vertex -1.946535e-002 0.000000e+000 4.838665e-003
         vertex -1.820546e-002 0.000000e+000 0.000000e+000
      endloop
   endfacet
   facet normal 0.000000e+000 -1.000000e+000 0.000000e+000
      outer loop
         vertex -1.820546e-002 0.000000e+000 0.000000e+000
         vertex -1.946535e-002 0.000000e+000 4.838665e-003
         vertex -2.026496e-002 0.000000e+000 4.556142e-003
      endloop
   endfacet
   facet normal 0.000000e+000 -1.000000e+000 0.000000e+000
      outer loop
         vertex -1.820546e-002 0.000000e+000 0.000000e+000
         vertex -2.026496e-002 0.000000e+000 4.556142e-003
         vertex -2.100533e-002 0.000000e+000 4.142548e-003
      endloop
   endfacet
endsolid