solid cable_Default_sldprt
   facet normal 2.829130e-002 0.000000e+000 9.995998e-001
      outer loop
         vertex -9.220166e-003 8.000000e-002 1.648633e-003
         vertex -9.262569e-003 8.000000e-002 1.650434e-003
         vertex -9.262569e-003 0.000000e+000 1.650434e-003
      endloop
   endfacet
   facet normal -2.829130e-002 0.000000e+000 9.995998e-001
      outer loop
         vertex -9.262569e-003 0.000000e+000 1.650434e-003
         vertex -9.262569e-003 8.000000e-002 1.650434e-003
         vertex -9.304971e-003 0.000000e+000 1.648633e-003
      endloop
   endfacet
   facet normal -5.658260e-002 0.000000e+000 9.983979e-001
      outer loop
         vertex -9.262569e-003 8.000000e-002 1.650434e-003
         vertex -9.304971e-003 8.000000e-002 1.648633e-003
         vertex -9.304971e-003 0.000000e+000 1.648633e-003
      endloop
   endfacet
   facet normal -1.409813e-001 0.000000e+000 9.900123e-001
      outer loop
         vertex -9.304971e-003 0.000000e+000 1.648633e-003
         vertex -9.304971e-003 8.000000e-002 1.648633e-003
         vertex -9.388558e-003 8.000000e-002 1.634300e-003
      endloop
   endfacet
   facet normal -1.968844e-001 0.000000e+000 9.804267e-001
      outer loop
         vertex -9.304971e-003 0.000000e+000 1.648633e-003
         vertex -9.388558e-003 8.000000e-002 1.634300e-003
         vertex -9.388558e-003 0.000000e+000 1.634300e-003
      endloop
   endfacet
   facet normal -3.062663e-001 0.000000e+000 9.519458e-001
      outer loop
         vertex -9.388558e-003 0.000000e+000 1.634300e-003
         vertex -9.388558e-003 8.000000e-002 1.634300e-003
         vertex -9.468519e-003 8.000000e-002 1.606048e-003
      endloop
   endfacet
   facet normal -3.597453e-001 0.000000e+000 9.330506e-001
      outer loop
         vertex -9.388558e-003 0.000000e+000 1.634300e-003
         vertex -9.468519e-003 8.000000e-002 1.606048e-003
         vertex -9.468519e-003 0.000000e+000 1.606048e-003
      endloop
   endfacet
   facet normal -4.627406e-001 0.000000e+000 8.864937e-001
      outer loop
         vertex -9.468519e-003 0.000000e+000 1.606048e-003
         vertex -9.468519e-003 8.000000e-002 1.606048e-003
         vertex -9.542556e-003 8.000000e-002 1.564689e-003
      endloop
   endfacet
   facet normal -5.122570e-001 0.000000e+000 8.588322e-001
      outer loop
         vertex -9.468519e-003 0.000000e+000 1.606048e-003
         vertex -9.542556e-003 8.000000e-002 1.564689e-003
         vertex -9.542556e-003 0.000000e+000 1.564689e-003
      endloop
   endfacet
   facet normal -6.059027e-001 0.000000e+000 7.955388e-001
      outer loop
         vertex -9.542556e-003 0.000000e+000 1.564689e-003
         vertex -9.542556e-003 8.000000e-002 1.564689e-003
         vertex -9.608538e-003 8.000000e-002 1.511412e-003
      endloop
   endfacet
   facet normal -6.500320e-001 0.000000e+000 7.599069e-001
      outer loop
         vertex -9.542556e-003 0.000000e+000 1.564689e-003
         vertex -9.608538e-003 8.000000e-002 1.511412e-003
         vertex -9.608538e-003 0.000000e+000 1.511412e-003
      endloop
   endfacet
   facet normal -7.316340e-001 0.000000e+000 6.816977e-001
      outer loop
         vertex -9.608538e-003 0.000000e+000 1.511412e-003
         vertex -9.608538e-003 8.000000e-002 1.511412e-003
         vertex -9.664567e-003 8.000000e-002 1.447751e-003
      endloop
   endfacet
   facet normal -7.691067e-001 0.000000e+000 6.391203e-001
      outer loop
         vertex -9.608538e-003 0.000000e+000 1.511412e-003
         vertex -9.664567e-003 8.000000e-002 1.447751e-003
         vertex -9.664567e-003 0.000000e+000 1.447751e-003
      endloop
   endfacet
   facet normal -8.363176e-001 0.000000e+000 5.482453e-001
      outer loop
         vertex -9.664567e-003 0.000000e+000 1.447751e-003
         vertex -9.664567e-003 8.000000e-002 1.447751e-003
         vertex -9.709032e-003 8.000000e-002 1.375536e-003
      endloop
   endfacet
   facet normal -8.660557e-001 0.000000e+000 4.999475e-001
      outer loop
         vertex -9.664567e-003 0.000000e+000 1.447751e-003
         vertex -9.709032e-003 8.000000e-002 1.375536e-003
         vertex -9.709032e-003 0.000000e+000 1.375536e-003
      endloop
   endfacet
   facet normal -9.169418e-001 0.000000e+000 3.990209e-001
      outer loop
         vertex -9.709032e-003 0.000000e+000 1.375536e-003
         vertex -9.709032e-003 8.000000e-002 1.375536e-003
         vertex -9.740653e-003 8.000000e-002 1.296845e-003
      endloop
   endfacet
   facet normal -9.380898e-001 0.000000e+000 3.463921e-001
      outer loop
         vertex -9.709032e-003 0.000000e+000 1.375536e-003
         vertex -9.740653e-003 8.000000e-002 1.296845e-003
         vertex -9.740653e-003 0.000000e+000 1.296845e-003
      endloop
   endfacet
   facet normal -9.711873e-001 0.000000e+000 2.383175e-001
      outer loop
         vertex -9.740653e-003 0.000000e+000 1.296845e-003
         vertex -9.740653e-003 8.000000e-002 1.296845e-003
         vertex -9.758519e-003 8.000000e-002 1.213943e-003
      endloop
   endfacet
   facet normal -9.831368e-001 0.000000e+000 1.828716e-001
      outer loop
         vertex -9.740653e-003 0.000000e+000 1.296845e-003
         vertex -9.758519e-003 8.000000e-002 1.213943e-003
         vertex -9.758519e-003 0.000000e+000 1.213943e-003
      endloop
   endfacet
   facet normal -9.974935e-001 0.000000e+000 7.075802e-002
      outer loop
         vertex -9.758519e-003 0.000000e+000 1.213943e-003
         vertex -9.758519e-003 8.000000e-002 1.213943e-003
         vertex -9.762119e-003 8.000000e-002 1.129213e-003
      endloop
   endfacet
   facet normal -9.999007e-001 0.000000e+000 1.409025e-002
      outer loop
         vertex -9.758519e-003 0.000000e+000 1.213943e-003
         vertex -9.762119e-003 8.000000e-002 1.129213e-003
         vertex -9.762119e-003 0.000000e+000 1.129213e-003
      endloop
   endfacet
   facet normal -9.951036e-001 0.000000e+000 -9.883699e-002
      outer loop
         vertex -9.762119e-003 0.000000e+000 1.129213e-003
         vertex -9.762119e-003 8.000000e-002 1.129213e-003
         vertex -9.751347e-003 8.000000e-002 1.045094e-003
      endloop
   endfacet
   facet normal -9.878993e-001 0.000000e+000 -1.550965e-001
      outer loop
         vertex -9.762119e-003 0.000000e+000 1.129213e-003
         vertex -9.751347e-003 8.000000e-002 1.045094e-003
         vertex -9.751347e-003 0.000000e+000 1.045094e-003
      endloop
   endfacet
   facet normal -9.640865e-001 0.000000e+000 -2.655886e-001
      outer loop
         vertex -9.751347e-003 0.000000e+000 1.045094e-003
         vertex -9.751347e-003 8.000000e-002 1.045094e-003
         vertex -9.726513e-003 8.000000e-002 9.640058e-004
      endloop
   endfacet
   facet normal -9.474779e-001 0.000000e+000 -3.198213e-001
      outer loop
         vertex -9.751347e-003 0.000000e+000 1.045094e-003
         vertex -9.726513e-003 8.000000e-002 9.640058e-004
         vertex -9.726513e-003 0.000000e+000 9.640058e-004
      endloop
   endfacet
   facet normal -9.053342e-001 0.000000e+000 -4.246998e-001
      outer loop
         vertex -9.726513e-003 0.000000e+000 9.640058e-004
         vertex -9.726513e-003 8.000000e-002 9.640058e-004
         vertex -9.688334e-003 8.000000e-002 8.882803e-004
      endloop
   endfacet
   facet normal -8.797992e-001 0.000000e+000 -4.753455e-001
      outer loop
         vertex -9.726513e-003 0.000000e+000 9.640058e-004
         vertex -9.688334e-003 8.000000e-002 8.882803e-004
         vertex -9.688334e-003 0.000000e+000 8.882803e-004
      endloop
   endfacet
   facet normal -8.205372e-001 0.000000e+000 -5.715931e-001
      outer loop
         vertex -9.688334e-003 0.000000e+000 8.882803e-004
         vertex -9.688334e-003 8.000000e-002 8.882803e-004
         vertex -9.637905e-003 8.000000e-002 8.200966e-004
      endloop
   endfacet
   facet normal -7.868103e-001 0.000000e+000 -6.171949e-001
      outer loop
         vertex -9.688334e-003 0.000000e+000 8.882803e-004
         vertex -9.637905e-003 8.000000e-002 8.200966e-004
         vertex -9.637905e-003 0.000000e+000 8.200966e-004
      endloop
   endfacet
   facet normal -7.121348e-001 0.000000e+000 -7.020428e-001
      outer loop
         vertex -9.637905e-003 0.000000e+000 8.200966e-004
         vertex -9.637905e-003 8.000000e-002 8.200966e-004
         vertex -9.576679e-003 8.000000e-002 7.614161e-004
      endloop
   endfacet
   facet normal -6.711863e-001 0.000000e+000 -7.412888e-001
      outer loop
         vertex -9.637905e-003 0.000000e+000 8.200966e-004
         vertex -9.576679e-003 8.000000e-002 7.614161e-004
         vertex -9.576679e-003 0.000000e+000 7.614161e-004
      endloop
   endfacet
   facet normal -5.832456e-001 0.000000e+000 -8.122959e-001
      outer loop
         vertex -9.576679e-003 0.000000e+000 7.614161e-004
         vertex -9.576679e-003 8.000000e-002 7.614161e-004
         vertex -9.506417e-003 8.000000e-002 7.139269e-004
      endloop
   endfacet
   facet normal -5.362535e-001 0.000000e+000 -8.440570e-001
      outer loop
         vertex -9.576679e-003 0.000000e+000 7.614161e-004
         vertex -9.506417e-003 8.000000e-002 7.139269e-004
         vertex -9.506417e-003 0.000000e+000 7.139269e-004
      endloop
   endfacet
   facet normal -4.375775e-001 0.000000e+000 -8.991807e-001
      outer loop
         vertex -9.506417e-003 0.000000e+000 7.139269e-004
         vertex -9.506417e-003 8.000000e-002 7.139269e-004
         vertex -9.429139e-003 8.000000e-002 6.789953e-004
      endloop
   endfacet
   facet normal -3.858936e-001 0.000000e+000 -9.225433e-001
      outer loop
         vertex -9.506417e-003 0.000000e+000 7.139269e-004
         vertex -9.429139e-003 8.000000e-002 6.789953e-004
         vertex -9.429139e-003 0.000000e+000 6.789953e-004
      endloop
   endfacet
   facet normal -2.793211e-001 0.000000e+000 -9.601977e-001
      outer loop
         vertex -9.429139e-003 0.000000e+000 6.789953e-004
         vertex -9.429139e-003 8.000000e-002 6.789953e-004
         vertex -9.347069e-003 8.000000e-002 6.576260e-004
      endloop
   endfacet
   facet normal -2.244324e-001 0.000000e+000 -9.744897e-001
      outer loop
         vertex -9.429139e-003 0.000000e+000 6.789953e-004
         vertex -9.347069e-003 8.000000e-002 6.576260e-004
         vertex -9.347069e-003 0.000000e+000 6.576260e-004
      endloop
   endfacet
   facet normal -1.130291e-001 0.000000e+000 -9.935917e-001
      outer loop
         vertex -9.347069e-003 0.000000e+000 6.576260e-004
         vertex -9.347069e-003 8.000000e-002 6.576260e-004
         vertex -9.262569e-003 8.000000e-002 6.504340e-004
      endloop
   endfacet
   facet normal -5.651454e-002 0.000000e+000 -9.984018e-001
      outer loop
         vertex -9.347069e-003 0.000000e+000 6.576260e-004
         vertex -9.262569e-003 8.000000e-002 6.504340e-004
         vertex -9.262569e-003 0.000000e+000 6.504340e-004
      endloop
   endfacet
   facet normal 5.651454e-002 0.000000e+000 -9.984018e-001
      outer loop
         vertex -9.262569e-003 0.000000e+000 6.504340e-004
         vertex -9.262569e-003 8.000000e-002 6.504340e-004
         vertex -9.178068e-003 8.000000e-002 6.576260e-004
      endloop
   endfacet
   facet normal 1.130291e-001 0.000000e+000 -9.935917e-001
      outer loop
         vertex -9.262569e-003 0.000000e+000 6.504340e-004
         vertex -9.178068e-003 8.000000e-002 6.576260e-004
         vertex -9.178068e-003 0.000000e+000 6.576260e-004
      endloop
   endfacet
   facet normal 2.244324e-001 0.000000e+000 -9.744897e-001
      outer loop
         vertex -9.178068e-003 0.000000e+000 6.576260e-004
         vertex -9.178068e-003 8.000000e-002 6.576260e-004
         vertex -9.095999e-003 8.000000e-002 6.789953e-004
      endloop
   endfacet
   facet normal 2.793211e-001 0.000000e+000 -9.601977e-001
      outer loop
         vertex -9.178068e-003 0.000000e+000 6.576260e-004
         vertex -9.095999e-003 8.000000e-002 6.789953e-004
         vertex -9.095999e-003 0.000000e+000 6.789953e-004
      endloop
   endfacet
   facet normal 3.858936e-001 0.000000e+000 -9.225433e-001
      outer loop
         vertex -9.095999e-003 0.000000e+000 6.789953e-004
         vertex -9.095999e-003 8.000000e-002 6.789953e-004
         vertex -9.018721e-003 8.000000e-002 7.139269e-004
      endloop
   endfacet
   facet normal 4.375775e-001 0.000000e+000 -8.991807e-001
      outer loop
         vertex -9.095999e-003 0.000000e+000 6.789953e-004
         vertex -9.018721e-003 8.000000e-002 7.139269e-004
         vertex -9.018721e-003 0.000000e+000 7.139269e-004
      endloop
   endfacet
   facet normal 5.362535e-001 0.000000e+000 -8.440570e-001
      outer loop
         vertex -9.018721e-003 0.000000e+000 7.139269e-004
         vertex -9.018721e-003 8.000000e-002 7.139269e-004
         vertex -8.948459e-003 8.000000e-002 7.614161e-004
      endloop
   endfacet
   facet normal 5.832456e-001 0.000000e+000 -8.122959e-001
      outer loop
         vertex -9.018721e-003 0.000000e+000 7.139269e-004
         vertex -8.948459e-003 8.000000e-002 7.614161e-004
         vertex -8.948459e-003 0.000000e+000 7.614161e-004
      endloop
   endfacet
   facet normal 6.711863e-001 0.000000e+000 -7.412888e-001
      outer loop
         vertex -8.948459e-003 0.000000e+000 7.614161e-004
         vertex -8.948459e-003 8.000000e-002 7.614161e-004
         vertex -8.887233e-003 8.000000e-002 8.200966e-004
      endloop
   endfacet
   facet normal 7.121348e-001 0.000000e+000 -7.020428e-001
      outer loop
         vertex -8.948459e-003 0.000000e+000 7.614161e-004
         vertex -8.887233e-003 8.000000e-002 8.200966e-004
         vertex -8.887233e-003 0.000000e+000 8.200966e-004
      endloop
   endfacet
   facet normal 7.868103e-001 0.000000e+000 -6.171949e-001
      outer loop
         vertex -8.887233e-003 0.000000e+000 8.200966e-004
         vertex -8.887233e-003 8.000000e-002 8.200966e-004
         vertex -8.836804e-003 8.000000e-002 8.882803e-004
      endloop
   endfacet
   facet normal 8.205372e-001 0.000000e+000 -5.715931e-001
      outer loop
         vertex -8.887233e-003 0.000000e+000 8.200966e-004
         vertex -8.836804e-003 8.000000e-002 8.882803e-004
         vertex -8.836804e-003 0.000000e+000 8.882803e-004
      endloop
   endfacet
   facet normal 8.797992e-001 0.000000e+000 -4.753455e-001
      outer loop
         vertex -8.836804e-003 0.000000e+000 8.882803e-004
         vertex -8.836804e-003 8.000000e-002 8.882803e-004
         vertex -8.798624e-003 8.000000e-002 9.640058e-004
      endloop
   endfacet
   facet normal 9.053342e-001 0.000000e+000 -4.246998e-001
      outer loop
         vertex -8.836804e-003 0.000000e+000 8.882803e-004
         vertex -8.798624e-003 8.000000e-002 9.640058e-004
         vertex -8.798624e-003 0.000000e+000 9.640058e-004
      endloop
   endfacet
   facet normal 9.474779e-001 0.000000e+000 -3.198213e-001
      outer loop
         vertex -8.798624e-003 0.000000e+000 9.640058e-004
         vertex -8.798624e-003 8.000000e-002 9.640058e-004
         vertex -8.773792e-003 8.000000e-002 1.045094e-003
      endloop
   endfacet
   facet normal 9.640865e-001 0.000000e+000 -2.655886e-001
      outer loop
         vertex -8.798624e-003 0.000000e+000 9.640058e-004
         vertex -8.773792e-003 8.000000e-002 1.045094e-003
         vertex -8.773792e-003 0.000000e+000 1.045094e-003
      endloop
   endfacet
   facet normal 9.878993e-001 0.000000e+000 -1.550965e-001
      outer loop
         vertex -8.773792e-003 0.000000e+000 1.045094e-003
         vertex -8.773792e-003 8.000000e-002 1.045094e-003
         vertex -8.763019e-003 8.000000e-002 1.129213e-003
      endloop
   endfacet
   facet normal 9.951036e-001 0.000000e+000 -9.883699e-002
      outer loop
         vertex -8.773792e-003 0.000000e+000 1.045094e-003
         vertex -8.763019e-003 8.000000e-002 1.129213e-003
         vertex -8.763019e-003 0.000000e+000 1.129213e-003
      endloop
   endfacet
   facet normal 9.999007e-001 0.000000e+000 1.409025e-002
      outer loop
         vertex -8.763019e-003 0.000000e+000 1.129213e-003
         vertex -8.763019e-003 8.000000e-002 1.129213e-003
         vertex -8.766619e-003 8.000000e-002 1.213943e-003
      endloop
   endfacet
   facet normal 9.974935e-001 0.000000e+000 7.075802e-002
      outer loop
         vertex -8.763019e-003 0.000000e+000 1.129213e-003
         vertex -8.766619e-003 8.000000e-002 1.213943e-003
         vertex -8.766619e-003 0.000000e+000 1.213943e-003
      endloop
   endfacet
   facet normal 9.831368e-001 0.000000e+000 1.828716e-001
      outer loop
         vertex -8.766619e-003 0.000000e+000 1.213943e-003
         vertex -8.766619e-003 8.000000e-002 1.213943e-003
         vertex -8.784486e-003 8.000000e-002 1.296845e-003
      endloop
   endfacet
   facet normal 9.711873e-001 0.000000e+000 2.383175e-001
      outer loop
         vertex -8.766619e-003 0.000000e+000 1.213943e-003
         vertex -8.784486e-003 8.000000e-002 1.296845e-003
         vertex -8.784486e-003 0.000000e+000 1.296845e-003
      endloop
   endfacet
   facet normal 9.380898e-001 0.000000e+000 3.463921e-001
      outer loop
         vertex -8.784486e-003 0.000000e+000 1.296845e-003
         vertex -8.784486e-003 8.000000e-002 1.296845e-003
         vertex -8.816106e-003 8.000000e-002 1.375536e-003
      endloop
   endfacet
   facet normal 9.169418e-001 0.000000e+000 3.990209e-001
      outer loop
         vertex -8.784486e-003 0.000000e+000 1.296845e-003
         vertex -8.816106e-003 8.000000e-002 1.375536e-003
         vertex -8.816106e-003 0.000000e+000 1.375536e-003
      endloop
   endfacet
   facet normal 8.660557e-001 0.000000e+000 4.999475e-001
      outer loop
         vertex -8.816106e-003 0.000000e+000 1.375536e-003
         vertex -8.816106e-003 8.000000e-002 1.375536e-003
         vertex -8.860570e-003 8.000000e-002 1.447751e-003
      endloop
   endfacet
   facet normal 8.363176e-001 0.000000e+000 5.482453e-001
      outer loop
         vertex -8.816106e-003 0.000000e+000 1.375536e-003
         vertex -8.860570e-003 8.000000e-002 1.447751e-003
         vertex -8.860570e-003 0.000000e+000 1.447751e-003
      endloop
   endfacet
   facet normal 7.691067e-001 0.000000e+000 6.391203e-001
      outer loop
         vertex -8.860570e-003 0.000000e+000 1.447751e-003
         vertex -8.860570e-003 8.000000e-002 1.447751e-003
         vertex -8.916600e-003 8.000000e-002 1.511412e-003
      endloop
   endfacet
   facet normal 7.316340e-001 0.000000e+000 6.816977e-001
      outer loop
         vertex -8.860570e-003 0.000000e+000 1.447751e-003
         vertex -8.916600e-003 8.000000e-002 1.511412e-003
         vertex -8.916600e-003 0.000000e+000 1.511412e-003
      endloop
   endfacet
   facet normal 6.500320e-001 0.000000e+000 7.599069e-001
      outer loop
         vertex -8.916600e-003 0.000000e+000 1.511412e-003
         vertex -8.916600e-003 8.000000e-002 1.511412e-003
         vertex -8.982581e-003 8.000000e-002 1.564689e-003
      endloop
   endfacet
   facet normal 6.059027e-001 0.000000e+000 7.955388e-001
      outer loop
         vertex -8.916600e-003 0.000000e+000 1.511412e-003
         vertex -8.982581e-003 8.000000e-002 1.564689e-003
         vertex -8.982581e-003 0.000000e+000 1.564689e-003
      endloop
   endfacet
   facet normal 5.122570e-001 0.000000e+000 8.588322e-001
      outer loop
         vertex -8.982581e-003 0.000000e+000 1.564689e-003
         vertex -8.982581e-003 8.000000e-002 1.564689e-003
         vertex -9.056618e-003 8.000000e-002 1.606048e-003
      endloop
   endfacet
   facet normal 4.627406e-001 0.000000e+000 8.864937e-001
      outer loop
         vertex -8.982581e-003 0.000000e+000 1.564689e-003
         vertex -9.056618e-003 8.000000e-002 1.606048e-003
         vertex -9.056618e-003 0.000000e+000 1.606048e-003
      endloop
   endfacet
   facet normal 3.597453e-001 0.000000e+000 9.330506e-001
      outer loop
         vertex -9.056618e-003 0.000000e+000 1.606048e-003
         vertex -9.056618e-003 8.000000e-002 1.606048e-003
         vertex -9.136580e-003 8.000000e-002 1.634300e-003
      endloop
   endfacet
   facet normal 3.062663e-001 0.000000e+000 9.519458e-001
      outer loop
         vertex -9.056618e-003 0.000000e+000 1.606048e-003
         vertex -9.136580e-003 8.000000e-002 1.634300e-003
         vertex -9.136580e-003 0.000000e+000 1.634300e-003
      endloop
   endfacet
   facet normal 1.968844e-001 0.000000e+000 9.804267e-001
      outer loop
         vertex -9.136580e-003 0.000000e+000 1.634300e-003
         vertex -9.136580e-003 8.000000e-002 1.634300e-003
         vertex -9.220166e-003 8.000000e-002 1.648633e-003
      endloop
   endfacet
   facet normal 1.409813e-001 0.000000e+000 9.900123e-001
      outer loop
         vertex -9.136580e-003 0.000000e+000 1.634300e-003
         vertex -9.220166e-003 8.000000e-002 1.648633e-003
         vertex -9.220166e-003 0.000000e+000 1.648633e-003
      endloop
   endfacet
   facet normal 5.658260e-002 0.000000e+000 9.983979e-001
      outer loop
         vertex -9.220166e-003 0.000000e+000 1.648633e-003
         vertex -9.220166e-003 8.000000e-002 1.648633e-003
         vertex -9.262569e-003 0.000000e+000 1.650434e-003
      endloop
   endfacet
   facet normal 0.000000e+000 1.000000e+000 0.000000e+000
      outer loop
         vertex -9.262569e-003 8.000000e-002 1.650434e-003
         vertex -9.220166e-003 8.000000e-002 1.648633e-003
         vertex -9.262569e-003 8.000000e-002 1.150434e-003
      endloop
   endfacet
   facet normal 0.000000e+000 1.000000e+000 0.000000e+000
      outer loop
         vertex -9.262569e-003 8.000000e-002 1.650434e-003
         vertex -9.262569e-003 8.000000e-002 1.150434e-003
         vertex -9.304971e-003 8.000000e-002 1.648633e-003
      endloop
   endfacet
   facet normal 0.000000e+000 1.000000e+000 0.000000e+000
      outer loop
         vertex -9.542556e-003 8.000000e-002 1.564689e-003
         vertex -9.468519e-003 8.000000e-002 1.606048e-003
         vertex -9.262569e-003 8.000000e-002 1.150434e-003
      endloop
   endfacet
   facet normal 0.000000e+000 1.000000e+000 0.000000e+000
      outer loop
         vertex -9.262569e-003 8.000000e-002 1.150434e-003
         vertex -9.468519e-003 8.000000e-002 1.606048e-003
         vertex -9.388558e-003 8.000000e-002 1.634300e-003
      endloop
   endfacet
   facet normal 0.000000e+000 1.000000e+000 0.000000e+000
      outer loop
         vertex -9.262569e-003 8.000000e-002 1.150434e-003
         vertex -9.388558e-003 8.000000e-002 1.634300e-003
         vertex -9.304971e-003 8.000000e-002 1.648633e-003
      endloop
   endfacet
   facet normal 0.000000e+000 1.000000e+000 0.000000e+000
      outer loop
         vertex -9.709032e-003 8.000000e-002 1.375536e-003
         vertex -9.664567e-003 8.000000e-002 1.447751e-003
         vertex -9.262569e-003 8.000000e-002 1.150434e-003
      endloop
   endfacet
   facet normal 0.000000e+000 1.000000e+000 0.000000e+000
      outer loop
         vertex -9.262569e-003 8.000000e-002 1.150434e-003
         vertex -9.664567e-003 8.000000e-002 1.447751e-003
         vertex -9.608538e-003 8.000000e-002 1.511412e-003
      endloop
   endfacet
   facet normal 0.000000e+000 1.000000e+000 0.000000e+000
      outer loop
         vertex -9.262569e-003 8.000000e-002 1.150434e-003
         vertex -9.608538e-003 8.000000e-002 1.511412e-003
         vertex -9.542556e-003 8.000000e-002 1.564689e-003
      endloop
   endfacet
   facet normal 0.000000e+000 1.000000e+000 0.000000e+000
      outer loop
         vertex -9.762119e-003 8.000000e-002 1.129213e-003
         vertex -9.758519e-003 8.000000e-002 1.213943e-003
         vertex -9.262569e-003 8.000000e-002 1.150434e-003
      endloop
   endfacet
   facet normal 0.000000e+000 1.000000e+000 0.000000e+000
      outer loop
         vertex -9.262569e-003 8.000000e-002 1.150434e-003
         vertex -9.758519e-003 8.000000e-002 1.213943e-003
         vertex -9.740653e-003 8.000000e-002 1.296845e-003
      endloop
   endfacet
   facet normal 0.000000e+000 1.000000e+000 0.000000e+000
      outer loop
         vertex -9.262569e-003 8.000000e-002 1.150434e-003
         vertex -9.740653e-003 8.000000e-002 1.296845e-003
         vertex -9.709032e-003 8.000000e-002 1.375536e-003
      endloop
   endfacet
   facet normal 0.000000e+000 1.000000e+000 0.000000e+000
      outer loop
         vertex -9.688334e-003 8.000000e-002 8.882803e-004
         vertex -9.726513e-003 8.000000e-002 9.640058e-004
         vertex -9.262569e-003 8.000000e-002 1.150434e-003
      endloop
   endfacet
   facet normal 0.000000e+000 1.000000e+000 0.000000e+000
      outer loop
         vertex -9.262569e-003 8.000000e-002 1.150434e-003
         vertex -9.726513e-003 8.000000e-002 9.640058e-004
         vertex -9.751347e-003 8.000000e-002 1.045094e-003
      endloop
   endfacet
   facet normal 0.000000e+000 1.000000e+000 0.000000e+000
      outer loop
         vertex -9.262569e-003 8.000000e-002 1.150434e-003
         vertex -9.751347e-003 8.000000e-002 1.045094e-003
         vertex -9.762119e-003 8.000000e-002 1.129213e-003
      endloop
   endfacet
   facet normal 0.000000e+000 1.000000e+000 0.000000e+000
      outer loop
         vertex -9.506417e-003 8.000000e-002 7.139269e-004
         vertex -9.576679e-003 8.000000e-002 7.614161e-004
         vertex -9.262569e-003 8.000000e-002 1.150434e-003
      endloop
   endfacet
   facet normal 0.000000e+000 1.000000e+000 0.000000e+000
      outer loop
         vertex -9.262569e-003 8.000000e-002 1.150434e-003
         vertex -9.576679e-003 8.000000e-002 7.614161e-004
         vertex -9.637905e-003 8.000000e-002 8.200966e-004
      endloop
   endfacet
   facet normal 0.000000e+000 1.000000e+000 0.000000e+000
      outer loop
         vertex -9.262569e-003 8.000000e-002 1.150434e-003
         vertex -9.637905e-003 8.000000e-002 8.200966e-004
         vertex -9.688334e-003 8.000000e-002 8.882803e-004
      endloop
   endfacet
   facet normal 0.000000e+000 1.000000e+000 0.000000e+000
      outer loop
         vertex -9.262569e-003 8.000000e-002 6.504340e-004
         vertex -9.347069e-003 8.000000e-002 6.576260e-004
         vertex -9.262569e-003 8.000000e-002 1.150434e-003
      endloop
   endfacet
   facet normal 0.000000e+000 1.000000e+000 0.000000e+000
      outer loop
         vertex -9.262569e-003 8.000000e-002 1.150434e-003
         vertex -9.347069e-003 8.000000e-002 6.576260e-004
         vertex -9.429139e-003 8.000000e-002 6.789953e-004
      endloop
   endfacet
   facet normal 0.000000e+000 1.000000e+000 0.000000e+000
      outer loop
         vertex -9.262569e-003 8.000000e-002 1.150434e-003
         vertex -9.429139e-003 8.000000e-002 6.789953e-004
         vertex -9.506417e-003 8.000000e-002 7.139269e-004
      endloop
   endfacet
   facet normal 0.000000e+000 1.000000e+000 0.000000e+000
      outer loop
         vertex -9.018721e-003 8.000000e-002 7.139269e-004
         vertex -9.095999e-003 8.000000e-002 6.789953e-004
         vertex -9.262569e-003 8.000000e-002 1.150434e-003
      endloop
   endfacet
   facet normal 0.000000e+000 1.000000e+000 0.000000e+000
      outer loop
         vertex -9.262569e-003 8.000000e-002 1.150434e-003
         vertex -9.095999e-003 8.000000e-002 6.789953e-004
         vertex -9.178068e-003 8.000000e-002 6.576260e-004
      endloop
   endfacet
   facet normal 0.000000e+000 1.000000e+000 0.000000e+000
      outer loop
         vertex -9.262569e-003 8.000000e-002 1.150434e-003
         vertex -9.178068e-003 8.000000e-002 6.576260e-004
         vertex -9.262569e-003 8.000000e-002 6.504340e-004
      endloop
   endfacet
   facet normal 0.000000e+000 1.000000e+000 0.000000e+000
      outer loop
         vertex -8.836804e-003 8.000000e-002 8.882803e-004
         vertex -8.887233e-003 8.000000e-002 8.200966e-004
         vertex -9.262569e-003 8.000000e-002 1.150434e-003
      endloop
   endfacet
   facet normal 0.000000e+000 1.000000e+000 0.000000e+000
      outer loop
         vertex -9.262569e-003 8.000000e-002 1.150434e-003
         vertex -8.887233e-003 8.000000e-002 8.200966e-004
         vertex -8.948459e-003 8.000000e-002 7.614161e-004
      endloop
   endfacet
   facet normal 0.000000e+000 1.000000e+000 0.000000e+000
      outer loop
         vertex -9.262569e-003 8.000000e-002 1.150434e-003
         vertex -8.948459e-003 8.000000e-002 7.614161e-004
         vertex -9.018721e-003 8.000000e-002 7.139269e-004
      endloop
   endfacet
   facet normal 0.000000e+000 1.000000e+000 0.000000e+000
      outer loop
         vertex -8.763019e-003 8.000000e-002 1.129213e-003
         vertex -8.773792e-003 8.000000e-002 1.045094e-003
         vertex -9.262569e-003 8.000000e-002 1.150434e-003
      endloop
   endfacet
   facet normal 0.000000e+000 1.000000e+000 0.000000e+000
      outer loop
         vertex -9.262569e-003 8.000000e-002 1.150434e-003
         vertex -8.773792e-003 8.000000e-002 1.045094e-003
         vertex -8.798624e-003 8.000000e-002 9.640058e-004
      endloop
   endfacet
   facet normal 0.000000e+000 1.000000e+000 0.000000e+000
      outer loop
         vertex -9.262569e-003 8.000000e-002 1.150434e-003
         vertex -8.798624e-003 8.000000e-002 9.640058e-004
         vertex -8.836804e-003 8.000000e-002 8.882803e-004
      endloop
   endfacet
   facet normal 0.000000e+000 1.000000e+000 0.000000e+000
      outer loop
         vertex -8.816106e-003 8.000000e-002 1.375536e-003
         vertex -8.784486e-003 8.000000e-002 1.296845e-003
         vertex -9.262569e-003 8.000000e-002 1.150434e-003
      endloop
   endfacet
   facet normal 0.000000e+000 1.000000e+000 0.000000e+000
      outer loop
         vertex -9.262569e-003 8.000000e-002 1.150434e-003
         vertex -8.784486e-003 8.000000e-002 1.296845e-003
         vertex -8.766619e-003 8.000000e-002 1.213943e-003
      endloop
   endfacet
   facet normal 0.000000e+000 1.000000e+000 0.000000e+000
      outer loop
         vertex -9.262569e-003 8.000000e-002 1.150434e-003
         vertex -8.766619e-003 8.000000e-002 1.213943e-003
         vertex -8.763019e-003 8.000000e-002 1.129213e-003
      endloop
   endfacet
   facet normal 0.000000e+000 1.000000e+000 0.000000e+000
      outer loop
         vertex -8.982581e-003 8.000000e-002 1.564689e-003
         vertex -8.916600e-003 8.000000e-002 1.511412e-003
         vertex -9.262569e-003 8.000000e-002 1.150434e-003
      endloop
   endfacet
   facet normal 0.000000e+000 1.000000e+000 0.000000e+000
      outer loop
         vertex -9.262569e-003 8.000000e-002 1.150434e-003
         vertex -8.916600e-003 8.000000e-002 1.511412e-003
         vertex -8.860570e-003 8.000000e-002 1.447751e-003
      endloop
   endfacet
   facet normal 0.000000e+000 1.000000e+000 0.000000e+000
      outer loop
         vertex -9.262569e-003 8.000000e-002 1.150434e-003
         vertex -8.860570e-003 8.000000e-002 1.447751e-003
         vertex -8.816106e-003 8.000000e-002 1.375536e-003
      endloop
   endfacet
   facet normal 0.000000e+000 1.000000e+000 0.000000e+000
      outer loop
         vertex -9.220166e-003 8.000000e-002 1.648633e-003
         vertex -9.136580e-003 8.000000e-002 1.634300e-003
         vertex -9.262569e-003 8.000000e-002 1.150434e-003
      endloop
   endfacet
   facet normal 0.000000e+000 1.000000e+000 0.000000e+000
      outer loop
         vertex -9.262569e-003 8.000000e-002 1.150434e-003
         vertex -9.136580e-003 8.000000e-002 1.634300e-003
         vertex -9.056618e-003 8.000000e-002 1.606048e-003
      endloop
   endfacet
   facet normal 0.000000e+000 1.000000e+000 0.000000e+000
      outer loop
         vertex -9.262569e-003 8.000000e-002 1.150434e-003
         vertex -9.056618e-003 8.000000e-002 1.606048e-003
         vertex -8.982581e-003 8.000000e-002 1.564689e-003
      endloop
   endfacet
   facet normal 0.000000e+000 -1.000000e+000 0.000000e+000
      outer loop
         vertex -9.262569e-003 0.000000e+000 1.650434e-003
         vertex -9.304971e-003 0.000000e+000 1.648633e-003
         vertex -9.262569e-003 0.000000e+000 1.150434e-003
      endloop
   endfacet
   facet normal 0.000000e+000 -1.000000e+000 0.000000e+000
      outer loop
         vertex -9.262569e-003 0.000000e+000 1.650434e-003
         vertex -9.262569e-003 0.000000e+000 1.150434e-003
         vertex -9.220166e-003 0.000000e+000 1.648633e-003
      endloop
   endfacet
   facet normal 0.000000e+000 -1.000000e+000 0.000000e+000
      outer loop
         vertex -8.982581e-003 0.000000e+000 1.564689e-003
         vertex -9.056618e-003 0.000000e+000 1.606048e-003
         vertex -9.262569e-003 0.000000e+000 1.150434e-003
      endloop
   endfacet
   facet normal 0.000000e+000 -1.000000e+000 0.000000e+000
      outer loop
         vertex -9.262569e-003 0.000000e+000 1.150434e-003
         vertex -9.056618e-003 0.000000e+000 1.606048e-003
         vertex -9.136580e-003 0.000000e+000 1.634300e-003
      endloop
   endfacet
   facet normal 0.000000e+000 -1.000000e+000 0.000000e+000
      outer loop
         vertex -9.262569e-003 0.000000e+000 1.150434e-003
         vertex -9.136580e-003 0.000000e+000 1.634300e-003
         vertex -9.220166e-003 0.000000e+000 1.648633e-003
      endloop
   endfacet
   facet normal 0.000000e+000 -1.000000e+000 0.000000e+000
      outer loop
         vertex -8.816106e-003 0.000000e+000 1.375536e-003
         vertex -8.860570e-003 0.000000e+000 1.447751e-003
         vertex -9.262569e-003 0.000000e+000 1.150434e-003
      endloop
   endfacet
   facet normal 0.000000e+000 -1.000000e+000 0.000000e+000
      outer loop
         vertex -9.262569e-003 0.000000e+000 1.150434e-003
         vertex -8.860570e-003 0.000000e+000 1.447751e-003
         vertex -8.916600e-003 0.000000e+000 1.511412e-003
      endloop
   endfacet
   facet normal 0.000000e+000 -1.000000e+000 0.000000e+000
      outer loop
         vertex -9.262569e-003 0.000000e+000 1.150434e-003
         vertex -8.916600e-003 0.000000e+000 1.511412e-003
         vertex -8.982581e-003 0.000000e+000 1.564689e-003
      endloop
   endfacet
   facet normal 0.000000e+000 -1.000000e+000 0.000000e+000
      outer loop
         vertex -8.763019e-003 0.000000e+000 1.129213e-003
         vertex -8.766619e-003 0.000000e+000 1.213943e-003
         vertex -9.262569e-003 0.000000e+000 1.150434e-003
      endloop
   endfacet
   facet normal 0.000000e+000 -1.000000e+000 0.000000e+000
      outer loop
         vertex -9.262569e-003 0.000000e+000 1.150434e-003
         vertex -8.766619e-003 0.000000e+000 1.213943e-003
         vertex -8.784486e-003 0.000000e+000 1.296845e-003
      endloop
   endfacet
   facet normal 0.000000e+000 -1.000000e+000 0.000000e+000
      outer loop
         vertex -9.262569e-003 0.000000e+000 1.150434e-003
         vertex -8.784486e-003 0.000000e+000 1.296845e-003
         vertex -8.816106e-003 0.000000e+000 1.375536e-003
      endloop
   endfacet
   facet normal 0.000000e+000 -1.000000e+000 0.000000e+000
      outer loop
         vertex -8.836804e-003 0.000000e+000 8.882803e-004
         vertex -8.798624e-003 0.000000e+000 9.640058e-004
         vertex -9.262569e-003 0.000000e+000 1.150434e-003
      endloop
   endfacet
   facet normal 0.000000e+000 -1.000000e+000 0.000000e+000
      outer loop
         vertex -9.262569e-003 0.000000e+000 1.150434e-003
         vertex -8.798624e-003 0.000000e+000 9.640058e-004
         vertex -8.773792e-003 0.000000e+000 1.045094e-003
      endloop
   endfacet
   facet normal 0.000000e+000 -1.000000e+000 0.000000e+000
      outer loop
         vertex -9.262569e-003 0.000000e+000 1.150434e-003
         vertex -8.773792e-003 0.000000e+000 1.045094e-003
         vertex -8.763019e-003 0.000000e+000 1.129213e-003
      endloop
   endfacet
   facet normal 0.000000e+000 -1.000000e+000 0.000000e+000
      outer loop
         vertex -9.018721e-003 0.000000e+000 7.139269e-004
         vertex -8.948459e-003 0.000000e+000 7.614161e-004
         vertex -9.262569e-003 0.000000e+000 1.150434e-003
      endloop
   endfacet
   facet normal 0.000000e+000 -1.000000e+000 0.000000e+000
      outer loop
         vertex -9.262569e-003 0.000000e+000 1.150434e-003
         vertex -8.948459e-003 0.000000e+000 7.614161e-004
         vertex -8.887233e-003 0.000000e+000 8.200966e-004
      endloop
   endfacet
   facet normal 0.000000e+000 -1.000000e+000 0.000000e+000
      outer loop
         vertex -9.262569e-003 0.000000e+000 1.150434e-003
         vertex -8.887233e-003 0.000000e+000 8.200966e-004
         vertex -8.836804e-003 0.000000e+000 8.882803e-004
      endloop
   endfacet
   facet normal 0.000000e+000 -1.000000e+000 0.000000e+000
      outer loop
         vertex -9.262569e-003 0.000000e+000 6.504340e-004
         vertex -9.178068e-003 0.000000e+000 6.576260e-004
         vertex -9.262569e-003 0.000000e+000 1.150434e-003
      endloop
   endfacet
   facet normal 0.000000e+000 -1.000000e+000 0.000000e+000
      outer loop
         vertex -9.262569e-003 0.000000e+000 1.150434e-003
         vertex -9.178068e-003 0.000000e+000 6.576260e-004
         vertex -9.095999e-003 0.000000e+000 6.789953e-004
      endloop
   endfacet
   facet normal 0.000000e+000 -1.000000e+000 0.000000e+000
      outer loop
         vertex -9.262569e-003 0.000000e+000 1.150434e-003
         vertex -9.095999e-003 0.000000e+000 6.789953e-004
         vertex -9.018721e-003 0.000000e+000 7.139269e-004
      endloop
   endfacet
   facet normal 0.000000e+000 -1.000000e+000 0.000000e+000
      outer loop
         vertex -9.506417e-003 0.000000e+000 7.139269e-004
         vertex -9.429139e-003 0.000000e+000 6.789953e-004
         vertex -9.262569e-003 0.000000e+000 1.150434e-003
      endloop
   endfacet
   facet normal 0.000000e+000 -1.000000e+000 0.000000e+000
      outer loop
         vertex -9.262569e-003 0.000000e+000 1.150434e-003
         vertex -9.429139e-003 0.000000e+000 6.789953e-004
         vertex -9.347069e-003 0.000000e+000 6.576260e-004
      endloop
   endfacet
   facet normal 0.000000e+000 -1.000000e+000 0.000000e+000
      outer loop
         vertex -9.262569e-003 0.000000e+000 1.150434e-003
         vertex -9.347069e-003 0.000000e+000 6.576260e-004
         vertex -9.262569e-003 0.000000e+000 6.504340e-004
      endloop
   endfacet
   facet normal 0.000000e+000 -1.000000e+000 0.000000e+000
      outer loop
         vertex -9.688334e-003 0.000000e+000 8.882803e-004
         vertex -9.637905e-003 0.000000e+000 8.200966e-004
         vertex -9.262569e-003 0.000000e+000 1.150434e-003
      endloop
   endfacet
   facet normal 0.000000e+000 -1.000000e+000 0.000000e+000
      outer loop
         vertex -9.262569e-003 0.000000e+000 1.150434e-003
         vertex -9.637905e-003 0.000000e+000 8.200966e-004
         vertex -9.576679e-003 0.000000e+000 7.614161e-004
      endloop
   endfacet
   facet normal 0.000000e+000 -1.000000e+000 0.000000e+000
      outer loop
         vertex -9.262569e-003 0.000000e+000 1.150434e-003
         vertex -9.576679e-003 0.000000e+000 7.614161e-004
         vertex -9.506417e-003 0.000000e+000 7.139269e-004
      endloop
   endfacet
   facet normal 0.000000e+000 -1.000000e+000 0.000000e+000
      outer loop
         vertex -9.762119e-003 0.000000e+000 1.129213e-003
         vertex -9.751347e-003 0.000000e+000 1.045094e-003
         vertex -9.262569e-003 0.000000e+000 1.150434e-003
      endloop
   endfacet
   facet normal 0.000000e+000 -1.000000e+000 0.000000e+000
      outer loop
         vertex -9.262569e-003 0.000000e+000 1.150434e-003
         vertex -9.751347e-003 0.000000e+000 1.045094e-003
         vertex -9.726513e-003 0.000000e+000 9.640058e-004
      endloop
   endfacet
   facet normal 0.000000e+000 -1.000000e+000 0.000000e+000
      outer loop
         vertex -9.262569e-003 0.000000e+000 1.150434e-003
         vertex -9.726513e-003 0.000000e+000 9.640058e-004
         vertex -9.688334e-003 0.000000e+000 8.882803e-004
      endloop
   endfacet
   facet normal 0.000000e+000 -1.000000e+000 0.000000e+000
      outer loop
         vertex -9.709032e-003 0.000000e+000 1.375536e-003
         vertex -9.740653e-003 0.000000e+000 1.296845e-003
         vertex -9.262569e-003 0.000000e+000 1.150434e-003
      endloop
   endfacet
   facet normal 0.000000e+000 -1.000000e+000 0.000000e+000
      outer loop
         vertex -9.262569e-003 0.000000e+000 1.150434e-003
         vertex -9.740653e-003 0.000000e+000 1.296845e-003
         vertex -9.758519e-003 0.000000e+000 1.213943e-003
      endloop
   endfacet
   facet normal 0.000000e+000 -1.000000e+000 0.000000e+000
      outer loop
         vertex -9.262569e-003 0.000000e+000 1.150434e-003
         vertex -9.758519e-003 0.000000e+000 1.213943e-003
         vertex -9.762119e-003 0.000000e+000 1.129213e-003
      endloop
   endfacet
   facet normal 0.000000e+000 -1.000000e+000 0.000000e+000
      outer loop
         vertex -9.542556e-003 0.000000e+000 1.564689e-003
         vertex -9.608538e-003 0.000000e+000 1.511412e-003
         vertex -9.262569e-003 0.000000e+000 1.150434e-003
      endloop
   endfacet
   facet normal 0.000000e+000 -1.000000e+000 0.000000e+000
      outer loop
         vertex -9.262569e-003 0.000000e+000 1.150434e-003
         vertex -9.608538e-003 0.000000e+000 1.511412e-003
         vertex -9.664567e-003 0.000000e+000 1.447751e-003
      endloop
   endfacet
   facet normal 0.000000e+000 -1.000000e+000 0.000000e+000
      outer loop
         vertex -9.262569e-003 0.000000e+000 1.150434e-003
         vertex -9.664567e-003 0.000000e+000 1.447751e-003
         vertex -9.709032e-003 0.000000e+000 1.375536e-003
      endloop
   endfacet
   facet normal 0.000000e+000 -1.000000e+000 0.000000e+000
      outer loop
         vertex -9.304971e-003 0.000000e+000 1.648633e-003
         vertex -9.388558e-003 0.000000e+000 1.634300e-003
         vertex -9.262569e-003 0.000000e+000 1.150434e-003
      endloop
   endfacet
   facet normal 0.000000e+000 -1.000000e+000 0.000000e+000
      outer loop
         vertex -9.262569e-003 0.000000e+000 1.150434e-003
         vertex -9.388558e-003 0.000000e+000 1.634300e-003
         vertex -9.468519e-003 0.000000e+000 1.606048e-003
      endloop
   endfacet
   facet normal 0.000000e+000 -1.000000e+000 0.000000e+000
      outer loop
         vertex -9.262569e-003 0.000000e+000 1.150434e-003
         vertex -9.468519e-003 0.000000e+000 1.606048e-003
         vertex -9.542556e-003 0.000000e+000 1.564689e-003
      endloop
   endfacet
endsolid