solid motor_Default_sldprt
   facet normal 8.692077e-001 0.000000e+000 -4.944470e-001
      outer loop
         vertex 0.000000e+000 1.000000e-001 -5.163275e-002
         vertex 0.000000e+000 0.000000e+000 -5.163275e-002
         vertex -3.174004e-003 0.000000e+000 -5.695326e-002
      endloop
   endfacet
   facet normal 8.480116e-001 0.000000e+000 -5.299777e-001
      outer loop
         vertex 0.000000e+000 1.000000e-001 -5.163275e-002
         vertex -3.174004e-003 0.000000e+000 -5.695326e-002
         vertex -3.174004e-003 1.000000e-001 -5.695326e-002
      endloop
   endfacet
   facet normal 8.013878e-001 0.000000e+000 -5.981451e-001
      outer loop
         vertex -3.174004e-003 1.000000e-001 -5.695326e-002
         vertex -3.174004e-003 0.000000e+000 -5.695326e-002
         vertex -6.981623e-003 0.000000e+000 -6.184040e-002
      endloop
   endfacet
   facet normal 7.759603e-001 0.000000e+000 -6.307818e-001
      outer loop
         vertex -3.174004e-003 1.000000e-001 -5.695326e-002
         vertex -6.981623e-003 0.000000e+000 -6.184040e-002
         vertex -6.981623e-003 1.000000e-001 -6.184040e-002
      endloop
   endfacet
   facet normal 7.212642e-001 0.000000e+000 -6.926601e-001
      outer loop
         vertex -6.981623e-003 1.000000e-001 -6.184040e-002
         vertex -6.981623e-003 0.000000e+000 -6.184040e-002
         vertex -1.136440e-002 0.000000e+000 -6.621914e-002
      endloop
   endfacet
   facet normal 6.919957e-001 0.000000e+000 -7.219016e-001
      outer loop
         vertex -6.981623e-003 1.000000e-001 -6.184040e-002
         vertex -1.136440e-002 0.000000e+000 -6.621914e-002
         vertex -1.136440e-002 1.000000e-001 -6.621914e-002
      endloop
   endfacet
   facet normal 6.300672e-001 0.000000e+000 -7.765406e-001
      outer loop
         vertex -1.136440e-002 1.000000e-001 -6.621914e-002
         vertex -1.136440e-002 0.000000e+000 -6.621914e-002
         vertex -1.625505e-002 0.000000e+000 -7.002226e-002
      endloop
   endfacet
   facet normal 5.974072e-001 0.000000e+000 -8.019381e-001
      outer loop
         vertex -1.136440e-002 1.000000e-001 -6.621914e-002
         vertex -1.625505e-002 0.000000e+000 -7.002226e-002
         vertex -1.625505e-002 1.000000e-001 -7.002226e-002
      endloop
   endfacet
   facet normal 5.291968e-001 0.000000e+000 -8.484991e-001
      outer loop
         vertex -1.625505e-002 1.000000e-001 -7.002226e-002
         vertex -1.625505e-002 0.000000e+000 -7.002226e-002
         vertex -2.157847e-002 0.000000e+000 -7.319137e-002
      endloop
   endfacet
   facet normal 4.936466e-001 0.000000e+000 -8.696626e-001
      outer loop
         vertex -1.625505e-002 1.000000e-001 -7.002226e-002
         vertex -2.157847e-002 0.000000e+000 -7.319137e-002
         vertex -2.157847e-002 1.000000e-001 -7.319137e-002
      endloop
   endfacet
   facet normal 4.202018e-001 0.000000e+000 -9.074306e-001
      outer loop
         vertex -2.157847e-002 1.000000e-001 -7.319137e-002
         vertex -2.157847e-002 0.000000e+000 -7.319137e-002
         vertex -2.725296e-002 0.000000e+000 -7.567780e-002
      endloop
   endfacet
   facet normal 3.823072e-001 0.000000e+000 -9.240353e-001
      outer loop
         vertex -2.157847e-002 1.000000e-001 -7.319137e-002
         vertex -2.725296e-002 0.000000e+000 -7.567780e-002
         vertex -2.725296e-002 1.000000e-001 -7.567780e-002
      endloop
   endfacet
   facet normal 3.047555e-001 0.000000e+000 -9.524306e-001
      outer loop
         vertex -2.725296e-002 1.000000e-001 -7.567780e-002
         vertex -2.725296e-002 0.000000e+000 -7.567780e-002
         vertex -3.319137e-002 0.000000e+000 -7.744340e-002
      endloop
   endfacet
   facet normal 2.650983e-001 0.000000e+000 -9.642214e-001
      outer loop
         vertex -2.725296e-002 1.000000e-001 -7.567780e-002
         vertex -3.319137e-002 0.000000e+000 -7.744340e-002
         vertex -3.319137e-002 1.000000e-001 -7.744340e-002
      endloop
   endfacet
   facet normal 1.846303e-001 0.000000e+000 -9.828081e-001
      outer loop
         vertex -3.319137e-002 1.000000e-001 -7.744340e-002
         vertex -3.319137e-002 0.000000e+000 -7.744340e-002
         vertex -3.930255e-002 0.000000e+000 -7.846104e-002
      endloop
   endfacet
   facet normal 1.438194e-001 0.000000e+000 -9.896039e-001
      outer loop
         vertex -3.319137e-002 1.000000e-001 -7.744340e-002
         vertex -3.930255e-002 0.000000e+000 -7.846104e-002
         vertex -3.930255e-002 1.000000e-001 -7.846104e-002
      endloop
   endfacet
   facet normal 6.167053e-002 0.000000e+000 -9.980965e-001
      outer loop
         vertex -3.930255e-002 1.000000e-001 -7.846104e-002
         vertex -3.930255e-002 0.000000e+000 -7.846104e-002
         vertex -4.549267e-002 0.000000e+000 -7.871512e-002
      endloop
   endfacet
   facet normal 2.033249e-002 0.000000e+000 -9.997933e-001
      outer loop
         vertex -3.930255e-002 1.000000e-001 -7.846104e-002
         vertex -4.549267e-002 0.000000e+000 -7.871512e-002
         vertex -4.549267e-002 1.000000e-001 -7.871512e-002
      endloop
   endfacet
   facet normal -6.223607e-002 0.000000e+000 -9.980614e-001
      outer loop
         vertex -4.549267e-002 1.000000e-001 -7.871512e-002
         vertex -4.549267e-002 0.000000e+000 -7.871512e-002
         vertex -5.166669e-002 0.000000e+000 -7.820171e-002
      endloop
   endfacet
   facet normal -1.034666e-001 0.000000e+000 -9.946329e-001
      outer loop
         vertex -4.549267e-002 1.000000e-001 -7.871512e-002
         vertex -5.166669e-002 0.000000e+000 -7.820171e-002
         vertex -5.166669e-002 1.000000e-001 -7.820171e-002
      endloop
   endfacet
   facet normal -1.851872e-001 0.000000e+000 -9.827033e-001
      outer loop
         vertex -5.166669e-002 1.000000e-001 -7.820171e-002
         vertex -5.166669e-002 0.000000e+000 -7.820171e-002
         vertex -5.772983e-002 0.000000e+000 -7.692872e-002
      endloop
   endfacet
   facet normal -2.256772e-001 0.000000e+000 -9.742021e-001
      outer loop
         vertex -5.166669e-002 1.000000e-001 -7.820171e-002
         vertex -5.772983e-002 0.000000e+000 -7.692872e-002
         vertex -5.772983e-002 1.000000e-001 -7.692872e-002
      endloop
   endfacet
   facet normal -3.052951e-001 0.000000e+000 -9.522578e-001
      outer loop
         vertex -5.772983e-002 1.000000e-001 -7.692872e-002
         vertex -5.772983e-002 0.000000e+000 -7.692872e-002
         vertex -6.358899e-002 0.000000e+000 -7.491568e-002
      endloop
   endfacet
   facet normal -3.444230e-001 0.000000e+000 -9.388145e-001
      outer loop
         vertex -5.772983e-002 1.000000e-001 -7.692872e-002
         vertex -6.358899e-002 0.000000e+000 -7.491568e-002
         vertex -6.358899e-002 1.000000e-001 -7.491568e-002
      endloop
   endfacet
   facet normal -4.207159e-001 0.000000e+000 -9.071925e-001
      outer loop
         vertex -6.358899e-002 1.000000e-001 -7.491568e-002
         vertex -6.358899e-002 0.000000e+000 -7.491568e-002
         vertex -6.915423e-002 0.000000e+000 -7.219350e-002
      endloop
   endfacet
   facet normal -4.578809e-001 0.000000e+000 -8.890135e-001
      outer loop
         vertex -6.358899e-002 1.000000e-001 -7.491568e-002
         vertex -6.915423e-002 0.000000e+000 -7.219350e-002
         vertex -6.915423e-002 1.000000e-001 -7.219350e-002
      endloop
   endfacet
   facet normal -5.296776e-001 0.000000e+000 -8.481991e-001
      outer loop
         vertex -6.915423e-002 1.000000e-001 -7.219350e-002
         vertex -6.915423e-002 0.000000e+000 -7.219350e-002
         vertex -7.434009e-002 0.000000e+000 -6.880397e-002
      endloop
   endfacet
   facet normal -5.643091e-001 0.000000e+000 -8.255635e-001
      outer loop
         vertex -6.915423e-002 1.000000e-001 -7.219350e-002
         vertex -7.434009e-002 0.000000e+000 -6.880397e-002
         vertex -7.434009e-002 1.000000e-001 -6.880397e-002
      endloop
   endfacet
   facet normal -6.305071e-001 0.000000e+000 -7.761835e-001
      outer loop
         vertex -7.434009e-002 1.000000e-001 -6.880397e-002
         vertex -7.434009e-002 0.000000e+000 -6.880397e-002
         vertex -7.906697e-002 0.000000e+000 -6.479913e-002
      endloop
   endfacet
   facet normal -6.620735e-001 0.000000e+000 -7.494389e-001
      outer loop
         vertex -7.434009e-002 1.000000e-001 -6.880397e-002
         vertex -7.906697e-002 0.000000e+000 -6.479913e-002
         vertex -7.906697e-002 1.000000e-001 -6.479913e-002
      endloop
   endfacet
   facet normal -7.216566e-001 0.000000e+000 -6.922512e-001
      outer loop
         vertex -7.906697e-002 1.000000e-001 -6.479913e-002
         vertex -7.906697e-002 0.000000e+000 -6.479913e-002
         vertex -8.326229e-002 0.000000e+000 -6.024047e-002
      endloop
   endfacet
   facet normal -7.496732e-001 0.000000e+000 -6.618081e-001
      outer loop
         vertex -7.906697e-002 1.000000e-001 -6.479913e-002
         vertex -8.326229e-002 0.000000e+000 -6.024047e-002
         vertex -8.326229e-002 1.000000e-001 -6.024047e-002
      endloop
   endfacet
   facet normal -8.017265e-001 0.000000e+000 -5.976910e-001
      outer loop
         vertex -8.326229e-002 1.000000e-001 -6.024047e-002
         vertex -8.326229e-002 0.000000e+000 -6.024047e-002
         vertex -8.686164e-002 0.000000e+000 -5.519797e-002
      endloop
   endfacet
   facet normal -8.257632e-001 0.000000e+000 -5.640169e-001
      outer loop
         vertex -8.326229e-002 1.000000e-001 -6.024047e-002
         vertex -8.686164e-002 0.000000e+000 -5.519797e-002
         vertex -8.686164e-002 1.000000e-001 -5.519797e-002
      endloop
   endfacet
   facet normal -8.694878e-001 0.000000e+000 -4.939544e-001
      outer loop
         vertex -8.686164e-002 1.000000e-001 -5.519797e-002
         vertex -8.686164e-002 0.000000e+000 -5.519797e-002
         vertex -8.980977e-002 0.000000e+000 -4.974905e-002
      endloop
   endfacet
   facet normal -8.891755e-001 0.000000e+000 -4.575662e-001
      outer loop
         vertex -8.686164e-002 1.000000e-001 -5.519797e-002
         vertex -8.980977e-002 0.000000e+000 -4.974905e-002
         vertex -8.980977e-002 1.000000e-001 -4.974905e-002
      endloop
   endfacet
   facet normal -9.238998e-001 0.000000e+000 -3.826343e-001
      outer loop
         vertex -8.980977e-002 1.000000e-001 -4.974905e-002
         vertex -8.980977e-002 0.000000e+000 -4.974905e-002
         vertex -9.206140e-002 0.000000e+000 -4.397738e-002
      endloop
   endfacet
   facet normal -9.389364e-001 0.000000e+000 -3.440907e-001
      outer loop
         vertex -8.980977e-002 1.000000e-001 -4.974905e-002
         vertex -9.206140e-002 0.000000e+000 -4.397738e-002
         vertex -9.206140e-002 1.000000e-001 -4.397738e-002
      endloop
   endfacet
   facet normal -9.641275e-001 0.000000e+000 -2.654397e-001
      outer loop
         vertex -9.206140e-002 1.000000e-001 -4.397738e-002
         vertex -9.206140e-002 0.000000e+000 -4.397738e-002
         vertex -9.358197e-002 0.000000e+000 -3.797155e-002
      endloop
   endfacet
   facet normal -9.742819e-001 0.000000e+000 -2.253323e-001
      outer loop
         vertex -9.206140e-002 1.000000e-001 -4.397738e-002
         vertex -9.358197e-002 0.000000e+000 -3.797155e-002
         vertex -9.358197e-002 1.000000e-001 -3.797155e-002
      endloop
   endfacet
   facet normal -9.895530e-001 0.000000e+000 -1.441697e-001
      outer loop
         vertex -9.358197e-002 1.000000e-001 -3.797155e-002
         vertex -9.358197e-002 0.000000e+000 -3.797155e-002
         vertex -9.434814e-002 0.000000e+000 -3.182378e-002
      endloop
   endfacet
   facet normal -9.946694e-001 0.000000e+000 -1.031145e-001
      outer loop
         vertex -9.358197e-002 1.000000e-001 -3.797155e-002
         vertex -9.434814e-002 0.000000e+000 -3.182378e-002
         vertex -9.434814e-002 1.000000e-001 -3.182378e-002
      endloop
   endfacet
   facet normal -9.997860e-001 0.000000e+000 -2.068642e-002
      outer loop
         vertex -9.434814e-002 1.000000e-001 -3.182378e-002
         vertex -9.434814e-002 0.000000e+000 -3.182378e-002
         vertex -9.434814e-002 0.000000e+000 -2.562845e-002
      endloop
   endfacet
   facet normal -9.997860e-001 0.000000e+000 2.068642e-002
      outer loop
         vertex -9.434814e-002 1.000000e-001 -3.182378e-002
         vertex -9.434814e-002 0.000000e+000 -2.562845e-002
         vertex -9.434814e-002 1.000000e-001 -2.562845e-002
      endloop
   endfacet
   facet normal -9.946694e-001 0.000000e+000 1.031145e-001
      outer loop
         vertex -9.434814e-002 1.000000e-001 -2.562845e-002
         vertex -9.434814e-002 0.000000e+000 -2.562845e-002
         vertex -9.358197e-002 0.000000e+000 -1.948067e-002
      endloop
   endfacet
   facet normal -9.895530e-001 0.000000e+000 1.441697e-001
      outer loop
         vertex -9.434814e-002 1.000000e-001 -2.562845e-002
         vertex -9.358197e-002 0.000000e+000 -1.948067e-002
         vertex -9.358197e-002 1.000000e-001 -1.948067e-002
      endloop
   endfacet
   facet normal -9.742819e-001 0.000000e+000 2.253323e-001
      outer loop
         vertex -9.358197e-002 1.000000e-001 -1.948067e-002
         vertex -9.358197e-002 0.000000e+000 -1.948067e-002
         vertex -9.206140e-002 0.000000e+000 -1.347484e-002
      endloop
   endfacet
   facet normal -9.641275e-001 0.000000e+000 2.654397e-001
      outer loop
         vertex -9.358197e-002 1.000000e-001 -1.948067e-002
         vertex -9.206140e-002 0.000000e+000 -1.347484e-002
         vertex -9.206140e-002 1.000000e-001 -1.347484e-002
      endloop
   endfacet
   facet normal -9.389364e-001 0.000000e+000 3.440907e-001
      outer loop
         vertex -9.206140e-002 1.000000e-001 -1.347484e-002
         vertex -9.206140e-002 0.000000e+000 -1.347484e-002
         vertex -8.980977e-002 0.000000e+000 -7.703166e-003
      endloop
   endfacet
   facet normal -9.238998e-001 0.000000e+000 3.826343e-001
      outer loop
         vertex -9.206140e-002 1.000000e-001 -1.347484e-002
         vertex -8.980977e-002 0.000000e+000 -7.703166e-003
         vertex -8.980977e-002 1.000000e-001 -7.703166e-003
      endloop
   endfacet
   facet normal -8.891755e-001 0.000000e+000 4.575662e-001
      outer loop
         vertex -8.980977e-002 1.000000e-001 -7.703166e-003
         vertex -8.980977e-002 0.000000e+000 -7.703166e-003
         vertex -8.686164e-002 0.000000e+000 -2.254249e-003
      endloop
   endfacet
   facet normal -8.694878e-001 0.000000e+000 4.939544e-001
      outer loop
         vertex -8.980977e-002 1.000000e-001 -7.703166e-003
         vertex -8.686164e-002 0.000000e+000 -2.254249e-003
         vertex -8.686164e-002 1.000000e-001 -2.254249e-003
      endloop
   endfacet
   facet normal -8.257632e-001 0.000000e+000 5.640169e-001
      outer loop
         vertex -8.686164e-002 1.000000e-001 -2.254249e-003
         vertex -8.686164e-002 0.000000e+000 -2.254249e-003
         vertex -8.326229e-002 0.000000e+000 2.788248e-003
      endloop
   endfacet
   facet normal -8.017265e-001 0.000000e+000 5.976910e-001
      outer loop
         vertex -8.686164e-002 1.000000e-001 -2.254249e-003
         vertex -8.326229e-002 0.000000e+000 2.788248e-003
         vertex -8.326229e-002 1.000000e-001 2.788248e-003
      endloop
   endfacet
   facet normal -7.496732e-001 0.000000e+000 6.618081e-001
      outer loop
         vertex -8.326229e-002 1.000000e-001 2.788248e-003
         vertex -8.326229e-002 0.000000e+000 2.788248e-003
         vertex -7.906697e-002 0.000000e+000 7.346911e-003
      endloop
   endfacet
   facet normal -7.216566e-001 0.000000e+000 6.922512e-001
      outer loop
         vertex -8.326229e-002 1.000000e-001 2.788248e-003
         vertex -7.906697e-002 0.000000e+000 7.346911e-003
         vertex -7.906697e-002 1.000000e-001 7.346911e-003
      endloop
   endfacet
   facet normal -6.620735e-001 0.000000e+000 7.494389e-001
      outer loop
         vertex -7.906697e-002 1.000000e-001 7.346911e-003
         vertex -7.906697e-002 0.000000e+000 7.346911e-003
         vertex -7.434009e-002 0.000000e+000 1.135175e-002
      endloop
   endfacet
   facet normal -6.305071e-001 0.000000e+000 7.761835e-001
      outer loop
         vertex -7.906697e-002 1.000000e-001 7.346911e-003
         vertex -7.434009e-002 0.000000e+000 1.135175e-002
         vertex -7.434009e-002 1.000000e-001 1.135175e-002
      endloop
   endfacet
   facet normal -5.643091e-001 0.000000e+000 8.255635e-001
      outer loop
         vertex -7.434009e-002 1.000000e-001 1.135175e-002
         vertex -7.434009e-002 0.000000e+000 1.135175e-002
         vertex -6.915423e-002 0.000000e+000 1.474128e-002
      endloop
   endfacet
   facet normal -5.296776e-001 0.000000e+000 8.481991e-001
      outer loop
         vertex -7.434009e-002 1.000000e-001 1.135175e-002
         vertex -6.915423e-002 0.000000e+000 1.474128e-002
         vertex -6.915423e-002 1.000000e-001 1.474128e-002
      endloop
   endfacet
   facet normal -4.578809e-001 0.000000e+000 8.890135e-001
      outer loop
         vertex -6.915423e-002 1.000000e-001 1.474128e-002
         vertex -6.915423e-002 0.000000e+000 1.474128e-002
         vertex -6.358899e-002 0.000000e+000 1.746346e-002
      endloop
   endfacet
   facet normal -4.207159e-001 0.000000e+000 9.071925e-001
      outer loop
         vertex -6.915423e-002 1.000000e-001 1.474128e-002
         vertex -6.358899e-002 0.000000e+000 1.746346e-002
         vertex -6.358899e-002 1.000000e-001 1.746346e-002
      endloop
   endfacet
   facet normal -3.444230e-001 0.000000e+000 9.388145e-001
      outer loop
         vertex -6.358899e-002 1.000000e-001 1.746346e-002
         vertex -6.358899e-002 0.000000e+000 1.746346e-002
         vertex -5.772983e-002 0.000000e+000 1.947650e-002
      endloop
   endfacet
   facet normal -3.052951e-001 0.000000e+000 9.522578e-001
      outer loop
         vertex -6.358899e-002 1.000000e-001 1.746346e-002
         vertex -5.772983e-002 0.000000e+000 1.947650e-002
         vertex -5.772983e-002 1.000000e-001 1.947650e-002
      endloop
   endfacet
   facet normal -2.256772e-001 0.000000e+000 9.742021e-001
      outer loop
         vertex -5.772983e-002 1.000000e-001 1.947650e-002
         vertex -5.772983e-002 0.000000e+000 1.947650e-002
         vertex -5.166669e-002 0.000000e+000 2.074949e-002
      endloop
   endfacet
   facet normal -1.851872e-001 0.000000e+000 9.827033e-001
      outer loop
         vertex -5.772983e-002 1.000000e-001 1.947650e-002
         vertex -5.166669e-002 0.000000e+000 2.074949e-002
         vertex -5.166669e-002 1.000000e-001 2.074949e-002
      endloop
   endfacet
   facet normal -1.034666e-001 0.000000e+000 9.946329e-001
      outer loop
         vertex -5.166669e-002 1.000000e-001 2.074949e-002
         vertex -5.166669e-002 0.000000e+000 2.074949e-002
         vertex -4.549267e-002 0.000000e+000 2.126290e-002
      endloop
   endfacet
   facet normal -6.223607e-002 0.000000e+000 9.980614e-001
      outer loop
         vertex -5.166669e-002 1.000000e-001 2.074949e-002
         vertex -4.549267e-002 0.000000e+000 2.126290e-002
         vertex -4.549267e-002 1.000000e-001 2.126290e-002
      endloop
   endfacet
   facet normal 2.033249e-002 0.000000e+000 9.997933e-001
      outer loop
         vertex -4.549267e-002 1.000000e-001 2.126290e-002
         vertex -4.549267e-002 0.000000e+000 2.126290e-002
         vertex -3.930255e-002 0.000000e+000 2.100882e-002
      endloop
   endfacet
   facet normal 6.167053e-002 0.000000e+000 9.980965e-001
      outer loop
         vertex -4.549267e-002 1.000000e-001 2.126290e-002
         vertex -3.930255e-002 0.000000e+000 2.100882e-002
         vertex -3.930255e-002 1.000000e-001 2.100882e-002
      endloop
   endfacet
   facet normal 1.438194e-001 0.000000e+000 9.896039e-001
      outer loop
         vertex -3.930255e-002 1.000000e-001 2.100882e-002
         vertex -3.930255e-002 0.000000e+000 2.100882e-002
         vertex -3.319137e-002 0.000000e+000 1.999118e-002
      endloop
   endfacet
   facet normal 1.846303e-001 0.000000e+000 9.828081e-001
      outer loop
         vertex -3.930255e-002 1.000000e-001 2.100882e-002
         vertex -3.319137e-002 0.000000e+000 1.999118e-002
         vertex -3.319137e-002 1.000000e-001 1.999118e-002
      endloop
   endfacet
   facet normal 2.650983e-001 0.000000e+000 9.642214e-001
      outer loop
         vertex -3.319137e-002 1.000000e-001 1.999118e-002
         vertex -3.319137e-002 0.000000e+000 1.999118e-002
         vertex -2.725296e-002 0.000000e+000 1.822558e-002
      endloop
   endfacet
   facet normal 3.047555e-001 0.000000e+000 9.524306e-001
      outer loop
         vertex -3.319137e-002 1.000000e-001 1.999118e-002
         vertex -2.725296e-002 0.000000e+000 1.822558e-002
         vertex -2.725296e-002 1.000000e-001 1.822558e-002
      endloop
   endfacet
   facet normal 3.823072e-001 0.000000e+000 9.240353e-001
      outer loop
         vertex -2.725296e-002 1.000000e-001 1.822558e-002
         vertex -2.725296e-002 0.000000e+000 1.822558e-002
         vertex -2.157847e-002 0.000000e+000 1.573915e-002
      endloop
   endfacet
   facet normal 4.202018e-001 0.000000e+000 9.074306e-001
      outer loop
         vertex -2.725296e-002 1.000000e-001 1.822558e-002
         vertex -2.157847e-002 0.000000e+000 1.573915e-002
         vertex -2.157847e-002 1.000000e-001 1.573915e-002
      endloop
   endfacet
   facet normal 4.936466e-001 0.000000e+000 8.696626e-001
      outer loop
         vertex -2.157847e-002 1.000000e-001 1.573915e-002
         vertex -2.157847e-002 0.000000e+000 1.573915e-002
         vertex -1.625505e-002 0.000000e+000 1.257004e-002
      endloop
   endfacet
   facet normal 5.291968e-001 0.000000e+000 8.484991e-001
      outer loop
         vertex -2.157847e-002 1.000000e-001 1.573915e-002
         vertex -1.625505e-002 0.000000e+000 1.257004e-002
         vertex -1.625505e-002 1.000000e-001 1.257004e-002
      endloop
   endfacet
   facet normal 5.974071e-001 0.000000e+000 8.019381e-001
      outer loop
         vertex -1.625505e-002 1.000000e-001 1.257004e-002
         vertex -1.625505e-002 0.000000e+000 1.257004e-002
         vertex -1.136440e-002 0.000000e+000 8.766925e-003
      endloop
   endfacet
   facet normal 6.300672e-001 0.000000e+000 7.765406e-001
      outer loop
         vertex -1.625505e-002 1.000000e-001 1.257004e-002
         vertex -1.136440e-002 0.000000e+000 8.766925e-003
         vertex -1.136440e-002 1.000000e-001 8.766925e-003
      endloop
   endfacet
   facet normal 6.919957e-001 0.000000e+000 7.219016e-001
      outer loop
         vertex -1.136440e-002 1.000000e-001 8.766925e-003
         vertex -1.136440e-002 0.000000e+000 8.766925e-003
         vertex -6.981623e-003 0.000000e+000 4.388181e-003
      endloop
   endfacet
   facet normal 7.212642e-001 0.000000e+000 6.926601e-001
      outer loop
         vertex -1.136440e-002 1.000000e-001 8.766925e-003
         vertex -6.981623e-003 0.000000e+000 4.388181e-003
         vertex -6.981623e-003 1.000000e-001 4.388181e-003
      endloop
   endfacet
   facet normal 7.759603e-001 0.000000e+000 6.307818e-001
      outer loop
         vertex -6.981623e-003 1.000000e-001 4.388181e-003
         vertex -6.981623e-003 0.000000e+000 4.388181e-003
         vertex -3.174004e-003 0.000000e+000 -4.989604e-004
      endloop
   endfacet
   facet normal 8.013878e-001 0.000000e+000 5.981451e-001
      outer loop
         vertex -6.981623e-003 1.000000e-001 4.388181e-003
         vertex -3.174004e-003 0.000000e+000 -4.989604e-004
         vertex -3.174004e-003 1.000000e-001 -4.989604e-004
      endloop
   endfacet
   facet normal 8.480116e-001 0.000000e+000 5.299777e-001
      outer loop
         vertex -3.174004e-003 1.000000e-001 -4.989604e-004
         vertex -3.174004e-003 0.000000e+000 -4.989604e-004
         vertex 0.000000e+000 0.000000e+000 -5.819469e-003
      endloop
   endfacet
   facet normal 8.692078e-001 0.000000e+000 4.944470e-001
      outer loop
         vertex -3.174004e-003 1.000000e-001 -4.989604e-004
         vertex 0.000000e+000 0.000000e+000 -5.819469e-003
         vertex 0.000000e+000 1.000000e-001 -5.819469e-003
      endloop
   endfacet
   facet normal 0.000000e+000 1.000000e+000 0.000000e+000
      outer loop
         vertex 0.000000e+000 1.000000e-001 1.127389e-002
         vertex 1.000000e-002 1.000000e-001 1.127389e-002
         vertex 0.000000e+000 1.000000e-001 -5.819469e-003
      endloop
   endfacet
   facet normal 0.000000e+000 1.000000e+000 0.000000e+000
      outer loop
         vertex 0.000000e+000 1.000000e-001 -5.819469e-003
         vertex 1.000000e-002 1.000000e-001 1.127389e-002
         vertex 1.000000e-002 1.000000e-001 -6.872611e-002
      endloop
   endfacet
   facet normal 0.000000e+000 1.000000e+000 0.000000e+000
      outer loop
         vertex 0.000000e+000 1.000000e-001 -5.819469e-003
         vertex 1.000000e-002 1.000000e-001 -6.872611e-002
         vertex 0.000000e+000 1.000000e-001 -5.163275e-002
      endloop
   endfacet
   facet normal 0.000000e+000 1.000000e+000 0.000000e+000
      outer loop
         vertex 0.000000e+000 1.000000e-001 -5.163275e-002
         vertex 1.000000e-002 1.000000e-001 -6.872611e-002
         vertex 0.000000e+000 1.000000e-001 -6.872611e-002
      endloop
   endfacet
   facet normal 0.000000e+000 1.000000e+000 0.000000e+000
      outer loop
         vertex -6.764141e-002 1.000000e-001 -3.804752e-002
         vertex -9.206140e-002 1.000000e-001 -4.397738e-002
         vertex -6.888307e-002 1.000000e-001 -3.399309e-002
      endloop
   endfacet
   facet normal 0.000000e+000 1.000000e+000 0.000000e+000
      outer loop
         vertex -6.888307e-002 1.000000e-001 -3.399309e-002
         vertex -9.206140e-002 1.000000e-001 -4.397738e-002
         vertex -9.358197e-002 1.000000e-001 -3.797155e-002
      endloop
   endfacet
   facet normal 0.000000e+000 1.000000e+000 0.000000e+000
      outer loop
         vertex -6.888307e-002 1.000000e-001 -3.399309e-002
         vertex -9.358197e-002 1.000000e-001 -3.797155e-002
         vertex -6.942166e-002 1.000000e-001 -2.978714e-002
      endloop
   endfacet
   facet normal 0.000000e+000 1.000000e+000 0.000000e+000
      outer loop
         vertex -6.676733e-002 1.000000e-001 -1.747102e-002
         vertex -8.686164e-002 1.000000e-001 -2.254249e-003
         vertex -6.454412e-002 1.000000e-001 -1.386028e-002
      endloop
   endfacet
   facet normal 0.000000e+000 1.000000e+000 0.000000e+000
      outer loop
         vertex -6.454412e-002 1.000000e-001 -1.386028e-002
         vertex -8.686164e-002 1.000000e-001 -2.254249e-003
         vertex -8.326229e-002 1.000000e-001 2.788248e-003
      endloop
   endfacet
   facet normal 0.000000e+000 1.000000e+000 0.000000e+000
      outer loop
         vertex -6.454412e-002 1.000000e-001 -1.386028e-002
         vertex -8.326229e-002 1.000000e-001 2.788248e-003
         vertex -6.174266e-002 1.000000e-001 -1.067721e-002
      endloop
   endfacet
   facet normal 0.000000e+000 1.000000e+000 0.000000e+000
      outer loop
         vertex -6.174266e-002 1.000000e-001 -1.067721e-002
         vertex -8.326229e-002 1.000000e-001 2.788248e-003
         vertex -7.906697e-002 1.000000e-001 7.346911e-003
      endloop
   endfacet
   facet normal 0.000000e+000 1.000000e+000 0.000000e+000
      outer loop
         vertex -6.174266e-002 1.000000e-001 -1.067721e-002
         vertex -7.906697e-002 1.000000e-001 7.346911e-003
         vertex -5.844356e-002 1.000000e-001 -8.013369e-003
      endloop
   endfacet
   facet normal 0.000000e+000 1.000000e+000 0.000000e+000
      outer loop
         vertex -9.358197e-002 1.000000e-001 -3.797155e-002
         vertex -9.434814e-002 1.000000e-001 -3.182378e-002
         vertex -6.942166e-002 1.000000e-001 -2.978714e-002
      endloop
   endfacet
   facet normal 0.000000e+000 1.000000e+000 0.000000e+000
      outer loop
         vertex -6.942166e-002 1.000000e-001 -2.978714e-002
         vertex -9.434814e-002 1.000000e-001 -3.182378e-002
         vertex -9.434814e-002 1.000000e-001 -2.562845e-002
      endloop
   endfacet
   facet normal 0.000000e+000 1.000000e+000 0.000000e+000
      outer loop
         vertex -6.942166e-002 1.000000e-001 -2.978714e-002
         vertex -9.434814e-002 1.000000e-001 -2.562845e-002
         vertex -6.924170e-002 1.000000e-001 -2.555067e-002
      endloop
   endfacet
   facet normal 0.000000e+000 1.000000e+000 0.000000e+000
      outer loop
         vertex -6.924170e-002 1.000000e-001 -2.555067e-002
         vertex -9.434814e-002 1.000000e-001 -2.562845e-002
         vertex -9.358197e-002 1.000000e-001 -1.948067e-002
      endloop
   endfacet
   facet normal 0.000000e+000 1.000000e+000 0.000000e+000
      outer loop
         vertex -6.924170e-002 1.000000e-001 -2.555067e-002
         vertex -9.358197e-002 1.000000e-001 -1.948067e-002
         vertex -6.834836e-002 1.000000e-001 -2.140554e-002
      endloop
   endfacet
   facet normal 0.000000e+000 1.000000e+000 0.000000e+000
      outer loop
         vertex -6.834836e-002 1.000000e-001 -2.140554e-002
         vertex -9.358197e-002 1.000000e-001 -1.948067e-002
         vertex -9.206140e-002 1.000000e-001 -1.347484e-002
      endloop
   endfacet
   facet normal 0.000000e+000 1.000000e+000 0.000000e+000
      outer loop
         vertex -6.834836e-002 1.000000e-001 -2.140554e-002
         vertex -9.206140e-002 1.000000e-001 -1.347484e-002
         vertex -6.676733e-002 1.000000e-001 -1.747102e-002
      endloop
   endfacet
   facet normal 0.000000e+000 1.000000e+000 0.000000e+000
      outer loop
         vertex -6.676733e-002 1.000000e-001 -1.747102e-002
         vertex -9.206140e-002 1.000000e-001 -1.347484e-002
         vertex -8.980977e-002 1.000000e-001 -7.703166e-003
      endloop
   endfacet
   facet normal 0.000000e+000 1.000000e+000 0.000000e+000
      outer loop
         vertex -6.676733e-002 1.000000e-001 -1.747102e-002
         vertex -8.980977e-002 1.000000e-001 -7.703166e-003
         vertex -8.686164e-002 1.000000e-001 -2.254249e-003
      endloop
   endfacet
   facet normal 0.000000e+000 1.000000e+000 0.000000e+000
      outer loop
         vertex -6.014969e-002 1.000000e-001 -4.817700e-002
         vertex -7.906697e-002 1.000000e-001 -6.479913e-002
         vertex -6.321099e-002 1.000000e-001 -4.524298e-002
      endloop
   endfacet
   facet normal 0.000000e+000 1.000000e+000 0.000000e+000
      outer loop
         vertex -6.321099e-002 1.000000e-001 -4.524298e-002
         vertex -7.906697e-002 1.000000e-001 -6.479913e-002
         vertex -8.326229e-002 1.000000e-001 -6.024047e-002
      endloop
   endfacet
   facet normal 0.000000e+000 1.000000e+000 0.000000e+000
      outer loop
         vertex -6.321099e-002 1.000000e-001 -4.524298e-002
         vertex -8.326229e-002 1.000000e-001 -6.024047e-002
         vertex -6.573242e-002 1.000000e-001 -4.183379e-002
      endloop
   endfacet
   facet normal 0.000000e+000 1.000000e+000 0.000000e+000
      outer loop
         vertex -6.573242e-002 1.000000e-001 -4.183379e-002
         vertex -8.326229e-002 1.000000e-001 -6.024047e-002
         vertex -8.686164e-002 1.000000e-001 -5.519797e-002
      endloop
   endfacet
   facet normal 0.000000e+000 1.000000e+000 0.000000e+000
      outer loop
         vertex -6.573242e-002 1.000000e-001 -4.183379e-002
         vertex -8.686164e-002 1.000000e-001 -5.519797e-002
         vertex -6.764141e-002 1.000000e-001 -3.804752e-002
      endloop
   endfacet
   facet normal 0.000000e+000 1.000000e+000 0.000000e+000
      outer loop
         vertex -6.764141e-002 1.000000e-001 -3.804752e-002
         vertex -8.686164e-002 1.000000e-001 -5.519797e-002
         vertex -8.980977e-002 1.000000e-001 -4.974905e-002
      endloop
   endfacet
   facet normal 0.000000e+000 1.000000e+000 0.000000e+000
      outer loop
         vertex -6.764141e-002 1.000000e-001 -3.804752e-002
         vertex -8.980977e-002 1.000000e-001 -4.974905e-002
         vertex -9.206140e-002 1.000000e-001 -4.397738e-002
      endloop
   endfacet
   facet normal 0.000000e+000 1.000000e+000 0.000000e+000
      outer loop
         vertex -2.124696e-002 1.000000e-001 -3.804752e-002
         vertex 0.000000e+000 1.000000e-001 -5.163275e-002
         vertex -2.315596e-002 1.000000e-001 -4.183379e-002
      endloop
   endfacet
   facet normal 0.000000e+000 1.000000e+000 0.000000e+000
      outer loop
         vertex -2.315596e-002 1.000000e-001 -4.183379e-002
         vertex 0.000000e+000 1.000000e-001 -5.163275e-002
         vertex -3.174004e-003 1.000000e-001 -5.695326e-002
      endloop
   endfacet
   facet normal 0.000000e+000 1.000000e+000 0.000000e+000
      outer loop
         vertex -2.315596e-002 1.000000e-001 -4.183379e-002
         vertex -3.174004e-003 1.000000e-001 -5.695326e-002
         vertex -2.567738e-002 1.000000e-001 -4.524298e-002
      endloop
   endfacet
   facet normal 0.000000e+000 1.000000e+000 0.000000e+000
      outer loop
         vertex -2.567738e-002 1.000000e-001 -4.524298e-002
         vertex -3.174004e-003 1.000000e-001 -5.695326e-002
         vertex -6.981623e-003 1.000000e-001 -6.184040e-002
      endloop
   endfacet
   facet normal 0.000000e+000 1.000000e+000 0.000000e+000
      outer loop
         vertex -2.567738e-002 1.000000e-001 -4.524298e-002
         vertex -6.981623e-003 1.000000e-001 -6.184040e-002
         vertex -2.873869e-002 1.000000e-001 -4.817700e-002
      endloop
   endfacet
   facet normal 0.000000e+000 1.000000e+000 0.000000e+000
      outer loop
         vertex -4.866921e-002 1.000000e-001 -5.336651e-002
         vertex -5.772983e-002 1.000000e-001 -7.692872e-002
         vertex -5.277268e-002 1.000000e-001 -5.229805e-002
      endloop
   endfacet
   facet normal 0.000000e+000 1.000000e+000 0.000000e+000
      outer loop
         vertex -5.277268e-002 1.000000e-001 -5.229805e-002
         vertex -5.772983e-002 1.000000e-001 -7.692872e-002
         vertex -6.358899e-002 1.000000e-001 -7.491568e-002
      endloop
   endfacet
   facet normal 0.000000e+000 1.000000e+000 0.000000e+000
      outer loop
         vertex -5.277268e-002 1.000000e-001 -5.229805e-002
         vertex -6.358899e-002 1.000000e-001 -7.491568e-002
         vertex -5.663656e-002 1.000000e-001 -5.055146e-002
      endloop
   endfacet
   facet normal 0.000000e+000 1.000000e+000 0.000000e+000
      outer loop
         vertex -5.663656e-002 1.000000e-001 -5.055146e-002
         vertex -6.358899e-002 1.000000e-001 -7.491568e-002
         vertex -6.915423e-002 1.000000e-001 -7.219350e-002
      endloop
   endfacet
   facet normal 0.000000e+000 1.000000e+000 0.000000e+000
      outer loop
         vertex -5.663656e-002 1.000000e-001 -5.055146e-002
         vertex -6.915423e-002 1.000000e-001 -7.219350e-002
         vertex -6.014969e-002 1.000000e-001 -4.817700e-002
      endloop
   endfacet
   facet normal 0.000000e+000 1.000000e+000 0.000000e+000
      outer loop
         vertex -6.014969e-002 1.000000e-001 -4.817700e-002
         vertex -6.915423e-002 1.000000e-001 -7.219350e-002
         vertex -7.434009e-002 1.000000e-001 -6.880397e-002
      endloop
   endfacet
   facet normal 0.000000e+000 1.000000e+000 0.000000e+000
      outer loop
         vertex -6.014969e-002 1.000000e-001 -4.817700e-002
         vertex -7.434009e-002 1.000000e-001 -6.880397e-002
         vertex -7.906697e-002 1.000000e-001 -6.479913e-002
      endloop
   endfacet
   facet normal 0.000000e+000 1.000000e+000 0.000000e+000
      outer loop
         vertex -2.124696e-002 1.000000e-001 -3.804752e-002
         vertex -2.000531e-002 1.000000e-001 -3.399309e-002
         vertex 0.000000e+000 1.000000e-001 -5.163275e-002
      endloop
   endfacet
   facet normal 0.000000e+000 1.000000e+000 0.000000e+000
      outer loop
         vertex 0.000000e+000 1.000000e-001 -5.163275e-002
         vertex -2.000531e-002 1.000000e-001 -3.399309e-002
         vertex -1.946671e-002 1.000000e-001 -2.978714e-002
      endloop
   endfacet
   facet normal 0.000000e+000 1.000000e+000 0.000000e+000
      outer loop
         vertex 0.000000e+000 1.000000e-001 -5.163275e-002
         vertex -1.946671e-002 1.000000e-001 -2.978714e-002
         vertex 0.000000e+000 1.000000e-001 -5.819469e-003
      endloop
   endfacet
   facet normal 0.000000e+000 1.000000e+000 0.000000e+000
      outer loop
         vertex 0.000000e+000 1.000000e-001 -5.819469e-003
         vertex -1.946671e-002 1.000000e-001 -2.978714e-002
         vertex -1.964668e-002 1.000000e-001 -2.555067e-002
      endloop
   endfacet
   facet normal 0.000000e+000 1.000000e+000 0.000000e+000
      outer loop
         vertex -4.021917e-002 1.000000e-001 -5.336651e-002
         vertex -3.930255e-002 1.000000e-001 -7.846104e-002
         vertex -4.444419e-002 1.000000e-001 -5.372611e-002
      endloop
   endfacet
   facet normal 0.000000e+000 1.000000e+000 0.000000e+000
      outer loop
         vertex -4.444419e-002 1.000000e-001 -5.372611e-002
         vertex -3.930255e-002 1.000000e-001 -7.846104e-002
         vertex -4.549267e-002 1.000000e-001 -7.871512e-002
      endloop
   endfacet
   facet normal 0.000000e+000 1.000000e+000 0.000000e+000
      outer loop
         vertex -4.444419e-002 1.000000e-001 -5.372611e-002
         vertex -4.549267e-002 1.000000e-001 -7.871512e-002
         vertex -4.866921e-002 1.000000e-001 -5.336651e-002
      endloop
   endfacet
   facet normal 0.000000e+000 1.000000e+000 0.000000e+000
      outer loop
         vertex -4.866921e-002 1.000000e-001 -5.336651e-002
         vertex -4.549267e-002 1.000000e-001 -7.871512e-002
         vertex -5.166669e-002 1.000000e-001 -7.820171e-002
      endloop
   endfacet
   facet normal 0.000000e+000 1.000000e+000 0.000000e+000
      outer loop
         vertex -4.866921e-002 1.000000e-001 -5.336651e-002
         vertex -5.166669e-002 1.000000e-001 -7.820171e-002
         vertex -5.772983e-002 1.000000e-001 -7.692872e-002
      endloop
   endfacet
   facet normal 0.000000e+000 1.000000e+000 0.000000e+000
      outer loop
         vertex -6.981623e-003 1.000000e-001 -6.184040e-002
         vertex -1.136440e-002 1.000000e-001 -6.621914e-002
         vertex -2.873869e-002 1.000000e-001 -4.817700e-002
      endloop
   endfacet
   facet normal 0.000000e+000 1.000000e+000 0.000000e+000
      outer loop
         vertex -2.873869e-002 1.000000e-001 -4.817700e-002
         vertex -1.136440e-002 1.000000e-001 -6.621914e-002
         vertex -1.625505e-002 1.000000e-001 -7.002226e-002
      endloop
   endfacet
   facet normal 0.000000e+000 1.000000e+000 0.000000e+000
      outer loop
         vertex -2.873869e-002 1.000000e-001 -4.817700e-002
         vertex -1.625505e-002 1.000000e-001 -7.002226e-002
         vertex -3.225181e-002 1.000000e-001 -5.055146e-002
      endloop
   endfacet
   facet normal 0.000000e+000 1.000000e+000 0.000000e+000
      outer loop
         vertex -3.225181e-002 1.000000e-001 -5.055146e-002
         vertex -1.625505e-002 1.000000e-001 -7.002226e-002
         vertex -2.157847e-002 1.000000e-001 -7.319137e-002
      endloop
   endfacet
   facet normal 0.000000e+000 1.000000e+000 0.000000e+000
      outer loop
         vertex -3.225181e-002 1.000000e-001 -5.055146e-002
         vertex -2.157847e-002 1.000000e-001 -7.319137e-002
         vertex -3.611569e-002 1.000000e-001 -5.229805e-002
      endloop
   endfacet
   facet normal 0.000000e+000 1.000000e+000 0.000000e+000
      outer loop
         vertex -3.611569e-002 1.000000e-001 -5.229805e-002
         vertex -2.157847e-002 1.000000e-001 -7.319137e-002
         vertex -2.725296e-002 1.000000e-001 -7.567780e-002
      endloop
   endfacet
   facet normal 0.000000e+000 1.000000e+000 0.000000e+000
      outer loop
         vertex -3.611569e-002 1.000000e-001 -5.229805e-002
         vertex -2.725296e-002 1.000000e-001 -7.567780e-002
         vertex -4.021917e-002 1.000000e-001 -5.336651e-002
      endloop
   endfacet
   facet normal 0.000000e+000 1.000000e+000 0.000000e+000
      outer loop
         vertex -4.021917e-002 1.000000e-001 -5.336651e-002
         vertex -2.725296e-002 1.000000e-001 -7.567780e-002
         vertex -3.319137e-002 1.000000e-001 -7.744340e-002
      endloop
   endfacet
   facet normal 0.000000e+000 1.000000e+000 0.000000e+000
      outer loop
         vertex -4.021917e-002 1.000000e-001 -5.336651e-002
         vertex -3.319137e-002 1.000000e-001 -7.744340e-002
         vertex -3.930255e-002 1.000000e-001 -7.846104e-002
      endloop
   endfacet
   facet normal 0.000000e+000 1.000000e+000 0.000000e+000
      outer loop
         vertex -1.964668e-002 1.000000e-001 -2.555067e-002
         vertex -2.054002e-002 1.000000e-001 -2.140554e-002
         vertex 0.000000e+000 1.000000e-001 -5.819469e-003
      endloop
   endfacet
   facet normal 0.000000e+000 1.000000e+000 0.000000e+000
      outer loop
         vertex 0.000000e+000 1.000000e-001 -5.819469e-003
         vertex -2.054002e-002 1.000000e-001 -2.140554e-002
         vertex -2.212104e-002 1.000000e-001 -1.747102e-002
      endloop
   endfacet
   facet normal 0.000000e+000 1.000000e+000 0.000000e+000
      outer loop
         vertex 0.000000e+000 1.000000e-001 -5.819469e-003
         vertex -2.212104e-002 1.000000e-001 -1.747102e-002
         vertex -3.174004e-003 1.000000e-001 -4.989604e-004
      endloop
   endfacet
   facet normal 0.000000e+000 1.000000e+000 0.000000e+000
      outer loop
         vertex -3.174004e-003 1.000000e-001 -4.989604e-004
         vertex -2.212104e-002 1.000000e-001 -1.747102e-002
         vertex -2.434426e-002 1.000000e-001 -1.386028e-002
      endloop
   endfacet
   facet normal 0.000000e+000 1.000000e+000 0.000000e+000
      outer loop
         vertex -3.174004e-003 1.000000e-001 -4.989604e-004
         vertex -2.434426e-002 1.000000e-001 -1.386028e-002
         vertex -6.981623e-003 1.000000e-001 4.388181e-003
      endloop
   endfacet
   facet normal 0.000000e+000 1.000000e+000 0.000000e+000
      outer loop
         vertex -6.981623e-003 1.000000e-001 4.388181e-003
         vertex -2.434426e-002 1.000000e-001 -1.386028e-002
         vertex -2.714572e-002 1.000000e-001 -1.067721e-002
      endloop
   endfacet
   facet normal 0.000000e+000 1.000000e+000 0.000000e+000
      outer loop
         vertex -3.814474e-002 1.000000e-001 -4.532787e-003
         vertex -2.725296e-002 1.000000e-001 1.822558e-002
         vertex -3.414666e-002 1.000000e-001 -5.945398e-003
      endloop
   endfacet
   facet normal 0.000000e+000 1.000000e+000 0.000000e+000
      outer loop
         vertex -3.414666e-002 1.000000e-001 -5.945398e-003
         vertex -2.725296e-002 1.000000e-001 1.822558e-002
         vertex -2.157847e-002 1.000000e-001 1.573915e-002
      endloop
   endfacet
   facet normal 0.000000e+000 1.000000e+000 0.000000e+000
      outer loop
         vertex -3.414666e-002 1.000000e-001 -5.945398e-003
         vertex -2.157847e-002 1.000000e-001 1.573915e-002
         vertex -3.044482e-002 1.000000e-001 -8.013369e-003
      endloop
   endfacet
   facet normal 0.000000e+000 1.000000e+000 0.000000e+000
      outer loop
         vertex -3.044482e-002 1.000000e-001 -8.013369e-003
         vertex -2.157847e-002 1.000000e-001 1.573915e-002
         vertex -1.625505e-002 1.000000e-001 1.257004e-002
      endloop
   endfacet
   facet normal 0.000000e+000 1.000000e+000 0.000000e+000
      outer loop
         vertex -3.044482e-002 1.000000e-001 -8.013369e-003
         vertex -1.625505e-002 1.000000e-001 1.257004e-002
         vertex -2.714572e-002 1.000000e-001 -1.067721e-002
      endloop
   endfacet
   facet normal 0.000000e+000 1.000000e+000 0.000000e+000
      outer loop
         vertex -2.714572e-002 1.000000e-001 -1.067721e-002
         vertex -1.625505e-002 1.000000e-001 1.257004e-002
         vertex -1.136440e-002 1.000000e-001 8.766925e-003
      endloop
   endfacet
   facet normal 0.000000e+000 1.000000e+000 0.000000e+000
      outer loop
         vertex -2.714572e-002 1.000000e-001 -1.067721e-002
         vertex -1.136440e-002 1.000000e-001 8.766925e-003
         vertex -6.981623e-003 1.000000e-001 4.388181e-003
      endloop
   endfacet
   facet normal 0.000000e+000 1.000000e+000 0.000000e+000
      outer loop
         vertex -7.906697e-002 1.000000e-001 7.346911e-003
         vertex -7.434009e-002 1.000000e-001 1.135175e-002
         vertex -5.844356e-002 1.000000e-001 -8.013369e-003
      endloop
   endfacet
   facet normal 0.000000e+000 1.000000e+000 0.000000e+000
      outer loop
         vertex -5.844356e-002 1.000000e-001 -8.013369e-003
         vertex -7.434009e-002 1.000000e-001 1.135175e-002
         vertex -6.915423e-002 1.000000e-001 1.474128e-002
      endloop
   endfacet
   facet normal 0.000000e+000 1.000000e+000 0.000000e+000
      outer loop
         vertex -5.844356e-002 1.000000e-001 -8.013369e-003
         vertex -6.915423e-002 1.000000e-001 1.474128e-002
         vertex -5.474172e-002 1.000000e-001 -5.945398e-003
      endloop
   endfacet
   facet normal 0.000000e+000 1.000000e+000 0.000000e+000
      outer loop
         vertex -5.474172e-002 1.000000e-001 -5.945398e-003
         vertex -6.915423e-002 1.000000e-001 1.474128e-002
         vertex -6.358899e-002 1.000000e-001 1.746346e-002
      endloop
   endfacet
   facet normal 0.000000e+000 1.000000e+000 0.000000e+000
      outer loop
         vertex -5.474172e-002 1.000000e-001 -5.945398e-003
         vertex -6.358899e-002 1.000000e-001 1.746346e-002
         vertex -5.074364e-002 1.000000e-001 -4.532787e-003
      endloop
   endfacet
   facet normal 0.000000e+000 1.000000e+000 0.000000e+000
      outer loop
         vertex -5.074364e-002 1.000000e-001 -4.532787e-003
         vertex -6.358899e-002 1.000000e-001 1.746346e-002
         vertex -5.772983e-002 1.000000e-001 1.947650e-002
      endloop
   endfacet
   facet normal 0.000000e+000 1.000000e+000 0.000000e+000
      outer loop
         vertex -5.074364e-002 1.000000e-001 -4.532787e-003
         vertex -5.772983e-002 1.000000e-001 1.947650e-002
         vertex -4.656434e-002 1.000000e-001 -3.816173e-003
      endloop
   endfacet
   facet normal 0.000000e+000 1.000000e+000 0.000000e+000
      outer loop
         vertex -4.656434e-002 1.000000e-001 -3.816173e-003
         vertex -5.772983e-002 1.000000e-001 1.947650e-002
         vertex -5.166669e-002 1.000000e-001 2.074949e-002
      endloop
   endfacet
   facet normal 0.000000e+000 1.000000e+000 0.000000e+000
      outer loop
         vertex -4.656434e-002 1.000000e-001 -3.816173e-003
         vertex -5.166669e-002 1.000000e-001 2.074949e-002
         vertex -4.444419e-002 1.000000e-001 -3.726110e-003
      endloop
   endfacet
   facet normal 0.000000e+000 1.000000e+000 0.000000e+000
      outer loop
         vertex -4.444419e-002 1.000000e-001 -3.726110e-003
         vertex -5.166669e-002 1.000000e-001 2.074949e-002
         vertex -4.549267e-002 1.000000e-001 2.126290e-002
      endloop
   endfacet
   facet normal 0.000000e+000 1.000000e+000 0.000000e+000
      outer loop
         vertex -4.444419e-002 1.000000e-001 -3.726110e-003
         vertex -4.549267e-002 1.000000e-001 2.126290e-002
         vertex -4.232404e-002 1.000000e-001 -3.816173e-003
      endloop
   endfacet
   facet normal 0.000000e+000 1.000000e+000 0.000000e+000
      outer loop
         vertex -4.232404e-002 1.000000e-001 -3.816173e-003
         vertex -4.549267e-002 1.000000e-001 2.126290e-002
         vertex -3.930255e-002 1.000000e-001 2.100882e-002
      endloop
   endfacet
   facet normal 0.000000e+000 1.000000e+000 0.000000e+000
      outer loop
         vertex -4.232404e-002 1.000000e-001 -3.816173e-003
         vertex -3.930255e-002 1.000000e-001 2.100882e-002
         vertex -3.814474e-002 1.000000e-001 -4.532787e-003
      endloop
   endfacet
   facet normal 0.000000e+000 1.000000e+000 0.000000e+000
      outer loop
         vertex -3.814474e-002 1.000000e-001 -4.532787e-003
         vertex -3.930255e-002 1.000000e-001 2.100882e-002
         vertex -3.319137e-002 1.000000e-001 1.999118e-002
      endloop
   endfacet
   facet normal 0.000000e+000 1.000000e+000 0.000000e+000
      outer loop
         vertex -3.814474e-002 1.000000e-001 -4.532787e-003
         vertex -3.319137e-002 1.000000e-001 1.999118e-002
         vertex -2.725296e-002 1.000000e-001 1.822558e-002
      endloop
   endfacet
   facet normal 0.000000e+000 -1.000000e+000 0.000000e+000
      outer loop
         vertex 1.000000e-002 0.000000e+000 -6.872611e-002
         vertex 1.000000e-002 0.000000e+000 1.127389e-002
         vertex 0.000000e+000 0.000000e+000 -5.819469e-003
      endloop
   endfacet
   facet normal 0.000000e+000 -1.000000e+000 0.000000e+000
      outer loop
         vertex 0.000000e+000 0.000000e+000 -5.819469e-003
         vertex 1.000000e-002 0.000000e+000 1.127389e-002
         vertex 0.000000e+000 0.000000e+000 1.127389e-002
      endloop
   endfacet
   facet normal 0.000000e+000 -1.000000e+000 0.000000e+000
      outer loop
         vertex -1.625505e-002 0.000000e+000 1.257004e-002
         vertex -2.157847e-002 0.000000e+000 1.573915e-002
         vertex -2.725296e-002 0.000000e+000 -7.567780e-002
      endloop
   endfacet
   facet normal 0.000000e+000 -1.000000e+000 0.000000e+000
      outer loop
         vertex -2.157847e-002 0.000000e+000 -7.319137e-002
         vertex -1.625505e-002 0.000000e+000 -7.002226e-002
         vertex -6.981623e-003 0.000000e+000 4.388181e-003
      endloop
   endfacet
   facet normal 0.000000e+000 -1.000000e+000 0.000000e+000
      outer loop
         vertex -9.206140e-002 0.000000e+000 -1.347484e-002
         vertex -9.358197e-002 0.000000e+000 -1.948067e-002
         vertex -2.157847e-002 0.000000e+000 1.573915e-002
      endloop
   endfacet
   facet normal 0.000000e+000 -1.000000e+000 0.000000e+000
      outer loop
         vertex -2.157847e-002 0.000000e+000 1.573915e-002
         vertex -9.358197e-002 0.000000e+000 -1.948067e-002
         vertex -9.434814e-002 0.000000e+000 -2.562845e-002
      endloop
   endfacet
   facet normal 0.000000e+000 -1.000000e+000 0.000000e+000
      outer loop
         vertex -2.157847e-002 0.000000e+000 1.573915e-002
         vertex -9.434814e-002 0.000000e+000 -2.562845e-002
         vertex -9.434814e-002 0.000000e+000 -3.182378e-002
      endloop
   endfacet
   facet normal 0.000000e+000 -1.000000e+000 0.000000e+000
      outer loop
         vertex -9.434814e-002 0.000000e+000 -3.182378e-002
         vertex -9.358197e-002 0.000000e+000 -3.797155e-002
         vertex -2.157847e-002 0.000000e+000 1.573915e-002
      endloop
   endfacet
   facet normal 0.000000e+000 -1.000000e+000 0.000000e+000
      outer loop
         vertex -2.157847e-002 0.000000e+000 1.573915e-002
         vertex -9.358197e-002 0.000000e+000 -3.797155e-002
         vertex -9.206140e-002 0.000000e+000 -4.397738e-002
      endloop
   endfacet
   facet normal 0.000000e+000 -1.000000e+000 0.000000e+000
      outer loop
         vertex -2.157847e-002 0.000000e+000 1.573915e-002
         vertex -9.206140e-002 0.000000e+000 -4.397738e-002
         vertex -8.980977e-002 0.000000e+000 -4.974905e-002
      endloop
   endfacet
   facet normal 0.000000e+000 -1.000000e+000 0.000000e+000
      outer loop
         vertex -8.980977e-002 0.000000e+000 -4.974905e-002
         vertex -8.686164e-002 0.000000e+000 -5.519797e-002
         vertex -2.157847e-002 0.000000e+000 1.573915e-002
      endloop
   endfacet
   facet normal 0.000000e+000 -1.000000e+000 0.000000e+000
      outer loop
         vertex -2.157847e-002 0.000000e+000 1.573915e-002
         vertex -8.686164e-002 0.000000e+000 -5.519797e-002
         vertex -8.326229e-002 0.000000e+000 -6.024047e-002
      endloop
   endfacet
   facet normal 0.000000e+000 -1.000000e+000 0.000000e+000
      outer loop
         vertex -2.157847e-002 0.000000e+000 1.573915e-002
         vertex -8.326229e-002 0.000000e+000 -6.024047e-002
         vertex -7.906697e-002 0.000000e+000 -6.479913e-002
      endloop
   endfacet
   facet normal 0.000000e+000 -1.000000e+000 0.000000e+000
      outer loop
         vertex -7.906697e-002 0.000000e+000 -6.479913e-002
         vertex -7.434009e-002 0.000000e+000 -6.880397e-002
         vertex -2.157847e-002 0.000000e+000 1.573915e-002
      endloop
   endfacet
   facet normal 0.000000e+000 -1.000000e+000 0.000000e+000
      outer loop
         vertex -2.157847e-002 0.000000e+000 1.573915e-002
         vertex -7.434009e-002 0.000000e+000 -6.880397e-002
         vertex -6.915423e-002 0.000000e+000 -7.219350e-002
      endloop
   endfacet
   facet normal 0.000000e+000 -1.000000e+000 0.000000e+000
      outer loop
         vertex -2.157847e-002 0.000000e+000 1.573915e-002
         vertex -6.915423e-002 0.000000e+000 -7.219350e-002
         vertex -6.358899e-002 0.000000e+000 -7.491568e-002
      endloop
   endfacet
   facet normal 0.000000e+000 -1.000000e+000 0.000000e+000
      outer loop
         vertex -6.358899e-002 0.000000e+000 -7.491568e-002
         vertex -5.772983e-002 0.000000e+000 -7.692872e-002
         vertex -2.157847e-002 0.000000e+000 1.573915e-002
      endloop
   endfacet
   facet normal 0.000000e+000 -1.000000e+000 0.000000e+000
      outer loop
         vertex -2.157847e-002 0.000000e+000 1.573915e-002
         vertex -5.772983e-002 0.000000e+000 -7.692872e-002
         vertex -5.166669e-002 0.000000e+000 -7.820171e-002
      endloop
   endfacet
   facet normal 0.000000e+000 -1.000000e+000 0.000000e+000
      outer loop
         vertex -2.157847e-002 0.000000e+000 1.573915e-002
         vertex -5.166669e-002 0.000000e+000 -7.820171e-002
         vertex -4.549267e-002 0.000000e+000 -7.871512e-002
      endloop
   endfacet
   facet normal 0.000000e+000 -1.000000e+000 0.000000e+000
      outer loop
         vertex -2.157847e-002 0.000000e+000 -7.319137e-002
         vertex -6.981623e-003 0.000000e+000 4.388181e-003
         vertex -2.725296e-002 0.000000e+000 -7.567780e-002
      endloop
   endfacet
   facet normal 0.000000e+000 -1.000000e+000 0.000000e+000
      outer loop
         vertex -2.725296e-002 0.000000e+000 -7.567780e-002
         vertex -6.981623e-003 0.000000e+000 4.388181e-003
         vertex -1.136440e-002 0.000000e+000 8.766925e-003
      endloop
   endfacet
   facet normal 0.000000e+000 -1.000000e+000 0.000000e+000
      outer loop
         vertex -2.725296e-002 0.000000e+000 -7.567780e-002
         vertex -1.136440e-002 0.000000e+000 8.766925e-003
         vertex -1.625505e-002 0.000000e+000 1.257004e-002
      endloop
   endfacet
   facet normal 0.000000e+000 -1.000000e+000 0.000000e+000
      outer loop
         vertex -4.549267e-002 0.000000e+000 -7.871512e-002
         vertex -3.930255e-002 0.000000e+000 -7.846104e-002
         vertex -2.157847e-002 0.000000e+000 1.573915e-002
      endloop
   endfacet
   facet normal 0.000000e+000 -1.000000e+000 0.000000e+000
      outer loop
         vertex -2.157847e-002 0.000000e+000 1.573915e-002
         vertex -3.930255e-002 0.000000e+000 -7.846104e-002
         vertex -3.319137e-002 0.000000e+000 -7.744340e-002
      endloop
   endfacet
   facet normal 0.000000e+000 -1.000000e+000 0.000000e+000
      outer loop
         vertex -2.157847e-002 0.000000e+000 1.573915e-002
         vertex -3.319137e-002 0.000000e+000 -7.744340e-002
         vertex -2.725296e-002 0.000000e+000 -7.567780e-002
      endloop
   endfacet
   facet normal 0.000000e+000 -1.000000e+000 0.000000e+000
      outer loop
         vertex -9.206140e-002 0.000000e+000 -1.347484e-002
         vertex -2.157847e-002 0.000000e+000 1.573915e-002
         vertex -8.980977e-002 0.000000e+000 -7.703166e-003
      endloop
   endfacet
   facet normal 0.000000e+000 -1.000000e+000 0.000000e+000
      outer loop
         vertex -8.980977e-002 0.000000e+000 -7.703166e-003
         vertex -2.157847e-002 0.000000e+000 1.573915e-002
         vertex -2.725296e-002 0.000000e+000 1.822558e-002
      endloop
   endfacet
   facet normal 0.000000e+000 -1.000000e+000 0.000000e+000
      outer loop
         vertex -8.980977e-002 0.000000e+000 -7.703166e-003
         vertex -2.725296e-002 0.000000e+000 1.822558e-002
         vertex -3.319137e-002 0.000000e+000 1.999118e-002
      endloop
   endfacet
   facet normal 0.000000e+000 -1.000000e+000 0.000000e+000
      outer loop
         vertex -5.772983e-002 0.000000e+000 1.947650e-002
         vertex -6.358899e-002 0.000000e+000 1.746346e-002
         vertex -6.915423e-002 0.000000e+000 1.474128e-002
      endloop
   endfacet
   facet normal 0.000000e+000 -1.000000e+000 0.000000e+000
      outer loop
         vertex -1.625505e-002 0.000000e+000 -7.002226e-002
         vertex -1.136440e-002 0.000000e+000 -6.621914e-002
         vertex -6.981623e-003 0.000000e+000 4.388181e-003
      endloop
   endfacet
   facet normal 0.000000e+000 -1.000000e+000 0.000000e+000
      outer loop
         vertex -6.981623e-003 0.000000e+000 4.388181e-003
         vertex -1.136440e-002 0.000000e+000 -6.621914e-002
         vertex -6.981623e-003 0.000000e+000 -6.184040e-002
      endloop
   endfacet
   facet normal 0.000000e+000 -1.000000e+000 0.000000e+000
      outer loop
         vertex -6.981623e-003 0.000000e+000 4.388181e-003
         vertex -6.981623e-003 0.000000e+000 -6.184040e-002
         vertex -3.174004e-003 0.000000e+000 -5.695326e-002
      endloop
   endfacet
   facet normal 0.000000e+000 -1.000000e+000 0.000000e+000
      outer loop
         vertex -8.326229e-002 0.000000e+000 2.788248e-003
         vertex -4.549267e-002 0.000000e+000 2.126290e-002
         vertex -7.906697e-002 0.000000e+000 7.346911e-003
      endloop
   endfacet
   facet normal 0.000000e+000 -1.000000e+000 0.000000e+000
      outer loop
         vertex -7.906697e-002 0.000000e+000 7.346911e-003
         vertex -4.549267e-002 0.000000e+000 2.126290e-002
         vertex -7.434009e-002 0.000000e+000 1.135175e-002
      endloop
   endfacet
   facet normal 0.000000e+000 -1.000000e+000 0.000000e+000
      outer loop
         vertex -3.319137e-002 0.000000e+000 1.999118e-002
         vertex -3.930255e-002 0.000000e+000 2.100882e-002
         vertex -8.980977e-002 0.000000e+000 -7.703166e-003
      endloop
   endfacet
   facet normal 0.000000e+000 -1.000000e+000 0.000000e+000
      outer loop
         vertex -8.980977e-002 0.000000e+000 -7.703166e-003
         vertex -3.930255e-002 0.000000e+000 2.100882e-002
         vertex -4.549267e-002 0.000000e+000 2.126290e-002
      endloop
   endfacet
   facet normal 0.000000e+000 -1.000000e+000 0.000000e+000
      outer loop
         vertex -8.980977e-002 0.000000e+000 -7.703166e-003
         vertex -4.549267e-002 0.000000e+000 2.126290e-002
         vertex -8.686164e-002 0.000000e+000 -2.254249e-003
      endloop
   endfacet
   facet normal 0.000000e+000 -1.000000e+000 0.000000e+000
      outer loop
         vertex -8.686164e-002 0.000000e+000 -2.254249e-003
         vertex -4.549267e-002 0.000000e+000 2.126290e-002
         vertex -8.326229e-002 0.000000e+000 2.788248e-003
      endloop
   endfacet
   facet normal 0.000000e+000 -1.000000e+000 0.000000e+000
      outer loop
         vertex 0.000000e+000 0.000000e+000 -6.872611e-002
         vertex 1.000000e-002 0.000000e+000 -6.872611e-002
         vertex 0.000000e+000 0.000000e+000 -5.163275e-002
      endloop
   endfacet
   facet normal 0.000000e+000 -1.000000e+000 0.000000e+000
      outer loop
         vertex 0.000000e+000 0.000000e+000 -5.163275e-002
         vertex 1.000000e-002 0.000000e+000 -6.872611e-002
         vertex 0.000000e+000 0.000000e+000 -5.819469e-003
      endloop
   endfacet
   facet normal 0.000000e+000 -1.000000e+000 0.000000e+000
      outer loop
         vertex 0.000000e+000 0.000000e+000 -5.163275e-002
         vertex 0.000000e+000 0.000000e+000 -5.819469e-003
         vertex -3.174004e-003 0.000000e+000 -5.695326e-002
      endloop
   endfacet
   facet normal 0.000000e+000 -1.000000e+000 0.000000e+000
      outer loop
         vertex -3.174004e-003 0.000000e+000 -5.695326e-002
         vertex 0.000000e+000 0.000000e+000 -5.819469e-003
         vertex -3.174004e-003 0.000000e+000 -4.989604e-004
      endloop
   endfacet
   facet normal 0.000000e+000 -1.000000e+000 0.000000e+000
      outer loop
         vertex -3.174004e-003 0.000000e+000 -5.695326e-002
         vertex -3.174004e-003 0.000000e+000 -4.989604e-004
         vertex -6.981623e-003 0.000000e+000 4.388181e-003
      endloop
   endfacet
   facet normal 0.000000e+000 -1.000000e+000 0.000000e+000
      outer loop
         vertex -7.434009e-002 0.000000e+000 1.135175e-002
         vertex -4.549267e-002 0.000000e+000 2.126290e-002
         vertex -6.915423e-002 0.000000e+000 1.474128e-002
      endloop
   endfacet
   facet normal 0.000000e+000 -1.000000e+000 0.000000e+000
      outer loop
         vertex -6.915423e-002 0.000000e+000 1.474128e-002
         vertex -4.549267e-002 0.000000e+000 2.126290e-002
         vertex -5.166669e-002 0.000000e+000 2.074949e-002
      endloop
   endfacet
   facet normal 0.000000e+000 -1.000000e+000 0.000000e+000
      outer loop
         vertex -6.915423e-002 0.000000e+000 1.474128e-002
         vertex -5.166669e-002 0.000000e+000 2.074949e-002
         vertex -5.772983e-002 0.000000e+000 1.947650e-002
      endloop
   endfacet
   facet normal 2.829130e-002 0.000000e+000 9.995998e-001
      outer loop
         vertex -4.232404e-002 1.500000e-001 -3.816173e-003
         vertex -4.444419e-002 1.500000e-001 -3.726110e-003
         vertex -4.444419e-002 1.000000e-001 -3.726110e-003
      endloop
   endfacet
   facet normal -2.829130e-002 0.000000e+000 9.995998e-001
      outer loop
         vertex -4.444419e-002 1.000000e-001 -3.726110e-003
         vertex -4.444419e-002 1.500000e-001 -3.726110e-003
         vertex -4.656434e-002 1.000000e-001 -3.816173e-003
      endloop
   endfacet
   facet normal -5.658260e-002 0.000000e+000 9.983979e-001
      outer loop
         vertex -4.444419e-002 1.500000e-001 -3.726110e-003
         vertex -4.656434e-002 1.500000e-001 -3.816173e-003
         vertex -4.656434e-002 1.000000e-001 -3.816173e-003
      endloop
   endfacet
   facet normal -1.409813e-001 0.000000e+000 9.900123e-001
      outer loop
         vertex -4.656434e-002 1.000000e-001 -3.816173e-003
         vertex -4.656434e-002 1.500000e-001 -3.816173e-003
         vertex -5.074364e-002 1.500000e-001 -4.532787e-003
      endloop
   endfacet
   facet normal -1.968844e-001 0.000000e+000 9.804267e-001
      outer loop
         vertex -4.656434e-002 1.000000e-001 -3.816173e-003
         vertex -5.074364e-002 1.500000e-001 -4.532787e-003
         vertex -5.074364e-002 1.000000e-001 -4.532787e-003
      endloop
   endfacet
   facet normal -3.062663e-001 0.000000e+000 9.519458e-001
      outer loop
         vertex -5.074364e-002 1.000000e-001 -4.532787e-003
         vertex -5.074364e-002 1.500000e-001 -4.532787e-003
         vertex -5.474172e-002 1.500000e-001 -5.945398e-003
      endloop
   endfacet
   facet normal -3.597453e-001 0.000000e+000 9.330506e-001
      outer loop
         vertex -5.074364e-002 1.000000e-001 -4.532787e-003
         vertex -5.474172e-002 1.500000e-001 -5.945398e-003
         vertex -5.474172e-002 1.000000e-001 -5.945398e-003
      endloop
   endfacet
   facet normal -4.627406e-001 0.000000e+000 8.864937e-001
      outer loop
         vertex -5.474172e-002 1.000000e-001 -5.945398e-003
         vertex -5.474172e-002 1.500000e-001 -5.945398e-003
         vertex -5.844356e-002 1.500000e-001 -8.013369e-003
      endloop
   endfacet
   facet normal -5.122570e-001 0.000000e+000 8.588322e-001
      outer loop
         vertex -5.474172e-002 1.000000e-001 -5.945398e-003
         vertex -5.844356e-002 1.500000e-001 -8.013369e-003
         vertex -5.844356e-002 1.000000e-001 -8.013369e-003
      endloop
   endfacet
   facet normal -6.059027e-001 0.000000e+000 7.955388e-001
      outer loop
         vertex -5.844356e-002 1.000000e-001 -8.013369e-003
         vertex -5.844356e-002 1.500000e-001 -8.013369e-003
         vertex -6.174266e-002 1.500000e-001 -1.067721e-002
      endloop
   endfacet
   facet normal -6.500320e-001 0.000000e+000 7.599069e-001
      outer loop
         vertex -5.844356e-002 1.000000e-001 -8.013369e-003
         vertex -6.174266e-002 1.500000e-001 -1.067721e-002
         vertex -6.174266e-002 1.000000e-001 -1.067721e-002
      endloop
   endfacet
   facet normal -7.316340e-001 0.000000e+000 6.816977e-001
      outer loop
         vertex -6.174266e-002 1.000000e-001 -1.067721e-002
         vertex -6.174266e-002 1.500000e-001 -1.067721e-002
         vertex -6.454412e-002 1.500000e-001 -1.386028e-002
      endloop
   endfacet
   facet normal -7.691067e-001 0.000000e+000 6.391203e-001
      outer loop
         vertex -6.174266e-002 1.000000e-001 -1.067721e-002
         vertex -6.454412e-002 1.500000e-001 -1.386028e-002
         vertex -6.454412e-002 1.000000e-001 -1.386028e-002
      endloop
   endfacet
   facet normal -8.363176e-001 0.000000e+000 5.482453e-001
      outer loop
         vertex -6.454412e-002 1.000000e-001 -1.386028e-002
         vertex -6.454412e-002 1.500000e-001 -1.386028e-002
         vertex -6.676733e-002 1.500000e-001 -1.747102e-002
      endloop
   endfacet
   facet normal -8.660557e-001 0.000000e+000 4.999475e-001
      outer loop
         vertex -6.454412e-002 1.000000e-001 -1.386028e-002
         vertex -6.676733e-002 1.500000e-001 -1.747102e-002
         vertex -6.676733e-002 1.000000e-001 -1.747102e-002
      endloop
   endfacet
   facet normal -9.169418e-001 0.000000e+000 3.990209e-001
      outer loop
         vertex -6.676733e-002 1.000000e-001 -1.747102e-002
         vertex -6.676733e-002 1.500000e-001 -1.747102e-002
         vertex -6.834836e-002 1.500000e-001 -2.140554e-002
      endloop
   endfacet
   facet normal -9.380898e-001 0.000000e+000 3.463921e-001
      outer loop
         vertex -6.676733e-002 1.000000e-001 -1.747102e-002
         vertex -6.834836e-002 1.500000e-001 -2.140554e-002
         vertex -6.834836e-002 1.000000e-001 -2.140554e-002
      endloop
   endfacet
   facet normal -9.711873e-001 0.000000e+000 2.383175e-001
      outer loop
         vertex -6.834836e-002 1.000000e-001 -2.140554e-002
         vertex -6.834836e-002 1.500000e-001 -2.140554e-002
         vertex -6.924170e-002 1.500000e-001 -2.555067e-002
      endloop
   endfacet
   facet normal -9.831368e-001 0.000000e+000 1.828716e-001
      outer loop
         vertex -6.834836e-002 1.000000e-001 -2.140554e-002
         vertex -6.924170e-002 1.500000e-001 -2.555067e-002
         vertex -6.924170e-002 1.000000e-001 -2.555067e-002
      endloop
   endfacet
   facet normal -9.974935e-001 0.000000e+000 7.075802e-002
      outer loop
         vertex -6.924170e-002 1.000000e-001 -2.555067e-002
         vertex -6.924170e-002 1.500000e-001 -2.555067e-002
         vertex -6.942166e-002 1.500000e-001 -2.978714e-002
      endloop
   endfacet
   facet normal -9.999007e-001 0.000000e+000 1.409025e-002
      outer loop
         vertex -6.924170e-002 1.000000e-001 -2.555067e-002
         vertex -6.942166e-002 1.500000e-001 -2.978714e-002
         vertex -6.942166e-002 1.000000e-001 -2.978714e-002
      endloop
   endfacet
   facet normal -9.951036e-001 0.000000e+000 -9.883699e-002
      outer loop
         vertex -6.942166e-002 1.000000e-001 -2.978714e-002
         vertex -6.942166e-002 1.500000e-001 -2.978714e-002
         vertex -6.888307e-002 1.500000e-001 -3.399309e-002
      endloop
   endfacet
   facet normal -9.878993e-001 0.000000e+000 -1.550965e-001
      outer loop
         vertex -6.942166e-002 1.000000e-001 -2.978714e-002
         vertex -6.888307e-002 1.500000e-001 -3.399309e-002
         vertex -6.888307e-002 1.000000e-001 -3.399309e-002
      endloop
   endfacet
   facet normal -9.640865e-001 0.000000e+000 -2.655886e-001
      outer loop
         vertex -6.888307e-002 1.000000e-001 -3.399309e-002
         vertex -6.888307e-002 1.500000e-001 -3.399309e-002
         vertex -6.764141e-002 1.500000e-001 -3.804752e-002
      endloop
   endfacet
   facet normal -9.474779e-001 0.000000e+000 -3.198213e-001
      outer loop
         vertex -6.888307e-002 1.000000e-001 -3.399309e-002
         vertex -6.764141e-002 1.500000e-001 -3.804752e-002
         vertex -6.764141e-002 1.000000e-001 -3.804752e-002
      endloop
   endfacet
   facet normal -9.053342e-001 0.000000e+000 -4.246998e-001
      outer loop
         vertex -6.764141e-002 1.000000e-001 -3.804752e-002
         vertex -6.764141e-002 1.500000e-001 -3.804752e-002
         vertex -6.573242e-002 1.500000e-001 -4.183379e-002
      endloop
   endfacet
   facet normal -8.797992e-001 0.000000e+000 -4.753455e-001
      outer loop
         vertex -6.764141e-002 1.000000e-001 -3.804752e-002
         vertex -6.573242e-002 1.500000e-001 -4.183379e-002
         vertex -6.573242e-002 1.000000e-001 -4.183379e-002
      endloop
   endfacet
   facet normal -8.205372e-001 0.000000e+000 -5.715931e-001
      outer loop
         vertex -6.573242e-002 1.000000e-001 -4.183379e-002
         vertex -6.573242e-002 1.500000e-001 -4.183379e-002
         vertex -6.321099e-002 1.500000e-001 -4.524298e-002
      endloop
   endfacet
   facet normal -7.868103e-001 0.000000e+000 -6.171949e-001
      outer loop
         vertex -6.573242e-002 1.000000e-001 -4.183379e-002
         vertex -6.321099e-002 1.500000e-001 -4.524298e-002
         vertex -6.321099e-002 1.000000e-001 -4.524298e-002
      endloop
   endfacet
   facet normal -7.121348e-001 0.000000e+000 -7.020428e-001
      outer loop
         vertex -6.321099e-002 1.000000e-001 -4.524298e-002
         vertex -6.321099e-002 1.500000e-001 -4.524298e-002
         vertex -6.014969e-002 1.500000e-001 -4.817700e-002
      endloop
   endfacet
   facet normal -6.711863e-001 0.000000e+000 -7.412888e-001
      outer loop
         vertex -6.321099e-002 1.000000e-001 -4.524298e-002
         vertex -6.014969e-002 1.500000e-001 -4.817700e-002
         vertex -6.014969e-002 1.000000e-001 -4.817700e-002
      endloop
   endfacet
   facet normal -5.832456e-001 0.000000e+000 -8.122959e-001
      outer loop
         vertex -6.014969e-002 1.000000e-001 -4.817700e-002
         vertex -6.014969e-002 1.500000e-001 -4.817700e-002
         vertex -5.663656e-002 1.500000e-001 -5.055146e-002
      endloop
   endfacet
   facet normal -5.362535e-001 0.000000e+000 -8.440570e-001
      outer loop
         vertex -6.014969e-002 1.000000e-001 -4.817700e-002
         vertex -5.663656e-002 1.500000e-001 -5.055146e-002
         vertex -5.663656e-002 1.000000e-001 -5.055146e-002
      endloop
   endfacet
   facet normal -4.375775e-001 0.000000e+000 -8.991807e-001
      outer loop
         vertex -5.663656e-002 1.000000e-001 -5.055146e-002
         vertex -5.663656e-002 1.500000e-001 -5.055146e-002
         vertex -5.277268e-002 1.500000e-001 -5.229805e-002
      endloop
   endfacet
   facet normal -3.858936e-001 0.000000e+000 -9.225433e-001
      outer loop
         vertex -5.663656e-002 1.000000e-001 -5.055146e-002
         vertex -5.277268e-002 1.500000e-001 -5.229805e-002
         vertex -5.277268e-002 1.000000e-001 -5.229805e-002
      endloop
   endfacet
   facet normal -2.793211e-001 0.000000e+000 -9.601977e-001
      outer loop
         vertex -5.277268e-002 1.000000e-001 -5.229805e-002
         vertex -5.277268e-002 1.500000e-001 -5.229805e-002
         vertex -4.866921e-002 1.500000e-001 -5.336651e-002
      endloop
   endfacet
   facet normal -2.244324e-001 0.000000e+000 -9.744897e-001
      outer loop
         vertex -5.277268e-002 1.000000e-001 -5.229805e-002
         vertex -4.866921e-002 1.500000e-001 -5.336651e-002
         vertex -4.866921e-002 1.000000e-001 -5.336651e-002
      endloop
   endfacet
   facet normal -1.130291e-001 0.000000e+000 -9.935917e-001
      outer loop
         vertex -4.866921e-002 1.000000e-001 -5.336651e-002
         vertex -4.866921e-002 1.500000e-001 -5.336651e-002
         vertex -4.444419e-002 1.500000e-001 -5.372611e-002
      endloop
   endfacet
   facet normal -5.651454e-002 0.000000e+000 -9.984018e-001
      outer loop
         vertex -4.866921e-002 1.000000e-001 -5.336651e-002
         vertex -4.444419e-002 1.500000e-001 -5.372611e-002
         vertex -4.444419e-002 1.000000e-001 -5.372611e-002
      endloop
   endfacet
   facet normal 5.651454e-002 0.000000e+000 -9.984018e-001
      outer loop
         vertex -4.444419e-002 1.000000e-001 -5.372611e-002
         vertex -4.444419e-002 1.500000e-001 -5.372611e-002
         vertex -4.021917e-002 1.500000e-001 -5.336651e-002
      endloop
   endfacet
   facet normal 1.130291e-001 0.000000e+000 -9.935917e-001
      outer loop
         vertex -4.444419e-002 1.000000e-001 -5.372611e-002
         vertex -4.021917e-002 1.500000e-001 -5.336651e-002
         vertex -4.021917e-002 1.000000e-001 -5.336651e-002
      endloop
   endfacet
   facet normal 2.244324e-001 0.000000e+000 -9.744897e-001
      outer loop
         vertex -4.021917e-002 1.000000e-001 -5.336651e-002
         vertex -4.021917e-002 1.500000e-001 -5.336651e-002
         vertex -3.611569e-002 1.500000e-001 -5.229805e-002
      endloop
   endfacet
   facet normal 2.793211e-001 0.000000e+000 -9.601977e-001
      outer loop
         vertex -4.021917e-002 1.000000e-001 -5.336651e-002
         vertex -3.611569e-002 1.500000e-001 -5.229805e-002
         vertex -3.611569e-002 1.000000e-001 -5.229805e-002
      endloop
   endfacet
   facet normal 3.858936e-001 0.000000e+000 -9.225433e-001
      outer loop
         vertex -3.611569e-002 1.000000e-001 -5.229805e-002
         vertex -3.611569e-002 1.500000e-001 -5.229805e-002
         vertex -3.225181e-002 1.500000e-001 -5.055146e-002
      endloop
   endfacet
   facet normal 4.375775e-001 0.000000e+000 -8.991807e-001
      outer loop
         vertex -3.611569e-002 1.000000e-001 -5.229805e-002
         vertex -3.225181e-002 1.500000e-001 -5.055146e-002
         vertex -3.225181e-002 1.000000e-001 -5.055146e-002
      endloop
   endfacet
   facet normal 5.362535e-001 0.000000e+000 -8.440570e-001
      outer loop
         vertex -3.225181e-002 1.000000e-001 -5.055146e-002
         vertex -3.225181e-002 1.500000e-001 -5.055146e-002
         vertex -2.873869e-002 1.500000e-001 -4.817700e-002
      endloop
   endfacet
   facet normal 5.832456e-001 0.000000e+000 -8.122959e-001
      outer loop
         vertex -3.225181e-002 1.000000e-001 -5.055146e-002
         vertex -2.873869e-002 1.500000e-001 -4.817700e-002
         vertex -2.873869e-002 1.000000e-001 -4.817700e-002
      endloop
   endfacet
   facet normal 6.711863e-001 0.000000e+000 -7.412888e-001
      outer loop
         vertex -2.873869e-002 1.000000e-001 -4.817700e-002
         vertex -2.873869e-002 1.500000e-001 -4.817700e-002
         vertex -2.567738e-002 1.500000e-001 -4.524298e-002
      endloop
   endfacet
   facet normal 7.121348e-001 0.000000e+000 -7.020428e-001
      outer loop
         vertex -2.873869e-002 1.000000e-001 -4.817700e-002
         vertex -2.567738e-002 1.500000e-001 -4.524298e-002
         vertex -2.567738e-002 1.000000e-001 -4.524298e-002
      endloop
   endfacet
   facet normal 7.868103e-001 0.000000e+000 -6.171949e-001
      outer loop
         vertex -2.567738e-002 1.000000e-001 -4.524298e-002
         vertex -2.567738e-002 1.500000e-001 -4.524298e-002
         vertex -2.315596e-002 1.500000e-001 -4.183379e-002
      endloop
   endfacet
   facet normal 8.205372e-001 0.000000e+000 -5.715931e-001
      outer loop
         vertex -2.567738e-002 1.000000e-001 -4.524298e-002
         vertex -2.315596e-002 1.500000e-001 -4.183379e-002
         vertex -2.315596e-002 1.000000e-001 -4.183379e-002
      endloop
   endfacet
   facet normal 8.797992e-001 0.000000e+000 -4.753455e-001
      outer loop
         vertex -2.315596e-002 1.000000e-001 -4.183379e-002
         vertex -2.315596e-002 1.500000e-001 -4.183379e-002
         vertex -2.124696e-002 1.500000e-001 -3.804752e-002
      endloop
   endfacet
   facet normal 9.053342e-001 0.000000e+000 -4.246998e-001
      outer loop
         vertex -2.315596e-002 1.000000e-001 -4.183379e-002
         vertex -2.124696e-002 1.500000e-001 -3.804752e-002
         vertex -2.124696e-002 1.000000e-001 -3.804752e-002
      endloop
   endfacet
   facet normal 9.474779e-001 0.000000e+000 -3.198213e-001
      outer loop
         vertex -2.124696e-002 1.000000e-001 -3.804752e-002
         vertex -2.124696e-002 1.500000e-001 -3.804752e-002
         vertex -2.000531e-002 1.500000e-001 -3.399309e-002
      endloop
   endfacet
   facet normal 9.640865e-001 0.000000e+000 -2.655886e-001
      outer loop
         vertex -2.124696e-002 1.000000e-001 -3.804752e-002
         vertex -2.000531e-002 1.500000e-001 -3.399309e-002
         vertex -2.000531e-002 1.000000e-001 -3.399309e-002
      endloop
   endfacet
   facet normal 9.878993e-001 0.000000e+000 -1.550965e-001
      outer loop
         vertex -2.000531e-002 1.000000e-001 -3.399309e-002
         vertex -2.000531e-002 1.500000e-001 -3.399309e-002
         vertex -1.946671e-002 1.500000e-001 -2.978714e-002
      endloop
   endfacet
   facet normal 9.951036e-001 0.000000e+000 -9.883699e-002
      outer loop
         vertex -2.000531e-002 1.000000e-001 -3.399309e-002
         vertex -1.946671e-002 1.500000e-001 -2.978714e-002
         vertex -1.946671e-002 1.000000e-001 -2.978714e-002
      endloop
   endfacet
   facet normal 9.999007e-001 0.000000e+000 1.409025e-002
      outer loop
         vertex -1.946671e-002 1.000000e-001 -2.978714e-002
         vertex -1.946671e-002 1.500000e-001 -2.978714e-002
         vertex -1.964668e-002 1.500000e-001 -2.555067e-002
      endloop
   endfacet
   facet normal 9.974935e-001 0.000000e+000 7.075802e-002
      outer loop
         vertex -1.946671e-002 1.000000e-001 -2.978714e-002
         vertex -1.964668e-002 1.500000e-001 -2.555067e-002
         vertex -1.964668e-002 1.000000e-001 -2.555067e-002
      endloop
   endfacet
   facet normal 9.831368e-001 0.000000e+000 1.828716e-001
      outer loop
         vertex -1.964668e-002 1.000000e-001 -2.555067e-002
         vertex -1.964668e-002 1.500000e-001 -2.555067e-002
         vertex -2.054002e-002 1.500000e-001 -2.140554e-002
      endloop
   endfacet
   facet normal 9.711873e-001 0.000000e+000 2.383175e-001
      outer loop
         vertex -1.964668e-002 1.000000e-001 -2.555067e-002
         vertex -2.054002e-002 1.500000e-001 -2.140554e-002
         vertex -2.054002e-002 1.000000e-001 -2.140554e-002
      endloop
   endfacet
   facet normal 9.380898e-001 0.000000e+000 3.463921e-001
      outer loop
         vertex -2.054002e-002 1.000000e-001 -2.140554e-002
         vertex -2.054002e-002 1.500000e-001 -2.140554e-002
         vertex -2.212104e-002 1.500000e-001 -1.747102e-002
      endloop
   endfacet
   facet normal 9.169418e-001 0.000000e+000 3.990209e-001
      outer loop
         vertex -2.054002e-002 1.000000e-001 -2.140554e-002
         vertex -2.212104e-002 1.500000e-001 -1.747102e-002
         vertex -2.212104e-002 1.000000e-001 -1.747102e-002
      endloop
   endfacet
   facet normal 8.660557e-001 0.000000e+000 4.999475e-001
      outer loop
         vertex -2.212104e-002 1.000000e-001 -1.747102e-002
         vertex -2.212104e-002 1.500000e-001 -1.747102e-002
         vertex -2.434426e-002 1.500000e-001 -1.386028e-002
      endloop
   endfacet
   facet normal 8.363176e-001 0.000000e+000 5.482453e-001
      outer loop
         vertex -2.212104e-002 1.000000e-001 -1.747102e-002
         vertex -2.434426e-002 1.500000e-001 -1.386028e-002
         vertex -2.434426e-002 1.000000e-001 -1.386028e-002
      endloop
   endfacet
   facet normal 7.691067e-001 0.000000e+000 6.391203e-001
      outer loop
         vertex -2.434426e-002 1.000000e-001 -1.386028e-002
         vertex -2.434426e-002 1.500000e-001 -1.386028e-002
         vertex -2.714572e-002 1.500000e-001 -1.067721e-002
      endloop
   endfacet
   facet normal 7.316340e-001 0.000000e+000 6.816977e-001
      outer loop
         vertex -2.434426e-002 1.000000e-001 -1.386028e-002
         vertex -2.714572e-002 1.500000e-001 -1.067721e-002
         vertex -2.714572e-002 1.000000e-001 -1.067721e-002
      endloop
   endfacet
   facet normal 6.500320e-001 0.000000e+000 7.599069e-001
      outer loop
         vertex -2.714572e-002 1.000000e-001 -1.067721e-002
         vertex -2.714572e-002 1.500000e-001 -1.067721e-002
         vertex -3.044482e-002 1.500000e-001 -8.013369e-003
      endloop
   endfacet
   facet normal 6.059027e-001 0.000000e+000 7.955388e-001
      outer loop
         vertex -2.714572e-002 1.000000e-001 -1.067721e-002
         vertex -3.044482e-002 1.500000e-001 -8.013369e-003
         vertex -3.044482e-002 1.000000e-001 -8.013369e-003
      endloop
   endfacet
   facet normal 5.122570e-001 0.000000e+000 8.588322e-001
      outer loop
         vertex -3.044482e-002 1.000000e-001 -8.013369e-003
         vertex -3.044482e-002 1.500000e-001 -8.013369e-003
         vertex -3.414666e-002 1.500000e-001 -5.945398e-003
      endloop
   endfacet
   facet normal 4.627406e-001 0.000000e+000 8.864937e-001
      outer loop
         vertex -3.044482e-002 1.000000e-001 -8.013369e-003
         vertex -3.414666e-002 1.500000e-001 -5.945398e-003
         vertex -3.414666e-002 1.000000e-001 -5.945398e-003
      endloop
   endfacet
   facet normal 3.597453e-001 0.000000e+000 9.330506e-001
      outer loop
         vertex -3.414666e-002 1.000000e-001 -5.945398e-003
         vertex -3.414666e-002 1.500000e-001 -5.945398e-003
         vertex -3.814474e-002 1.500000e-001 -4.532787e-003
      endloop
   endfacet
   facet normal 3.062663e-001 0.000000e+000 9.519458e-001
      outer loop
         vertex -3.414666e-002 1.000000e-001 -5.945398e-003
         vertex -3.814474e-002 1.500000e-001 -4.532787e-003
         vertex -3.814474e-002 1.000000e-001 -4.532787e-003
      endloop
   endfacet
   facet normal 1.968844e-001 0.000000e+000 9.804267e-001
      outer loop
         vertex -3.814474e-002 1.000000e-001 -4.532787e-003
         vertex -3.814474e-002 1.500000e-001 -4.532787e-003
         vertex -4.232404e-002 1.500000e-001 -3.816173e-003
      endloop
   endfacet
   facet normal 1.409813e-001 0.000000e+000 9.900123e-001
      outer loop
         vertex -3.814474e-002 1.000000e-001 -4.532787e-003
         vertex -4.232404e-002 1.500000e-001 -3.816173e-003
         vertex -4.232404e-002 1.000000e-001 -3.816173e-003
      endloop
   endfacet
   facet normal 5.658260e-002 0.000000e+000 9.983979e-001
      outer loop
         vertex -4.232404e-002 1.000000e-001 -3.816173e-003
         vertex -4.232404e-002 1.500000e-001 -3.816173e-003
         vertex -4.444419e-002 1.000000e-001 -3.726110e-003
      endloop
   endfacet
   facet normal 0.000000e+000 1.000000e+000 0.000000e+000
      outer loop
         vertex -4.444419e-002 1.500000e-001 -3.726110e-003
         vertex -4.232404e-002 1.500000e-001 -3.816173e-003
         vertex -4.444419e-002 1.500000e-001 -2.872611e-002
      endloop
   endfacet
   facet normal 0.000000e+000 1.000000e+000 0.000000e+000
      outer loop
         vertex -4.444419e-002 1.500000e-001 -3.726110e-003
         vertex -4.444419e-002 1.500000e-001 -2.872611e-002
         vertex -4.656434e-002 1.500000e-001 -3.816173e-003
      endloop
   endfacet
   facet normal 0.000000e+000 1.000000e+000 0.000000e+000
      outer loop
         vertex -5.844356e-002 1.500000e-001 -8.013369e-003
         vertex -5.474172e-002 1.500000e-001 -5.945398e-003
         vertex -4.444419e-002 1.500000e-001 -2.872611e-002
      endloop
   endfacet
   facet normal 0.000000e+000 1.000000e+000 0.000000e+000
      outer loop
         vertex -4.444419e-002 1.500000e-001 -2.872611e-002
         vertex -5.474172e-002 1.500000e-001 -5.945398e-003
         vertex -5.074364e-002 1.500000e-001 -4.532787e-003
      endloop
   endfacet
   facet normal 0.000000e+000 1.000000e+000 0.000000e+000
      outer loop
         vertex -4.444419e-002 1.500000e-001 -2.872611e-002
         vertex -5.074364e-002 1.500000e-001 -4.532787e-003
         vertex -4.656434e-002 1.500000e-001 -3.816173e-003
      endloop
   endfacet
   facet normal 0.000000e+000 1.000000e+000 0.000000e+000
      outer loop
         vertex -6.676733e-002 1.500000e-001 -1.747102e-002
         vertex -6.454412e-002 1.500000e-001 -1.386028e-002
         vertex -4.444419e-002 1.500000e-001 -2.872611e-002
      endloop
   endfacet
   facet normal 0.000000e+000 1.000000e+000 0.000000e+000
      outer loop
         vertex -4.444419e-002 1.500000e-001 -2.872611e-002
         vertex -6.454412e-002 1.500000e-001 -1.386028e-002
         vertex -6.174266e-002 1.500000e-001 -1.067721e-002
      endloop
   endfacet
   facet normal 0.000000e+000 1.000000e+000 0.000000e+000
      outer loop
         vertex -4.444419e-002 1.500000e-001 -2.872611e-002
         vertex -6.174266e-002 1.500000e-001 -1.067721e-002
         vertex -5.844356e-002 1.500000e-001 -8.013369e-003
      endloop
   endfacet
   facet normal 0.000000e+000 1.000000e+000 0.000000e+000
      outer loop
         vertex -6.942166e-002 1.500000e-001 -2.978714e-002
         vertex -6.924170e-002 1.500000e-001 -2.555067e-002
         vertex -4.444419e-002 1.500000e-001 -2.872611e-002
      endloop
   endfacet
   facet normal 0.000000e+000 1.000000e+000 0.000000e+000
      outer loop
         vertex -4.444419e-002 1.500000e-001 -2.872611e-002
         vertex -6.924170e-002 1.500000e-001 -2.555067e-002
         vertex -6.834836e-002 1.500000e-001 -2.140554e-002
      endloop
   endfacet
   facet normal 0.000000e+000 1.000000e+000 0.000000e+000
      outer loop
         vertex -4.444419e-002 1.500000e-001 -2.872611e-002
         vertex -6.834836e-002 1.500000e-001 -2.140554e-002
         vertex -6.676733e-002 1.500000e-001 -1.747102e-002
      endloop
   endfacet
   facet normal 0.000000e+000 1.000000e+000 0.000000e+000
      outer loop
         vertex -6.573242e-002 1.500000e-001 -4.183379e-002
         vertex -6.764141e-002 1.500000e-001 -3.804752e-002
         vertex -4.444419e-002 1.500000e-001 -2.872611e-002
      endloop
   endfacet
   facet normal 0.000000e+000 1.000000e+000 0.000000e+000
      outer loop
         vertex -4.444419e-002 1.500000e-001 -2.872611e-002
         vertex -6.764141e-002 1.500000e-001 -3.804752e-002
         vertex -6.888307e-002 1.500000e-001 -3.399309e-002
      endloop
   endfacet
   facet normal 0.000000e+000 1.000000e+000 0.000000e+000
      outer loop
         vertex -4.444419e-002 1.500000e-001 -2.872611e-002
         vertex -6.888307e-002 1.500000e-001 -3.399309e-002
         vertex -6.942166e-002 1.500000e-001 -2.978714e-002
      endloop
   endfacet
   facet normal 0.000000e+000 1.000000e+000 0.000000e+000
      outer loop
         vertex -5.663656e-002 1.500000e-001 -5.055146e-002
         vertex -6.014969e-002 1.500000e-001 -4.817700e-002
         vertex -4.444419e-002 1.500000e-001 -2.872611e-002
      endloop
   endfacet
   facet normal 0.000000e+000 1.000000e+000 0.000000e+000
      outer loop
         vertex -4.444419e-002 1.500000e-001 -2.872611e-002
         vertex -6.014969e-002 1.500000e-001 -4.817700e-002
         vertex -6.321099e-002 1.500000e-001 -4.524298e-002
      endloop
   endfacet
   facet normal 0.000000e+000 1.000000e+000 0.000000e+000
      outer loop
         vertex -4.444419e-002 1.500000e-001 -2.872611e-002
         vertex -6.321099e-002 1.500000e-001 -4.524298e-002
         vertex -6.573242e-002 1.500000e-001 -4.183379e-002
      endloop
   endfacet
   facet normal 0.000000e+000 1.000000e+000 0.000000e+000
      outer loop
         vertex -4.444419e-002 1.500000e-001 -5.372611e-002
         vertex -4.866921e-002 1.500000e-001 -5.336651e-002
         vertex -4.444419e-002 1.500000e-001 -2.872611e-002
      endloop
   endfacet
   facet normal 0.000000e+000 1.000000e+000 0.000000e+000
      outer loop
         vertex -4.444419e-002 1.500000e-001 -2.872611e-002
         vertex -4.866921e-002 1.500000e-001 -5.336651e-002
         vertex -5.277268e-002 1.500000e-001 -5.229805e-002
      endloop
   endfacet
   facet normal 0.000000e+000 1.000000e+000 0.000000e+000
      outer loop
         vertex -4.444419e-002 1.500000e-001 -2.872611e-002
         vertex -5.277268e-002 1.500000e-001 -5.229805e-002
         vertex -5.663656e-002 1.500000e-001 -5.055146e-002
      endloop
   endfacet
   facet normal 0.000000e+000 1.000000e+000 0.000000e+000
      outer loop
         vertex -3.225181e-002 1.500000e-001 -5.055146e-002
         vertex -3.611569e-002 1.500000e-001 -5.229805e-002
         vertex -4.444419e-002 1.500000e-001 -2.872611e-002
      endloop
   endfacet
   facet normal 0.000000e+000 1.000000e+000 0.000000e+000
      outer loop
         vertex -4.444419e-002 1.500000e-001 -2.872611e-002
         vertex -3.611569e-002 1.500000e-001 -5.229805e-002
         vertex -4.021917e-002 1.500000e-001 -5.336651e-002
      endloop
   endfacet
   facet normal 0.000000e+000 1.000000e+000 0.000000e+000
      outer loop
         vertex -4.444419e-002 1.500000e-001 -2.872611e-002
         vertex -4.021917e-002 1.500000e-001 -5.336651e-002
         vertex -4.444419e-002 1.500000e-001 -5.372611e-002
      endloop
   endfacet
   facet normal 0.000000e+000 1.000000e+000 0.000000e+000
      outer loop
         vertex -2.315596e-002 1.500000e-001 -4.183379e-002
         vertex -2.567738e-002 1.500000e-001 -4.524298e-002
         vertex -4.444419e-002 1.500000e-001 -2.872611e-002
      endloop
   endfacet
   facet normal 0.000000e+000 1.000000e+000 0.000000e+000
      outer loop
         vertex -4.444419e-002 1.500000e-001 -2.872611e-002
         vertex -2.567738e-002 1.500000e-001 -4.524298e-002
         vertex -2.873869e-002 1.500000e-001 -4.817700e-002
      endloop
   endfacet
   facet normal 0.000000e+000 1.000000e+000 0.000000e+000
      outer loop
         vertex -4.444419e-002 1.500000e-001 -2.872611e-002
         vertex -2.873869e-002 1.500000e-001 -4.817700e-002
         vertex -3.225181e-002 1.500000e-001 -5.055146e-002
      endloop
   endfacet
   facet normal 0.000000e+000 1.000000e+000 0.000000e+000
      outer loop
         vertex -1.946671e-002 1.500000e-001 -2.978714e-002
         vertex -2.000531e-002 1.500000e-001 -3.399309e-002
         vertex -4.444419e-002 1.500000e-001 -2.872611e-002
      endloop
   endfacet
   facet normal 0.000000e+000 1.000000e+000 0.000000e+000
      outer loop
         vertex -4.444419e-002 1.500000e-001 -2.872611e-002
         vertex -2.000531e-002 1.500000e-001 -3.399309e-002
         vertex -2.124696e-002 1.500000e-001 -3.804752e-002
      endloop
   endfacet
   facet normal 0.000000e+000 1.000000e+000 0.000000e+000
      outer loop
         vertex -4.444419e-002 1.500000e-001 -2.872611e-002
         vertex -2.124696e-002 1.500000e-001 -3.804752e-002
         vertex -2.315596e-002 1.500000e-001 -4.183379e-002
      endloop
   endfacet
   facet normal 0.000000e+000 1.000000e+000 0.000000e+000
      outer loop
         vertex -2.212104e-002 1.500000e-001 -1.747102e-002
         vertex -2.054002e-002 1.500000e-001 -2.140554e-002
         vertex -4.444419e-002 1.500000e-001 -2.872611e-002
      endloop
   endfacet
   facet normal 0.000000e+000 1.000000e+000 0.000000e+000
      outer loop
         vertex -4.444419e-002 1.500000e-001 -2.872611e-002
         vertex -2.054002e-002 1.500000e-001 -2.140554e-002
         vertex -1.964668e-002 1.500000e-001 -2.555067e-002
      endloop
   endfacet
   facet normal 0.000000e+000 1.000000e+000 0.000000e+000
      outer loop
         vertex -4.444419e-002 1.500000e-001 -2.872611e-002
         vertex -1.964668e-002 1.500000e-001 -2.555067e-002
         vertex -1.946671e-002 1.500000e-001 -2.978714e-002
      endloop
   endfacet
   facet normal 0.000000e+000 1.000000e+000 0.000000e+000
      outer loop
         vertex -3.044482e-002 1.500000e-001 -8.013369e-003
         vertex -2.714572e-002 1.500000e-001 -1.067721e-002
         vertex -4.444419e-002 1.500000e-001 -2.872611e-002
      endloop
   endfacet
   facet normal 0.000000e+000 1.000000e+000 0.000000e+000
      outer loop
         vertex -4.444419e-002 1.500000e-001 -2.872611e-002
         vertex -2.714572e-002 1.500000e-001 -1.067721e-002
         vertex -2.434426e-002 1.500000e-001 -1.386028e-002
      endloop
   endfacet
   facet normal 0.000000e+000 1.000000e+000 0.000000e+000
      outer loop
         vertex -4.444419e-002 1.500000e-001 -2.872611e-002
         vertex -2.434426e-002 1.500000e-001 -1.386028e-002
         vertex -2.212104e-002 1.500000e-001 -1.747102e-002
      endloop
   endfacet
   facet normal 0.000000e+000 1.000000e+000 0.000000e+000
      outer loop
         vertex -4.232404e-002 1.500000e-001 -3.816173e-003
         vertex -3.814474e-002 1.500000e-001 -4.532787e-003
         vertex -4.444419e-002 1.500000e-001 -2.872611e-002
      endloop
   endfacet
   facet normal 0.000000e+000 1.000000e+000 0.000000e+000
      outer loop
         vertex -4.444419e-002 1.500000e-001 -2.872611e-002
         vertex -3.814474e-002 1.500000e-001 -4.532787e-003
         vertex -3.414666e-002 1.500000e-001 -5.945398e-003
      endloop
   endfacet
   facet normal 0.000000e+000 1.000000e+000 0.000000e+000
      outer loop
         vertex -4.444419e-002 1.500000e-001 -2.872611e-002
         vertex -3.414666e-002 1.500000e-001 -5.945398e-003
         vertex -3.044482e-002 1.500000e-001 -8.013369e-003
      endloop
   endfacet
   facet normal -1.000000e+000 0.000000e+000 0.000000e+000
      outer loop
         vertex 0.000000e+000 1.000000e-001 -6.872611e-002
         vertex 0.000000e+000 1.104416e-018 -6.872611e-002
         vertex 0.000000e+000 1.000000e-001 -5.163275e-002
      endloop
   endfacet
   facet normal -1.000000e+000 0.000000e+000 0.000000e+000
      outer loop
         vertex 0.000000e+000 1.000000e-001 -5.163275e-002
         vertex 0.000000e+000 1.104416e-018 -6.872611e-002
         vertex 0.000000e+000 -1.224894e-018 -5.163275e-002
      endloop
   endfacet
   facet normal -1.000000e+000 0.000000e+000 0.000000e+000
      outer loop
         vertex 0.000000e+000 -9.797174e-018 1.127389e-002
         vertex 0.000000e+000 1.000000e-001 1.127389e-002
         vertex 0.000000e+000 -7.467864e-018 -5.819469e-003
      endloop
   endfacet
   facet normal -1.000000e+000 0.000000e+000 0.000000e+000
      outer loop
         vertex 0.000000e+000 -7.467864e-018 -5.819469e-003
         vertex 0.000000e+000 1.000000e-001 1.127389e-002
         vertex 0.000000e+000 1.000000e-001 -5.819469e-003
      endloop
   endfacet
   facet normal 0.000000e+000 1.387779e-016 -1.000000e+000
      outer loop
         vertex 1.000000e-002 1.000000e-001 -6.872611e-002
         vertex 1.000000e-002 0.000000e+000 -6.872611e-002
         vertex 0.000000e+000 1.000000e-001 -6.872611e-002
      endloop
   endfacet
   facet normal 0.000000e+000 1.387779e-016 -1.000000e+000
      outer loop
         vertex 0.000000e+000 1.000000e-001 -6.872611e-002
         vertex 1.000000e-002 0.000000e+000 -6.872611e-002
         vertex 0.000000e+000 0.000000e+000 -6.872611e-002
      endloop
   endfacet
   facet normal 0.000000e+000 -3.469447e-017 1.000000e+000
      outer loop
         vertex 1.000000e-002 -1.387779e-017 1.127389e-002
         vertex 1.000000e-002 1.000000e-001 1.127389e-002
         vertex 0.000000e+000 -1.387779e-017 1.127389e-002
      endloop
   endfacet
   facet normal 0.000000e+000 -3.469447e-017 1.000000e+000
      outer loop
         vertex 0.000000e+000 -1.387779e-017 1.127389e-002
         vertex 1.000000e-002 1.000000e-001 1.127389e-002
         vertex 0.000000e+000 1.000000e-001 1.127389e-002
      endloop
   endfacet
   facet normal 1.000000e+000 0.000000e+000 0.000000e+000
      outer loop
         vertex 1.000000e-002 1.000000e-001 1.127389e-002
         vertex 1.000000e-002 -9.797174e-018 1.127389e-002
         vertex 1.000000e-002 1.000000e-001 -6.872611e-002
      endloop
   endfacet
   facet normal 1.000000e+000 0.000000e+000 0.000000e+000
      outer loop
         vertex 1.000000e-002 1.000000e-001 -6.872611e-002
         vertex 1.000000e-002 -9.797174e-018 1.127389e-002
         vertex 1.000000e-002 1.104416e-018 -6.872611e-002
      endloop
   endfacet
endsolid