solid Plate_Default_sldprt
   facet normal -4.625929e-016 0.000000e+000 -1.000000e+000
      outer loop
         vertex 1.500000e+002 -3.000000e+001 -2.500000e+002
         vertex -1.500000e+002 -3.000000e+001 -2.500000e+002
         vertex 1.500000e+002 0.000000e+000 -2.500000e+002
      endloop
   endfacet
   facet normal -4.625929e-016 0.000000e+000 -1.000000e+000
      outer loop
         vertex 1.500000e+002 0.000000e+000 -2.500000e+002
         vertex -1.500000e+002 -3.000000e+001 -2.500000e+002
         vertex -1.500000e+002 0.000000e+000 -2.500000e+002
      endloop
   endfacet
   facet normal 1.000000e+000 0.000000e+000 -1.232348e-014
      outer loop
         vertex 1.500000e+002 -3.000000e+001 2.500000e+002
         vertex 1.500000e+002 -3.000000e+001 -2.500000e+002
         vertex 1.500000e+002 0.000000e+000 2.500000e+002
      endloop
   endfacet
   facet normal 1.000000e+000 0.000000e+000 -1.232348e-014
      outer loop
         vertex 1.500000e+002 0.000000e+000 2.500000e+002
         vertex 1.500000e+002 -3.000000e+001 -2.500000e+002
         vertex 1.500000e+002 0.000000e+000 -2.500000e+002
      endloop
   endfacet
   facet normal 1.174986e-014 0.000000e+000 1.000000e+000
      outer loop
         vertex -1.500000e+002 -3.000000e+001 2.500000e+002
         vertex 1.500000e+002 -3.000000e+001 2.500000e+002
         vertex -1.500000e+002 0.000000e+000 2.500000e+002
      endloop
   endfacet
   facet normal 1.174986e-014 0.000000e+000 1.000000e+000
      outer loop
         vertex -1.500000e+002 0.000000e+000 2.500000e+002
         vertex 1.500000e+002 -3.000000e+001 2.500000e+002
         vertex 1.500000e+002 0.000000e+000 2.500000e+002
      endloop
   endfacet
   facet normal -1.000000e+000 0.000000e+000 1.204592e-014
      outer loop
         vertex -1.500000e+002 -3.000000e+001 -2.500000e+002
         vertex -1.500000e+002 -3.000000e+001 2.500000e+002
         vertex -1.500000e+002 0.000000e+000 -2.500000e+002
      endloop
   endfacet
   facet normal -1.000000e+000 0.000000e+000 1.204592e-014
      outer loop
         vertex -1.500000e+002 0.000000e+000 -2.500000e+002
         vertex -1.500000e+002 -3.000000e+001 2.500000e+002
         vertex -1.500000e+002 0.000000e+000 2.500000e+002
      endloop
   endfacet
   facet normal 0.000000e+000 -1.000000e+000 0.000000e+000
      outer loop
         vertex 1.500000e+002 -3.000000e+001 2.500000e+002
         vertex -1.500000e+002 -3.000000e+001 2.500000e+002
         vertex 1.500000e+002 -3.000000e+001 -2.500000e+002
      endloop
   endfacet
   facet normal 0.000000e+000 -1.000000e+000 0.000000e+000
      outer loop
         vertex 1.500000e+002 -3.000000e+001 -2.500000e+002
         vertex -1.500000e+002 -3.000000e+001 2.500000e+002
         vertex -1.500000e+002 -3.000000e+001 -2.500000e+002
      endloop
   endfacet
   facet normal 0.000000e+000 1.000000e+000 0.000000e+000
      outer loop
         vertex -1.500000e+002 0.000000e+000 2.500000e+002
         vertex 1.500000e+002 0.000000e+000 2.500000e+002
         vertex -1.500000e+002 0.000000e+000 -2.500000e+002
      endloop
   endfacet
   facet normal 0.000000e+000 1.000000e+000 0.000000e+000
      outer loop
         vertex -1.500000e+002 0.000000e+000 -2.500000e+002
         vertex 1.500000e+002 0.000000e+000 2.500000e+002
         vertex 1.500000e+002 0.000000e+000 -2.500000e+002
      endloop
   endfacet
endsolid