solid pole_Default_sldprt
   facet normal -1.000000e+000 0.000000e+000 3.469447e-016
      outer loop
         vertex -8.305556e-002 1.300000e+000 1.217531e-001
         vertex -8.305556e-002 1.300000e+000 8.175306e-002
         vertex -8.305556e-002 0.000000e+000 1.217531e-001
      endloop
   endfacet
   facet normal -1.000000e+000 0.000000e+000 3.469447e-016
      outer loop
         vertex -8.305556e-002 0.000000e+000 1.217531e-001
         vertex -8.305556e-002 1.300000e+000 8.175306e-002
         vertex -8.305556e-002 0.000000e+000 8.175306e-002
      endloop
   endfacet
   facet normal 0.000000e+000 0.000000e+000 1.000000e+000
      outer loop
         vertex -4.305556e-002 1.300000e+000 1.217531e-001
         vertex -8.305556e-002 1.300000e+000 1.217531e-001
         vertex -4.305556e-002 0.000000e+000 1.217531e-001
      endloop
   endfacet
   facet normal 0.000000e+000 0.000000e+000 1.000000e+000
      outer loop
         vertex -4.305556e-002 0.000000e+000 1.217531e-001
         vertex -8.305556e-002 1.300000e+000 1.217531e-001
         vertex -8.305556e-002 0.000000e+000 1.217531e-001
      endloop
   endfacet
   facet normal 1.000000e+000 0.000000e+000 -3.469447e-016
      outer loop
         vertex -4.305556e-002 1.300000e+000 8.175306e-002
         vertex -4.305556e-002 1.300000e+000 1.217531e-001
         vertex -4.305556e-002 0.000000e+000 8.175306e-002
      endloop
   endfacet
   facet normal 1.000000e+000 0.000000e+000 -3.469447e-016
      outer loop
         vertex -4.305556e-002 0.000000e+000 8.175306e-002
         vertex -4.305556e-002 1.300000e+000 1.217531e-001
         vertex -4.305556e-002 0.000000e+000 1.217531e-001
      endloop
   endfacet
   facet normal 0.000000e+000 0.000000e+000 -1.000000e+000
      outer loop
         vertex -8.305556e-002 1.300000e+000 8.175306e-002
         vertex -4.305556e-002 1.300000e+000 8.175306e-002
         vertex -8.305556e-002 0.000000e+000 8.175306e-002
      endloop
   endfacet
   facet normal 0.000000e+000 0.000000e+000 -1.000000e+000
      outer loop
         vertex -8.305556e-002 0.000000e+000 8.175306e-002
         vertex -4.305556e-002 1.300000e+000 8.175306e-002
         vertex -4.305556e-002 0.000000e+000 8.175306e-002
      endloop
   endfacet
   facet normal 0.000000e+000 1.000000e+000 0.000000e+000
      outer loop
         vertex -4.305556e-002 1.300000e+000 1.217531e-001
         vertex -4.305556e-002 1.300000e+000 8.175306e-002
         vertex -8.305556e-002 1.300000e+000 1.217531e-001
      endloop
   endfacet
   facet normal 0.000000e+000 1.000000e+000 0.000000e+000
      outer loop
         vertex -8.305556e-002 1.300000e+000 1.217531e-001
         vertex -4.305556e-002 1.300000e+000 8.175306e-002
         vertex -8.305556e-002 1.300000e+000 8.175306e-002
      endloop
   endfacet
   facet normal 0.000000e+000 -1.000000e+000 0.000000e+000
      outer loop
         vertex -4.305556e-002 0.000000e+000 8.175306e-002
         vertex -4.305556e-002 0.000000e+000 1.217531e-001
         vertex -8.305556e-002 0.000000e+000 8.175306e-002
      endloop
   endfacet
   facet normal 0.000000e+000 -1.000000e+000 0.000000e+000
      outer loop
         vertex -8.305556e-002 0.000000e+000 8.175306e-002
         vertex -4.305556e-002 0.000000e+000 1.217531e-001
         vertex -8.305556e-002 0.000000e+000 1.217531e-001
      endloop
   endfacet
endsolid