solid rail_Default_sldprt
   facet normal 0.000000e+000 -1.591413e-016 -1.000000e+000
      outer loop
         vertex -6.400000e+000 -2.254224e-002 -1.902387e-002
         vertex -6.400000e+000 2.105986e-002 -1.902387e-002
         vertex 0.000000e+000 -2.254224e-002 -1.902387e-002
      endloop
   endfacet
   facet normal 0.000000e+000 -1.591413e-016 -1.000000e+000
      outer loop
         vertex 0.000000e+000 -2.254224e-002 -1.902387e-002
         vertex -6.400000e+000 2.105986e-002 -1.902387e-002
         vertex 0.000000e+000 2.105986e-002 -1.902387e-002
      endloop
   endfacet
   facet normal 0.000000e+000 -1.000000e+000 0.000000e+000
      outer loop
         vertex -6.400000e+000 -2.254224e-002 2.097613e-002
         vertex -6.400000e+000 -2.254224e-002 -1.902387e-002
         vertex 0.000000e+000 -2.254224e-002 2.097613e-002
      endloop
   endfacet
   facet normal 0.000000e+000 -1.000000e+000 0.000000e+000
      outer loop
         vertex 0.000000e+000 -2.254224e-002 2.097613e-002
         vertex -6.400000e+000 -2.254224e-002 -1.902387e-002
         vertex 0.000000e+000 -2.254224e-002 -1.902387e-002
      endloop
   endfacet
   facet normal 0.000000e+000 0.000000e+000 1.000000e+000
      outer loop
         vertex -6.400000e+000 -7.542241e-003 2.097613e-002
         vertex -6.400000e+000 -2.254224e-002 2.097613e-002
         vertex 0.000000e+000 -7.542241e-003 2.097613e-002
      endloop
   endfacet
   facet normal 0.000000e+000 0.000000e+000 1.000000e+000
      outer loop
         vertex 0.000000e+000 -7.542241e-003 2.097613e-002
         vertex -6.400000e+000 -2.254224e-002 2.097613e-002
         vertex 0.000000e+000 -2.254224e-002 2.097613e-002
      endloop
   endfacet
   facet normal 0.000000e+000 1.000000e+000 0.000000e+000
      outer loop
         vertex -6.400000e+000 -7.542241e-003 1.597613e-002
         vertex -6.400000e+000 -7.542241e-003 2.097613e-002
         vertex 0.000000e+000 -7.542241e-003 1.597613e-002
      endloop
   endfacet
   facet normal 0.000000e+000 1.000000e+000 0.000000e+000
      outer loop
         vertex 0.000000e+000 -7.542241e-003 1.597613e-002
         vertex -6.400000e+000 -7.542241e-003 2.097613e-002
         vertex 0.000000e+000 -7.542241e-003 2.097613e-002
      endloop
   endfacet
   facet normal 0.000000e+000 0.000000e+000 -1.000000e+000
      outer loop
         vertex -6.400000e+000 -1.754224e-002 1.597613e-002
         vertex -6.400000e+000 -7.542241e-003 1.597613e-002
         vertex 0.000000e+000 -1.754224e-002 1.597613e-002
      endloop
   endfacet
   facet normal 0.000000e+000 0.000000e+000 -1.000000e+000
      outer loop
         vertex 0.000000e+000 -1.754224e-002 1.597613e-002
         vertex -6.400000e+000 -7.542241e-003 1.597613e-002
         vertex 0.000000e+000 -7.542241e-003 1.597613e-002
      endloop
   endfacet
   facet normal 0.000000e+000 1.000000e+000 0.000000e+000
      outer loop
         vertex -6.400000e+000 -1.754224e-002 -1.402387e-002
         vertex -6.400000e+000 -1.754224e-002 1.597613e-002
         vertex 0.000000e+000 -1.754224e-002 -1.402387e-002
      endloop
   endfacet
   facet normal 0.000000e+000 1.000000e+000 0.000000e+000
      outer loop
         vertex 0.000000e+000 -1.754224e-002 -1.402387e-002
         vertex -6.400000e+000 -1.754224e-002 1.597613e-002
         vertex 0.000000e+000 -1.754224e-002 1.597613e-002
      endloop
   endfacet
   facet normal 0.000000e+000 0.000000e+000 1.000000e+000
      outer loop
         vertex -6.400000e+000 1.605986e-002 -1.402387e-002
         vertex -6.400000e+000 -1.754224e-002 -1.402387e-002
         vertex 0.000000e+000 1.605986e-002 -1.402387e-002
      endloop
   endfacet
   facet normal 0.000000e+000 0.000000e+000 1.000000e+000
      outer loop
         vertex 0.000000e+000 1.605986e-002 -1.402387e-002
         vertex -6.400000e+000 -1.754224e-002 -1.402387e-002
         vertex 0.000000e+000 -1.754224e-002 -1.402387e-002
      endloop
   endfacet
   facet normal 0.000000e+000 -1.000000e+000 0.000000e+000
      outer loop
         vertex -6.400000e+000 1.605986e-002 1.597613e-002
         vertex -6.400000e+000 1.605986e-002 -1.402387e-002
         vertex -1.776357e-015 1.605986e-002 1.597613e-002
      endloop
   endfacet
   facet normal 0.000000e+000 -1.000000e+000 0.000000e+000
      outer loop
         vertex -1.776357e-015 1.605986e-002 1.597613e-002
         vertex -6.400000e+000 1.605986e-002 -1.402387e-002
         vertex -1.776357e-015 1.605986e-002 -1.402387e-002
      endloop
   endfacet
   facet normal 0.000000e+000 0.000000e+000 -1.000000e+000
      outer loop
         vertex -6.400000e+000 6.059861e-003 1.597613e-002
         vertex -6.400000e+000 1.605986e-002 1.597613e-002
         vertex 0.000000e+000 6.059861e-003 1.597613e-002
      endloop
   endfacet
   facet normal 0.000000e+000 0.000000e+000 -1.000000e+000
      outer loop
         vertex 0.000000e+000 6.059861e-003 1.597613e-002
         vertex -6.400000e+000 1.605986e-002 1.597613e-002
         vertex 0.000000e+000 1.605986e-002 1.597613e-002
      endloop
   endfacet
   facet normal 0.000000e+000 -1.000000e+000 0.000000e+000
      outer loop
         vertex -6.400000e+000 6.059861e-003 2.097613e-002
         vertex -6.400000e+000 6.059861e-003 1.597613e-002
         vertex 0.000000e+000 6.059861e-003 2.097613e-002
      endloop
   endfacet
   facet normal 0.000000e+000 -1.000000e+000 0.000000e+000
      outer loop
         vertex 0.000000e+000 6.059861e-003 2.097613e-002
         vertex -6.400000e+000 6.059861e-003 1.597613e-002
         vertex 0.000000e+000 6.059861e-003 1.597613e-002
      endloop
   endfacet
   facet normal 0.000000e+000 -2.312965e-016 1.000000e+000
      outer loop
         vertex -6.400000e+000 2.105986e-002 2.097613e-002
         vertex -6.400000e+000 6.059861e-003 2.097613e-002
         vertex 0.000000e+000 2.105986e-002 2.097613e-002
      endloop
   endfacet
   facet normal 0.000000e+000 -2.312965e-016 1.000000e+000
      outer loop
         vertex 0.000000e+000 2.105986e-002 2.097613e-002
         vertex -6.400000e+000 6.059861e-003 2.097613e-002
         vertex 0.000000e+000 6.059861e-003 2.097613e-002
      endloop
   endfacet
   facet normal 0.000000e+000 1.000000e+000 1.734723e-016
      outer loop
         vertex -6.400000e+000 2.105986e-002 -1.902387e-002
         vertex -6.400000e+000 2.105986e-002 2.097613e-002
         vertex 0.000000e+000 2.105986e-002 -1.902387e-002
      endloop
   endfacet
   facet normal 0.000000e+000 1.000000e+000 1.734723e-016
      outer loop
         vertex 0.000000e+000 2.105986e-002 -1.902387e-002
         vertex -6.400000e+000 2.105986e-002 2.097613e-002
         vertex 0.000000e+000 2.105986e-002 2.097613e-002
      endloop
   endfacet
   facet normal -1.000000e+000 0.000000e+000 0.000000e+000
      outer loop
         vertex -6.400000e+000 6.059861e-003 1.597613e-002
         vertex -6.400000e+000 6.059861e-003 2.097613e-002
         vertex -6.400000e+000 1.605986e-002 1.597613e-002
      endloop
   endfacet
   facet normal -1.000000e+000 0.000000e+000 0.000000e+000
      outer loop
         vertex -6.400000e+000 1.605986e-002 1.597613e-002
         vertex -6.400000e+000 6.059861e-003 2.097613e-002
         vertex -6.400000e+000 2.105986e-002 2.097613e-002
      endloop
   endfacet
   facet normal -1.000000e+000 0.000000e+000 0.000000e+000
      outer loop
         vertex -6.400000e+000 1.605986e-002 1.597613e-002
         vertex -6.400000e+000 2.105986e-002 2.097613e-002
         vertex -6.400000e+000 1.605986e-002 -1.402387e-002
      endloop
   endfacet
   facet normal -1.000000e+000 0.000000e+000 0.000000e+000
      outer loop
         vertex -6.400000e+000 1.605986e-002 -1.402387e-002
         vertex -6.400000e+000 2.105986e-002 2.097613e-002
         vertex -6.400000e+000 2.105986e-002 -1.902387e-002
      endloop
   endfacet
   facet normal -1.000000e+000 0.000000e+000 0.000000e+000
      outer loop
         vertex -6.400000e+000 1.605986e-002 -1.402387e-002
         vertex -6.400000e+000 2.105986e-002 -1.902387e-002
         vertex -6.400000e+000 -1.754224e-002 -1.402387e-002
      endloop
   endfacet
   facet normal -1.000000e+000 0.000000e+000 0.000000e+000
      outer loop
         vertex -6.400000e+000 -1.754224e-002 -1.402387e-002
         vertex -6.400000e+000 2.105986e-002 -1.902387e-002
         vertex -6.400000e+000 -2.254224e-002 -1.902387e-002
      endloop
   endfacet
   facet normal -1.000000e+000 0.000000e+000 0.000000e+000
      outer loop
         vertex -6.400000e+000 -1.754224e-002 -1.402387e-002
         vertex -6.400000e+000 -2.254224e-002 -1.902387e-002
         vertex -6.400000e+000 -1.754224e-002 1.597613e-002
      endloop
   endfacet
   facet normal -1.000000e+000 0.000000e+000 0.000000e+000
      outer loop
         vertex -6.400000e+000 -1.754224e-002 1.597613e-002
         vertex -6.400000e+000 -2.254224e-002 -1.902387e-002
         vertex -6.400000e+000 -2.254224e-002 2.097613e-002
      endloop
   endfacet
   facet normal -1.000000e+000 0.000000e+000 0.000000e+000
      outer loop
         vertex -6.400000e+000 -1.754224e-002 1.597613e-002
         vertex -6.400000e+000 -2.254224e-002 2.097613e-002
         vertex -6.400000e+000 -7.542241e-003 1.597613e-002
      endloop
   endfacet
   facet normal -1.000000e+000 0.000000e+000 0.000000e+000
      outer loop
         vertex -6.400000e+000 -7.542241e-003 1.597613e-002
         vertex -6.400000e+000 -2.254224e-002 2.097613e-002
         vertex -6.400000e+000 -7.542241e-003 2.097613e-002
      endloop
   endfacet
   facet normal 1.000000e+000 0.000000e+000 0.000000e+000
      outer loop
         vertex 0.000000e+000 -7.542241e-003 1.597613e-002
         vertex 0.000000e+000 -7.542241e-003 2.097613e-002
         vertex 0.000000e+000 -1.754224e-002 1.597613e-002
      endloop
   endfacet
   facet normal 1.000000e+000 0.000000e+000 0.000000e+000
      outer loop
         vertex 0.000000e+000 -1.754224e-002 1.597613e-002
         vertex 0.000000e+000 -7.542241e-003 2.097613e-002
         vertex 0.000000e+000 -2.254224e-002 2.097613e-002
      endloop
   endfacet
   facet normal 1.000000e+000 0.000000e+000 0.000000e+000
      outer loop
         vertex 0.000000e+000 -1.754224e-002 1.597613e-002
         vertex 0.000000e+000 -2.254224e-002 2.097613e-002
         vertex 0.000000e+000 -1.754224e-002 -1.402387e-002
      endloop
   endfacet
   facet normal 1.000000e+000 0.000000e+000 0.000000e+000
      outer loop
         vertex 0.000000e+000 -1.754224e-002 -1.402387e-002
         vertex 0.000000e+000 -2.254224e-002 2.097613e-002
         vertex 0.000000e+000 -2.254224e-002 -1.902387e-002
      endloop
   endfacet
   facet normal 1.000000e+000 0.000000e+000 0.000000e+000
      outer loop
         vertex 0.000000e+000 -1.754224e-002 -1.402387e-002
         vertex 0.000000e+000 -2.254224e-002 -1.902387e-002
         vertex 0.000000e+000 1.605986e-002 -1.402387e-002
      endloop
   endfacet
   facet normal 1.000000e+000 0.000000e+000 0.000000e+000
      outer loop
         vertex 0.000000e+000 1.605986e-002 -1.402387e-002
         vertex 0.000000e+000 -2.254224e-002 -1.902387e-002
         vertex 0.000000e+000 2.105986e-002 -1.902387e-002
      endloop
   endfacet
   facet normal 1.000000e+000 0.000000e+000 0.000000e+000
      outer loop
         vertex 0.000000e+000 1.605986e-002 -1.402387e-002
         vertex 0.000000e+000 2.105986e-002 -1.902387e-002
         vertex 0.000000e+000 1.605986e-002 1.597613e-002
      endloop
   endfacet
   facet normal 1.000000e+000 0.000000e+000 0.000000e+000
      outer loop
         vertex 0.000000e+000 1.605986e-002 1.597613e-002
         vertex 0.000000e+000 2.105986e-002 -1.902387e-002
         vertex 0.000000e+000 2.105986e-002 2.097613e-002
      endloop
   endfacet
   facet normal 1.000000e+000 0.000000e+000 0.000000e+000
      outer loop
         vertex 0.000000e+000 1.605986e-002 1.597613e-002
         vertex 0.000000e+000 2.105986e-002 2.097613e-002
         vertex 0.000000e+000 6.059861e-003 1.597613e-002
      endloop
   endfacet
   facet normal 1.000000e+000 0.000000e+000 0.000000e+000
      outer loop
         vertex 0.000000e+000 6.059861e-003 1.597613e-002
         vertex 0.000000e+000 2.105986e-002 2.097613e-002
         vertex 0.000000e+000 6.059861e-003 2.097613e-002
      endloop
   endfacet
endsolid