solid triangle_Default_sldprt
   facet normal 0.000000e+000 0.000000e+000 -1.000000e+000
      outer loop
         vertex -2.081668e-017 3.256526e-001 2.809766e-001
         vertex -2.081668e-017 3.556526e-001 2.809766e-001
         vertex 4.000000e-002 3.256526e-001 2.809766e-001
      endloop
   endfacet
   facet normal 0.000000e+000 0.000000e+000 -1.000000e+000
      outer loop
         vertex 4.000000e-002 3.256526e-001 2.809766e-001
         vertex -2.081668e-017 3.556526e-001 2.809766e-001
         vertex 4.000000e-002 3.556526e-001 2.809766e-001
      endloop
   endfacet
   facet normal 6.123234e-017 -1.000000e+000 0.000000e+000
      outer loop
         vertex -2.081668e-017 3.256526e-001 2.909766e-001
         vertex -2.081668e-017 3.256526e-001 2.809766e-001
         vertex 4.000000e-002 3.256526e-001 2.909766e-001
      endloop
   endfacet
   facet normal 6.123234e-017 -1.000000e+000 0.000000e+000
      outer loop
         vertex 4.000000e-002 3.256526e-001 2.909766e-001
         vertex -2.081668e-017 3.256526e-001 2.809766e-001
         vertex 4.000000e-002 3.256526e-001 2.809766e-001
      endloop
   endfacet
   facet normal 0.000000e+000 0.000000e+000 -1.000000e+000
      outer loop
         vertex -2.081668e-017 3.206526e-001 2.909766e-001
         vertex -2.081668e-017 3.256526e-001 2.909766e-001
         vertex 4.000000e-002 3.206526e-001 2.909766e-001
      endloop
   endfacet
   facet normal 0.000000e+000 0.000000e+000 -1.000000e+000
      outer loop
         vertex 4.000000e-002 3.206526e-001 2.909766e-001
         vertex -2.081668e-017 3.256526e-001 2.909766e-001
         vertex 4.000000e-002 3.256526e-001 2.909766e-001
      endloop
   endfacet
   facet normal 6.123234e-017 -1.000000e+000 0.000000e+000
      outer loop
         vertex -2.081668e-017 3.206526e-001 3.009766e-001
         vertex -2.081668e-017 3.206526e-001 2.909766e-001
         vertex 4.000000e-002 3.206526e-001 3.009766e-001
      endloop
   endfacet
   facet normal 6.123234e-017 -1.000000e+000 0.000000e+000
      outer loop
         vertex 4.000000e-002 3.206526e-001 3.009766e-001
         vertex -2.081668e-017 3.206526e-001 2.909766e-001
         vertex 4.000000e-002 3.206526e-001 2.909766e-001
      endloop
   endfacet
   facet normal 0.000000e+000 0.000000e+000 1.000000e+000
      outer loop
         vertex -2.081668e-017 3.256526e-001 3.009766e-001
         vertex -2.081668e-017 3.206526e-001 3.009766e-001
         vertex 4.000000e-002 3.256526e-001 3.009766e-001
      endloop
   endfacet
   facet normal 0.000000e+000 0.000000e+000 1.000000e+000
      outer loop
         vertex 4.000000e-002 3.256526e-001 3.009766e-001
         vertex -2.081668e-017 3.206526e-001 3.009766e-001
         vertex 4.000000e-002 3.206526e-001 3.009766e-001
      endloop
   endfacet
   facet normal 6.123234e-017 -1.000000e+000 0.000000e+000
      outer loop
         vertex -2.081668e-017 3.256526e-001 3.109766e-001
         vertex -2.081668e-017 3.256526e-001 3.009766e-001
         vertex 4.000000e-002 3.256526e-001 3.109766e-001
      endloop
   endfacet
   facet normal 6.123234e-017 -1.000000e+000 0.000000e+000
      outer loop
         vertex 4.000000e-002 3.256526e-001 3.109766e-001
         vertex -2.081668e-017 3.256526e-001 3.009766e-001
         vertex 4.000000e-002 3.256526e-001 3.009766e-001
      endloop
   endfacet
   facet normal 0.000000e+000 0.000000e+000 1.000000e+000
      outer loop
         vertex -2.081668e-017 3.556526e-001 3.109766e-001
         vertex -2.081668e-017 3.256526e-001 3.109766e-001
         vertex 4.000000e-002 3.556526e-001 3.109766e-001
      endloop
   endfacet
   facet normal 0.000000e+000 0.000000e+000 1.000000e+000
      outer loop
         vertex 4.000000e-002 3.556526e-001 3.109766e-001
         vertex -2.081668e-017 3.256526e-001 3.109766e-001
         vertex 4.000000e-002 3.256526e-001 3.109766e-001
      endloop
   endfacet
   facet normal -6.123234e-017 1.000000e+000 0.000000e+000
      outer loop
         vertex -2.081668e-017 3.556526e-001 2.809766e-001
         vertex -2.081668e-017 3.556526e-001 3.109766e-001
         vertex 4.000000e-002 3.556526e-001 2.809766e-001
      endloop
   endfacet
   facet normal -6.123234e-017 1.000000e+000 0.000000e+000
      outer loop
         vertex 4.000000e-002 3.556526e-001 2.809766e-001
         vertex -2.081668e-017 3.556526e-001 3.109766e-001
         vertex 4.000000e-002 3.556526e-001 3.109766e-001
      endloop
   endfacet
   facet normal -1.000000e+000 0.000000e+000 0.000000e+000
      outer loop
         vertex -2.081668e-017 3.556526e-001 2.809766e-001
         vertex -2.081668e-017 3.256526e-001 2.809766e-001
         vertex -2.081668e-017 3.556526e-001 3.109766e-001
      endloop
   endfacet
   facet normal -1.000000e+000 0.000000e+000 0.000000e+000
      outer loop
         vertex -2.081668e-017 3.556526e-001 3.109766e-001
         vertex -2.081668e-017 3.256526e-001 2.809766e-001
         vertex -2.081668e-017 3.256526e-001 2.909766e-001
      endloop
   endfacet
   facet normal -1.000000e+000 0.000000e+000 0.000000e+000
      outer loop
         vertex -2.081668e-017 3.256526e-001 3.109766e-001
         vertex -2.081668e-017 3.556526e-001 3.109766e-001
         vertex -2.081668e-017 3.256526e-001 3.009766e-001
      endloop
   endfacet
   facet normal -1.000000e+000 0.000000e+000 0.000000e+000
      outer loop
         vertex -2.081668e-017 3.256526e-001 3.009766e-001
         vertex -2.081668e-017 3.556526e-001 3.109766e-001
         vertex -2.081668e-017 3.256526e-001 2.909766e-001
      endloop
   endfacet
   facet normal -1.000000e+000 0.000000e+000 0.000000e+000
      outer loop
         vertex -2.081668e-017 3.256526e-001 3.009766e-001
         vertex -2.081668e-017 3.256526e-001 2.909766e-001
         vertex -2.081668e-017 3.206526e-001 3.009766e-001
      endloop
   endfacet
   facet normal -1.000000e+000 0.000000e+000 0.000000e+000
      outer loop
         vertex -2.081668e-017 3.206526e-001 3.009766e-001
         vertex -2.081668e-017 3.256526e-001 2.909766e-001
         vertex -2.081668e-017 3.206526e-001 2.909766e-001
      endloop
   endfacet
   facet normal 1.000000e+000 0.000000e+000 0.000000e+000
      outer loop
         vertex 4.000000e-002 3.556526e-001 3.109766e-001
         vertex 4.000000e-002 3.256526e-001 3.109766e-001
         vertex 4.000000e-002 3.556526e-001 2.809766e-001
      endloop
   endfacet
   facet normal 1.000000e+000 0.000000e+000 0.000000e+000
      outer loop
         vertex 4.000000e-002 3.556526e-001 2.809766e-001
         vertex 4.000000e-002 3.256526e-001 3.109766e-001
         vertex 4.000000e-002 3.256526e-001 3.009766e-001
      endloop
   endfacet
   facet normal 1.000000e+000 0.000000e+000 0.000000e+000
      outer loop
         vertex 4.000000e-002 3.256526e-001 2.809766e-001
         vertex 4.000000e-002 3.556526e-001 2.809766e-001
         vertex 4.000000e-002 3.256526e-001 2.909766e-001
      endloop
   endfacet
   facet normal 1.000000e+000 0.000000e+000 0.000000e+000
      outer loop
         vertex 4.000000e-002 3.256526e-001 2.909766e-001
         vertex 4.000000e-002 3.556526e-001 2.809766e-001
         vertex 4.000000e-002 3.256526e-001 3.009766e-001
      endloop
   endfacet
   facet normal 1.000000e+000 0.000000e+000 0.000000e+000
      outer loop
         vertex 4.000000e-002 3.256526e-001 2.909766e-001
         vertex 4.000000e-002 3.256526e-001 3.009766e-001
         vertex 4.000000e-002 3.206526e-001 2.909766e-001
      endloop
   endfacet
   facet normal 1.000000e+000 0.000000e+000 0.000000e+000
      outer loop
         vertex 4.000000e-002 3.206526e-001 2.909766e-001
         vertex 4.000000e-002 3.256526e-001 3.009766e-001
         vertex 4.000000e-002 3.206526e-001 3.009766e-001
      endloop
   endfacet
   facet normal 0.000000e+000 1.000000e+000 1.914178e-016
      outer loop
         vertex 1.500000e-002 3.206526e-001 3.459766e-001
         vertex 1.500000e-002 3.206526e-001 3.409766e-001
         vertex 0.000000e+000 3.206526e-001 3.459766e-001
      endloop
   endfacet
   facet normal 0.000000e+000 1.000000e+000 1.914178e-016
      outer loop
         vertex 0.000000e+000 3.206526e-001 3.459766e-001
         vertex 1.500000e-002 3.206526e-001 3.409766e-001
         vertex 5.000000e-003 3.206526e-001 3.409766e-001
      endloop
   endfacet
   facet normal 0.000000e+000 1.000000e+000 1.914178e-016
      outer loop
         vertex 0.000000e+000 3.206526e-001 3.459766e-001
         vertex 5.000000e-003 3.206526e-001 3.409766e-001
         vertex 5.000000e-003 3.206526e-001 3.109766e-001
      endloop
   endfacet
   facet normal 0.000000e+000 1.000000e+000 1.914178e-016
      outer loop
         vertex 2.500000e-002 3.206526e-001 3.409766e-001
         vertex 2.500000e-002 3.206526e-001 3.459766e-001
         vertex 3.500000e-002 3.206526e-001 3.409766e-001
      endloop
   endfacet
   facet normal 0.000000e+000 1.000000e+000 1.914178e-016
      outer loop
         vertex 3.500000e-002 3.206526e-001 3.409766e-001
         vertex 2.500000e-002 3.206526e-001 3.459766e-001
         vertex 4.000000e-002 3.206526e-001 3.459766e-001
      endloop
   endfacet
   facet normal 0.000000e+000 1.000000e+000 1.914178e-016
      outer loop
         vertex 3.500000e-002 3.206526e-001 3.409766e-001
         vertex 4.000000e-002 3.206526e-001 3.459766e-001
         vertex 3.500000e-002 3.206526e-001 3.109766e-001
      endloop
   endfacet
   facet normal 0.000000e+000 1.000000e+000 1.914178e-016
      outer loop
         vertex 3.500000e-002 3.206526e-001 3.109766e-001
         vertex 4.000000e-002 3.206526e-001 3.459766e-001
         vertex 4.000000e-002 3.206526e-001 -1.990234e-001
      endloop
   endfacet
   facet normal 0.000000e+000 1.000000e+000 1.914178e-016
      outer loop
         vertex 3.500000e-002 3.206526e-001 3.109766e-001
         vertex 4.000000e-002 3.206526e-001 -1.990234e-001
         vertex 5.000000e-003 3.206526e-001 3.109766e-001
      endloop
   endfacet
   facet normal 0.000000e+000 1.000000e+000 1.914178e-016
      outer loop
         vertex 5.000000e-003 3.206526e-001 3.109766e-001
         vertex 4.000000e-002 3.206526e-001 -1.990234e-001
         vertex -2.081668e-017 3.206526e-001 -1.990234e-001
      endloop
   endfacet
   facet normal 0.000000e+000 1.000000e+000 1.914178e-016
      outer loop
         vertex 5.000000e-003 3.206526e-001 3.109766e-001
         vertex -2.081668e-017 3.206526e-001 -1.990234e-001
         vertex 0.000000e+000 3.206526e-001 3.459766e-001
      endloop
   endfacet
   facet normal 0.000000e+000 1.000000e+000 1.914178e-016
      outer loop
         vertex 4.000000e-002 3.206526e-001 -2.090234e-001
         vertex 4.000000e-002 3.206526e-001 -2.890234e-001
         vertex -2.081668e-017 3.206526e-001 -2.090234e-001
      endloop
   endfacet
   facet normal 0.000000e+000 1.000000e+000 1.914178e-016
      outer loop
         vertex -2.081668e-017 3.206526e-001 -2.090234e-001
         vertex 4.000000e-002 3.206526e-001 -2.890234e-001
         vertex -2.081668e-017 3.206526e-001 -2.890234e-001
      endloop
   endfacet
   facet normal 0.000000e+000 0.000000e+000 1.000000e+000
      outer loop
         vertex 4.000000e-002 -6.050016e-001 3.459766e-001
         vertex 4.000000e-002 3.206526e-001 3.459766e-001
         vertex 2.500000e-002 -6.050016e-001 3.459766e-001
      endloop
   endfacet
   facet normal 0.000000e+000 0.000000e+000 1.000000e+000
      outer loop
         vertex 2.500000e-002 -6.050016e-001 3.459766e-001
         vertex 4.000000e-002 3.206526e-001 3.459766e-001
         vertex 2.500000e-002 3.206526e-001 3.459766e-001
      endloop
   endfacet
   facet normal 0.000000e+000 -5.803525e-002 9.983146e-001
      outer loop
         vertex 1.500000e-002 -6.050016e-001 3.459766e-001
         vertex 0.000000e+000 -6.050016e-001 3.459766e-001
         vertex 0.000000e+000 -6.084720e-001 3.456732e-001
      endloop
   endfacet
   facet normal 0.000000e+000 -6.918612e-001 7.220306e-001
      outer loop
         vertex 5.000000e-003 -6.203140e-001 3.388425e-001
         vertex 5.000000e-003 -6.182304e-001 3.409766e-001
         vertex 0.000000e+000 -6.178493e-001 3.413042e-001
      endloop
   endfacet
   facet normal 0.000000e+000 -1.160705e-001 9.932410e-001
      outer loop
         vertex 1.500000e-002 -6.050016e-001 3.459766e-001
         vertex 0.000000e+000 -6.084720e-001 3.456732e-001
         vertex 1.500000e-002 -6.084720e-001 3.456732e-001
      endloop
   endfacet
   facet normal 0.000000e+000 -2.303803e-001 9.731007e-001
      outer loop
         vertex 1.500000e-002 -6.084720e-001 3.456732e-001
         vertex 0.000000e+000 -6.084720e-001 3.456732e-001
         vertex 0.000000e+000 -6.118371e-001 3.447722e-001
      endloop
   endfacet
   facet normal 0.000000e+000 -2.866549e-001 9.580340e-001
      outer loop
         vertex 1.500000e-002 -6.084720e-001 3.456732e-001
         vertex 0.000000e+000 -6.118371e-001 3.447722e-001
         vertex 1.500000e-002 -6.118371e-001 3.447722e-001
      endloop
   endfacet
   facet normal 0.000000e+000 -3.957359e-001 9.183643e-001
      outer loop
         vertex 1.500000e-002 -6.118371e-001 3.447722e-001
         vertex 0.000000e+000 -6.118371e-001 3.447722e-001
         vertex 0.000000e+000 -6.149948e-001 3.433010e-001
      endloop
   endfacet
   facet normal 0.000000e+000 -4.485425e-001 8.937615e-001
      outer loop
         vertex 1.500000e-002 -6.118371e-001 3.447722e-001
         vertex 0.000000e+000 -6.149948e-001 3.433010e-001
         vertex 1.500000e-002 -6.149948e-001 3.433010e-001
      endloop
   endfacet
   facet normal 0.000000e+000 -5.490855e-001 8.357662e-001
      outer loop
         vertex 1.500000e-002 -6.149948e-001 3.433010e-001
         vertex 0.000000e+000 -6.149948e-001 3.433010e-001
         vertex 0.000000e+000 -6.178493e-001 3.413042e-001
      endloop
   endfacet
   facet normal 0.000000e+000 -5.968220e-001 8.023736e-001
      outer loop
         vertex 1.500000e-002 -6.149948e-001 3.433010e-001
         vertex 0.000000e+000 -6.178493e-001 3.413042e-001
         vertex 1.500000e-002 -6.178493e-001 3.413042e-001
      endloop
   endfacet
   facet normal 0.000000e+000 -6.487795e-001 7.609765e-001
      outer loop
         vertex 1.500000e-002 -6.178493e-001 3.413042e-001
         vertex 0.000000e+000 -6.178493e-001 3.413042e-001
         vertex 5.000000e-003 -6.182304e-001 3.409766e-001
      endloop
   endfacet
   facet normal 0.000000e+000 -6.551319e-001 7.555146e-001
      outer loop
         vertex 1.500000e-002 -6.178493e-001 3.413042e-001
         vertex 5.000000e-003 -6.182304e-001 3.409766e-001
         vertex 1.500000e-002 -6.182304e-001 3.409766e-001
      endloop
   endfacet
   facet normal 0.000000e+000 -7.269948e-001 6.866430e-001
      outer loop
         vertex 0.000000e+000 -6.178493e-001 3.413042e-001
         vertex 0.000000e+000 -6.203140e-001 3.388425e-001
         vertex 5.000000e-003 -6.203140e-001 3.388425e-001
      endloop
   endfacet
   facet normal 0.000000e+000 -8.016623e-001 5.977772e-001
      outer loop
         vertex 5.000000e-003 -6.203140e-001 3.388425e-001
         vertex 0.000000e+000 -6.203140e-001 3.388425e-001
         vertex 0.000000e+000 -6.223142e-001 3.359903e-001
      endloop
   endfacet
   facet normal 0.000000e+000 -8.351116e-001 5.500805e-001
      outer loop
         vertex 5.000000e-003 -6.203140e-001 3.388425e-001
         vertex 0.000000e+000 -6.223142e-001 3.359903e-001
         vertex 5.000000e-003 -6.223142e-001 3.359903e-001
      endloop
   endfacet
   facet normal 0.000000e+000 -8.932266e-001 4.496066e-001
      outer loop
         vertex 5.000000e-003 -6.223142e-001 3.359903e-001
         vertex 0.000000e+000 -6.223142e-001 3.359903e-001
         vertex 0.000000e+000 -6.237891e-001 3.328344e-001
      endloop
   endfacet
   facet normal 0.000000e+000 -9.178924e-001 3.968294e-001
      outer loop
         vertex 5.000000e-003 -6.223142e-001 3.359903e-001
         vertex 0.000000e+000 -6.237891e-001 3.328344e-001
         vertex 5.000000e-003 -6.237891e-001 3.328344e-001
      endloop
   endfacet
   facet normal 0.000000e+000 -9.576918e-001 2.877957e-001
      outer loop
         vertex 5.000000e-003 -6.237891e-001 3.328344e-001
         vertex 0.000000e+000 -6.237891e-001 3.328344e-001
         vertex 0.000000e+000 -6.246941e-001 3.294704e-001
      endloop
   endfacet
   facet normal 0.000000e+000 -9.728256e-001 2.315391e-001
      outer loop
         vertex 5.000000e-003 -6.237891e-001 3.328344e-001
         vertex 0.000000e+000 -6.246941e-001 3.294704e-001
         vertex 5.000000e-003 -6.246941e-001 3.294704e-001
      endloop
   endfacet
   facet normal 0.000000e+000 -9.931020e-001 1.172534e-001
      outer loop
         vertex 5.000000e-003 -6.246941e-001 3.294704e-001
         vertex 0.000000e+000 -6.246941e-001 3.294704e-001
         vertex 0.000000e+000 -6.250016e-001 3.260004e-001
      endloop
   endfacet
   facet normal 0.000000e+000 -9.982448e-001 5.922421e-002
      outer loop
         vertex 5.000000e-003 -6.246941e-001 3.294704e-001
         vertex 0.000000e+000 -6.250016e-001 3.260004e-001
         vertex 5.000000e-003 -6.250016e-001 3.260004e-001
      endloop
   endfacet
   facet normal 0.000000e+000 -9.983829e-001 -5.684621e-002
      outer loop
         vertex 5.000000e-003 -6.250016e-001 3.260004e-001
         vertex 0.000000e+000 -6.250016e-001 3.260004e-001
         vertex 0.000000e+000 -6.247024e-001 3.225297e-001
      endloop
   endfacet
   facet normal 0.000000e+000 -9.933785e-001 -1.148875e-001
      outer loop
         vertex 5.000000e-003 -6.250016e-001 3.260004e-001
         vertex 0.000000e+000 -6.247024e-001 3.225297e-001
         vertex 5.000000e-003 -6.247024e-001 3.225297e-001
      endloop
   endfacet
   facet normal 0.000000e+000 -9.733744e-001 -2.292212e-001
      outer loop
         vertex 5.000000e-003 -6.247024e-001 3.225297e-001
         vertex 0.000000e+000 -6.247024e-001 3.225297e-001
         vertex 0.000000e+000 -6.238055e-001 3.191635e-001
      endloop
   endfacet
   facet normal 0.000000e+000 -9.583747e-001 -2.855136e-001
      outer loop
         vertex 5.000000e-003 -6.247024e-001 3.225297e-001
         vertex 0.000000e+000 -6.238055e-001 3.191635e-001
         vertex 5.000000e-003 -6.238055e-001 3.191635e-001
      endloop
   endfacet
   facet normal 0.000000e+000 -9.188350e-001 -3.946419e-001
      outer loop
         vertex 5.000000e-003 -6.238055e-001 3.191635e-001
         vertex 0.000000e+000 -6.238055e-001 3.191635e-001
         vertex 0.000000e+000 -6.223380e-001 3.160041e-001
      endloop
   endfacet
   facet normal 0.000000e+000 -8.942951e-001 -4.474777e-001
      outer loop
         vertex 5.000000e-003 -6.238055e-001 3.191635e-001
         vertex 0.000000e+000 -6.223380e-001 3.160041e-001
         vertex 5.000000e-003 -6.223380e-001 3.160041e-001
      endloop
   endfacet
   facet normal 0.000000e+000 -8.364196e-001 -5.480897e-001
      outer loop
         vertex 5.000000e-003 -6.223380e-001 3.160041e-001
         vertex 0.000000e+000 -6.223380e-001 3.160041e-001
         vertex 0.000000e+000 -6.203446e-001 3.131472e-001
      endloop
   endfacet
   facet normal 0.000000e+000 -8.030840e-001 -5.958660e-001
      outer loop
         vertex 5.000000e-003 -6.223380e-001 3.160041e-001
         vertex 0.000000e+000 -6.203446e-001 3.131472e-001
         vertex 5.000000e-003 -6.203446e-001 3.131472e-001
      endloop
   endfacet
   facet normal 0.000000e+000 -6.930057e-001 -7.209321e-001
      outer loop
         vertex 3.500000e-002 -6.203446e-001 3.131472e-001
         vertex 3.500000e-002 -6.182304e-001 3.109766e-001
         vertex 4.000000e-002 -6.178858e-001 3.106795e-001
      endloop
   endfacet
   facet normal 0.000000e+000 -6.557315e-001 -7.549942e-001
      outer loop
         vertex 4.000000e-002 -6.178858e-001 3.106795e-001
         vertex 3.500000e-002 -6.182304e-001 3.109766e-001
         vertex 5.000000e-003 -6.182304e-001 3.109766e-001
      endloop
   endfacet
   facet normal 0.000000e+000 -7.286283e-001 -6.849093e-001
      outer loop
         vertex 4.000000e-002 -6.178858e-001 3.106795e-001
         vertex 4.000000e-002 -6.203446e-001 3.131472e-001
         vertex 3.500000e-002 -6.203446e-001 3.131472e-001
      endloop
   endfacet
   facet normal 0.000000e+000 -8.030840e-001 -5.958659e-001
      outer loop
         vertex 3.500000e-002 -6.203446e-001 3.131472e-001
         vertex 4.000000e-002 -6.203446e-001 3.131472e-001
         vertex 4.000000e-002 -6.223380e-001 3.160041e-001
      endloop
   endfacet
   facet normal 0.000000e+000 -8.364196e-001 -5.480897e-001
      outer loop
         vertex 3.500000e-002 -6.203446e-001 3.131472e-001
         vertex 4.000000e-002 -6.223380e-001 3.160041e-001
         vertex 3.500000e-002 -6.223380e-001 3.160041e-001
      endloop
   endfacet
   facet normal 0.000000e+000 -8.942951e-001 -4.474777e-001
      outer loop
         vertex 3.500000e-002 -6.223380e-001 3.160041e-001
         vertex 4.000000e-002 -6.223380e-001 3.160041e-001
         vertex 4.000000e-002 -6.238055e-001 3.191635e-001
      endloop
   endfacet
   facet normal 0.000000e+000 -9.188350e-001 -3.946419e-001
      outer loop
         vertex 3.500000e-002 -6.223380e-001 3.160041e-001
         vertex 4.000000e-002 -6.238055e-001 3.191635e-001
         vertex 3.500000e-002 -6.238055e-001 3.191635e-001
      endloop
   endfacet
   facet normal 0.000000e+000 -9.583747e-001 -2.855136e-001
      outer loop
         vertex 3.500000e-002 -6.238055e-001 3.191635e-001
         vertex 4.000000e-002 -6.238055e-001 3.191635e-001
         vertex 4.000000e-002 -6.247024e-001 3.225297e-001
      endloop
   endfacet
   facet normal 0.000000e+000 -9.733744e-001 -2.292212e-001
      outer loop
         vertex 3.500000e-002 -6.238055e-001 3.191635e-001
         vertex 4.000000e-002 -6.247024e-001 3.225297e-001
         vertex 3.500000e-002 -6.247024e-001 3.225297e-001
      endloop
   endfacet
   facet normal 0.000000e+000 -9.933785e-001 -1.148874e-001
      outer loop
         vertex 3.500000e-002 -6.247024e-001 3.225297e-001
         vertex 4.000000e-002 -6.247024e-001 3.225297e-001
         vertex 4.000000e-002 -6.250016e-001 3.260004e-001
      endloop
   endfacet
   facet normal 0.000000e+000 -9.983829e-001 -5.684621e-002
      outer loop
         vertex 3.500000e-002 -6.247024e-001 3.225297e-001
         vertex 4.000000e-002 -6.250016e-001 3.260004e-001
         vertex 3.500000e-002 -6.250016e-001 3.260004e-001
      endloop
   endfacet
   facet normal 0.000000e+000 -9.982448e-001 5.922421e-002
      outer loop
         vertex 3.500000e-002 -6.250016e-001 3.260004e-001
         vertex 4.000000e-002 -6.250016e-001 3.260004e-001
         vertex 4.000000e-002 -6.246941e-001 3.294704e-001
      endloop
   endfacet
   facet normal 0.000000e+000 -9.931020e-001 1.172534e-001
      outer loop
         vertex 3.500000e-002 -6.250016e-001 3.260004e-001
         vertex 4.000000e-002 -6.246941e-001 3.294704e-001
         vertex 3.500000e-002 -6.246941e-001 3.294704e-001
      endloop
   endfacet
   facet normal 0.000000e+000 -9.728256e-001 2.315391e-001
      outer loop
         vertex 3.500000e-002 -6.246941e-001 3.294704e-001
         vertex 4.000000e-002 -6.246941e-001 3.294704e-001
         vertex 4.000000e-002 -6.237891e-001 3.328344e-001
      endloop
   endfacet
   facet normal 0.000000e+000 -9.576918e-001 2.877957e-001
      outer loop
         vertex 3.500000e-002 -6.246941e-001 3.294704e-001
         vertex 4.000000e-002 -6.237891e-001 3.328344e-001
         vertex 3.500000e-002 -6.237891e-001 3.328344e-001
      endloop
   endfacet
   facet normal 0.000000e+000 -9.178925e-001 3.968294e-001
      outer loop
         vertex 3.500000e-002 -6.237891e-001 3.328344e-001
         vertex 4.000000e-002 -6.237891e-001 3.328344e-001
         vertex 4.000000e-002 -6.223142e-001 3.359903e-001
      endloop
   endfacet
   facet normal 0.000000e+000 -8.932266e-001 4.496066e-001
      outer loop
         vertex 3.500000e-002 -6.237891e-001 3.328344e-001
         vertex 4.000000e-002 -6.223142e-001 3.359903e-001
         vertex 3.500000e-002 -6.223142e-001 3.359903e-001
      endloop
   endfacet
   facet normal 0.000000e+000 -8.351116e-001 5.500805e-001
      outer loop
         vertex 3.500000e-002 -6.223142e-001 3.359903e-001
         vertex 4.000000e-002 -6.223142e-001 3.359903e-001
         vertex 4.000000e-002 -6.203140e-001 3.388425e-001
      endloop
   endfacet
   facet normal 0.000000e+000 -8.016623e-001 5.977772e-001
      outer loop
         vertex 3.500000e-002 -6.223142e-001 3.359903e-001
         vertex 4.000000e-002 -6.203140e-001 3.388425e-001
         vertex 3.500000e-002 -6.203140e-001 3.388425e-001
      endloop
   endfacet
   facet normal 0.000000e+000 -6.551319e-001 7.555146e-001
      outer loop
         vertex 2.500000e-002 -6.178493e-001 3.413042e-001
         vertex 2.500000e-002 -6.182304e-001 3.409766e-001
         vertex 3.500000e-002 -6.182304e-001 3.409766e-001
      endloop
   endfacet
   facet normal 0.000000e+000 -7.327048e-001 6.805466e-001
      outer loop
         vertex 3.500000e-002 -6.203140e-001 3.388425e-001
         vertex 4.000000e-002 -6.203140e-001 3.388425e-001
         vertex 3.500000e-002 -6.182304e-001 3.409766e-001
      endloop
   endfacet
   facet normal 0.000000e+000 -6.918612e-001 7.220306e-001
      outer loop
         vertex 3.500000e-002 -6.182304e-001 3.409766e-001
         vertex 4.000000e-002 -6.203140e-001 3.388425e-001
         vertex 4.000000e-002 -6.178493e-001 3.413042e-001
      endloop
   endfacet
   facet normal 0.000000e+000 -6.487795e-001 7.609765e-001
      outer loop
         vertex 3.500000e-002 -6.182304e-001 3.409766e-001
         vertex 4.000000e-002 -6.178493e-001 3.413042e-001
         vertex 2.500000e-002 -6.178493e-001 3.413042e-001
      endloop
   endfacet
   facet normal 0.000000e+000 -5.968220e-001 8.023736e-001
      outer loop
         vertex 2.500000e-002 -6.178493e-001 3.413042e-001
         vertex 4.000000e-002 -6.178493e-001 3.413042e-001
         vertex 4.000000e-002 -6.149948e-001 3.433010e-001
      endloop
   endfacet
   facet normal 0.000000e+000 -5.490855e-001 8.357662e-001
      outer loop
         vertex 2.500000e-002 -6.178493e-001 3.413042e-001
         vertex 4.000000e-002 -6.149948e-001 3.433010e-001
         vertex 2.500000e-002 -6.149948e-001 3.433010e-001
      endloop
   endfacet
   facet normal 0.000000e+000 -4.485425e-001 8.937615e-001
      outer loop
         vertex 2.500000e-002 -6.149948e-001 3.433010e-001
         vertex 4.000000e-002 -6.149948e-001 3.433010e-001
         vertex 4.000000e-002 -6.118371e-001 3.447722e-001
      endloop
   endfacet
   facet normal 0.000000e+000 -3.957359e-001 9.183643e-001
      outer loop
         vertex 2.500000e-002 -6.149948e-001 3.433010e-001
         vertex 4.000000e-002 -6.118371e-001 3.447722e-001
         vertex 2.500000e-002 -6.118371e-001 3.447722e-001
      endloop
   endfacet
   facet normal 0.000000e+000 -2.866548e-001 9.580340e-001
      outer loop
         vertex 2.500000e-002 -6.118371e-001 3.447722e-001
         vertex 4.000000e-002 -6.118371e-001 3.447722e-001
         vertex 4.000000e-002 -6.084720e-001 3.456732e-001
      endloop
   endfacet
   facet normal 0.000000e+000 -2.303803e-001 9.731007e-001
      outer loop
         vertex 2.500000e-002 -6.118371e-001 3.447722e-001
         vertex 4.000000e-002 -6.084720e-001 3.456732e-001
         vertex 2.500000e-002 -6.084720e-001 3.456732e-001
      endloop
   endfacet
   facet normal 0.000000e+000 -1.160705e-001 9.932410e-001
      outer loop
         vertex 2.500000e-002 -6.084720e-001 3.456732e-001
         vertex 4.000000e-002 -6.084720e-001 3.456732e-001
         vertex 4.000000e-002 -6.050016e-001 3.459766e-001
      endloop
   endfacet
   facet normal 0.000000e+000 -5.803525e-002 9.983146e-001
      outer loop
         vertex 2.500000e-002 -6.084720e-001 3.456732e-001
         vertex 4.000000e-002 -6.050016e-001 3.459766e-001
         vertex 2.500000e-002 -6.050016e-001 3.459766e-001
      endloop
   endfacet
   facet normal 0.000000e+000 -7.337859e-001 -6.793808e-001
      outer loop
         vertex 5.000000e-003 -6.203446e-001 3.131472e-001
         vertex 0.000000e+000 -6.203446e-001 3.131472e-001
         vertex 5.000000e-003 -6.182304e-001 3.109766e-001
      endloop
   endfacet
   facet normal 0.000000e+000 -6.930057e-001 -7.209321e-001
      outer loop
         vertex 5.000000e-003 -6.182304e-001 3.109766e-001
         vertex 0.000000e+000 -6.203446e-001 3.131472e-001
         vertex 0.000000e+000 -6.178858e-001 3.106795e-001
      endloop
   endfacet
   facet normal 0.000000e+000 -6.499872e-001 -7.599452e-001
      outer loop
         vertex 5.000000e-003 -6.182304e-001 3.109766e-001
         vertex 0.000000e+000 -6.178858e-001 3.106795e-001
         vertex 4.000000e-002 -6.178858e-001 3.106795e-001
      endloop
   endfacet
   facet normal 0.000000e+000 -5.987316e-001 -8.009498e-001
      outer loop
         vertex 4.000000e-002 -6.178858e-001 3.106795e-001
         vertex 0.000000e+000 -6.178858e-001 3.106795e-001
         vertex 0.000000e+000 -6.150360e-001 3.086759e-001
      endloop
   endfacet
   facet normal 0.000000e+000 -5.510747e-001 -8.344559e-001
      outer loop
         vertex 4.000000e-002 -6.178858e-001 3.106795e-001
         vertex 0.000000e+000 -6.150360e-001 3.086759e-001
         vertex 4.000000e-002 -6.150360e-001 3.086759e-001
      endloop
   endfacet
   facet normal 1.000000e+000 0.000000e+000 0.000000e+000
      outer loop
         vertex 4.000000e-002 3.556526e-001 -1.890234e-001
         vertex 4.000000e-002 3.256526e-001 -1.890234e-001
         vertex 4.000000e-002 3.556526e-001 -2.190234e-001
      endloop
   endfacet
   facet normal 1.000000e+000 0.000000e+000 0.000000e+000
      outer loop
         vertex 4.000000e-002 3.556526e-001 -2.190234e-001
         vertex 4.000000e-002 3.256526e-001 -1.890234e-001
         vertex 4.000000e-002 3.256526e-001 -1.990234e-001
      endloop
   endfacet
   facet normal 1.000000e+000 0.000000e+000 0.000000e+000
      outer loop
         vertex 4.000000e-002 2.106526e-001 -2.890234e-001
         vertex 4.000000e-002 3.206526e-001 -2.890234e-001
         vertex 4.000000e-002 3.206526e-001 -2.090234e-001
      endloop
   endfacet
   facet normal 1.000000e+000 0.000000e+000 0.000000e+000
      outer loop
         vertex 4.000000e-002 -6.150360e-001 3.086759e-001
         vertex 4.000000e-002 2.106526e-001 -1.702234e-001
         vertex 4.000000e-002 2.806526e-001 -1.645823e-001
      endloop
   endfacet
   facet normal 1.000000e+000 0.000000e+000 0.000000e+000
      outer loop
         vertex 4.000000e-002 3.256526e-001 -2.190234e-001
         vertex 4.000000e-002 3.556526e-001 -2.190234e-001
         vertex 4.000000e-002 3.256526e-001 -2.090234e-001
      endloop
   endfacet
   facet normal 1.000000e+000 0.000000e+000 0.000000e+000
      outer loop
         vertex 4.000000e-002 3.256526e-001 -2.090234e-001
         vertex 4.000000e-002 3.556526e-001 -2.190234e-001
         vertex 4.000000e-002 3.256526e-001 -1.990234e-001
      endloop
   endfacet
   facet normal 1.000000e+000 0.000000e+000 0.000000e+000
      outer loop
         vertex 4.000000e-002 3.256526e-001 -2.090234e-001
         vertex 4.000000e-002 3.256526e-001 -1.990234e-001
         vertex 4.000000e-002 3.206526e-001 -2.090234e-001
      endloop
   endfacet
   facet normal 1.000000e+000 0.000000e+000 0.000000e+000
      outer loop
         vertex 4.000000e-002 3.206526e-001 -2.090234e-001
         vertex 4.000000e-002 3.256526e-001 -1.990234e-001
         vertex 4.000000e-002 3.206526e-001 -1.990234e-001
      endloop
   endfacet
   facet normal 1.000000e+000 0.000000e+000 0.000000e+000
      outer loop
         vertex 4.000000e-002 -6.237891e-001 3.328344e-001
         vertex 4.000000e-002 -6.223380e-001 3.160041e-001
         vertex 4.000000e-002 -6.203446e-001 3.131472e-001
      endloop
   endfacet
   facet normal 1.000000e+000 0.000000e+000 0.000000e+000
      outer loop
         vertex 4.000000e-002 -6.118371e-001 3.447722e-001
         vertex 4.000000e-002 -6.149948e-001 3.433010e-001
         vertex 4.000000e-002 -6.178493e-001 3.413042e-001
      endloop
   endfacet
   facet normal 1.000000e+000 0.000000e+000 0.000000e+000
      outer loop
         vertex 4.000000e-002 -6.237891e-001 3.328344e-001
         vertex 4.000000e-002 -6.246941e-001 3.294704e-001
         vertex 4.000000e-002 -6.223380e-001 3.160041e-001
      endloop
   endfacet
   facet normal 1.000000e+000 0.000000e+000 0.000000e+000
      outer loop
         vertex 4.000000e-002 -6.223380e-001 3.160041e-001
         vertex 4.000000e-002 -6.246941e-001 3.294704e-001
         vertex 4.000000e-002 -6.250016e-001 3.260004e-001
      endloop
   endfacet
   facet normal 1.000000e+000 0.000000e+000 0.000000e+000
      outer loop
         vertex 4.000000e-002 -6.223380e-001 3.160041e-001
         vertex 4.000000e-002 -6.250016e-001 3.260004e-001
         vertex 4.000000e-002 -6.238055e-001 3.191635e-001
      endloop
   endfacet
   facet normal 1.000000e+000 0.000000e+000 0.000000e+000
      outer loop
         vertex 4.000000e-002 -6.238055e-001 3.191635e-001
         vertex 4.000000e-002 -6.250016e-001 3.260004e-001
         vertex 4.000000e-002 -6.247024e-001 3.225297e-001
      endloop
   endfacet
   facet normal 1.000000e+000 0.000000e+000 0.000000e+000
      outer loop
         vertex 4.000000e-002 2.806526e-001 -1.645823e-001
         vertex 4.000000e-002 -5.306559e-001 3.059766e-001
         vertex 4.000000e-002 -6.150360e-001 3.086759e-001
      endloop
   endfacet
   facet normal 1.000000e+000 0.000000e+000 0.000000e+000
      outer loop
         vertex 4.000000e-002 -6.150360e-001 3.086759e-001
         vertex 4.000000e-002 -5.306559e-001 3.059766e-001
         vertex 4.000000e-002 -6.237891e-001 3.328344e-001
      endloop
   endfacet
   facet normal 1.000000e+000 0.000000e+000 0.000000e+000
      outer loop
         vertex 4.000000e-002 -6.150360e-001 3.086759e-001
         vertex 4.000000e-002 -6.237891e-001 3.328344e-001
         vertex 4.000000e-002 -6.178858e-001 3.106795e-001
      endloop
   endfacet
   facet normal 1.000000e+000 0.000000e+000 0.000000e+000
      outer loop
         vertex 4.000000e-002 -6.178858e-001 3.106795e-001
         vertex 4.000000e-002 -6.237891e-001 3.328344e-001
         vertex 4.000000e-002 -6.203446e-001 3.131472e-001
      endloop
   endfacet
   facet normal 1.000000e+000 0.000000e+000 0.000000e+000
      outer loop
         vertex 4.000000e-002 -6.178493e-001 3.413042e-001
         vertex 4.000000e-002 -6.203140e-001 3.388425e-001
         vertex 4.000000e-002 -6.118371e-001 3.447722e-001
      endloop
   endfacet
   facet normal 1.000000e+000 0.000000e+000 0.000000e+000
      outer loop
         vertex 4.000000e-002 -6.118371e-001 3.447722e-001
         vertex 4.000000e-002 -6.203140e-001 3.388425e-001
         vertex 4.000000e-002 -6.223142e-001 3.359903e-001
      endloop
   endfacet
   facet normal 1.000000e+000 0.000000e+000 0.000000e+000
      outer loop
         vertex 4.000000e-002 -6.118371e-001 3.447722e-001
         vertex 4.000000e-002 -6.223142e-001 3.359903e-001
         vertex 4.000000e-002 -6.084720e-001 3.456732e-001
      endloop
   endfacet
   facet normal 1.000000e+000 0.000000e+000 0.000000e+000
      outer loop
         vertex 4.000000e-002 -6.084720e-001 3.456732e-001
         vertex 4.000000e-002 -6.223142e-001 3.359903e-001
         vertex 4.000000e-002 -6.237891e-001 3.328344e-001
      endloop
   endfacet
   facet normal 1.000000e+000 0.000000e+000 0.000000e+000
      outer loop
         vertex 4.000000e-002 -6.084720e-001 3.456732e-001
         vertex 4.000000e-002 -6.237891e-001 3.328344e-001
         vertex 4.000000e-002 -6.050016e-001 3.459766e-001
      endloop
   endfacet
   facet normal 1.000000e+000 0.000000e+000 0.000000e+000
      outer loop
         vertex 4.000000e-002 -6.050016e-001 3.459766e-001
         vertex 4.000000e-002 -6.237891e-001 3.328344e-001
         vertex 4.000000e-002 -5.306559e-001 3.059766e-001
      endloop
   endfacet
   facet normal 1.000000e+000 0.000000e+000 0.000000e+000
      outer loop
         vertex 4.000000e-002 -6.050016e-001 3.459766e-001
         vertex 4.000000e-002 -5.306559e-001 3.059766e-001
         vertex 4.000000e-002 3.206526e-001 3.459766e-001
      endloop
   endfacet
   facet normal 1.000000e+000 0.000000e+000 0.000000e+000
      outer loop
         vertex 4.000000e-002 3.206526e-001 3.459766e-001
         vertex 4.000000e-002 -5.306559e-001 3.059766e-001
         vertex 4.000000e-002 2.806526e-001 3.059766e-001
      endloop
   endfacet
   facet normal 1.000000e+000 0.000000e+000 0.000000e+000
      outer loop
         vertex 4.000000e-002 3.206526e-001 3.459766e-001
         vertex 4.000000e-002 2.806526e-001 3.059766e-001
         vertex 4.000000e-002 3.206526e-001 -1.990234e-001
      endloop
   endfacet
   facet normal 1.000000e+000 0.000000e+000 0.000000e+000
      outer loop
         vertex 4.000000e-002 3.206526e-001 -1.990234e-001
         vertex 4.000000e-002 2.806526e-001 3.059766e-001
         vertex 4.000000e-002 2.806526e-001 -1.645823e-001
      endloop
   endfacet
   facet normal 1.000000e+000 0.000000e+000 0.000000e+000
      outer loop
         vertex 4.000000e-002 3.206526e-001 -1.990234e-001
         vertex 4.000000e-002 2.806526e-001 -1.645823e-001
         vertex 4.000000e-002 3.206526e-001 -2.090234e-001
      endloop
   endfacet
   facet normal 1.000000e+000 0.000000e+000 0.000000e+000
      outer loop
         vertex 4.000000e-002 3.206526e-001 -2.090234e-001
         vertex 4.000000e-002 2.806526e-001 -1.645823e-001
         vertex 4.000000e-002 2.106526e-001 -1.702234e-001
      endloop
   endfacet
   facet normal 1.000000e+000 0.000000e+000 0.000000e+000
      outer loop
         vertex 4.000000e-002 3.206526e-001 -2.090234e-001
         vertex 4.000000e-002 2.106526e-001 -1.702234e-001
         vertex 4.000000e-002 2.106526e-001 -2.890234e-001
      endloop
   endfacet
   facet normal -1.000000e+000 0.000000e+000 0.000000e+000
      outer loop
         vertex -2.081668e-017 3.256526e-001 -1.990234e-001
         vertex -2.081668e-017 3.256526e-001 -1.890234e-001
         vertex -2.081668e-017 3.556526e-001 -1.890234e-001
      endloop
   endfacet
   facet normal -1.000000e+000 0.000000e+000 0.000000e+000
      outer loop
         vertex 0.000000e+000 2.806526e-001 -1.645823e-001
         vertex -2.081668e-017 3.256526e-001 -2.090234e-001
         vertex -2.081668e-017 3.206526e-001 -2.090234e-001
      endloop
   endfacet
   facet normal -1.000000e+000 0.000000e+000 0.000000e+000
      outer loop
         vertex -2.081668e-017 3.556526e-001 -2.190234e-001
         vertex -2.081668e-017 3.256526e-001 -2.190234e-001
         vertex -2.081668e-017 3.256526e-001 -2.090234e-001
      endloop
   endfacet
   facet normal -1.000000e+000 0.000000e+000 0.000000e+000
      outer loop
         vertex -2.081668e-017 3.556526e-001 -1.890234e-001
         vertex -2.081668e-017 3.556526e-001 -2.190234e-001
         vertex -2.081668e-017 3.256526e-001 -1.990234e-001
      endloop
   endfacet
   facet normal -1.000000e+000 0.000000e+000 0.000000e+000
      outer loop
         vertex -2.081668e-017 3.256526e-001 -1.990234e-001
         vertex -2.081668e-017 3.556526e-001 -2.190234e-001
         vertex -2.081668e-017 3.256526e-001 -2.090234e-001
      endloop
   endfacet
   facet normal -1.000000e+000 0.000000e+000 0.000000e+000
      outer loop
         vertex -2.081668e-017 3.256526e-001 -1.990234e-001
         vertex -2.081668e-017 3.256526e-001 -2.090234e-001
         vertex -2.081668e-017 3.206526e-001 -1.990234e-001
      endloop
   endfacet
   facet normal -1.000000e+000 0.000000e+000 0.000000e+000
      outer loop
         vertex -2.081668e-017 3.206526e-001 -1.990234e-001
         vertex -2.081668e-017 3.256526e-001 -2.090234e-001
         vertex 0.000000e+000 2.806526e-001 -1.645823e-001
      endloop
   endfacet
   facet normal -1.000000e+000 0.000000e+000 0.000000e+000
      outer loop
         vertex -2.081668e-017 3.206526e-001 -1.990234e-001
         vertex 0.000000e+000 2.806526e-001 -1.645823e-001
         vertex 0.000000e+000 3.206526e-001 3.459766e-001
      endloop
   endfacet
   facet normal -1.000000e+000 0.000000e+000 0.000000e+000
      outer loop
         vertex 0.000000e+000 3.206526e-001 3.459766e-001
         vertex 0.000000e+000 2.806526e-001 -1.645823e-001
         vertex 0.000000e+000 2.806526e-001 3.059766e-001
      endloop
   endfacet
   facet normal -1.000000e+000 0.000000e+000 0.000000e+000
      outer loop
         vertex 0.000000e+000 3.206526e-001 3.459766e-001
         vertex 0.000000e+000 2.806526e-001 3.059766e-001
         vertex 0.000000e+000 -6.050016e-001 3.459766e-001
      endloop
   endfacet
   facet normal -1.000000e+000 0.000000e+000 0.000000e+000
      outer loop
         vertex 0.000000e+000 -6.178858e-001 3.106795e-001
         vertex 0.000000e+000 -6.237891e-001 3.328344e-001
         vertex 0.000000e+000 -6.150360e-001 3.086759e-001
      endloop
   endfacet
   facet normal -1.000000e+000 0.000000e+000 0.000000e+000
      outer loop
         vertex 0.000000e+000 -6.150360e-001 3.086759e-001
         vertex 0.000000e+000 -6.237891e-001 3.328344e-001
         vertex 0.000000e+000 -5.306559e-001 3.059766e-001
      endloop
   endfacet
   facet normal -1.000000e+000 0.000000e+000 0.000000e+000
      outer loop
         vertex 0.000000e+000 -6.150360e-001 3.086759e-001
         vertex 0.000000e+000 -5.306559e-001 3.059766e-001
         vertex -1.387779e-017 2.106526e-001 -1.702234e-001
      endloop
   endfacet
   facet normal -1.000000e+000 0.000000e+000 0.000000e+000
      outer loop
         vertex -1.387779e-017 2.106526e-001 -1.702234e-001
         vertex 0.000000e+000 -5.306559e-001 3.059766e-001
         vertex 0.000000e+000 2.806526e-001 -1.645823e-001
      endloop
   endfacet
   facet normal -1.000000e+000 0.000000e+000 0.000000e+000
      outer loop
         vertex -1.387779e-017 2.106526e-001 -1.702234e-001
         vertex 0.000000e+000 2.806526e-001 -1.645823e-001
         vertex -1.387779e-017 2.106526e-001 -2.890234e-001
      endloop
   endfacet
   facet normal -1.000000e+000 0.000000e+000 0.000000e+000
      outer loop
         vertex -1.387779e-017 2.106526e-001 -2.890234e-001
         vertex 0.000000e+000 2.806526e-001 -1.645823e-001
         vertex -2.081668e-017 3.206526e-001 -2.090234e-001
      endloop
   endfacet
   facet normal -1.000000e+000 0.000000e+000 0.000000e+000
      outer loop
         vertex -1.387779e-017 2.106526e-001 -2.890234e-001
         vertex -2.081668e-017 3.206526e-001 -2.090234e-001
         vertex -2.081668e-017 3.206526e-001 -2.890234e-001
      endloop
   endfacet
   facet normal -1.000000e+000 0.000000e+000 0.000000e+000
      outer loop
         vertex 0.000000e+000 -6.247024e-001 3.225297e-001
         vertex 0.000000e+000 -6.250016e-001 3.260004e-001
         vertex 0.000000e+000 -6.238055e-001 3.191635e-001
      endloop
   endfacet
   facet normal -1.000000e+000 0.000000e+000 0.000000e+000
      outer loop
         vertex 0.000000e+000 -6.238055e-001 3.191635e-001
         vertex 0.000000e+000 -6.250016e-001 3.260004e-001
         vertex 0.000000e+000 -6.223380e-001 3.160041e-001
      endloop
   endfacet
   facet normal -1.000000e+000 0.000000e+000 0.000000e+000
      outer loop
         vertex 0.000000e+000 -6.178858e-001 3.106795e-001
         vertex 0.000000e+000 -6.203446e-001 3.131472e-001
         vertex 0.000000e+000 -6.237891e-001 3.328344e-001
      endloop
   endfacet
   facet normal -1.000000e+000 0.000000e+000 0.000000e+000
      outer loop
         vertex 0.000000e+000 -6.237891e-001 3.328344e-001
         vertex 0.000000e+000 -6.203446e-001 3.131472e-001
         vertex 0.000000e+000 -6.223380e-001 3.160041e-001
      endloop
   endfacet
   facet normal -1.000000e+000 0.000000e+000 0.000000e+000
      outer loop
         vertex 0.000000e+000 -6.237891e-001 3.328344e-001
         vertex 0.000000e+000 -6.223380e-001 3.160041e-001
         vertex 0.000000e+000 -6.246941e-001 3.294704e-001
      endloop
   endfacet
   facet normal -1.000000e+000 0.000000e+000 0.000000e+000
      outer loop
         vertex 0.000000e+000 -6.246941e-001 3.294704e-001
         vertex 0.000000e+000 -6.223380e-001 3.160041e-001
         vertex 0.000000e+000 -6.250016e-001 3.260004e-001
      endloop
   endfacet
   facet normal -1.000000e+000 0.000000e+000 0.000000e+000
      outer loop
         vertex 0.000000e+000 -6.178493e-001 3.413042e-001
         vertex 0.000000e+000 -6.149948e-001 3.433010e-001
         vertex 0.000000e+000 -6.118371e-001 3.447722e-001
      endloop
   endfacet
   facet normal -1.000000e+000 0.000000e+000 0.000000e+000
      outer loop
         vertex 0.000000e+000 2.806526e-001 3.059766e-001
         vertex 0.000000e+000 -5.306559e-001 3.059766e-001
         vertex 0.000000e+000 -6.050016e-001 3.459766e-001
      endloop
   endfacet
   facet normal -1.000000e+000 0.000000e+000 0.000000e+000
      outer loop
         vertex 0.000000e+000 -6.050016e-001 3.459766e-001
         vertex 0.000000e+000 -5.306559e-001 3.059766e-001
         vertex 0.000000e+000 -6.237891e-001 3.328344e-001
      endloop
   endfacet
   facet normal -1.000000e+000 0.000000e+000 0.000000e+000
      outer loop
         vertex 0.000000e+000 -6.050016e-001 3.459766e-001
         vertex 0.000000e+000 -6.237891e-001 3.328344e-001
         vertex 0.000000e+000 -6.084720e-001 3.456732e-001
      endloop
   endfacet
   facet normal -1.000000e+000 0.000000e+000 0.000000e+000
      outer loop
         vertex 0.000000e+000 -6.084720e-001 3.456732e-001
         vertex 0.000000e+000 -6.237891e-001 3.328344e-001
         vertex 0.000000e+000 -6.223142e-001 3.359903e-001
      endloop
   endfacet
   facet normal -1.000000e+000 0.000000e+000 0.000000e+000
      outer loop
         vertex 0.000000e+000 -6.084720e-001 3.456732e-001
         vertex 0.000000e+000 -6.223142e-001 3.359903e-001
         vertex 0.000000e+000 -6.118371e-001 3.447722e-001
      endloop
   endfacet
   facet normal -1.000000e+000 0.000000e+000 0.000000e+000
      outer loop
         vertex 0.000000e+000 -6.118371e-001 3.447722e-001
         vertex 0.000000e+000 -6.223142e-001 3.359903e-001
         vertex 0.000000e+000 -6.203140e-001 3.388425e-001
      endloop
   endfacet
   facet normal -1.000000e+000 0.000000e+000 0.000000e+000
      outer loop
         vertex 0.000000e+000 -6.118371e-001 3.447722e-001
         vertex 0.000000e+000 -6.203140e-001 3.388425e-001
         vertex 0.000000e+000 -6.178493e-001 3.413042e-001
      endloop
   endfacet
   facet normal 0.000000e+000 0.000000e+000 1.000000e+000
      outer loop
         vertex 1.500000e-002 3.206526e-001 3.459766e-001
         vertex 0.000000e+000 3.206526e-001 3.459766e-001
         vertex 1.500000e-002 -6.050016e-001 3.459766e-001
      endloop
   endfacet
   facet normal 0.000000e+000 0.000000e+000 1.000000e+000
      outer loop
         vertex 1.500000e-002 -6.050016e-001 3.459766e-001
         vertex 0.000000e+000 3.206526e-001 3.459766e-001
         vertex 0.000000e+000 -6.050016e-001 3.459766e-001
      endloop
   endfacet
   facet normal 0.000000e+000 -5.017181e-001 -8.650312e-001
      outer loop
         vertex 4.000000e-002 2.106526e-001 -1.702234e-001
         vertex 4.000000e-002 -6.150360e-001 3.086759e-001
         vertex -1.387779e-017 2.106526e-001 -1.702234e-001
      endloop
   endfacet
   facet normal 0.000000e+000 -5.017181e-001 -8.650312e-001
      outer loop
         vertex -1.387779e-017 2.106526e-001 -1.702234e-001
         vertex 4.000000e-002 -6.150360e-001 3.086759e-001
         vertex 0.000000e+000 -6.150360e-001 3.086759e-001
      endloop
   endfacet
   facet normal 0.000000e+000 0.000000e+000 -1.000000e+000
      outer loop
         vertex 4.000000e-002 2.806526e-001 3.059766e-001
         vertex 4.000000e-002 -5.306559e-001 3.059766e-001
         vertex 0.000000e+000 2.806526e-001 3.059766e-001
      endloop
   endfacet
   facet normal 0.000000e+000 0.000000e+000 -1.000000e+000
      outer loop
         vertex 0.000000e+000 2.806526e-001 3.059766e-001
         vertex 4.000000e-002 -5.306559e-001 3.059766e-001
         vertex 0.000000e+000 -5.306559e-001 3.059766e-001
      endloop
   endfacet
   facet normal 0.000000e+000 5.017181e-001 8.650312e-001
      outer loop
         vertex 4.000000e-002 -5.306559e-001 3.059766e-001
         vertex 4.000000e-002 2.806526e-001 -1.645823e-001
         vertex 0.000000e+000 -5.306559e-001 3.059766e-001
      endloop
   endfacet
   facet normal 0.000000e+000 5.017181e-001 8.650312e-001
      outer loop
         vertex 0.000000e+000 -5.306559e-001 3.059766e-001
         vertex 4.000000e-002 2.806526e-001 -1.645823e-001
         vertex 0.000000e+000 2.806526e-001 -1.645823e-001
      endloop
   endfacet
   facet normal 0.000000e+000 -1.000000e+000 -1.179686e-016
      outer loop
         vertex 4.000000e-002 2.806526e-001 -1.645823e-001
         vertex 4.000000e-002 2.806526e-001 3.059766e-001
         vertex 0.000000e+000 2.806526e-001 -1.645823e-001
      endloop
   endfacet
   facet normal 0.000000e+000 -1.000000e+000 -1.179686e-016
      outer loop
         vertex 0.000000e+000 2.806526e-001 -1.645823e-001
         vertex 4.000000e-002 2.806526e-001 3.059766e-001
         vertex 0.000000e+000 2.806526e-001 3.059766e-001
      endloop
   endfacet
   facet normal -1.000000e+000 -1.042210e-031 5.444688e-016
      outer loop
         vertex 2.500000e-002 3.206526e-001 3.459766e-001
         vertex 2.500000e-002 3.206526e-001 3.409766e-001
         vertex 2.500000e-002 -6.050016e-001 3.459766e-001
      endloop
   endfacet
   facet normal -1.000000e+000 -1.042210e-031 5.444688e-016
      outer loop
         vertex 2.500000e-002 -6.050016e-001 3.459766e-001
         vertex 2.500000e-002 3.206526e-001 3.409766e-001
         vertex 2.500000e-002 -6.182304e-001 3.409766e-001
      endloop
   endfacet
   facet normal -1.000000e+000 -1.042210e-031 5.444688e-016
      outer loop
         vertex 2.500000e-002 -6.050016e-001 3.459766e-001
         vertex 2.500000e-002 -6.182304e-001 3.409766e-001
         vertex 2.500000e-002 -6.178493e-001 3.413042e-001
      endloop
   endfacet
   facet normal -1.000000e+000 -1.042210e-031 5.444688e-016
      outer loop
         vertex 2.500000e-002 -6.149948e-001 3.433010e-001
         vertex 2.500000e-002 -6.118371e-001 3.447722e-001
         vertex 2.500000e-002 -6.178493e-001 3.413042e-001
      endloop
   endfacet
   facet normal -1.000000e+000 -1.042210e-031 5.444688e-016
      outer loop
         vertex 2.500000e-002 -6.178493e-001 3.413042e-001
         vertex 2.500000e-002 -6.118371e-001 3.447722e-001
         vertex 2.500000e-002 -6.084720e-001 3.456732e-001
      endloop
   endfacet
   facet normal -1.000000e+000 -1.042210e-031 5.444688e-016
      outer loop
         vertex 2.500000e-002 -6.178493e-001 3.413042e-001
         vertex 2.500000e-002 -6.084720e-001 3.456732e-001
         vertex 2.500000e-002 -6.050016e-001 3.459766e-001
      endloop
   endfacet
   facet normal 1.000000e+000 9.417589e-032 -4.919914e-016
      outer loop
         vertex 1.500000e-002 -6.118371e-001 3.447722e-001
         vertex 1.500000e-002 -6.149948e-001 3.433010e-001
         vertex 1.500000e-002 -6.178493e-001 3.413042e-001
      endloop
   endfacet
   facet normal 1.000000e+000 9.417589e-032 -4.919914e-016
      outer loop
         vertex 1.500000e-002 3.206526e-001 3.409766e-001
         vertex 1.500000e-002 3.206526e-001 3.459766e-001
         vertex 1.500000e-002 -6.182304e-001 3.409766e-001
      endloop
   endfacet
   facet normal 1.000000e+000 9.417589e-032 -4.919914e-016
      outer loop
         vertex 1.500000e-002 -6.182304e-001 3.409766e-001
         vertex 1.500000e-002 3.206526e-001 3.459766e-001
         vertex 1.500000e-002 -6.050016e-001 3.459766e-001
      endloop
   endfacet
   facet normal 1.000000e+000 9.417589e-032 -4.919914e-016
      outer loop
         vertex 1.500000e-002 -6.182304e-001 3.409766e-001
         vertex 1.500000e-002 -6.050016e-001 3.459766e-001
         vertex 1.500000e-002 -6.178493e-001 3.413042e-001
      endloop
   endfacet
   facet normal 1.000000e+000 9.417589e-032 -4.919914e-016
      outer loop
         vertex 1.500000e-002 -6.178493e-001 3.413042e-001
         vertex 1.500000e-002 -6.050016e-001 3.459766e-001
         vertex 1.500000e-002 -6.084720e-001 3.456732e-001
      endloop
   endfacet
   facet normal 1.000000e+000 9.417589e-032 -4.919914e-016
      outer loop
         vertex 1.500000e-002 -6.178493e-001 3.413042e-001
         vertex 1.500000e-002 -6.084720e-001 3.456732e-001
         vertex 1.500000e-002 -6.118371e-001 3.447722e-001
      endloop
   endfacet
   facet normal 0.000000e+000 1.914178e-016 -1.000000e+000
      outer loop
         vertex 3.500000e-002 3.206526e-001 3.409766e-001
         vertex 3.500000e-002 -6.182304e-001 3.409766e-001
         vertex 2.500000e-002 3.206526e-001 3.409766e-001
      endloop
   endfacet
   facet normal 0.000000e+000 1.914178e-016 -1.000000e+000
      outer loop
         vertex 2.500000e-002 3.206526e-001 3.409766e-001
         vertex 3.500000e-002 -6.182304e-001 3.409766e-001
         vertex 2.500000e-002 -6.182304e-001 3.409766e-001
      endloop
   endfacet
   facet normal 0.000000e+000 1.914178e-016 -1.000000e+000
      outer loop
         vertex 1.500000e-002 3.206526e-001 3.409766e-001
         vertex 1.500000e-002 -6.182304e-001 3.409766e-001
         vertex 5.000000e-003 3.206526e-001 3.409766e-001
      endloop
   endfacet
   facet normal 0.000000e+000 1.914178e-016 -1.000000e+000
      outer loop
         vertex 5.000000e-003 3.206526e-001 3.409766e-001
         vertex 1.500000e-002 -6.182304e-001 3.409766e-001
         vertex 5.000000e-003 -6.182304e-001 3.409766e-001
      endloop
   endfacet
   facet normal 1.000000e+000 9.408278e-032 -4.915050e-016
      outer loop
         vertex 5.000000e-003 -6.203446e-001 3.131472e-001
         vertex 5.000000e-003 -6.182304e-001 3.109766e-001
         vertex 5.000000e-003 3.206526e-001 3.109766e-001
      endloop
   endfacet
   facet normal 1.000000e+000 9.408278e-032 -4.915050e-016
      outer loop
         vertex 5.000000e-003 -6.203446e-001 3.131472e-001
         vertex 5.000000e-003 3.206526e-001 3.109766e-001
         vertex 5.000000e-003 -6.223380e-001 3.160041e-001
      endloop
   endfacet
   facet normal 1.000000e+000 9.408278e-032 -4.915050e-016
      outer loop
         vertex 5.000000e-003 3.206526e-001 3.409766e-001
         vertex 5.000000e-003 -6.182304e-001 3.409766e-001
         vertex 5.000000e-003 3.206526e-001 3.109766e-001
      endloop
   endfacet
   facet normal 1.000000e+000 9.408278e-032 -4.915050e-016
      outer loop
         vertex 5.000000e-003 3.206526e-001 3.109766e-001
         vertex 5.000000e-003 -6.182304e-001 3.409766e-001
         vertex 5.000000e-003 -6.203140e-001 3.388425e-001
      endloop
   endfacet
   facet normal 1.000000e+000 9.408278e-032 -4.915050e-016
      outer loop
         vertex 5.000000e-003 3.206526e-001 3.109766e-001
         vertex 5.000000e-003 -6.203140e-001 3.388425e-001
         vertex 5.000000e-003 -6.223142e-001 3.359903e-001
      endloop
   endfacet
   facet normal 1.000000e+000 9.408278e-032 -4.915050e-016
      outer loop
         vertex 5.000000e-003 -6.223142e-001 3.359903e-001
         vertex 5.000000e-003 -6.237891e-001 3.328344e-001
         vertex 5.000000e-003 3.206526e-001 3.109766e-001
      endloop
   endfacet
   facet normal 1.000000e+000 9.408278e-032 -4.915050e-016
      outer loop
         vertex 5.000000e-003 3.206526e-001 3.109766e-001
         vertex 5.000000e-003 -6.237891e-001 3.328344e-001
         vertex 5.000000e-003 -6.246941e-001 3.294704e-001
      endloop
   endfacet
   facet normal 1.000000e+000 9.408278e-032 -4.915050e-016
      outer loop
         vertex 5.000000e-003 3.206526e-001 3.109766e-001
         vertex 5.000000e-003 -6.246941e-001 3.294704e-001
         vertex 5.000000e-003 -6.250016e-001 3.260004e-001
      endloop
   endfacet
   facet normal 1.000000e+000 9.408278e-032 -4.915050e-016
      outer loop
         vertex 5.000000e-003 -6.250016e-001 3.260004e-001
         vertex 5.000000e-003 -6.247024e-001 3.225297e-001
         vertex 5.000000e-003 3.206526e-001 3.109766e-001
      endloop
   endfacet
   facet normal 1.000000e+000 9.408278e-032 -4.915050e-016
      outer loop
         vertex 5.000000e-003 3.206526e-001 3.109766e-001
         vertex 5.000000e-003 -6.247024e-001 3.225297e-001
         vertex 5.000000e-003 -6.238055e-001 3.191635e-001
      endloop
   endfacet
   facet normal 1.000000e+000 9.408278e-032 -4.915050e-016
      outer loop
         vertex 5.000000e-003 3.206526e-001 3.109766e-001
         vertex 5.000000e-003 -6.238055e-001 3.191635e-001
         vertex 5.000000e-003 -6.223380e-001 3.160041e-001
      endloop
   endfacet
   facet normal 0.000000e+000 -1.914178e-016 1.000000e+000
      outer loop
         vertex 3.500000e-002 3.206526e-001 3.109766e-001
         vertex 5.000000e-003 3.206526e-001 3.109766e-001
         vertex 3.500000e-002 -6.182304e-001 3.109766e-001
      endloop
   endfacet
   facet normal 0.000000e+000 -1.914178e-016 1.000000e+000
      outer loop
         vertex 3.500000e-002 -6.182304e-001 3.109766e-001
         vertex 5.000000e-003 3.206526e-001 3.109766e-001
         vertex 5.000000e-003 -6.182304e-001 3.109766e-001
      endloop
   endfacet
   facet normal -1.000000e+000 -4.427425e-032 2.312965e-016
      outer loop
         vertex 3.500000e-002 -6.246941e-001 3.294704e-001
         vertex 3.500000e-002 -6.237891e-001 3.328344e-001
         vertex 3.500000e-002 3.206526e-001 3.109766e-001
      endloop
   endfacet
   facet normal -1.000000e+000 -4.427425e-032 2.312965e-016
      outer loop
         vertex 3.500000e-002 -6.182304e-001 3.409766e-001
         vertex 3.500000e-002 3.206526e-001 3.409766e-001
         vertex 3.500000e-002 -6.203140e-001 3.388425e-001
      endloop
   endfacet
   facet normal -1.000000e+000 -4.427425e-032 2.312965e-016
      outer loop
         vertex 3.500000e-002 -6.203140e-001 3.388425e-001
         vertex 3.500000e-002 3.206526e-001 3.409766e-001
         vertex 3.500000e-002 3.206526e-001 3.109766e-001
      endloop
   endfacet
   facet normal -1.000000e+000 -4.427425e-032 2.312965e-016
      outer loop
         vertex 3.500000e-002 -6.203140e-001 3.388425e-001
         vertex 3.500000e-002 3.206526e-001 3.109766e-001
         vertex 3.500000e-002 -6.223142e-001 3.359903e-001
      endloop
   endfacet
   facet normal -1.000000e+000 -4.427425e-032 2.312965e-016
      outer loop
         vertex 3.500000e-002 -6.223142e-001 3.359903e-001
         vertex 3.500000e-002 3.206526e-001 3.109766e-001
         vertex 3.500000e-002 -6.237891e-001 3.328344e-001
      endloop
   endfacet
   facet normal -1.000000e+000 -4.427425e-032 2.312965e-016
      outer loop
         vertex 3.500000e-002 -6.182304e-001 3.109766e-001
         vertex 3.500000e-002 -6.203446e-001 3.131472e-001
         vertex 3.500000e-002 3.206526e-001 3.109766e-001
      endloop
   endfacet
   facet normal -1.000000e+000 -4.427425e-032 2.312965e-016
      outer loop
         vertex 3.500000e-002 3.206526e-001 3.109766e-001
         vertex 3.500000e-002 -6.203446e-001 3.131472e-001
         vertex 3.500000e-002 -6.223380e-001 3.160041e-001
      endloop
   endfacet
   facet normal -1.000000e+000 -4.427425e-032 2.312965e-016
      outer loop
         vertex 3.500000e-002 3.206526e-001 3.109766e-001
         vertex 3.500000e-002 -6.223380e-001 3.160041e-001
         vertex 3.500000e-002 -6.238055e-001 3.191635e-001
      endloop
   endfacet
   facet normal -1.000000e+000 -4.427425e-032 2.312965e-016
      outer loop
         vertex 3.500000e-002 -6.238055e-001 3.191635e-001
         vertex 3.500000e-002 -6.247024e-001 3.225297e-001
         vertex 3.500000e-002 3.206526e-001 3.109766e-001
      endloop
   endfacet
   facet normal -1.000000e+000 -4.427425e-032 2.312965e-016
      outer loop
         vertex 3.500000e-002 3.206526e-001 3.109766e-001
         vertex 3.500000e-002 -6.247024e-001 3.225297e-001
         vertex 3.500000e-002 -6.250016e-001 3.260004e-001
      endloop
   endfacet
   facet normal -1.000000e+000 -4.427425e-032 2.312965e-016
      outer loop
         vertex 3.500000e-002 3.206526e-001 3.109766e-001
         vertex 3.500000e-002 -6.250016e-001 3.260004e-001
         vertex 3.500000e-002 -6.246941e-001 3.294704e-001
      endloop
   endfacet
   facet normal 6.123234e-017 -1.000000e+000 0.000000e+000
      outer loop
         vertex -1.387779e-017 2.106526e-001 -2.890234e-001
         vertex 4.000000e-002 2.106526e-001 -2.890234e-001
         vertex -1.387779e-017 2.106526e-001 -1.702234e-001
      endloop
   endfacet
   facet normal 6.123234e-017 -1.000000e+000 0.000000e+000
      outer loop
         vertex -1.387779e-017 2.106526e-001 -1.702234e-001
         vertex 4.000000e-002 2.106526e-001 -2.890234e-001
         vertex 4.000000e-002 2.106526e-001 -1.702234e-001
      endloop
   endfacet
   facet normal 0.000000e+000 0.000000e+000 -1.000000e+000
      outer loop
         vertex -1.387779e-017 2.106526e-001 -2.890234e-001
         vertex -2.081668e-017 3.206526e-001 -2.890234e-001
         vertex 4.000000e-002 2.106526e-001 -2.890234e-001
      endloop
   endfacet
   facet normal 0.000000e+000 0.000000e+000 -1.000000e+000
      outer loop
         vertex 4.000000e-002 2.106526e-001 -2.890234e-001
         vertex -2.081668e-017 3.206526e-001 -2.890234e-001
         vertex 4.000000e-002 3.206526e-001 -2.890234e-001
      endloop
   endfacet
   facet normal 6.123234e-017 -1.000000e+000 0.000000e+000
      outer loop
         vertex -2.081668e-017 3.256526e-001 -1.890234e-001
         vertex -2.081668e-017 3.256526e-001 -1.990234e-001
         vertex 4.000000e-002 3.256526e-001 -1.890234e-001
      endloop
   endfacet
   facet normal 6.123234e-017 -1.000000e+000 0.000000e+000
      outer loop
         vertex 4.000000e-002 3.256526e-001 -1.890234e-001
         vertex -2.081668e-017 3.256526e-001 -1.990234e-001
         vertex 4.000000e-002 3.256526e-001 -1.990234e-001
      endloop
   endfacet
   facet normal 0.000000e+000 0.000000e+000 1.000000e+000
      outer loop
         vertex -2.081668e-017 3.556526e-001 -1.890234e-001
         vertex -2.081668e-017 3.256526e-001 -1.890234e-001
         vertex 4.000000e-002 3.556526e-001 -1.890234e-001
      endloop
   endfacet
   facet normal 0.000000e+000 0.000000e+000 1.000000e+000
      outer loop
         vertex 4.000000e-002 3.556526e-001 -1.890234e-001
         vertex -2.081668e-017 3.256526e-001 -1.890234e-001
         vertex 4.000000e-002 3.256526e-001 -1.890234e-001
      endloop
   endfacet
   facet normal -6.123234e-017 1.000000e+000 0.000000e+000
      outer loop
         vertex -2.081668e-017 3.556526e-001 -2.190234e-001
         vertex -2.081668e-017 3.556526e-001 -1.890234e-001
         vertex 4.000000e-002 3.556526e-001 -2.190234e-001
      endloop
   endfacet
   facet normal -6.123234e-017 1.000000e+000 0.000000e+000
      outer loop
         vertex 4.000000e-002 3.556526e-001 -2.190234e-001
         vertex -2.081668e-017 3.556526e-001 -1.890234e-001
         vertex 4.000000e-002 3.556526e-001 -1.890234e-001
      endloop
   endfacet
   facet normal 0.000000e+000 0.000000e+000 -1.000000e+000
      outer loop
         vertex -2.081668e-017 3.256526e-001 -2.190234e-001
         vertex -2.081668e-017 3.556526e-001 -2.190234e-001
         vertex 4.000000e-002 3.256526e-001 -2.190234e-001
      endloop
   endfacet
   facet normal 0.000000e+000 0.000000e+000 -1.000000e+000
      outer loop
         vertex 4.000000e-002 3.256526e-001 -2.190234e-001
         vertex -2.081668e-017 3.556526e-001 -2.190234e-001
         vertex 4.000000e-002 3.556526e-001 -2.190234e-001
      endloop
   endfacet
   facet normal 6.123234e-017 -1.000000e+000 0.000000e+000
      outer loop
         vertex -2.081668e-017 3.256526e-001 -2.090234e-001
         vertex -2.081668e-017 3.256526e-001 -2.190234e-001
         vertex 4.000000e-002 3.256526e-001 -2.090234e-001
      endloop
   endfacet
   facet normal 6.123234e-017 -1.000000e+000 0.000000e+000
      outer loop
         vertex 4.000000e-002 3.256526e-001 -2.090234e-001
         vertex -2.081668e-017 3.256526e-001 -2.190234e-001
         vertex 4.000000e-002 3.256526e-001 -2.190234e-001
      endloop
   endfacet
   facet normal 0.000000e+000 0.000000e+000 -1.000000e+000
      outer loop
         vertex -2.081668e-017 3.206526e-001 -2.090234e-001
         vertex -2.081668e-017 3.256526e-001 -2.090234e-001
         vertex 4.000000e-002 3.206526e-001 -2.090234e-001
      endloop
   endfacet
   facet normal 0.000000e+000 0.000000e+000 -1.000000e+000
      outer loop
         vertex 4.000000e-002 3.206526e-001 -2.090234e-001
         vertex -2.081668e-017 3.256526e-001 -2.090234e-001
         vertex 4.000000e-002 3.256526e-001 -2.090234e-001
      endloop
   endfacet
   facet normal -3.399078e-031 5.551115e-015 1.000000e+000
      outer loop
         vertex -2.081668e-017 3.256526e-001 -1.990234e-001
         vertex -2.081668e-017 3.206526e-001 -1.990234e-001
         vertex 4.000000e-002 3.256526e-001 -1.990234e-001
      endloop
   endfacet
   facet normal -3.399078e-031 5.551115e-015 1.000000e+000
      outer loop
         vertex 4.000000e-002 3.256526e-001 -1.990234e-001
         vertex -2.081668e-017 3.206526e-001 -1.990234e-001
         vertex 4.000000e-002 3.206526e-001 -1.990234e-001
      endloop
   endfacet
endsolid