solid walkway_Default_sldprt
   facet normal 1.000000e+000 0.000000e+000 -3.700743e-016
      outer loop
         vertex 3.200000e+000 1.517000e-001 -6.000000e-001
         vertex 3.200000e+000 1.517000e-001 6.000000e-001
         vertex 3.200000e+000 0.000000e+000 -6.000000e-001
      endloop
   endfacet
   facet normal 1.000000e+000 0.000000e+000 -3.700743e-016
      outer loop
         vertex 3.200000e+000 0.000000e+000 -6.000000e-001
         vertex 3.200000e+000 1.517000e-001 6.000000e-001
         vertex 3.200000e+000 0.000000e+000 6.000000e-001
      endloop
   endfacet
   facet normal 0.000000e+000 0.000000e+000 -1.000000e+000
      outer loop
         vertex -3.200000e+000 1.517000e-001 -6.000000e-001
         vertex 3.200000e+000 1.517000e-001 -6.000000e-001
         vertex -3.200000e+000 0.000000e+000 -6.000000e-001
      endloop
   endfacet
   facet normal 0.000000e+000 0.000000e+000 -1.000000e+000
      outer loop
         vertex -3.200000e+000 0.000000e+000 -6.000000e-001
         vertex 3.200000e+000 1.517000e-001 -6.000000e-001
         vertex 3.200000e+000 0.000000e+000 -6.000000e-001
      endloop
   endfacet
   facet normal -1.000000e+000 0.000000e+000 0.000000e+000
      outer loop
         vertex -3.200000e+000 1.517000e-001 6.000000e-001
         vertex -3.200000e+000 1.517000e-001 -6.000000e-001
         vertex -3.200000e+000 0.000000e+000 6.000000e-001
      endloop
   endfacet
   facet normal -1.000000e+000 0.000000e+000 0.000000e+000
      outer loop
         vertex -3.200000e+000 0.000000e+000 6.000000e-001
         vertex -3.200000e+000 1.517000e-001 -6.000000e-001
         vertex -3.200000e+000 0.000000e+000 -6.000000e-001
      endloop
   endfacet
   facet normal -1.734723e-017 0.000000e+000 1.000000e+000
      outer loop
         vertex 3.200000e+000 1.517000e-001 6.000000e-001
         vertex -3.200000e+000 1.517000e-001 6.000000e-001
         vertex 3.200000e+000 0.000000e+000 6.000000e-001
      endloop
   endfacet
   facet normal -1.734723e-017 0.000000e+000 1.000000e+000
      outer loop
         vertex 3.200000e+000 0.000000e+000 6.000000e-001
         vertex -3.200000e+000 1.517000e-001 6.000000e-001
         vertex -3.200000e+000 0.000000e+000 6.000000e-001
      endloop
   endfacet
   facet normal 0.000000e+000 1.000000e+000 0.000000e+000
      outer loop
         vertex 2.650000e-001 1.517000e-001 -1.650000e-001
         vertex 3.200000e+000 1.517000e-001 -6.000000e-001
         vertex -2.650000e-001 1.517000e-001 -1.650000e-001
      endloop
   endfacet
   facet normal 0.000000e+000 1.000000e+000 0.000000e+000
      outer loop
         vertex -2.650000e-001 1.517000e-001 -1.650000e-001
         vertex 3.200000e+000 1.517000e-001 -6.000000e-001
         vertex -3.200000e+000 1.517000e-001 -6.000000e-001
      endloop
   endfacet
   facet normal 0.000000e+000 1.000000e+000 0.000000e+000
      outer loop
         vertex -2.650000e-001 1.517000e-001 -1.650000e-001
         vertex -3.200000e+000 1.517000e-001 -6.000000e-001
         vertex -2.650000e-001 1.517000e-001 1.650000e-001
      endloop
   endfacet
   facet normal 0.000000e+000 1.000000e+000 0.000000e+000
      outer loop
         vertex -2.650000e-001 1.517000e-001 1.650000e-001
         vertex -3.200000e+000 1.517000e-001 -6.000000e-001
         vertex -3.200000e+000 1.517000e-001 6.000000e-001
      endloop
   endfacet
   facet normal 0.000000e+000 1.000000e+000 0.000000e+000
      outer loop
         vertex -2.650000e-001 1.517000e-001 1.650000e-001
         vertex -3.200000e+000 1.517000e-001 6.000000e-001
         vertex 2.650000e-001 1.517000e-001 1.650000e-001
      endloop
   endfacet
   facet normal 0.000000e+000 1.000000e+000 0.000000e+000
      outer loop
         vertex 2.650000e-001 1.517000e-001 1.650000e-001
         vertex -3.200000e+000 1.517000e-001 6.000000e-001
         vertex 3.200000e+000 1.517000e-001 6.000000e-001
      endloop
   endfacet
   facet normal 0.000000e+000 1.000000e+000 0.000000e+000
      outer loop
         vertex 2.650000e-001 1.517000e-001 1.650000e-001
         vertex 3.200000e+000 1.517000e-001 6.000000e-001
         vertex 2.650000e-001 1.517000e-001 -1.650000e-001
      endloop
   endfacet
   facet normal 0.000000e+000 1.000000e+000 0.000000e+000
      outer loop
         vertex 2.650000e-001 1.517000e-001 -1.650000e-001
         vertex 3.200000e+000 1.517000e-001 6.000000e-001
         vertex 3.200000e+000 1.517000e-001 -6.000000e-001
      endloop
   endfacet
   facet normal 0.000000e+000 -1.000000e+000 0.000000e+000
      outer loop
         vertex -2.650000e-001 0.000000e+000 1.650000e-001
         vertex -3.200000e+000 0.000000e+000 6.000000e-001
         vertex -2.650000e-001 0.000000e+000 -1.650000e-001
      endloop
   endfacet
   facet normal 0.000000e+000 -1.000000e+000 0.000000e+000
      outer loop
         vertex -2.650000e-001 0.000000e+000 -1.650000e-001
         vertex -3.200000e+000 0.000000e+000 6.000000e-001
         vertex -3.200000e+000 0.000000e+000 -6.000000e-001
      endloop
   endfacet
   facet normal 0.000000e+000 -1.000000e+000 0.000000e+000
      outer loop
         vertex -2.650000e-001 0.000000e+000 -1.650000e-001
         vertex -3.200000e+000 0.000000e+000 -6.000000e-001
         vertex 2.650000e-001 0.000000e+000 -1.650000e-001
      endloop
   endfacet
   facet normal 0.000000e+000 -1.000000e+000 0.000000e+000
      outer loop
         vertex 2.650000e-001 0.000000e+000 -1.650000e-001
         vertex -3.200000e+000 0.000000e+000 -6.000000e-001
         vertex 3.200000e+000 0.000000e+000 -6.000000e-001
      endloop
   endfacet
   facet normal 0.000000e+000 -1.000000e+000 0.000000e+000
      outer loop
         vertex 2.650000e-001 0.000000e+000 -1.650000e-001
         vertex 3.200000e+000 0.000000e+000 -6.000000e-001
         vertex 2.650000e-001 0.000000e+000 1.650000e-001
      endloop
   endfacet
   facet normal 0.000000e+000 -1.000000e+000 0.000000e+000
      outer loop
         vertex 2.650000e-001 0.000000e+000 1.650000e-001
         vertex 3.200000e+000 0.000000e+000 -6.000000e-001
         vertex 3.200000e+000 0.000000e+000 6.000000e-001
      endloop
   endfacet
   facet normal 0.000000e+000 -1.000000e+000 0.000000e+000
      outer loop
         vertex 2.650000e-001 0.000000e+000 1.650000e-001
         vertex 3.200000e+000 0.000000e+000 6.000000e-001
         vertex -2.650000e-001 0.000000e+000 1.650000e-001
      endloop
   endfacet
   facet normal 0.000000e+000 -1.000000e+000 0.000000e+000
      outer loop
         vertex -2.650000e-001 0.000000e+000 1.650000e-001
         vertex 3.200000e+000 0.000000e+000 6.000000e-001
         vertex -3.200000e+000 0.000000e+000 6.000000e-001
      endloop
   endfacet
   facet normal -1.000000e+000 0.000000e+000 0.000000e+000
      outer loop
         vertex 2.650000e-001 0.000000e+000 -1.650000e-001
         vertex 2.650000e-001 0.000000e+000 1.650000e-001
         vertex 2.650000e-001 1.517000e-001 -1.650000e-001
      endloop
   endfacet
   facet normal -1.000000e+000 0.000000e+000 0.000000e+000
      outer loop
         vertex 2.650000e-001 1.517000e-001 -1.650000e-001
         vertex 2.650000e-001 0.000000e+000 1.650000e-001
         vertex 2.650000e-001 1.517000e-001 1.650000e-001
      endloop
   endfacet
   facet normal 0.000000e+000 0.000000e+000 -1.000000e+000
      outer loop
         vertex 2.650000e-001 0.000000e+000 1.650000e-001
         vertex -2.650000e-001 0.000000e+000 1.650000e-001
         vertex 2.650000e-001 1.517000e-001 1.650000e-001
      endloop
   endfacet
   facet normal 0.000000e+000 0.000000e+000 -1.000000e+000
      outer loop
         vertex 2.650000e-001 1.517000e-001 1.650000e-001
         vertex -2.650000e-001 0.000000e+000 1.650000e-001
         vertex -2.650000e-001 1.517000e-001 1.650000e-001
      endloop
   endfacet
   facet normal 1.000000e+000 0.000000e+000 0.000000e+000
      outer loop
         vertex -2.650000e-001 0.000000e+000 1.650000e-001
         vertex -2.650000e-001 0.000000e+000 -1.650000e-001
         vertex -2.650000e-001 1.517000e-001 1.650000e-001
      endloop
   endfacet
   facet normal 1.000000e+000 0.000000e+000 0.000000e+000
      outer loop
         vertex -2.650000e-001 1.517000e-001 1.650000e-001
         vertex -2.650000e-001 0.000000e+000 -1.650000e-001
         vertex -2.650000e-001 1.517000e-001 -1.650000e-001
      endloop
   endfacet
   facet normal 0.000000e+000 0.000000e+000 1.000000e+000
      outer loop
         vertex -2.650000e-001 0.000000e+000 -1.650000e-001
         vertex 2.650000e-001 0.000000e+000 -1.650000e-001
         vertex -2.650000e-001 1.517000e-001 -1.650000e-001
      endloop
   endfacet
   facet normal 0.000000e+000 0.000000e+000 1.000000e+000
      outer loop
         vertex -2.650000e-001 1.517000e-001 -1.650000e-001
         vertex 2.650000e-001 0.000000e+000 -1.650000e-001
         vertex 2.650000e-001 1.517000e-001 -1.650000e-001
      endloop
   endfacet
endsolid