solid y_bar_Default_sldprt
   facet normal 0.000000e+000 -1.000000e+000 0.000000e+000
      outer loop
         vertex 1.500000e-002 -5.000000e-001 1.500000e-002
         vertex -3.469447e-018 -5.000000e-001 1.500000e-002
         vertex 2.535012e-003 -5.000000e-001 1.478424e-002
      endloop
   endfacet
   facet normal 0.000000e+000 -1.000000e+000 0.000000e+000
      outer loop
         vertex 1.498648e-002 -5.000000e-001 6.366181e-004
         vertex 1.487851e-002 -5.000000e-001 -1.905267e-003
         vertex 1.500000e-002 -5.000000e-001 -3.370787e-003
      endloop
   endfacet
   facet normal 0.000000e+000 -1.000000e+000 0.000000e+000
      outer loop
         vertex 1.500000e-002 -5.000000e-001 -3.370787e-003
         vertex 1.487851e-002 -5.000000e-001 -1.905267e-003
         vertex 1.434250e-002 -5.000000e-001 -4.392342e-003
      endloop
   endfacet
   facet normal 0.000000e+000 -1.000000e+000 0.000000e+000
      outer loop
         vertex 1.500000e-002 -5.000000e-001 -3.370787e-003
         vertex 1.434250e-002 -5.000000e-001 -4.392342e-003
         vertex 1.500000e-002 -5.000000e-001 -1.500000e-002
      endloop
   endfacet
   facet normal 0.000000e+000 -1.000000e+000 0.000000e+000
      outer loop
         vertex 1.500000e-002 -5.000000e-001 -1.500000e-002
         vertex 1.434250e-002 -5.000000e-001 -4.392342e-003
         vertex 1.339389e-002 -5.000000e-001 -6.753056e-003
      endloop
   endfacet
   facet normal 0.000000e+000 -1.000000e+000 0.000000e+000
      outer loop
         vertex 1.500000e-002 -5.000000e-001 -1.500000e-002
         vertex 1.339389e-002 -5.000000e-001 -6.753056e-003
         vertex 1.205996e-002 -5.000000e-001 -8.919498e-003
      endloop
   endfacet
   facet normal 0.000000e+000 -1.000000e+000 0.000000e+000
      outer loop
         vertex 1.205996e-002 -5.000000e-001 -8.919498e-003
         vertex 1.037908e-002 -5.000000e-001 -1.082934e-002
         vertex 1.500000e-002 -5.000000e-001 -1.500000e-002
      endloop
   endfacet
   facet normal 0.000000e+000 -1.000000e+000 0.000000e+000
      outer loop
         vertex 1.500000e-002 -5.000000e-001 -1.500000e-002
         vertex 1.037908e-002 -5.000000e-001 -1.082934e-002
         vertex 8.399622e-003 -5.000000e-001 -1.242764e-002
      endloop
   endfacet
   facet normal 0.000000e+000 -1.000000e+000 0.000000e+000
      outer loop
         vertex 1.500000e-002 -5.000000e-001 -1.500000e-002
         vertex 8.399622e-003 -5.000000e-001 -1.242764e-002
         vertex 6.178519e-003 -5.000000e-001 -1.366843e-002
      endloop
   endfacet
   facet normal 0.000000e+000 -1.000000e+000 0.000000e+000
      outer loop
         vertex 6.178519e-003 -5.000000e-001 -1.366843e-002
         vertex 3.779671e-003 -5.000000e-001 -1.451599e-002
         vertex 1.500000e-002 -5.000000e-001 -1.500000e-002
      endloop
   endfacet
   facet normal 0.000000e+000 -1.000000e+000 0.000000e+000
      outer loop
         vertex 1.500000e-002 -5.000000e-001 -1.500000e-002
         vertex 3.779671e-003 -5.000000e-001 -1.451599e-002
         vertex 1.272089e-003 -5.000000e-001 -1.494596e-002
      endloop
   endfacet
   facet normal 0.000000e+000 -1.000000e+000 0.000000e+000
      outer loop
         vertex 1.500000e-002 -5.000000e-001 -1.500000e-002
         vertex 1.272089e-003 -5.000000e-001 -1.494596e-002
         vertex -3.469447e-018 -5.000000e-001 -1.500000e-002
      endloop
   endfacet
   facet normal 0.000000e+000 -1.000000e+000 0.000000e+000
      outer loop
         vertex 2.535012e-003 -5.000000e-001 1.478424e-002
         vertex 4.997097e-003 -5.000000e-001 1.414316e-002
         vertex 1.500000e-002 -5.000000e-001 1.500000e-002
      endloop
   endfacet
   facet normal 0.000000e+000 -1.000000e+000 0.000000e+000
      outer loop
         vertex 1.500000e-002 -5.000000e-001 1.500000e-002
         vertex 4.997097e-003 -5.000000e-001 1.414316e-002
         vertex 7.315424e-003 -5.000000e-001 1.309521e-002
      endloop
   endfacet
   facet normal 0.000000e+000 -1.000000e+000 0.000000e+000
      outer loop
         vertex 1.500000e-002 -5.000000e-001 1.500000e-002
         vertex 7.315424e-003 -5.000000e-001 1.309521e-002
         vertex 9.423300e-003 -5.000000e-001 1.167054e-002
      endloop
   endfacet
   facet normal 0.000000e+000 -1.000000e+000 0.000000e+000
      outer loop
         vertex 9.423300e-003 -5.000000e-001 1.167054e-002
         vertex 1.126008e-002 -5.000000e-001 9.910121e-003
         vertex 1.500000e-002 -5.000000e-001 1.500000e-002
      endloop
   endfacet
   facet normal 0.000000e+000 -1.000000e+000 0.000000e+000
      outer loop
         vertex 1.500000e-002 -5.000000e-001 1.500000e-002
         vertex 1.126008e-002 -5.000000e-001 9.910121e-003
         vertex 1.277294e-002 -5.000000e-001 7.864609e-003
      endloop
   endfacet
   facet normal 0.000000e+000 -1.000000e+000 0.000000e+000
      outer loop
         vertex 1.500000e-002 -5.000000e-001 1.500000e-002
         vertex 1.277294e-002 -5.000000e-001 7.864609e-003
         vertex 1.500000e-002 -5.000000e-001 5.000000e-003
      endloop
   endfacet
   facet normal 0.000000e+000 -1.000000e+000 0.000000e+000
      outer loop
         vertex 1.500000e-002 -5.000000e-001 -3.370787e-003
         vertex 2.000000e-002 -5.000000e-001 -3.370787e-003
         vertex 1.498648e-002 -5.000000e-001 6.366181e-004
      endloop
   endfacet
   facet normal 0.000000e+000 -1.000000e+000 0.000000e+000
      outer loop
         vertex 1.498648e-002 -5.000000e-001 6.366181e-004
         vertex 2.000000e-002 -5.000000e-001 -3.370787e-003
         vertex 2.000000e-002 -5.000000e-001 5.000000e-003
      endloop
   endfacet
   facet normal 0.000000e+000 -1.000000e+000 0.000000e+000
      outer loop
         vertex 1.498648e-002 -5.000000e-001 6.366181e-004
         vertex 2.000000e-002 -5.000000e-001 5.000000e-003
         vertex 1.466333e-002 -5.000000e-001 3.160189e-003
      endloop
   endfacet
   facet normal 0.000000e+000 -1.000000e+000 0.000000e+000
      outer loop
         vertex 1.466333e-002 -5.000000e-001 3.160189e-003
         vertex 2.000000e-002 -5.000000e-001 5.000000e-003
         vertex 1.500000e-002 -5.000000e-001 5.000000e-003
      endloop
   endfacet
   facet normal 0.000000e+000 -1.000000e+000 0.000000e+000
      outer loop
         vertex 1.466333e-002 -5.000000e-001 3.160189e-003
         vertex 1.500000e-002 -5.000000e-001 5.000000e-003
         vertex 1.391834e-002 -5.000000e-001 5.592847e-003
      endloop
   endfacet
   facet normal 0.000000e+000 -1.000000e+000 0.000000e+000
      outer loop
         vertex 1.391834e-002 -5.000000e-001 5.592847e-003
         vertex 1.500000e-002 -5.000000e-001 5.000000e-003
         vertex 1.277294e-002 -5.000000e-001 7.864609e-003
      endloop
   endfacet
   facet normal 0.000000e+000 -1.000000e+000 0.000000e+000
      outer loop
         vertex -3.469447e-018 -5.000000e-001 1.500000e-002
         vertex -1.500000e-002 -5.000000e-001 1.500000e-002
         vertex -2.535012e-003 -5.000000e-001 1.478424e-002
      endloop
   endfacet
   facet normal 0.000000e+000 -1.000000e+000 0.000000e+000
      outer loop
         vertex -2.535012e-003 -5.000000e-001 1.478424e-002
         vertex -1.500000e-002 -5.000000e-001 1.500000e-002
         vertex -4.997097e-003 -5.000000e-001 1.414316e-002
      endloop
   endfacet
   facet normal 0.000000e+000 -1.000000e+000 0.000000e+000
      outer loop
         vertex -1.466333e-002 -5.000000e-001 3.160189e-003
         vertex -1.500000e-002 -5.000000e-001 1.500000e-002
         vertex -1.498648e-002 -5.000000e-001 6.366181e-004
      endloop
   endfacet
   facet normal 0.000000e+000 -1.000000e+000 0.000000e+000
      outer loop
         vertex -1.498648e-002 -5.000000e-001 6.366181e-004
         vertex -1.500000e-002 -5.000000e-001 1.500000e-002
         vertex -1.500000e-002 -5.000000e-001 8.673617e-019
      endloop
   endfacet
   facet normal 0.000000e+000 -1.000000e+000 0.000000e+000
      outer loop
         vertex -1.466333e-002 -5.000000e-001 3.160189e-003
         vertex -1.391834e-002 -5.000000e-001 5.592847e-003
         vertex -1.500000e-002 -5.000000e-001 1.500000e-002
      endloop
   endfacet
   facet normal 0.000000e+000 -1.000000e+000 0.000000e+000
      outer loop
         vertex -1.500000e-002 -5.000000e-001 1.500000e-002
         vertex -1.391834e-002 -5.000000e-001 5.592847e-003
         vertex -1.277294e-002 -5.000000e-001 7.864609e-003
      endloop
   endfacet
   facet normal 0.000000e+000 -1.000000e+000 0.000000e+000
      outer loop
         vertex -1.500000e-002 -5.000000e-001 1.500000e-002
         vertex -1.277294e-002 -5.000000e-001 7.864609e-003
         vertex -1.126008e-002 -5.000000e-001 9.910121e-003
      endloop
   endfacet
   facet normal 0.000000e+000 -1.000000e+000 0.000000e+000
      outer loop
         vertex -1.126008e-002 -5.000000e-001 9.910121e-003
         vertex -9.423300e-003 -5.000000e-001 1.167054e-002
         vertex -1.500000e-002 -5.000000e-001 1.500000e-002
      endloop
   endfacet
   facet normal 0.000000e+000 -1.000000e+000 0.000000e+000
      outer loop
         vertex -1.500000e-002 -5.000000e-001 1.500000e-002
         vertex -9.423300e-003 -5.000000e-001 1.167054e-002
         vertex -7.315424e-003 -5.000000e-001 1.309521e-002
      endloop
   endfacet
   facet normal 0.000000e+000 -1.000000e+000 0.000000e+000
      outer loop
         vertex -1.500000e-002 -5.000000e-001 1.500000e-002
         vertex -7.315424e-003 -5.000000e-001 1.309521e-002
         vertex -4.997097e-003 -5.000000e-001 1.414316e-002
      endloop
   endfacet
   facet normal -1.000000e+000 0.000000e+000 5.782411e-017
      outer loop
         vertex -1.500000e-002 -5.000000e-001 1.500000e-002
         vertex -1.500000e-002 0.000000e+000 1.500000e-002
         vertex -1.500000e-002 -5.000000e-001 1.734723e-018
      endloop
   endfacet
   facet normal -1.000000e+000 0.000000e+000 5.782411e-017
      outer loop
         vertex -1.500000e-002 -5.000000e-001 1.734723e-018
         vertex -1.500000e-002 0.000000e+000 1.500000e-002
         vertex -1.500000e-002 0.000000e+000 -1.500000e-002
      endloop
   endfacet
   facet normal -1.000000e+000 0.000000e+000 5.782411e-017
      outer loop
         vertex -1.500000e-002 -5.000000e-001 1.734723e-018
         vertex -1.500000e-002 0.000000e+000 -1.500000e-002
         vertex -1.500000e-002 -5.000000e-001 -1.500000e-002
      endloop
   endfacet
   facet normal 0.000000e+000 0.000000e+000 -1.000000e+000
      outer loop
         vertex -1.500000e-002 -5.000000e-001 -1.500000e-002
         vertex -1.500000e-002 0.000000e+000 -1.500000e-002
         vertex -3.469447e-018 -5.000000e-001 -1.500000e-002
      endloop
   endfacet
   facet normal 0.000000e+000 0.000000e+000 -1.000000e+000
      outer loop
         vertex -3.469447e-018 -5.000000e-001 -1.500000e-002
         vertex -1.500000e-002 0.000000e+000 -1.500000e-002
         vertex 1.500000e-002 0.000000e+000 -1.500000e-002
      endloop
   endfacet
   facet normal 0.000000e+000 0.000000e+000 -1.000000e+000
      outer loop
         vertex -3.469447e-018 -5.000000e-001 -1.500000e-002
         vertex 1.500000e-002 0.000000e+000 -1.500000e-002
         vertex 1.500000e-002 -5.000000e-001 -1.500000e-002
      endloop
   endfacet
   facet normal 1.000000e+000 0.000000e+000 1.491695e-016
      outer loop
         vertex 1.500000e-002 -5.000000e-001 -3.370787e-003
         vertex 1.500000e-002 -5.000000e-001 -1.500000e-002
         vertex 1.500000e-002 0.000000e+000 -3.370787e-003
      endloop
   endfacet
   facet normal 1.000000e+000 0.000000e+000 1.491695e-016
      outer loop
         vertex 1.500000e-002 0.000000e+000 -3.370787e-003
         vertex 1.500000e-002 -5.000000e-001 -1.500000e-002
         vertex 1.500000e-002 0.000000e+000 -1.500000e-002
      endloop
   endfacet
   facet normal 0.000000e+000 0.000000e+000 -1.000000e+000
      outer loop
         vertex 2.000000e-002 -5.000000e-001 -3.370787e-003
         vertex 1.500000e-002 -5.000000e-001 -3.370787e-003
         vertex 2.000000e-002 0.000000e+000 -3.370787e-003
      endloop
   endfacet
   facet normal 0.000000e+000 0.000000e+000 -1.000000e+000
      outer loop
         vertex 2.000000e-002 0.000000e+000 -3.370787e-003
         vertex 1.500000e-002 -5.000000e-001 -3.370787e-003
         vertex 1.500000e-002 0.000000e+000 -3.370787e-003
      endloop
   endfacet
   facet normal 1.000000e+000 0.000000e+000 -9.947300e-015
      outer loop
         vertex 2.000000e-002 -5.000000e-001 5.000000e-003
         vertex 2.000000e-002 -5.000000e-001 -3.370787e-003
         vertex 2.000000e-002 0.000000e+000 5.000000e-003
      endloop
   endfacet
   facet normal 1.000000e+000 0.000000e+000 -9.947300e-015
      outer loop
         vertex 2.000000e-002 0.000000e+000 5.000000e-003
         vertex 2.000000e-002 -5.000000e-001 -3.370787e-003
         vertex 2.000000e-002 0.000000e+000 -3.370787e-003
      endloop
   endfacet
   facet normal 0.000000e+000 0.000000e+000 1.000000e+000
      outer loop
         vertex 1.500000e-002 -5.000000e-001 5.000000e-003
         vertex 2.000000e-002 -5.000000e-001 5.000000e-003
         vertex 1.500000e-002 0.000000e+000 5.000000e-003
      endloop
   endfacet
   facet normal 0.000000e+000 0.000000e+000 1.000000e+000
      outer loop
         vertex 1.500000e-002 0.000000e+000 5.000000e-003
         vertex 2.000000e-002 -5.000000e-001 5.000000e-003
         vertex 2.000000e-002 0.000000e+000 5.000000e-003
      endloop
   endfacet
   facet normal 1.000000e+000 0.000000e+000 1.734723e-016
      outer loop
         vertex 1.500000e-002 -5.000000e-001 1.500000e-002
         vertex 1.500000e-002 -5.000000e-001 5.000000e-003
         vertex 1.500000e-002 0.000000e+000 1.500000e-002
      endloop
   endfacet
   facet normal 1.000000e+000 0.000000e+000 1.734723e-016
      outer loop
         vertex 1.500000e-002 0.000000e+000 1.500000e-002
         vertex 1.500000e-002 -5.000000e-001 5.000000e-003
         vertex 1.500000e-002 0.000000e+000 5.000000e-003
      endloop
   endfacet
   facet normal 0.000000e+000 0.000000e+000 1.000000e+000
      outer loop
         vertex 1.500000e-002 -5.000000e-001 1.500000e-002
         vertex 1.500000e-002 0.000000e+000 1.500000e-002
         vertex -3.469447e-018 -5.000000e-001 1.500000e-002
      endloop
   endfacet
   facet normal 0.000000e+000 0.000000e+000 1.000000e+000
      outer loop
         vertex -3.469447e-018 -5.000000e-001 1.500000e-002
         vertex 1.500000e-002 0.000000e+000 1.500000e-002
         vertex -1.500000e-002 0.000000e+000 1.500000e-002
      endloop
   endfacet
   facet normal 0.000000e+000 0.000000e+000 1.000000e+000
      outer loop
         vertex -3.469447e-018 -5.000000e-001 1.500000e-002
         vertex -1.500000e-002 0.000000e+000 1.500000e-002
         vertex -1.500000e-002 -5.000000e-001 1.500000e-002
      endloop
   endfacet
   facet normal 0.000000e+000 -1.000000e+000 0.000000e+000
      outer loop
         vertex -1.205996e-002 -5.000000e-001 -8.919498e-003
         vertex -1.339389e-002 -5.000000e-001 -6.753056e-003
         vertex -1.500000e-002 -5.000000e-001 -1.500000e-002
      endloop
   endfacet
   facet normal 0.000000e+000 -1.000000e+000 0.000000e+000
      outer loop
         vertex -3.469447e-018 -5.000000e-001 -1.500000e-002
         vertex -1.272089e-003 -5.000000e-001 -1.494596e-002
         vertex -1.500000e-002 -5.000000e-001 -1.500000e-002
      endloop
   endfacet
   facet normal 0.000000e+000 -1.000000e+000 0.000000e+000
      outer loop
         vertex -1.500000e-002 -5.000000e-001 -1.500000e-002
         vertex -1.272089e-003 -5.000000e-001 -1.494596e-002
         vertex -3.779671e-003 -5.000000e-001 -1.451599e-002
      endloop
   endfacet
   facet normal 0.000000e+000 -1.000000e+000 0.000000e+000
      outer loop
         vertex -1.500000e-002 -5.000000e-001 -1.500000e-002
         vertex -3.779671e-003 -5.000000e-001 -1.451599e-002
         vertex -6.178519e-003 -5.000000e-001 -1.366843e-002
      endloop
   endfacet
   facet normal 0.000000e+000 -1.000000e+000 0.000000e+000
      outer loop
         vertex -6.178519e-003 -5.000000e-001 -1.366843e-002
         vertex -8.399622e-003 -5.000000e-001 -1.242764e-002
         vertex -1.500000e-002 -5.000000e-001 -1.500000e-002
      endloop
   endfacet
   facet normal 0.000000e+000 -1.000000e+000 0.000000e+000
      outer loop
         vertex -1.500000e-002 -5.000000e-001 -1.500000e-002
         vertex -8.399622e-003 -5.000000e-001 -1.242764e-002
         vertex -1.037908e-002 -5.000000e-001 -1.082934e-002
      endloop
   endfacet
   facet normal 0.000000e+000 -1.000000e+000 0.000000e+000
      outer loop
         vertex -1.500000e-002 -5.000000e-001 -1.500000e-002
         vertex -1.037908e-002 -5.000000e-001 -1.082934e-002
         vertex -1.205996e-002 -5.000000e-001 -8.919498e-003
      endloop
   endfacet
   facet normal 0.000000e+000 -1.000000e+000 0.000000e+000
      outer loop
         vertex -1.339389e-002 -5.000000e-001 -6.753056e-003
         vertex -1.434250e-002 -5.000000e-001 -4.392342e-003
         vertex -1.500000e-002 -5.000000e-001 -1.500000e-002
      endloop
   endfacet
   facet normal 0.000000e+000 -1.000000e+000 0.000000e+000
      outer loop
         vertex -1.500000e-002 -5.000000e-001 -1.500000e-002
         vertex -1.434250e-002 -5.000000e-001 -4.392342e-003
         vertex -1.487851e-002 -5.000000e-001 -1.905267e-003
      endloop
   endfacet
   facet normal 0.000000e+000 -1.000000e+000 0.000000e+000
      outer loop
         vertex -1.500000e-002 -5.000000e-001 -1.500000e-002
         vertex -1.487851e-002 -5.000000e-001 -1.905267e-003
         vertex -1.500000e-002 -5.000000e-001 8.673617e-019
      endloop
   endfacet
   facet normal 0.000000e+000 1.000000e+000 0.000000e+000
      outer loop
         vertex -1.500000e-002 0.000000e+000 1.500000e-002
         vertex 1.500000e-002 0.000000e+000 1.500000e-002
         vertex -1.500000e-002 0.000000e+000 -1.500000e-002
      endloop
   endfacet
   facet normal 0.000000e+000 1.000000e+000 0.000000e+000
      outer loop
         vertex -1.500000e-002 0.000000e+000 -1.500000e-002
         vertex 1.500000e-002 0.000000e+000 1.500000e-002
         vertex 1.500000e-002 0.000000e+000 5.000000e-003
      endloop
   endfacet
   facet normal 0.000000e+000 1.000000e+000 0.000000e+000
      outer loop
         vertex 1.500000e-002 0.000000e+000 -1.500000e-002
         vertex -1.500000e-002 0.000000e+000 -1.500000e-002
         vertex 1.500000e-002 0.000000e+000 -3.370787e-003
      endloop
   endfacet
   facet normal 0.000000e+000 1.000000e+000 0.000000e+000
      outer loop
         vertex 1.500000e-002 0.000000e+000 -3.370787e-003
         vertex -1.500000e-002 0.000000e+000 -1.500000e-002
         vertex 1.500000e-002 0.000000e+000 5.000000e-003
      endloop
   endfacet
   facet normal 0.000000e+000 1.000000e+000 0.000000e+000
      outer loop
         vertex 1.500000e-002 0.000000e+000 -3.370787e-003
         vertex 1.500000e-002 0.000000e+000 5.000000e-003
         vertex 2.000000e-002 0.000000e+000 -3.370787e-003
      endloop
   endfacet
   facet normal 0.000000e+000 1.000000e+000 0.000000e+000
      outer loop
         vertex 2.000000e-002 0.000000e+000 -3.370787e-003
         vertex 1.500000e-002 0.000000e+000 5.000000e-003
         vertex 2.000000e-002 0.000000e+000 5.000000e-003
      endloop
   endfacet
   facet normal -9.711873e-001 -1.459274e-017 -2.383175e-001
      outer loop
         vertex -1.487851e-002 -5.100000e-001 -1.905267e-003
         vertex -1.434250e-002 -5.000000e-001 -4.392342e-003
         vertex -1.434250e-002 -5.100000e-001 -4.392342e-003
      endloop
   endfacet
   facet normal -9.380898e-001 -2.121040e-017 -3.463921e-001
      outer loop
         vertex -1.434250e-002 -5.100000e-001 -4.392342e-003
         vertex -1.434250e-002 -5.000000e-001 -4.392342e-003
         vertex -1.339389e-002 -5.000000e-001 -6.753056e-003
      endloop
   endfacet
   facet normal -9.169418e-001 -2.443298e-017 -3.990209e-001
      outer loop
         vertex -1.434250e-002 -5.100000e-001 -4.392342e-003
         vertex -1.339389e-002 -5.000000e-001 -6.753056e-003
         vertex -1.339389e-002 -5.100000e-001 -6.753056e-003
      endloop
   endfacet
   facet normal -8.660557e-001 -3.061295e-017 -4.999475e-001
      outer loop
         vertex -1.339389e-002 -5.100000e-001 -6.753056e-003
         vertex -1.339389e-002 -5.000000e-001 -6.753056e-003
         vertex -1.205996e-002 -5.000000e-001 -8.919498e-003
      endloop
   endfacet
   facet normal -8.363176e-001 -3.357034e-017 -5.482453e-001
      outer loop
         vertex -1.339389e-002 -5.100000e-001 -6.753056e-003
         vertex -1.205996e-002 -5.000000e-001 -8.919498e-003
         vertex -1.205996e-002 -5.100000e-001 -8.919498e-003
      endloop
   endfacet
   facet normal -7.691067e-001 -3.913483e-017 -6.391203e-001
      outer loop
         vertex -1.205996e-002 -5.100000e-001 -8.919498e-003
         vertex -1.205996e-002 -5.000000e-001 -8.919498e-003
         vertex -1.037908e-002 -5.000000e-001 -1.082934e-002
      endloop
   endfacet
   facet normal -7.316340e-001 -4.174194e-017 -6.816977e-001
      outer loop
         vertex -1.205996e-002 -5.100000e-001 -8.919498e-003
         vertex -1.037908e-002 -5.000000e-001 -1.082934e-002
         vertex -1.037908e-002 -5.100000e-001 -1.082934e-002
      endloop
   endfacet
   facet normal -6.500320e-001 -4.653087e-017 -7.599069e-001
      outer loop
         vertex -1.037908e-002 -5.100000e-001 -1.082934e-002
         vertex -1.037908e-002 -5.000000e-001 -1.082934e-002
         vertex -8.399622e-003 -5.000000e-001 -1.242764e-002
      endloop
   endfacet
   facet normal -6.059027e-001 -4.871270e-017 -7.955388e-001
      outer loop
         vertex -1.037908e-002 -5.100000e-001 -1.082934e-002
         vertex -8.399622e-003 -5.000000e-001 -1.242764e-002
         vertex -8.399622e-003 -5.100000e-001 -1.242764e-002
      endloop
   endfacet
   facet normal -5.122570e-001 -5.258831e-017 -8.588322e-001
      outer loop
         vertex -8.399622e-003 -5.100000e-001 -1.242764e-002
         vertex -8.399622e-003 -5.000000e-001 -1.242764e-002
         vertex -6.178519e-003 -5.000000e-001 -1.366843e-002
      endloop
   endfacet
   facet normal -4.627406e-001 -5.428208e-017 -8.864937e-001
      outer loop
         vertex -8.399622e-003 -5.100000e-001 -1.242764e-002
         vertex -6.178519e-003 -5.000000e-001 -1.366843e-002
         vertex -6.178519e-003 -5.100000e-001 -1.366843e-002
      endloop
   endfacet
   facet normal -3.597453e-001 -5.713287e-017 -9.330506e-001
      outer loop
         vertex -6.178519e-003 -5.100000e-001 -1.366843e-002
         vertex -6.178519e-003 -5.000000e-001 -1.366843e-002
         vertex -3.779671e-003 -5.000000e-001 -1.451599e-002
      endloop
   endfacet
   facet normal -3.062663e-001 -5.828987e-017 -9.519458e-001
      outer loop
         vertex -6.178519e-003 -5.100000e-001 -1.366843e-002
         vertex -3.779671e-003 -5.000000e-001 -1.451599e-002
         vertex -3.779671e-003 -5.100000e-001 -1.451599e-002
      endloop
   endfacet
   facet normal -1.968844e-001 -6.003382e-017 -9.804267e-001
      outer loop
         vertex -3.779671e-003 -5.100000e-001 -1.451599e-002
         vertex -3.779671e-003 -5.000000e-001 -1.451599e-002
         vertex -1.272089e-003 -5.000000e-001 -1.494596e-002
      endloop
   endfacet
   facet normal -1.409813e-001 -6.062077e-017 -9.900123e-001
      outer loop
         vertex -3.779671e-003 -5.100000e-001 -1.451599e-002
         vertex -1.272089e-003 -5.000000e-001 -1.494596e-002
         vertex -1.272089e-003 -5.100000e-001 -1.494596e-002
      endloop
   endfacet
   facet normal -5.658260e-002 -6.113425e-017 -9.983979e-001
      outer loop
         vertex -1.272089e-003 -5.100000e-001 -1.494596e-002
         vertex -1.272089e-003 -5.000000e-001 -1.494596e-002
         vertex 2.041464e-018 -5.100000e-001 -1.500000e-002
      endloop
   endfacet
   facet normal -2.829130e-002 -6.120783e-017 -9.995998e-001
      outer loop
         vertex 2.041464e-018 -5.100000e-001 -1.500000e-002
         vertex -1.272089e-003 -5.000000e-001 -1.494596e-002
         vertex -1.632477e-018 -5.000000e-001 -1.500000e-002
      endloop
   endfacet
   facet normal 2.829130e-002 -6.120784e-017 -9.995998e-001
      outer loop
         vertex 2.041464e-018 -5.100000e-001 -1.500000e-002
         vertex -1.632477e-018 -5.000000e-001 -1.500000e-002
         vertex 1.272089e-003 -5.100000e-001 -1.494596e-002
      endloop
   endfacet
   facet normal 5.658260e-002 -6.113425e-017 -9.983979e-001
      outer loop
         vertex -1.632477e-018 -5.000000e-001 -1.500000e-002
         vertex 1.272089e-003 -5.000000e-001 -1.494596e-002
         vertex 1.272089e-003 -5.100000e-001 -1.494596e-002
      endloop
   endfacet
   facet normal 1.409813e-001 -6.062077e-017 -9.900123e-001
      outer loop
         vertex 1.272089e-003 -5.100000e-001 -1.494596e-002
         vertex 1.272089e-003 -5.000000e-001 -1.494596e-002
         vertex 3.779671e-003 -5.000000e-001 -1.451599e-002
      endloop
   endfacet
   facet normal 1.968844e-001 -6.003382e-017 -9.804267e-001
      outer loop
         vertex 1.272089e-003 -5.100000e-001 -1.494596e-002
         vertex 3.779671e-003 -5.000000e-001 -1.451599e-002
         vertex 3.779671e-003 -5.100000e-001 -1.451599e-002
      endloop
   endfacet
   facet normal 3.062663e-001 -5.828987e-017 -9.519458e-001
      outer loop
         vertex 3.779671e-003 -5.100000e-001 -1.451599e-002
         vertex 3.779671e-003 -5.000000e-001 -1.451599e-002
         vertex 6.178519e-003 -5.000000e-001 -1.366843e-002
      endloop
   endfacet
   facet normal 3.597453e-001 -5.713287e-017 -9.330506e-001
      outer loop
         vertex 3.779671e-003 -5.100000e-001 -1.451599e-002
         vertex 6.178519e-003 -5.000000e-001 -1.366843e-002
         vertex 6.178519e-003 -5.100000e-001 -1.366843e-002
      endloop
   endfacet
   facet normal 4.627406e-001 -5.428208e-017 -8.864937e-001
      outer loop
         vertex 6.178519e-003 -5.100000e-001 -1.366843e-002
         vertex 6.178519e-003 -5.000000e-001 -1.366843e-002
         vertex 8.399622e-003 -5.000000e-001 -1.242764e-002
      endloop
   endfacet
   facet normal 5.122570e-001 -5.258831e-017 -8.588322e-001
      outer loop
         vertex 6.178519e-003 -5.100000e-001 -1.366843e-002
         vertex 8.399622e-003 -5.000000e-001 -1.242764e-002
         vertex 8.399622e-003 -5.100000e-001 -1.242764e-002
      endloop
   endfacet
   facet normal 6.059027e-001 -4.871270e-017 -7.955388e-001
      outer loop
         vertex 8.399622e-003 -5.100000e-001 -1.242764e-002
         vertex 8.399622e-003 -5.000000e-001 -1.242764e-002
         vertex 1.037908e-002 -5.000000e-001 -1.082934e-002
      endloop
   endfacet
   facet normal 6.500320e-001 -4.653087e-017 -7.599069e-001
      outer loop
         vertex 8.399622e-003 -5.100000e-001 -1.242764e-002
         vertex 1.037908e-002 -5.000000e-001 -1.082934e-002
         vertex 1.037908e-002 -5.100000e-001 -1.082934e-002
      endloop
   endfacet
   facet normal 7.316340e-001 -4.174194e-017 -6.816977e-001
      outer loop
         vertex 1.037908e-002 -5.100000e-001 -1.082934e-002
         vertex 1.037908e-002 -5.000000e-001 -1.082934e-002
         vertex 1.205996e-002 -5.000000e-001 -8.919498e-003
      endloop
   endfacet
   facet normal 7.691067e-001 -3.913483e-017 -6.391203e-001
      outer loop
         vertex 1.037908e-002 -5.100000e-001 -1.082934e-002
         vertex 1.205996e-002 -5.000000e-001 -8.919498e-003
         vertex 1.205996e-002 -5.100000e-001 -8.919498e-003
      endloop
   endfacet
   facet normal 8.363176e-001 -3.357034e-017 -5.482453e-001
      outer loop
         vertex 1.205996e-002 -5.100000e-001 -8.919498e-003
         vertex 1.205996e-002 -5.000000e-001 -8.919498e-003
         vertex 1.339389e-002 -5.000000e-001 -6.753056e-003
      endloop
   endfacet
   facet normal 8.660557e-001 -3.061295e-017 -4.999475e-001
      outer loop
         vertex 1.205996e-002 -5.100000e-001 -8.919498e-003
         vertex 1.339389e-002 -5.000000e-001 -6.753056e-003
         vertex 1.339389e-002 -5.100000e-001 -6.753056e-003
      endloop
   endfacet
   facet normal 9.169418e-001 -2.443298e-017 -3.990209e-001
      outer loop
         vertex 1.339389e-002 -5.100000e-001 -6.753056e-003
         vertex 1.339389e-002 -5.000000e-001 -6.753056e-003
         vertex 1.434250e-002 -5.000000e-001 -4.392342e-003
      endloop
   endfacet
   facet normal 9.380898e-001 -2.121040e-017 -3.463921e-001
      outer loop
         vertex 1.339389e-002 -5.100000e-001 -6.753056e-003
         vertex 1.434250e-002 -5.000000e-001 -4.392342e-003
         vertex 1.434250e-002 -5.100000e-001 -4.392342e-003
      endloop
   endfacet
   facet normal 9.711873e-001 -1.459274e-017 -2.383175e-001
      outer loop
         vertex 1.434250e-002 -5.100000e-001 -4.392342e-003
         vertex 1.434250e-002 -5.000000e-001 -4.392342e-003
         vertex 1.487851e-002 -5.000000e-001 -1.905267e-003
      endloop
   endfacet
   facet normal 9.831368e-001 -1.119766e-017 -1.828716e-001
      outer loop
         vertex 1.434250e-002 -5.100000e-001 -4.392342e-003
         vertex 1.487851e-002 -5.000000e-001 -1.905267e-003
         vertex 1.487851e-002 -5.100000e-001 -1.905267e-003
      endloop
   endfacet
   facet normal 9.974935e-001 -4.332679e-018 -7.075802e-002
      outer loop
         vertex 1.487851e-002 -5.100000e-001 -1.905267e-003
         vertex 1.487851e-002 -5.000000e-001 -1.905267e-003
         vertex 1.498648e-002 -5.000000e-001 6.366181e-004
      endloop
   endfacet
   facet normal 9.999007e-001 -8.627787e-019 -1.409025e-002
      outer loop
         vertex 1.487851e-002 -5.100000e-001 -1.905267e-003
         vertex 1.498648e-002 -5.000000e-001 6.366181e-004
         vertex 1.498648e-002 -5.100000e-001 6.366181e-004
      endloop
   endfacet
   facet normal 9.951036e-001 6.052021e-018 9.883699e-002
      outer loop
         vertex 1.498648e-002 -5.100000e-001 6.366181e-004
         vertex 1.498648e-002 -5.000000e-001 6.366181e-004
         vertex 1.466333e-002 -5.000000e-001 3.160189e-003
      endloop
   endfacet
   facet normal 9.878993e-001 9.496921e-018 1.550965e-001
      outer loop
         vertex 1.498648e-002 -5.100000e-001 6.366181e-004
         vertex 1.466333e-002 -5.000000e-001 3.160189e-003
         vertex 1.466333e-002 -5.100000e-001 3.160189e-003
      endloop
   endfacet
   facet normal 9.640865e-001 1.626262e-017 2.655886e-001
      outer loop
         vertex 1.466333e-002 -5.100000e-001 3.160189e-003
         vertex 1.466333e-002 -5.000000e-001 3.160189e-003
         vertex 1.391834e-002 -5.000000e-001 5.592847e-003
      endloop
   endfacet
   facet normal 9.474779e-001 1.958341e-017 3.198213e-001
      outer loop
         vertex 1.466333e-002 -5.100000e-001 3.160189e-003
         vertex 1.391834e-002 -5.000000e-001 5.592847e-003
         vertex 1.391834e-002 -5.100000e-001 5.592847e-003
      endloop
   endfacet
   facet normal 9.053342e-001 2.600536e-017 4.246998e-001
      outer loop
         vertex 1.391834e-002 -5.100000e-001 5.592847e-003
         vertex 1.391834e-002 -5.000000e-001 5.592847e-003
         vertex 1.277294e-002 -5.000000e-001 7.864609e-003
      endloop
   endfacet
   facet normal 8.797992e-001 2.910652e-017 4.753455e-001
      outer loop
         vertex 1.391834e-002 -5.100000e-001 5.592847e-003
         vertex 1.277294e-002 -5.000000e-001 7.864609e-003
         vertex 1.277294e-002 -5.100000e-001 7.864609e-003
      endloop
   endfacet
   facet normal 8.205372e-001 3.499998e-017 5.715931e-001
      outer loop
         vertex 1.277294e-002 -5.100000e-001 7.864609e-003
         vertex 1.277294e-002 -5.000000e-001 7.864609e-003
         vertex 1.126008e-002 -5.000000e-001 9.910121e-003
      endloop
   endfacet
   facet normal 7.868103e-001 3.779229e-017 6.171949e-001
      outer loop
         vertex 1.277294e-002 -5.100000e-001 7.864609e-003
         vertex 1.126008e-002 -5.000000e-001 9.910121e-003
         vertex 1.126008e-002 -5.100000e-001 9.910121e-003
      endloop
   endfacet
   facet normal 7.121348e-001 4.298772e-017 7.020428e-001
      outer loop
         vertex 1.126008e-002 -5.100000e-001 9.910121e-003
         vertex 1.126008e-002 -5.000000e-001 9.910121e-003
         vertex 9.423300e-003 -5.000000e-001 1.167054e-002
      endloop
   endfacet
   facet normal 6.711863e-001 4.539084e-017 7.412888e-001
      outer loop
         vertex 1.126008e-002 -5.100000e-001 9.910121e-003
         vertex 9.423300e-003 -5.000000e-001 1.167054e-002
         vertex 9.423300e-003 -5.100000e-001 1.167054e-002
      endloop
   endfacet
   facet normal 5.832456e-001 4.973878e-017 8.122959e-001
      outer loop
         vertex 9.423300e-003 -5.100000e-001 1.167054e-002
         vertex 9.423300e-003 -5.000000e-001 1.167054e-002
         vertex 7.315424e-003 -5.000000e-001 1.309521e-002
      endloop
   endfacet
   facet normal 5.362535e-001 5.168358e-017 8.440570e-001
      outer loop
         vertex 9.423300e-003 -5.100000e-001 1.167054e-002
         vertex 7.315424e-003 -5.000000e-001 1.309521e-002
         vertex 7.315424e-003 -5.100000e-001 1.309521e-002
      endloop
   endfacet
   facet normal 4.375775e-001 5.505893e-017 8.991807e-001
      outer loop
         vertex 7.315424e-003 -5.100000e-001 1.309521e-002
         vertex 7.315424e-003 -5.000000e-001 1.309521e-002
         vertex 4.997097e-003 -5.000000e-001 1.414316e-002
      endloop
   endfacet
   facet normal 3.858936e-001 5.648948e-017 9.225433e-001
      outer loop
         vertex 7.315424e-003 -5.100000e-001 1.309521e-002
         vertex 4.997097e-003 -5.000000e-001 1.414316e-002
         vertex 4.997097e-003 -5.100000e-001 1.414316e-002
      endloop
   endfacet
   facet normal 2.793211e-001 5.879516e-017 9.601977e-001
      outer loop
         vertex 4.997097e-003 -5.100000e-001 1.414316e-002
         vertex 4.997097e-003 -5.000000e-001 1.414316e-002
         vertex 2.535012e-003 -5.000000e-001 1.478424e-002
      endloop
   endfacet
   facet normal 2.244324e-001 5.967028e-017 9.744897e-001
      outer loop
         vertex 4.997097e-003 -5.100000e-001 1.414316e-002
         vertex 2.535012e-003 -5.000000e-001 1.478424e-002
         vertex 2.535012e-003 -5.100000e-001 1.478424e-002
      endloop
   endfacet
   facet normal 1.130291e-001 6.083994e-017 9.935917e-001
      outer loop
         vertex 2.535012e-003 -5.100000e-001 1.478424e-002
         vertex 2.535012e-003 -5.000000e-001 1.478424e-002
         vertex -3.469447e-018 -5.000000e-001 1.500000e-002
      endloop
   endfacet
   facet normal 5.651454e-002 6.113447e-017 9.984018e-001
      outer loop
         vertex 2.535012e-003 -5.100000e-001 1.478424e-002
         vertex -3.469447e-018 -5.000000e-001 1.500000e-002
         vertex -3.469447e-018 -5.100000e-001 1.500000e-002
      endloop
   endfacet
   facet normal -5.651454e-002 6.113448e-017 9.984018e-001
      outer loop
         vertex -3.469447e-018 -5.100000e-001 1.500000e-002
         vertex -3.469447e-018 -5.000000e-001 1.500000e-002
         vertex -2.535012e-003 -5.000000e-001 1.478424e-002
      endloop
   endfacet
   facet normal -1.130291e-001 6.083994e-017 9.935917e-001
      outer loop
         vertex -3.469447e-018 -5.100000e-001 1.500000e-002
         vertex -2.535012e-003 -5.000000e-001 1.478424e-002
         vertex -2.535012e-003 -5.100000e-001 1.478424e-002
      endloop
   endfacet
   facet normal -2.244324e-001 5.967028e-017 9.744897e-001
      outer loop
         vertex -2.535012e-003 -5.100000e-001 1.478424e-002
         vertex -2.535012e-003 -5.000000e-001 1.478424e-002
         vertex -4.997097e-003 -5.000000e-001 1.414316e-002
      endloop
   endfacet
   facet normal -2.793211e-001 5.879516e-017 9.601977e-001
      outer loop
         vertex -2.535012e-003 -5.100000e-001 1.478424e-002
         vertex -4.997097e-003 -5.000000e-001 1.414316e-002
         vertex -4.997097e-003 -5.100000e-001 1.414316e-002
      endloop
   endfacet
   facet normal -3.858936e-001 5.648948e-017 9.225433e-001
      outer loop
         vertex -4.997097e-003 -5.100000e-001 1.414316e-002
         vertex -4.997097e-003 -5.000000e-001 1.414316e-002
         vertex -7.315424e-003 -5.000000e-001 1.309521e-002
      endloop
   endfacet
   facet normal -4.375775e-001 5.505893e-017 8.991807e-001
      outer loop
         vertex -4.997097e-003 -5.100000e-001 1.414316e-002
         vertex -7.315424e-003 -5.000000e-001 1.309521e-002
         vertex -7.315424e-003 -5.100000e-001 1.309521e-002
      endloop
   endfacet
   facet normal -5.362535e-001 5.168358e-017 8.440570e-001
      outer loop
         vertex -7.315424e-003 -5.100000e-001 1.309521e-002
         vertex -7.315424e-003 -5.000000e-001 1.309521e-002
         vertex -9.423300e-003 -5.000000e-001 1.167054e-002
      endloop
   endfacet
   facet normal -5.832456e-001 4.973877e-017 8.122959e-001
      outer loop
         vertex -7.315424e-003 -5.100000e-001 1.309521e-002
         vertex -9.423300e-003 -5.000000e-001 1.167054e-002
         vertex -9.423300e-003 -5.100000e-001 1.167054e-002
      endloop
   endfacet
   facet normal -6.711863e-001 4.539084e-017 7.412888e-001
      outer loop
         vertex -9.423300e-003 -5.100000e-001 1.167054e-002
         vertex -9.423300e-003 -5.000000e-001 1.167054e-002
         vertex -1.126008e-002 -5.000000e-001 9.910121e-003
      endloop
   endfacet
   facet normal -7.121348e-001 4.298772e-017 7.020428e-001
      outer loop
         vertex -9.423300e-003 -5.100000e-001 1.167054e-002
         vertex -1.126008e-002 -5.000000e-001 9.910121e-003
         vertex -1.126008e-002 -5.100000e-001 9.910121e-003
      endloop
   endfacet
   facet normal -7.868103e-001 3.779229e-017 6.171949e-001
      outer loop
         vertex -1.126008e-002 -5.100000e-001 9.910121e-003
         vertex -1.126008e-002 -5.000000e-001 9.910121e-003
         vertex -1.277294e-002 -5.000000e-001 7.864609e-003
      endloop
   endfacet
   facet normal -8.205372e-001 3.499998e-017 5.715931e-001
      outer loop
         vertex -1.126008e-002 -5.100000e-001 9.910121e-003
         vertex -1.277294e-002 -5.000000e-001 7.864609e-003
         vertex -1.277294e-002 -5.100000e-001 7.864609e-003
      endloop
   endfacet
   facet normal -8.797992e-001 2.910652e-017 4.753455e-001
      outer loop
         vertex -1.277294e-002 -5.100000e-001 7.864609e-003
         vertex -1.277294e-002 -5.000000e-001 7.864609e-003
         vertex -1.391834e-002 -5.000000e-001 5.592847e-003
      endloop
   endfacet
   facet normal -9.053342e-001 2.600536e-017 4.246998e-001
      outer loop
         vertex -1.277294e-002 -5.100000e-001 7.864609e-003
         vertex -1.391834e-002 -5.000000e-001 5.592847e-003
         vertex -1.391834e-002 -5.100000e-001 5.592847e-003
      endloop
   endfacet
   facet normal -9.474779e-001 1.958341e-017 3.198213e-001
      outer loop
         vertex -1.391834e-002 -5.100000e-001 5.592847e-003
         vertex -1.391834e-002 -5.000000e-001 5.592847e-003
         vertex -1.466333e-002 -5.000000e-001 3.160189e-003
      endloop
   endfacet
   facet normal -9.640865e-001 1.626262e-017 2.655886e-001
      outer loop
         vertex -1.391834e-002 -5.100000e-001 5.592847e-003
         vertex -1.466333e-002 -5.000000e-001 3.160189e-003
         vertex -1.466333e-002 -5.100000e-001 3.160189e-003
      endloop
   endfacet
   facet normal -9.878993e-001 9.496919e-018 1.550965e-001
      outer loop
         vertex -1.466333e-002 -5.100000e-001 3.160189e-003
         vertex -1.466333e-002 -5.000000e-001 3.160189e-003
         vertex -1.498648e-002 -5.000000e-001 6.366181e-004
      endloop
   endfacet
   facet normal -9.951036e-001 6.052021e-018 9.883699e-002
      outer loop
         vertex -1.466333e-002 -5.100000e-001 3.160189e-003
         vertex -1.498648e-002 -5.000000e-001 6.366181e-004
         vertex -1.498648e-002 -5.100000e-001 6.366181e-004
      endloop
   endfacet
   facet normal -9.995995e-001 1.732863e-018 2.829980e-002
      outer loop
         vertex -1.498648e-002 -5.100000e-001 6.366181e-004
         vertex -1.498648e-002 -5.000000e-001 6.366181e-004
         vertex -1.500000e-002 -5.000000e-001 -2.755455e-018
      endloop
   endfacet
   facet normal -9.996005e-001 -1.730778e-018 -2.826575e-002
      outer loop
         vertex -1.498648e-002 -5.100000e-001 6.366181e-004
         vertex -1.500000e-002 -5.000000e-001 -2.755455e-018
         vertex -1.487851e-002 -5.100000e-001 -1.905267e-003
      endloop
   endfacet
   facet normal -9.963953e-001 -5.194423e-018 -8.483138e-002
      outer loop
         vertex -1.487851e-002 -5.100000e-001 -1.905267e-003
         vertex -1.500000e-002 -5.000000e-001 -2.755455e-018
         vertex -1.487851e-002 -5.000000e-001 -1.905267e-003
      endloop
   endfacet
   facet normal -9.831368e-001 -1.119766e-017 -1.828716e-001
      outer loop
         vertex -1.487851e-002 -5.100000e-001 -1.905267e-003
         vertex -1.487851e-002 -5.000000e-001 -1.905267e-003
         vertex -1.434250e-002 -5.000000e-001 -4.392342e-003
      endloop
   endfacet
   facet normal 0.000000e+000 -1.000000e+000 6.123234e-017
      outer loop
         vertex -1.632477e-018 -5.100000e-001 -1.500000e-002
         vertex 1.272089e-003 -5.100000e-001 -1.494596e-002
         vertex -3.469447e-018 -5.100000e-001 6.123234e-019
      endloop
   endfacet
   facet normal 0.000000e+000 -1.000000e+000 6.123234e-017
      outer loop
         vertex -1.632477e-018 -5.100000e-001 -1.500000e-002
         vertex -3.469447e-018 -5.100000e-001 6.123234e-019
         vertex -1.272089e-003 -5.100000e-001 -1.494596e-002
      endloop
   endfacet
   facet normal 0.000000e+000 -1.000000e+000 6.123234e-017
      outer loop
         vertex -8.399622e-003 -5.100000e-001 -1.242764e-002
         vertex -6.178519e-003 -5.100000e-001 -1.366843e-002
         vertex -3.469447e-018 -5.100000e-001 6.123234e-019
      endloop
   endfacet
   facet normal 0.000000e+000 -1.000000e+000 6.123234e-017
      outer loop
         vertex -3.469447e-018 -5.100000e-001 6.123234e-019
         vertex -6.178519e-003 -5.100000e-001 -1.366843e-002
         vertex -3.779671e-003 -5.100000e-001 -1.451599e-002
      endloop
   endfacet
   facet normal 0.000000e+000 -1.000000e+000 6.123234e-017
      outer loop
         vertex -3.469447e-018 -5.100000e-001 6.123234e-019
         vertex -3.779671e-003 -5.100000e-001 -1.451599e-002
         vertex -1.272089e-003 -5.100000e-001 -1.494596e-002
      endloop
   endfacet
   facet normal 0.000000e+000 -1.000000e+000 6.123234e-017
      outer loop
         vertex -1.339389e-002 -5.100000e-001 -6.753056e-003
         vertex -1.205996e-002 -5.100000e-001 -8.919498e-003
         vertex -3.469447e-018 -5.100000e-001 6.123234e-019
      endloop
   endfacet
   facet normal 0.000000e+000 -1.000000e+000 6.123234e-017
      outer loop
         vertex -3.469447e-018 -5.100000e-001 6.123234e-019
         vertex -1.205996e-002 -5.100000e-001 -8.919498e-003
         vertex -1.037908e-002 -5.100000e-001 -1.082934e-002
      endloop
   endfacet
   facet normal 0.000000e+000 -1.000000e+000 6.123234e-017
      outer loop
         vertex -3.469447e-018 -5.100000e-001 6.123234e-019
         vertex -1.037908e-002 -5.100000e-001 -1.082934e-002
         vertex -8.399622e-003 -5.100000e-001 -1.242764e-002
      endloop
   endfacet
   facet normal 0.000000e+000 -1.000000e+000 6.123234e-017
      outer loop
         vertex -1.498648e-002 -5.100000e-001 6.366181e-004
         vertex -1.487851e-002 -5.100000e-001 -1.905267e-003
         vertex -3.469447e-018 -5.100000e-001 6.123234e-019
      endloop
   endfacet
   facet normal 0.000000e+000 -1.000000e+000 6.123234e-017
      outer loop
         vertex -3.469447e-018 -5.100000e-001 6.123234e-019
         vertex -1.487851e-002 -5.100000e-001 -1.905267e-003
         vertex -1.434250e-002 -5.100000e-001 -4.392342e-003
      endloop
   endfacet
   facet normal 0.000000e+000 -1.000000e+000 6.123234e-017
      outer loop
         vertex -3.469447e-018 -5.100000e-001 6.123234e-019
         vertex -1.434250e-002 -5.100000e-001 -4.392342e-003
         vertex -1.339389e-002 -5.100000e-001 -6.753056e-003
      endloop
   endfacet
   facet normal 0.000000e+000 -1.000000e+000 6.123234e-017
      outer loop
         vertex -1.277294e-002 -5.100000e-001 7.864609e-003
         vertex -1.391834e-002 -5.100000e-001 5.592847e-003
         vertex -3.469447e-018 -5.100000e-001 6.123234e-019
      endloop
   endfacet
   facet normal 0.000000e+000 -1.000000e+000 6.123234e-017
      outer loop
         vertex -3.469447e-018 -5.100000e-001 6.123234e-019
         vertex -1.391834e-002 -5.100000e-001 5.592847e-003
         vertex -1.466333e-002 -5.100000e-001 3.160189e-003
      endloop
   endfacet
   facet normal 0.000000e+000 -1.000000e+000 6.123234e-017
      outer loop
         vertex -3.469447e-018 -5.100000e-001 6.123234e-019
         vertex -1.466333e-002 -5.100000e-001 3.160189e-003
         vertex -1.498648e-002 -5.100000e-001 6.366181e-004
      endloop
   endfacet
   facet normal 0.000000e+000 -1.000000e+000 6.123234e-017
      outer loop
         vertex -7.315424e-003 -5.100000e-001 1.309521e-002
         vertex -9.423300e-003 -5.100000e-001 1.167054e-002
         vertex -3.469447e-018 -5.100000e-001 6.123234e-019
      endloop
   endfacet
   facet normal 0.000000e+000 -1.000000e+000 6.123234e-017
      outer loop
         vertex -3.469447e-018 -5.100000e-001 6.123234e-019
         vertex -9.423300e-003 -5.100000e-001 1.167054e-002
         vertex -1.126008e-002 -5.100000e-001 9.910121e-003
      endloop
   endfacet
   facet normal 0.000000e+000 -1.000000e+000 6.123234e-017
      outer loop
         vertex -3.469447e-018 -5.100000e-001 6.123234e-019
         vertex -1.126008e-002 -5.100000e-001 9.910121e-003
         vertex -1.277294e-002 -5.100000e-001 7.864609e-003
      endloop
   endfacet
   facet normal 0.000000e+000 -1.000000e+000 6.123234e-017
      outer loop
         vertex -3.469447e-018 -5.100000e-001 1.500000e-002
         vertex -2.535012e-003 -5.100000e-001 1.478424e-002
         vertex -3.469447e-018 -5.100000e-001 6.123234e-019
      endloop
   endfacet
   facet normal 0.000000e+000 -1.000000e+000 6.123234e-017
      outer loop
         vertex -3.469447e-018 -5.100000e-001 6.123234e-019
         vertex -2.535012e-003 -5.100000e-001 1.478424e-002
         vertex -4.997097e-003 -5.100000e-001 1.414316e-002
      endloop
   endfacet
   facet normal 0.000000e+000 -1.000000e+000 6.123234e-017
      outer loop
         vertex -3.469447e-018 -5.100000e-001 6.123234e-019
         vertex -4.997097e-003 -5.100000e-001 1.414316e-002
         vertex -7.315424e-003 -5.100000e-001 1.309521e-002
      endloop
   endfacet
   facet normal 0.000000e+000 -1.000000e+000 6.123234e-017
      outer loop
         vertex 7.315424e-003 -5.100000e-001 1.309521e-002
         vertex 4.997097e-003 -5.100000e-001 1.414316e-002
         vertex -3.469447e-018 -5.100000e-001 6.123234e-019
      endloop
   endfacet
   facet normal 0.000000e+000 -1.000000e+000 6.123234e-017
      outer loop
         vertex -3.469447e-018 -5.100000e-001 6.123234e-019
         vertex 4.997097e-003 -5.100000e-001 1.414316e-002
         vertex 2.535012e-003 -5.100000e-001 1.478424e-002
      endloop
   endfacet
   facet normal 0.000000e+000 -1.000000e+000 6.123234e-017
      outer loop
         vertex -3.469447e-018 -5.100000e-001 6.123234e-019
         vertex 2.535012e-003 -5.100000e-001 1.478424e-002
         vertex -3.469447e-018 -5.100000e-001 1.500000e-002
      endloop
   endfacet
   facet normal 0.000000e+000 -1.000000e+000 6.123234e-017
      outer loop
         vertex 1.277294e-002 -5.100000e-001 7.864609e-003
         vertex 1.126008e-002 -5.100000e-001 9.910121e-003
         vertex -3.469447e-018 -5.100000e-001 6.123234e-019
      endloop
   endfacet
   facet normal 0.000000e+000 -1.000000e+000 6.123234e-017
      outer loop
         vertex -3.469447e-018 -5.100000e-001 6.123234e-019
         vertex 1.126008e-002 -5.100000e-001 9.910121e-003
         vertex 9.423300e-003 -5.100000e-001 1.167054e-002
      endloop
   endfacet
   facet normal 0.000000e+000 -1.000000e+000 6.123234e-017
      outer loop
         vertex -3.469447e-018 -5.100000e-001 6.123234e-019
         vertex 9.423300e-003 -5.100000e-001 1.167054e-002
         vertex 7.315424e-003 -5.100000e-001 1.309521e-002
      endloop
   endfacet
   facet normal 0.000000e+000 -1.000000e+000 6.123234e-017
      outer loop
         vertex 1.498648e-002 -5.100000e-001 6.366181e-004
         vertex 1.466333e-002 -5.100000e-001 3.160189e-003
         vertex -3.469447e-018 -5.100000e-001 6.123234e-019
      endloop
   endfacet
   facet normal 0.000000e+000 -1.000000e+000 6.123234e-017
      outer loop
         vertex -3.469447e-018 -5.100000e-001 6.123234e-019
         vertex 1.466333e-002 -5.100000e-001 3.160189e-003
         vertex 1.391834e-002 -5.100000e-001 5.592847e-003
      endloop
   endfacet
   facet normal 0.000000e+000 -1.000000e+000 6.123234e-017
      outer loop
         vertex -3.469447e-018 -5.100000e-001 6.123234e-019
         vertex 1.391834e-002 -5.100000e-001 5.592847e-003
         vertex 1.277294e-002 -5.100000e-001 7.864609e-003
      endloop
   endfacet
   facet normal 0.000000e+000 -1.000000e+000 6.123234e-017
      outer loop
         vertex 1.339389e-002 -5.100000e-001 -6.753056e-003
         vertex 1.434250e-002 -5.100000e-001 -4.392342e-003
         vertex -3.469447e-018 -5.100000e-001 6.123234e-019
      endloop
   endfacet
   facet normal 0.000000e+000 -1.000000e+000 6.123234e-017
      outer loop
         vertex -3.469447e-018 -5.100000e-001 6.123234e-019
         vertex 1.434250e-002 -5.100000e-001 -4.392342e-003
         vertex 1.487851e-002 -5.100000e-001 -1.905267e-003
      endloop
   endfacet
   facet normal 0.000000e+000 -1.000000e+000 6.123234e-017
      outer loop
         vertex -3.469447e-018 -5.100000e-001 6.123234e-019
         vertex 1.487851e-002 -5.100000e-001 -1.905267e-003
         vertex 1.498648e-002 -5.100000e-001 6.366181e-004
      endloop
   endfacet
   facet normal 0.000000e+000 -1.000000e+000 6.123234e-017
      outer loop
         vertex 8.399622e-003 -5.100000e-001 -1.242764e-002
         vertex 1.037908e-002 -5.100000e-001 -1.082934e-002
         vertex -3.469447e-018 -5.100000e-001 6.123234e-019
      endloop
   endfacet
   facet normal 0.000000e+000 -1.000000e+000 6.123234e-017
      outer loop
         vertex -3.469447e-018 -5.100000e-001 6.123234e-019
         vertex 1.037908e-002 -5.100000e-001 -1.082934e-002
         vertex 1.205996e-002 -5.100000e-001 -8.919498e-003
      endloop
   endfacet
   facet normal 0.000000e+000 -1.000000e+000 6.123234e-017
      outer loop
         vertex -3.469447e-018 -5.100000e-001 6.123234e-019
         vertex 1.205996e-002 -5.100000e-001 -8.919498e-003
         vertex 1.339389e-002 -5.100000e-001 -6.753056e-003
      endloop
   endfacet
   facet normal 0.000000e+000 -1.000000e+000 6.123234e-017
      outer loop
         vertex 1.272089e-003 -5.100000e-001 -1.494596e-002
         vertex 3.779671e-003 -5.100000e-001 -1.451599e-002
         vertex -3.469447e-018 -5.100000e-001 6.123234e-019
      endloop
   endfacet
   facet normal 0.000000e+000 -1.000000e+000 6.123234e-017
      outer loop
         vertex -3.469447e-018 -5.100000e-001 6.123234e-019
         vertex 3.779671e-003 -5.100000e-001 -1.451599e-002
         vertex 6.178519e-003 -5.100000e-001 -1.366843e-002
      endloop
   endfacet
   facet normal 0.000000e+000 -1.000000e+000 6.123234e-017
      outer loop
         vertex -3.469447e-018 -5.100000e-001 6.123234e-019
         vertex 6.178519e-003 -5.100000e-001 -1.366843e-002
         vertex 8.399622e-003 -5.100000e-001 -1.242764e-002
      endloop
   endfacet
endsolid