solid z_bar_Default_sldprt
   facet normal -1.000000e+000 0.000000e+000 1.301043e-016
      outer loop
         vertex -6.756678e-003 2.000000e-002 -1.657150e-002
         vertex -6.756678e-003 3.000000e-002 -1.657150e-002
         vertex -6.756678e-003 3.000000e-002 -4.657150e-002
      endloop
   endfacet
   facet normal -1.000000e+000 0.000000e+000 1.301043e-016
      outer loop
         vertex -6.756678e-003 1.000000e-002 -1.157149e-002
         vertex -6.756678e-003 0.000000e+000 -1.157149e-002
         vertex -6.756678e-003 0.000000e+000 2.842850e-002
      endloop
   endfacet
   facet normal -1.000000e+000 0.000000e+000 1.301043e-016
      outer loop
         vertex -6.756678e-003 -2.168404e-019 -4.657150e-002
         vertex -6.756678e-003 -3.903128e-018 -1.657150e-002
         vertex -6.756678e-003 1.000000e-002 -1.657150e-002
      endloop
   endfacet
   facet normal -1.000000e+000 0.000000e+000 1.301043e-016
      outer loop
         vertex -6.756678e-003 1.963424e-001 2.842850e-002
         vertex -6.756678e-003 1.963424e-001 -1.157149e-002
         vertex -6.756678e-003 2.000000e-002 -1.157149e-002
      endloop
   endfacet
   facet normal -1.000000e+000 0.000000e+000 1.301043e-016
      outer loop
         vertex -6.756678e-003 3.000000e-002 -4.657150e-002
         vertex -6.756678e-003 -2.168404e-019 -4.657150e-002
         vertex -6.756678e-003 2.000000e-002 -1.657150e-002
      endloop
   endfacet
   facet normal -1.000000e+000 0.000000e+000 1.301043e-016
      outer loop
         vertex -6.756678e-003 2.000000e-002 -1.657150e-002
         vertex -6.756678e-003 -2.168404e-019 -4.657150e-002
         vertex -6.756678e-003 1.000000e-002 -1.657150e-002
      endloop
   endfacet
   facet normal -1.000000e+000 0.000000e+000 1.301043e-016
      outer loop
         vertex -6.756678e-003 2.000000e-002 -1.657150e-002
         vertex -6.756678e-003 1.000000e-002 -1.657150e-002
         vertex -6.756678e-003 2.000000e-002 -1.157149e-002
      endloop
   endfacet
   facet normal -1.000000e+000 0.000000e+000 1.301043e-016
      outer loop
         vertex -6.756678e-003 2.000000e-002 -1.157149e-002
         vertex -6.756678e-003 1.000000e-002 -1.657150e-002
         vertex -6.756678e-003 1.000000e-002 -1.157149e-002
      endloop
   endfacet
   facet normal -1.000000e+000 0.000000e+000 1.301043e-016
      outer loop
         vertex -6.756678e-003 2.000000e-002 -1.157149e-002
         vertex -6.756678e-003 1.000000e-002 -1.157149e-002
         vertex -6.756678e-003 1.963424e-001 2.842850e-002
      endloop
   endfacet
   facet normal -1.000000e+000 0.000000e+000 1.301043e-016
      outer loop
         vertex -6.756678e-003 1.963424e-001 2.842850e-002
         vertex -6.756678e-003 1.000000e-002 -1.157149e-002
         vertex -6.756678e-003 0.000000e+000 2.842850e-002
      endloop
   endfacet
   facet normal 0.000000e+000 0.000000e+000 -1.000000e+000
      outer loop
         vertex 3.324332e-002 0.000000e+000 -1.157149e-002
         vertex -6.756678e-003 0.000000e+000 -1.157149e-002
         vertex 3.324332e-002 1.000000e-002 -1.157149e-002
      endloop
   endfacet
   facet normal 0.000000e+000 0.000000e+000 -1.000000e+000
      outer loop
         vertex 3.324332e-002 1.000000e-002 -1.157149e-002
         vertex -6.756678e-003 0.000000e+000 -1.157149e-002
         vertex -6.756678e-003 1.000000e-002 -1.157149e-002
      endloop
   endfacet
   facet normal 0.000000e+000 0.000000e+000 -1.000000e+000
      outer loop
         vertex -6.756678e-003 5.000000e-001 -1.157149e-002
         vertex 3.324332e-002 5.000000e-001 -1.157149e-002
         vertex -6.756678e-003 4.897538e-001 -1.157149e-002
      endloop
   endfacet
   facet normal 0.000000e+000 0.000000e+000 -1.000000e+000
      outer loop
         vertex -6.756678e-003 4.897538e-001 -1.157149e-002
         vertex 3.324332e-002 5.000000e-001 -1.157149e-002
         vertex 3.324332e-002 4.897538e-001 -1.157149e-002
      endloop
   endfacet
   facet normal -1.000000e+000 0.000000e+000 1.301043e-016
      outer loop
         vertex -6.756678e-003 4.897538e-001 -1.657150e-002
         vertex -6.756678e-003 5.000000e-001 -1.657150e-002
         vertex -6.756678e-003 5.000000e-001 -4.657150e-002
      endloop
   endfacet
   facet normal -1.000000e+000 0.000000e+000 1.301043e-016
      outer loop
         vertex -6.756678e-003 2.363424e-001 2.842850e-002
         vertex -6.756678e-003 5.000000e-001 2.842850e-002
         vertex -6.756678e-003 4.897538e-001 -1.157149e-002
      endloop
   endfacet
   facet normal -1.000000e+000 0.000000e+000 1.301043e-016
      outer loop
         vertex -6.756678e-003 4.897538e-001 -1.157149e-002
         vertex -6.756678e-003 5.000000e-001 2.842850e-002
         vertex -6.756678e-003 5.000000e-001 -1.157149e-002
      endloop
   endfacet
   facet normal -1.000000e+000 0.000000e+000 1.301043e-016
      outer loop
         vertex -6.756678e-003 4.700000e-001 -4.657150e-002
         vertex -6.756678e-003 4.700000e-001 -1.657150e-002
         vertex -6.756678e-003 4.800000e-001 -1.657150e-002
      endloop
   endfacet
   facet normal -1.000000e+000 0.000000e+000 1.301043e-016
      outer loop
         vertex -6.756678e-003 2.363424e-001 -1.157149e-002
         vertex -6.756678e-003 2.363424e-001 2.842850e-002
         vertex -6.756678e-003 4.800000e-001 -1.157149e-002
      endloop
   endfacet
   facet normal -1.000000e+000 0.000000e+000 1.301043e-016
      outer loop
         vertex -6.756678e-003 4.800000e-001 -1.157149e-002
         vertex -6.756678e-003 2.363424e-001 2.842850e-002
         vertex -6.756678e-003 4.897538e-001 -1.157149e-002
      endloop
   endfacet
   facet normal -1.000000e+000 0.000000e+000 1.301043e-016
      outer loop
         vertex -6.756678e-003 4.800000e-001 -1.157149e-002
         vertex -6.756678e-003 4.897538e-001 -1.157149e-002
         vertex -6.756678e-003 4.800000e-001 -1.657150e-002
      endloop
   endfacet
   facet normal -1.000000e+000 0.000000e+000 1.301043e-016
      outer loop
         vertex -6.756678e-003 4.800000e-001 -1.657150e-002
         vertex -6.756678e-003 4.897538e-001 -1.157149e-002
         vertex -6.756678e-003 4.897538e-001 -1.657150e-002
      endloop
   endfacet
   facet normal -1.000000e+000 0.000000e+000 1.301043e-016
      outer loop
         vertex -6.756678e-003 4.800000e-001 -1.657150e-002
         vertex -6.756678e-003 4.897538e-001 -1.657150e-002
         vertex -6.756678e-003 4.700000e-001 -4.657150e-002
      endloop
   endfacet
   facet normal -1.000000e+000 0.000000e+000 1.301043e-016
      outer loop
         vertex -6.756678e-003 4.700000e-001 -4.657150e-002
         vertex -6.756678e-003 4.897538e-001 -1.657150e-002
         vertex -6.756678e-003 5.000000e-001 -4.657150e-002
      endloop
   endfacet
   facet normal 8.673617e-017 0.000000e+000 1.000000e+000
      outer loop
         vertex 3.324332e-002 5.000000e-001 2.842850e-002
         vertex -6.756678e-003 5.000000e-001 2.842850e-002
         vertex -6.756678e-003 2.363424e-001 2.842850e-002
      endloop
   endfacet
   facet normal 8.673617e-017 0.000000e+000 1.000000e+000
      outer loop
         vertex -6.756678e-003 1.963424e-001 2.842850e-002
         vertex -6.756678e-003 0.000000e+000 2.842850e-002
         vertex 3.324332e-002 0.000000e+000 2.842850e-002
      endloop
   endfacet
   facet normal 8.673617e-017 0.000000e+000 1.000000e+000
      outer loop
         vertex -4.675668e-002 2.213424e-001 2.842850e-002
         vertex -4.175668e-002 2.213424e-001 2.842850e-002
         vertex -4.675668e-002 2.363424e-001 2.842850e-002
      endloop
   endfacet
   facet normal 8.673617e-017 0.000000e+000 1.000000e+000
      outer loop
         vertex -4.675668e-002 2.363424e-001 2.842850e-002
         vertex -4.175668e-002 2.213424e-001 2.842850e-002
         vertex -4.175668e-002 2.313424e-001 2.842850e-002
      endloop
   endfacet
   facet normal 8.673617e-017 0.000000e+000 1.000000e+000
      outer loop
         vertex -4.675668e-002 2.363424e-001 2.842850e-002
         vertex -4.175668e-002 2.313424e-001 2.842850e-002
         vertex -6.756678e-003 2.363424e-001 2.842850e-002
      endloop
   endfacet
   facet normal 8.673617e-017 0.000000e+000 1.000000e+000
      outer loop
         vertex -6.756678e-003 2.363424e-001 2.842850e-002
         vertex -4.175668e-002 2.313424e-001 2.842850e-002
         vertex -1.175668e-002 2.313424e-001 2.842850e-002
      endloop
   endfacet
   facet normal 8.673617e-017 0.000000e+000 1.000000e+000
      outer loop
         vertex -6.756678e-003 2.363424e-001 2.842850e-002
         vertex -1.175668e-002 2.313424e-001 2.842850e-002
         vertex -1.175668e-002 2.013424e-001 2.842850e-002
      endloop
   endfacet
   facet normal 8.673617e-017 0.000000e+000 1.000000e+000
      outer loop
         vertex -4.175668e-002 2.113424e-001 2.842850e-002
         vertex -4.675668e-002 2.113424e-001 2.842850e-002
         vertex -4.175668e-002 2.013424e-001 2.842850e-002
      endloop
   endfacet
   facet normal 8.673617e-017 0.000000e+000 1.000000e+000
      outer loop
         vertex -4.175668e-002 2.013424e-001 2.842850e-002
         vertex -4.675668e-002 2.113424e-001 2.842850e-002
         vertex -4.675668e-002 1.963424e-001 2.842850e-002
      endloop
   endfacet
   facet normal 8.673617e-017 0.000000e+000 1.000000e+000
      outer loop
         vertex -4.175668e-002 2.013424e-001 2.842850e-002
         vertex -4.675668e-002 1.963424e-001 2.842850e-002
         vertex -1.175668e-002 2.013424e-001 2.842850e-002
      endloop
   endfacet
   facet normal 8.673617e-017 0.000000e+000 1.000000e+000
      outer loop
         vertex -1.175668e-002 2.013424e-001 2.842850e-002
         vertex -4.675668e-002 1.963424e-001 2.842850e-002
         vertex -6.756678e-003 1.963424e-001 2.842850e-002
      endloop
   endfacet
   facet normal 8.673617e-017 0.000000e+000 1.000000e+000
      outer loop
         vertex -1.175668e-002 2.013424e-001 2.842850e-002
         vertex -6.756678e-003 1.963424e-001 2.842850e-002
         vertex -6.756678e-003 2.363424e-001 2.842850e-002
      endloop
   endfacet
   facet normal 8.673617e-017 0.000000e+000 1.000000e+000
      outer loop
         vertex -6.756678e-003 2.363424e-001 2.842850e-002
         vertex -6.756678e-003 1.963424e-001 2.842850e-002
         vertex 3.324332e-002 0.000000e+000 2.842850e-002
      endloop
   endfacet
   facet normal 8.673617e-017 0.000000e+000 1.000000e+000
      outer loop
         vertex -6.756678e-003 2.363424e-001 2.842850e-002
         vertex 3.324332e-002 0.000000e+000 2.842850e-002
         vertex 3.324332e-002 5.000000e-001 2.842850e-002
      endloop
   endfacet
   facet normal 1.000000e+000 0.000000e+000 0.000000e+000
      outer loop
         vertex 3.324332e-002 4.800000e-001 -1.657150e-002
         vertex 3.324332e-002 4.700000e-001 -1.657150e-002
         vertex 3.324332e-002 4.700000e-001 -4.657150e-002
      endloop
   endfacet
   facet normal 1.000000e+000 0.000000e+000 0.000000e+000
      outer loop
         vertex 3.324332e-002 3.000000e-002 -4.657150e-002
         vertex 3.324332e-002 3.000000e-002 -1.657150e-002
         vertex 3.324332e-002 -2.168404e-019 -4.657150e-002
      endloop
   endfacet
   facet normal 1.000000e+000 0.000000e+000 0.000000e+000
      outer loop
         vertex 3.324332e-002 -2.168404e-019 -4.657150e-002
         vertex 3.324332e-002 3.000000e-002 -1.657150e-002
         vertex 3.324332e-002 2.000000e-002 -1.657150e-002
      endloop
   endfacet
   facet normal 1.000000e+000 0.000000e+000 0.000000e+000
      outer loop
         vertex 3.324332e-002 4.897538e-001 -1.157149e-002
         vertex 3.324332e-002 5.000000e-001 -1.157149e-002
         vertex 3.324332e-002 5.000000e-001 2.842850e-002
      endloop
   endfacet
   facet normal 1.000000e+000 0.000000e+000 0.000000e+000
      outer loop
         vertex 3.324332e-002 5.000000e-001 2.842850e-002
         vertex 3.324332e-002 0.000000e+000 2.842850e-002
         vertex 3.324332e-002 1.000000e-002 -1.157149e-002
      endloop
   endfacet
   facet normal 1.000000e+000 0.000000e+000 0.000000e+000
      outer loop
         vertex 3.324332e-002 1.000000e-002 -1.157149e-002
         vertex 3.324332e-002 0.000000e+000 2.842850e-002
         vertex 3.324332e-002 0.000000e+000 -1.157149e-002
      endloop
   endfacet
   facet normal 1.000000e+000 0.000000e+000 0.000000e+000
      outer loop
         vertex 3.324332e-002 5.000000e-001 -4.657150e-002
         vertex 3.324332e-002 5.000000e-001 -1.657150e-002
         vertex 3.324332e-002 4.897538e-001 -1.657150e-002
      endloop
   endfacet
   facet normal 1.000000e+000 0.000000e+000 0.000000e+000
      outer loop
         vertex 3.324332e-002 4.700000e-001 -4.657150e-002
         vertex 3.324332e-002 5.000000e-001 -4.657150e-002
         vertex 3.324332e-002 4.800000e-001 -1.657150e-002
      endloop
   endfacet
   facet normal 1.000000e+000 0.000000e+000 0.000000e+000
      outer loop
         vertex 3.324332e-002 4.800000e-001 -1.657150e-002
         vertex 3.324332e-002 5.000000e-001 -4.657150e-002
         vertex 3.324332e-002 4.897538e-001 -1.657150e-002
      endloop
   endfacet
   facet normal 1.000000e+000 0.000000e+000 0.000000e+000
      outer loop
         vertex 3.324332e-002 4.800000e-001 -1.657150e-002
         vertex 3.324332e-002 4.897538e-001 -1.657150e-002
         vertex 3.324332e-002 4.800000e-001 -1.157149e-002
      endloop
   endfacet
   facet normal 1.000000e+000 0.000000e+000 0.000000e+000
      outer loop
         vertex 3.324332e-002 4.897538e-001 -1.657150e-002
         vertex 3.324332e-002 4.897538e-001 -1.157149e-002
         vertex 3.324332e-002 4.800000e-001 -1.157149e-002
      endloop
   endfacet
   facet normal 1.000000e+000 0.000000e+000 0.000000e+000
      outer loop
         vertex 3.324332e-002 4.800000e-001 -1.157149e-002
         vertex 3.324332e-002 4.897538e-001 -1.157149e-002
         vertex 3.324332e-002 5.000000e-001 2.842850e-002
      endloop
   endfacet
   facet normal 1.000000e+000 0.000000e+000 0.000000e+000
      outer loop
         vertex 3.324332e-002 4.800000e-001 -1.157149e-002
         vertex 3.324332e-002 5.000000e-001 2.842850e-002
         vertex 3.324332e-002 2.000000e-002 -1.157149e-002
      endloop
   endfacet
   facet normal 1.000000e+000 0.000000e+000 0.000000e+000
      outer loop
         vertex 3.324332e-002 2.000000e-002 -1.157149e-002
         vertex 3.324332e-002 5.000000e-001 2.842850e-002
         vertex 3.324332e-002 1.000000e-002 -1.157149e-002
      endloop
   endfacet
   facet normal 1.000000e+000 0.000000e+000 0.000000e+000
      outer loop
         vertex 3.324332e-002 2.000000e-002 -1.157149e-002
         vertex 3.324332e-002 1.000000e-002 -1.157149e-002
         vertex 3.324332e-002 2.000000e-002 -1.657150e-002
      endloop
   endfacet
   facet normal 1.000000e+000 0.000000e+000 0.000000e+000
      outer loop
         vertex 3.324332e-002 2.000000e-002 -1.657150e-002
         vertex 3.324332e-002 1.000000e-002 -1.157149e-002
         vertex 3.324332e-002 1.000000e-002 -1.657150e-002
      endloop
   endfacet
   facet normal 1.000000e+000 0.000000e+000 0.000000e+000
      outer loop
         vertex 3.324332e-002 2.000000e-002 -1.657150e-002
         vertex 3.324332e-002 1.000000e-002 -1.657150e-002
         vertex 3.324332e-002 -2.168404e-019 -4.657150e-002
      endloop
   endfacet
   facet normal 1.000000e+000 0.000000e+000 0.000000e+000
      outer loop
         vertex 3.324332e-002 -2.168404e-019 -4.657150e-002
         vertex 3.324332e-002 1.000000e-002 -1.657150e-002
         vertex 3.324332e-002 -3.903128e-018 -1.657150e-002
      endloop
   endfacet
   facet normal 0.000000e+000 0.000000e+000 -1.000000e+000
      outer loop
         vertex 3.324332e-002 2.000000e-002 -1.157149e-002
         vertex -6.756678e-003 2.000000e-002 -1.157149e-002
         vertex -6.756678e-003 1.963424e-001 -1.157149e-002
      endloop
   endfacet
   facet normal 0.000000e+000 0.000000e+000 -1.000000e+000
      outer loop
         vertex -6.756678e-003 2.363424e-001 -1.157149e-002
         vertex -6.756678e-003 4.800000e-001 -1.157149e-002
         vertex 3.324332e-002 4.800000e-001 -1.157149e-002
      endloop
   endfacet
   facet normal 0.000000e+000 0.000000e+000 -1.000000e+000
      outer loop
         vertex -4.675668e-002 2.113424e-001 -1.157149e-002
         vertex -4.175668e-002 2.113424e-001 -1.157149e-002
         vertex -4.675668e-002 1.963424e-001 -1.157149e-002
      endloop
   endfacet
   facet normal 0.000000e+000 0.000000e+000 -1.000000e+000
      outer loop
         vertex -4.675668e-002 1.963424e-001 -1.157149e-002
         vertex -4.175668e-002 2.113424e-001 -1.157149e-002
         vertex -4.175668e-002 2.013424e-001 -1.157149e-002
      endloop
   endfacet
   facet normal 0.000000e+000 0.000000e+000 -1.000000e+000
      outer loop
         vertex -4.675668e-002 1.963424e-001 -1.157149e-002
         vertex -4.175668e-002 2.013424e-001 -1.157149e-002
         vertex -6.756678e-003 1.963424e-001 -1.157149e-002
      endloop
   endfacet
   facet normal 0.000000e+000 0.000000e+000 -1.000000e+000
      outer loop
         vertex -6.756678e-003 1.963424e-001 -1.157149e-002
         vertex -4.175668e-002 2.013424e-001 -1.157149e-002
         vertex -1.175668e-002 2.013424e-001 -1.157149e-002
      endloop
   endfacet
   facet normal 0.000000e+000 0.000000e+000 -1.000000e+000
      outer loop
         vertex -6.756678e-003 1.963424e-001 -1.157149e-002
         vertex -1.175668e-002 2.013424e-001 -1.157149e-002
         vertex -1.175668e-002 2.313424e-001 -1.157149e-002
      endloop
   endfacet
   facet normal 0.000000e+000 0.000000e+000 -1.000000e+000
      outer loop
         vertex -4.175668e-002 2.213424e-001 -1.157149e-002
         vertex -4.675668e-002 2.213424e-001 -1.157149e-002
         vertex -4.175668e-002 2.313424e-001 -1.157149e-002
      endloop
   endfacet
   facet normal 0.000000e+000 0.000000e+000 -1.000000e+000
      outer loop
         vertex -4.175668e-002 2.313424e-001 -1.157149e-002
         vertex -4.675668e-002 2.213424e-001 -1.157149e-002
         vertex -4.675668e-002 2.363424e-001 -1.157149e-002
      endloop
   endfacet
   facet normal 0.000000e+000 0.000000e+000 -1.000000e+000
      outer loop
         vertex -4.175668e-002 2.313424e-001 -1.157149e-002
         vertex -4.675668e-002 2.363424e-001 -1.157149e-002
         vertex -1.175668e-002 2.313424e-001 -1.157149e-002
      endloop
   endfacet
   facet normal 0.000000e+000 0.000000e+000 -1.000000e+000
      outer loop
         vertex -1.175668e-002 2.313424e-001 -1.157149e-002
         vertex -4.675668e-002 2.363424e-001 -1.157149e-002
         vertex -6.756678e-003 2.363424e-001 -1.157149e-002
      endloop
   endfacet
   facet normal 0.000000e+000 0.000000e+000 -1.000000e+000
      outer loop
         vertex -1.175668e-002 2.313424e-001 -1.157149e-002
         vertex -6.756678e-003 2.363424e-001 -1.157149e-002
         vertex -6.756678e-003 1.963424e-001 -1.157149e-002
      endloop
   endfacet
   facet normal 0.000000e+000 0.000000e+000 -1.000000e+000
      outer loop
         vertex -6.756678e-003 1.963424e-001 -1.157149e-002
         vertex -6.756678e-003 2.363424e-001 -1.157149e-002
         vertex 3.324332e-002 4.800000e-001 -1.157149e-002
      endloop
   endfacet
   facet normal 0.000000e+000 0.000000e+000 -1.000000e+000
      outer loop
         vertex -6.756678e-003 1.963424e-001 -1.157149e-002
         vertex 3.324332e-002 4.800000e-001 -1.157149e-002
         vertex 3.324332e-002 2.000000e-002 -1.157149e-002
      endloop
   endfacet
   facet normal 0.000000e+000 1.000000e+000 0.000000e+000
      outer loop
         vertex 3.324332e-002 5.000000e-001 2.842850e-002
         vertex 3.324332e-002 5.000000e-001 -1.157149e-002
         vertex -6.756678e-003 5.000000e-001 2.842850e-002
      endloop
   endfacet
   facet normal 0.000000e+000 1.000000e+000 0.000000e+000
      outer loop
         vertex -6.756678e-003 5.000000e-001 2.842850e-002
         vertex 3.324332e-002 5.000000e-001 -1.157149e-002
         vertex -6.756678e-003 5.000000e-001 -1.157149e-002
      endloop
   endfacet
   facet normal 0.000000e+000 -1.000000e+000 0.000000e+000
      outer loop
         vertex 3.324332e-002 0.000000e+000 -1.157149e-002
         vertex 3.324332e-002 0.000000e+000 2.842850e-002
         vertex -6.756678e-003 0.000000e+000 -1.157149e-002
      endloop
   endfacet
   facet normal 0.000000e+000 -1.000000e+000 0.000000e+000
      outer loop
         vertex -6.756678e-003 0.000000e+000 -1.157149e-002
         vertex 3.324332e-002 0.000000e+000 2.842850e-002
         vertex -6.756678e-003 0.000000e+000 2.842850e-002
      endloop
   endfacet
   facet normal 0.000000e+000 0.000000e+000 -1.000000e+000
      outer loop
         vertex -6.756678e-003 4.700000e-001 -4.657150e-002
         vertex -6.756678e-003 5.000000e-001 -4.657150e-002
         vertex 3.324332e-002 4.700000e-001 -4.657150e-002
      endloop
   endfacet
   facet normal 0.000000e+000 0.000000e+000 -1.000000e+000
      outer loop
         vertex 3.324332e-002 4.700000e-001 -4.657150e-002
         vertex -6.756678e-003 5.000000e-001 -4.657150e-002
         vertex 3.324332e-002 5.000000e-001 -4.657150e-002
      endloop
   endfacet
   facet normal 0.000000e+000 -1.000000e+000 0.000000e+000
      outer loop
         vertex -6.756678e-003 4.700000e-001 -1.657150e-002
         vertex -6.756678e-003 4.700000e-001 -4.657150e-002
         vertex 3.324332e-002 4.700000e-001 -1.657150e-002
      endloop
   endfacet
   facet normal 0.000000e+000 -1.000000e+000 0.000000e+000
      outer loop
         vertex 3.324332e-002 4.700000e-001 -1.657150e-002
         vertex -6.756678e-003 4.700000e-001 -4.657150e-002
         vertex 3.324332e-002 4.700000e-001 -4.657150e-002
      endloop
   endfacet
   facet normal 0.000000e+000 -3.469447e-016 1.000000e+000
      outer loop
         vertex -6.756678e-003 4.800000e-001 -1.657150e-002
         vertex -6.756678e-003 4.700000e-001 -1.657150e-002
         vertex 3.324332e-002 4.800000e-001 -1.657150e-002
      endloop
   endfacet
   facet normal 0.000000e+000 -3.469447e-016 1.000000e+000
      outer loop
         vertex 3.324332e-002 4.800000e-001 -1.657150e-002
         vertex -6.756678e-003 4.700000e-001 -1.657150e-002
         vertex 3.324332e-002 4.700000e-001 -1.657150e-002
      endloop
   endfacet
   facet normal 0.000000e+000 -1.000000e+000 0.000000e+000
      outer loop
         vertex -6.756678e-003 4.800000e-001 -1.157149e-002
         vertex -6.756678e-003 4.800000e-001 -1.657150e-002
         vertex 3.324332e-002 4.800000e-001 -1.157149e-002
      endloop
   endfacet
   facet normal 0.000000e+000 -1.000000e+000 0.000000e+000
      outer loop
         vertex 3.324332e-002 4.800000e-001 -1.157149e-002
         vertex -6.756678e-003 4.800000e-001 -1.657150e-002
         vertex 3.324332e-002 4.800000e-001 -1.657150e-002
      endloop
   endfacet
   facet normal 0.000000e+000 1.000000e+000 0.000000e+000
      outer loop
         vertex -6.756678e-003 4.897538e-001 -1.657150e-002
         vertex -6.756678e-003 4.897538e-001 -1.157149e-002
         vertex 3.324332e-002 4.897538e-001 -1.657150e-002
      endloop
   endfacet
   facet normal 0.000000e+000 1.000000e+000 0.000000e+000
      outer loop
         vertex 3.324332e-002 4.897538e-001 -1.657150e-002
         vertex -6.756678e-003 4.897538e-001 -1.157149e-002
         vertex 3.324332e-002 4.897538e-001 -1.157149e-002
      endloop
   endfacet
   facet normal 0.000000e+000 0.000000e+000 1.000000e+000
      outer loop
         vertex -6.756678e-003 5.000000e-001 -1.657150e-002
         vertex -6.756678e-003 4.897538e-001 -1.657150e-002
         vertex 3.324332e-002 5.000000e-001 -1.657150e-002
      endloop
   endfacet
   facet normal 0.000000e+000 0.000000e+000 1.000000e+000
      outer loop
         vertex 3.324332e-002 5.000000e-001 -1.657150e-002
         vertex -6.756678e-003 4.897538e-001 -1.657150e-002
         vertex 3.324332e-002 4.897538e-001 -1.657150e-002
      endloop
   endfacet
   facet normal 0.000000e+000 1.000000e+000 0.000000e+000
      outer loop
         vertex -6.756678e-003 5.000000e-001 -4.657150e-002
         vertex -6.756678e-003 5.000000e-001 -1.657150e-002
         vertex 3.324332e-002 5.000000e-001 -4.657150e-002
      endloop
   endfacet
   facet normal 0.000000e+000 1.000000e+000 0.000000e+000
      outer loop
         vertex 3.324332e-002 5.000000e-001 -4.657150e-002
         vertex -6.756678e-003 5.000000e-001 -1.657150e-002
         vertex 3.324332e-002 5.000000e-001 -1.657150e-002
      endloop
   endfacet
   facet normal 0.000000e+000 2.312965e-016 -1.000000e+000
      outer loop
         vertex -6.756678e-003 -2.168404e-019 -4.657150e-002
         vertex -6.756678e-003 3.000000e-002 -4.657150e-002
         vertex 3.324332e-002 -2.168404e-019 -4.657150e-002
      endloop
   endfacet
   facet normal 0.000000e+000 2.312965e-016 -1.000000e+000
      outer loop
         vertex 3.324332e-002 -2.168404e-019 -4.657150e-002
         vertex -6.756678e-003 3.000000e-002 -4.657150e-002
         vertex 3.324332e-002 3.000000e-002 -4.657150e-002
      endloop
   endfacet
   facet normal 0.000000e+000 -1.000000e+000 -1.228763e-016
      outer loop
         vertex -6.756678e-003 -3.903128e-018 -1.657150e-002
         vertex -6.756678e-003 -2.168404e-019 -4.657150e-002
         vertex 3.324332e-002 -3.903128e-018 -1.657150e-002
      endloop
   endfacet
   facet normal 0.000000e+000 -1.000000e+000 -1.228763e-016
      outer loop
         vertex 3.324332e-002 -3.903128e-018 -1.657150e-002
         vertex -6.756678e-003 -2.168404e-019 -4.657150e-002
         vertex 3.324332e-002 -2.168404e-019 -4.657150e-002
      endloop
   endfacet
   facet normal 0.000000e+000 0.000000e+000 1.000000e+000
      outer loop
         vertex -6.756678e-003 1.000000e-002 -1.657150e-002
         vertex -6.756678e-003 -3.903128e-018 -1.657150e-002
         vertex 3.324332e-002 1.000000e-002 -1.657150e-002
      endloop
   endfacet
   facet normal 0.000000e+000 0.000000e+000 1.000000e+000
      outer loop
         vertex 3.324332e-002 1.000000e-002 -1.657150e-002
         vertex -6.756678e-003 -3.903128e-018 -1.657150e-002
         vertex 3.324332e-002 -3.903128e-018 -1.657150e-002
      endloop
   endfacet
   facet normal 0.000000e+000 -1.000000e+000 -3.469447e-016
      outer loop
         vertex -6.756678e-003 1.000000e-002 -1.157149e-002
         vertex -6.756678e-003 1.000000e-002 -1.657150e-002
         vertex 3.324332e-002 1.000000e-002 -1.157149e-002
      endloop
   endfacet
   facet normal 0.000000e+000 -1.000000e+000 -3.469447e-016
      outer loop
         vertex 3.324332e-002 1.000000e-002 -1.157149e-002
         vertex -6.756678e-003 1.000000e-002 -1.657150e-002
         vertex 3.324332e-002 1.000000e-002 -1.657150e-002
      endloop
   endfacet
   facet normal 0.000000e+000 1.000000e+000 0.000000e+000
      outer loop
         vertex -6.756678e-003 2.000000e-002 -1.657150e-002
         vertex -6.756678e-003 2.000000e-002 -1.157149e-002
         vertex 3.324332e-002 2.000000e-002 -1.657150e-002
      endloop
   endfacet
   facet normal 0.000000e+000 1.000000e+000 0.000000e+000
      outer loop
         vertex 3.324332e-002 2.000000e-002 -1.657150e-002
         vertex -6.756678e-003 2.000000e-002 -1.157149e-002
         vertex 3.324332e-002 2.000000e-002 -1.157149e-002
      endloop
   endfacet
   facet normal 0.000000e+000 -3.469447e-016 1.000000e+000
      outer loop
         vertex -6.756678e-003 3.000000e-002 -1.657150e-002
         vertex -6.756678e-003 2.000000e-002 -1.657150e-002
         vertex 3.324332e-002 3.000000e-002 -1.657150e-002
      endloop
   endfacet
   facet normal 0.000000e+000 -3.469447e-016 1.000000e+000
      outer loop
         vertex 3.324332e-002 3.000000e-002 -1.657150e-002
         vertex -6.756678e-003 2.000000e-002 -1.657150e-002
         vertex 3.324332e-002 2.000000e-002 -1.657150e-002
      endloop
   endfacet
   facet normal 0.000000e+000 1.000000e+000 0.000000e+000
      outer loop
         vertex -6.756678e-003 3.000000e-002 -4.657150e-002
         vertex -6.756678e-003 3.000000e-002 -1.657150e-002
         vertex 3.324332e-002 3.000000e-002 -4.657150e-002
      endloop
   endfacet
   facet normal 0.000000e+000 1.000000e+000 0.000000e+000
      outer loop
         vertex 3.324332e-002 3.000000e-002 -4.657150e-002
         vertex -6.756678e-003 3.000000e-002 -1.657150e-002
         vertex 3.324332e-002 3.000000e-002 -1.657150e-002
      endloop
   endfacet
   facet normal 0.000000e+000 -1.000000e+000 0.000000e+000
      outer loop
         vertex -4.675668e-002 1.963424e-001 -1.157149e-002
         vertex -6.756678e-003 1.963424e-001 -1.157149e-002
         vertex -4.675668e-002 1.963424e-001 2.842850e-002
      endloop
   endfacet
   facet normal 0.000000e+000 -1.000000e+000 0.000000e+000
      outer loop
         vertex -4.675668e-002 1.963424e-001 2.842850e-002
         vertex -6.756678e-003 1.963424e-001 -1.157149e-002
         vertex -6.756678e-003 1.963424e-001 2.842850e-002
      endloop
   endfacet
   facet normal -1.000000e+000 0.000000e+000 0.000000e+000
      outer loop
         vertex -4.675668e-002 2.113424e-001 -1.157149e-002
         vertex -4.675668e-002 1.963424e-001 -1.157149e-002
         vertex -4.675668e-002 2.113424e-001 2.842850e-002
      endloop
   endfacet
   facet normal -1.000000e+000 0.000000e+000 0.000000e+000
      outer loop
         vertex -4.675668e-002 2.113424e-001 2.842850e-002
         vertex -4.675668e-002 1.963424e-001 -1.157149e-002
         vertex -4.675668e-002 1.963424e-001 2.842850e-002
      endloop
   endfacet
   facet normal 0.000000e+000 1.000000e+000 0.000000e+000
      outer loop
         vertex -4.175668e-002 2.113424e-001 -1.157149e-002
         vertex -4.675668e-002 2.113424e-001 -1.157149e-002
         vertex -4.175668e-002 2.113424e-001 2.842850e-002
      endloop
   endfacet
   facet normal 0.000000e+000 1.000000e+000 0.000000e+000
      outer loop
         vertex -4.175668e-002 2.113424e-001 2.842850e-002
         vertex -4.675668e-002 2.113424e-001 -1.157149e-002
         vertex -4.675668e-002 2.113424e-001 2.842850e-002
      endloop
   endfacet
   facet normal 1.000000e+000 0.000000e+000 0.000000e+000
      outer loop
         vertex -4.175668e-002 2.013424e-001 -1.157149e-002
         vertex -4.175668e-002 2.113424e-001 -1.157149e-002
         vertex -4.175668e-002 2.013424e-001 2.842850e-002
      endloop
   endfacet
   facet normal 1.000000e+000 0.000000e+000 0.000000e+000
      outer loop
         vertex -4.175668e-002 2.013424e-001 2.842850e-002
         vertex -4.175668e-002 2.113424e-001 -1.157149e-002
         vertex -4.175668e-002 2.113424e-001 2.842850e-002
      endloop
   endfacet
   facet normal 0.000000e+000 1.000000e+000 0.000000e+000
      outer loop
         vertex -1.175668e-002 2.013424e-001 -1.157149e-002
         vertex -4.175668e-002 2.013424e-001 -1.157149e-002
         vertex -1.175668e-002 2.013424e-001 2.842850e-002
      endloop
   endfacet
   facet normal 0.000000e+000 1.000000e+000 0.000000e+000
      outer loop
         vertex -1.175668e-002 2.013424e-001 2.842850e-002
         vertex -4.175668e-002 2.013424e-001 -1.157149e-002
         vertex -4.175668e-002 2.013424e-001 2.842850e-002
      endloop
   endfacet
   facet normal -1.000000e+000 0.000000e+000 0.000000e+000
      outer loop
         vertex -1.175668e-002 2.313424e-001 -1.157149e-002
         vertex -1.175668e-002 2.013424e-001 -1.157149e-002
         vertex -1.175668e-002 2.313424e-001 2.842850e-002
      endloop
   endfacet
   facet normal -1.000000e+000 0.000000e+000 0.000000e+000
      outer loop
         vertex -1.175668e-002 2.313424e-001 2.842850e-002
         vertex -1.175668e-002 2.013424e-001 -1.157149e-002
         vertex -1.175668e-002 2.013424e-001 2.842850e-002
      endloop
   endfacet
   facet normal 0.000000e+000 -1.000000e+000 0.000000e+000
      outer loop
         vertex -4.175668e-002 2.313424e-001 -1.157149e-002
         vertex -1.175668e-002 2.313424e-001 -1.157149e-002
         vertex -4.175668e-002 2.313424e-001 2.842850e-002
      endloop
   endfacet
   facet normal 0.000000e+000 -1.000000e+000 0.000000e+000
      outer loop
         vertex -4.175668e-002 2.313424e-001 2.842850e-002
         vertex -1.175668e-002 2.313424e-001 -1.157149e-002
         vertex -1.175668e-002 2.313424e-001 2.842850e-002
      endloop
   endfacet
   facet normal 1.000000e+000 0.000000e+000 0.000000e+000
      outer loop
         vertex -4.175668e-002 2.213424e-001 -1.157149e-002
         vertex -4.175668e-002 2.313424e-001 -1.157149e-002
         vertex -4.175668e-002 2.213424e-001 2.842850e-002
      endloop
   endfacet
   facet normal 1.000000e+000 0.000000e+000 0.000000e+000
      outer loop
         vertex -4.175668e-002 2.213424e-001 2.842850e-002
         vertex -4.175668e-002 2.313424e-001 -1.157149e-002
         vertex -4.175668e-002 2.313424e-001 2.842850e-002
      endloop
   endfacet
   facet normal 0.000000e+000 -1.000000e+000 0.000000e+000
      outer loop
         vertex -4.675668e-002 2.213424e-001 -1.157149e-002
         vertex -4.175668e-002 2.213424e-001 -1.157149e-002
         vertex -4.675668e-002 2.213424e-001 2.842850e-002
      endloop
   endfacet
   facet normal 0.000000e+000 -1.000000e+000 0.000000e+000
      outer loop
         vertex -4.675668e-002 2.213424e-001 2.842850e-002
         vertex -4.175668e-002 2.213424e-001 -1.157149e-002
         vertex -4.175668e-002 2.213424e-001 2.842850e-002
      endloop
   endfacet
   facet normal -1.000000e+000 0.000000e+000 0.000000e+000
      outer loop
         vertex -4.675668e-002 2.363424e-001 -1.157149e-002
         vertex -4.675668e-002 2.213424e-001 -1.157149e-002
         vertex -4.675668e-002 2.363424e-001 2.842850e-002
      endloop
   endfacet
   facet normal -1.000000e+000 0.000000e+000 0.000000e+000
      outer loop
         vertex -4.675668e-002 2.363424e-001 2.842850e-002
         vertex -4.675668e-002 2.213424e-001 -1.157149e-002
         vertex -4.675668e-002 2.213424e-001 2.842850e-002
      endloop
   endfacet
   facet normal 0.000000e+000 1.000000e+000 0.000000e+000
      outer loop
         vertex -6.756678e-003 2.363424e-001 -1.157149e-002
         vertex -4.675668e-002 2.363424e-001 -1.157149e-002
         vertex -6.756678e-003 2.363424e-001 2.842850e-002
      endloop
   endfacet
   facet normal 0.000000e+000 1.000000e+000 0.000000e+000
      outer loop
         vertex -6.756678e-003 2.363424e-001 2.842850e-002
         vertex -4.675668e-002 2.363424e-001 -1.157149e-002
         vertex -4.675668e-002 2.363424e-001 2.842850e-002
      endloop
   endfacet
endsolid